%TF.GenerationSoftware,KiCad,Pcbnew,(7.0.0)*%
%TF.CreationDate,2023-03-18T03:14:20-07:00*%
%TF.ProjectId,Voltage_Sensor_Timer,566f6c74-6167-4655-9f53-656e736f725f,0*%
%TF.SameCoordinates,Original*%
%TF.FileFunction,Legend,Bot*%
%TF.FilePolarity,Positive*%
%FSLAX46Y46*%
G04 Gerber Fmt 4.6, Leading zero omitted, Abs format (unit mm)*
G04 Created by KiCad (PCBNEW (7.0.0)) date 2023-03-18 03:14:20*
%MOMM*%
%LPD*%
G01*
G04 APERTURE LIST*
%ADD10C,0.150000*%
%ADD11C,0.120000*%
%ADD12C,0.101600*%
G04 APERTURE END LIST*
D10*
X123919060Y-86897472D02*
X123609536Y-86361361D01*
X123609536Y-86361361D02*
X123446288Y-86840512D01*
X123446288Y-86840512D02*
X123374860Y-86716795D01*
X123374860Y-86716795D02*
X123286001Y-86658125D01*
X123286001Y-86658125D02*
X123220953Y-86640696D01*
X123220953Y-86640696D02*
X123114664Y-86647075D01*
X123114664Y-86647075D02*
X122908468Y-86766123D01*
X122908468Y-86766123D02*
X122849799Y-86854981D01*
X122849799Y-86854981D02*
X122832369Y-86920030D01*
X122832369Y-86920030D02*
X122838749Y-87026318D01*
X122838749Y-87026318D02*
X122981606Y-87273754D01*
X122981606Y-87273754D02*
X123070464Y-87332423D01*
X123070464Y-87332423D02*
X123135513Y-87349853D01*
X122611704Y-86442588D02*
X122546655Y-86425158D01*
X122546655Y-86425158D02*
X122529225Y-86490207D01*
X122529225Y-86490207D02*
X122594274Y-86507637D01*
X122594274Y-86507637D02*
X122611704Y-86442588D01*
X122611704Y-86442588D02*
X122529225Y-86490207D01*
X122267320Y-86036575D02*
X122172082Y-85871618D01*
X122172082Y-85871618D02*
X122165703Y-85765330D01*
X122165703Y-85765330D02*
X122183132Y-85700281D01*
X122183132Y-85700281D02*
X122259231Y-85546374D01*
X122259231Y-85546374D02*
X122400379Y-85409897D01*
X122400379Y-85409897D02*
X122730293Y-85219420D01*
X122730293Y-85219420D02*
X122836582Y-85213041D01*
X122836582Y-85213041D02*
X122901630Y-85230470D01*
X122901630Y-85230470D02*
X122990489Y-85289140D01*
X122990489Y-85289140D02*
X123085727Y-85454097D01*
X123085727Y-85454097D02*
X123092107Y-85560385D01*
X123092107Y-85560385D02*
X123074677Y-85625434D01*
X123074677Y-85625434D02*
X123016008Y-85714292D01*
X123016008Y-85714292D02*
X122809811Y-85833340D01*
X122809811Y-85833340D02*
X122703523Y-85839719D01*
X122703523Y-85839719D02*
X122638474Y-85822290D01*
X122638474Y-85822290D02*
X122549616Y-85763621D01*
X122549616Y-85763621D02*
X122454378Y-85598663D01*
X122454378Y-85598663D02*
X122447998Y-85492375D01*
X122447998Y-85492375D02*
X122465428Y-85427326D01*
X122465428Y-85427326D02*
X122524097Y-85338468D01*
X121514940Y-84733413D02*
X122380965Y-84233413D01*
X122380965Y-84233413D02*
X121595709Y-84301881D01*
X121595709Y-84301881D02*
X122047632Y-83656063D01*
X122047632Y-83656063D02*
X121181606Y-84156063D01*
X120872082Y-83619952D02*
X120960941Y-83678621D01*
X120960941Y-83678621D02*
X121025990Y-83696051D01*
X121025990Y-83696051D02*
X121132278Y-83689671D01*
X121132278Y-83689671D02*
X121379714Y-83546814D01*
X121379714Y-83546814D02*
X121438383Y-83457956D01*
X121438383Y-83457956D02*
X121455812Y-83392907D01*
X121455812Y-83392907D02*
X121449433Y-83286619D01*
X121449433Y-83286619D02*
X121378004Y-83162901D01*
X121378004Y-83162901D02*
X121289146Y-83104232D01*
X121289146Y-83104232D02*
X121224097Y-83086802D01*
X121224097Y-83086802D02*
X121117809Y-83093182D01*
X121117809Y-83093182D02*
X120870373Y-83236039D01*
X120870373Y-83236039D02*
X120811704Y-83324897D01*
X120811704Y-83324897D02*
X120794274Y-83389946D01*
X120794274Y-83389946D02*
X120800654Y-83496234D01*
X120800654Y-83496234D02*
X120872082Y-83619952D01*
X120491130Y-82960123D02*
X121357155Y-82460123D01*
X120276844Y-82588969D02*
X120730477Y-82327065D01*
X120730477Y-82327065D02*
X120836765Y-82320685D01*
X120836765Y-82320685D02*
X120925623Y-82379354D01*
X120925623Y-82379354D02*
X120997052Y-82503072D01*
X120997052Y-82503072D02*
X121003431Y-82609360D01*
X121003431Y-82609360D02*
X120986002Y-82674409D01*
X120038749Y-82176576D02*
X120616099Y-81843243D01*
X120533621Y-81890862D02*
X120551050Y-81825813D01*
X120551050Y-81825813D02*
X120544671Y-81719525D01*
X120544671Y-81719525D02*
X120473242Y-81595807D01*
X120473242Y-81595807D02*
X120384384Y-81537138D01*
X120384384Y-81537138D02*
X120278096Y-81543518D01*
X120278096Y-81543518D02*
X119824463Y-81805423D01*
X120278096Y-81543518D02*
X120336765Y-81454659D01*
X120336765Y-81454659D02*
X120330385Y-81348371D01*
X120330385Y-81348371D02*
X120258956Y-81224653D01*
X120258956Y-81224653D02*
X120170098Y-81165984D01*
X120170098Y-81165984D02*
X120063810Y-81172364D01*
X120063810Y-81172364D02*
X119610178Y-81434269D01*
X119437131Y-81039306D02*
X119348273Y-80980637D01*
X119348273Y-80980637D02*
X119253035Y-80815680D01*
X119253035Y-80815680D02*
X119246655Y-80709391D01*
X119246655Y-80709391D02*
X119305324Y-80620533D01*
X119305324Y-80620533D02*
X119346564Y-80596724D01*
X119346564Y-80596724D02*
X119452852Y-80590344D01*
X119452852Y-80590344D02*
X119541710Y-80649013D01*
X119541710Y-80649013D02*
X119613139Y-80772731D01*
X119613139Y-80772731D02*
X119701997Y-80831400D01*
X119701997Y-80831400D02*
X119808285Y-80825020D01*
X119808285Y-80825020D02*
X119849524Y-80801211D01*
X119849524Y-80801211D02*
X119908193Y-80712352D01*
X119908193Y-80712352D02*
X119901814Y-80606064D01*
X119901814Y-80606064D02*
X119830385Y-80482346D01*
X119830385Y-80482346D02*
X119741527Y-80423677D01*
X183024082Y-81556908D02*
X182714558Y-82093019D01*
X182714558Y-82093019D02*
X183211139Y-81994820D01*
X183211139Y-81994820D02*
X183139711Y-82118538D01*
X183139711Y-82118538D02*
X183133331Y-82224826D01*
X183133331Y-82224826D02*
X183150761Y-82289875D01*
X183150761Y-82289875D02*
X183209430Y-82378733D01*
X183209430Y-82378733D02*
X183415626Y-82497781D01*
X183415626Y-82497781D02*
X183521914Y-82504161D01*
X183521914Y-82504161D02*
X183586963Y-82486731D01*
X183586963Y-82486731D02*
X183675822Y-82428062D01*
X183675822Y-82428062D02*
X183818679Y-82180626D01*
X183818679Y-82180626D02*
X183825058Y-82074338D01*
X183825058Y-82074338D02*
X183807629Y-82009289D01*
X183283819Y-82916554D02*
X183301249Y-82981602D01*
X183301249Y-82981602D02*
X183366298Y-82964173D01*
X183366298Y-82964173D02*
X183348868Y-82899124D01*
X183348868Y-82899124D02*
X183283819Y-82916554D01*
X183283819Y-82916554D02*
X183366298Y-82964173D01*
X183104393Y-83417805D02*
X183009155Y-83582762D01*
X183009155Y-83582762D02*
X182920297Y-83641431D01*
X182920297Y-83641431D02*
X182855248Y-83658861D01*
X182855248Y-83658861D02*
X182683911Y-83669911D01*
X182683911Y-83669911D02*
X182495144Y-83615912D01*
X182495144Y-83615912D02*
X182165230Y-83425436D01*
X182165230Y-83425436D02*
X182106561Y-83336577D01*
X182106561Y-83336577D02*
X182089131Y-83271529D01*
X182089131Y-83271529D02*
X182095511Y-83165240D01*
X182095511Y-83165240D02*
X182190749Y-83000283D01*
X182190749Y-83000283D02*
X182279607Y-82941614D01*
X182279607Y-82941614D02*
X182344656Y-82924184D01*
X182344656Y-82924184D02*
X182450944Y-82930564D01*
X182450944Y-82930564D02*
X182657141Y-83049612D01*
X182657141Y-83049612D02*
X182715810Y-83138470D01*
X182715810Y-83138470D02*
X182733239Y-83203519D01*
X182733239Y-83203519D02*
X182726860Y-83309807D01*
X182726860Y-83309807D02*
X182631622Y-83474764D01*
X182631622Y-83474764D02*
X182542763Y-83533433D01*
X182542763Y-83533433D02*
X182477714Y-83550863D01*
X182477714Y-83550863D02*
X182371426Y-83544483D01*
X182352012Y-84720967D02*
X181485987Y-84220967D01*
X181485987Y-84220967D02*
X181937910Y-84866785D01*
X181937910Y-84866785D02*
X181152654Y-84798317D01*
X181152654Y-84798317D02*
X182018679Y-85298317D01*
X181709155Y-85834428D02*
X181715535Y-85728140D01*
X181715535Y-85728140D02*
X181698105Y-85663091D01*
X181698105Y-85663091D02*
X181639436Y-85574232D01*
X181639436Y-85574232D02*
X181392000Y-85431375D01*
X181392000Y-85431375D02*
X181285712Y-85424996D01*
X181285712Y-85424996D02*
X181220663Y-85442425D01*
X181220663Y-85442425D02*
X181131805Y-85501094D01*
X181131805Y-85501094D02*
X181060376Y-85624812D01*
X181060376Y-85624812D02*
X181053997Y-85731100D01*
X181053997Y-85731100D02*
X181071426Y-85796149D01*
X181071426Y-85796149D02*
X181130095Y-85885008D01*
X181130095Y-85885008D02*
X181377531Y-86027865D01*
X181377531Y-86027865D02*
X181483819Y-86034245D01*
X181483819Y-86034245D02*
X181548868Y-86016815D01*
X181548868Y-86016815D02*
X181637727Y-85958146D01*
X181637727Y-85958146D02*
X181709155Y-85834428D01*
X181328203Y-86494257D02*
X180462177Y-85994257D01*
X181113917Y-86865410D02*
X180660285Y-86603506D01*
X180660285Y-86603506D02*
X180601616Y-86514647D01*
X180601616Y-86514647D02*
X180607995Y-86408359D01*
X180607995Y-86408359D02*
X180679424Y-86284641D01*
X180679424Y-86284641D02*
X180768282Y-86225972D01*
X180768282Y-86225972D02*
X180833331Y-86208542D01*
X180875822Y-87277804D02*
X180298471Y-86944470D01*
X180380950Y-86992089D02*
X180315901Y-87009519D01*
X180315901Y-87009519D02*
X180227043Y-87068188D01*
X180227043Y-87068188D02*
X180155614Y-87191906D01*
X180155614Y-87191906D02*
X180149235Y-87298194D01*
X180149235Y-87298194D02*
X180207904Y-87387053D01*
X180207904Y-87387053D02*
X180661536Y-87648957D01*
X180207904Y-87387053D02*
X180101616Y-87380673D01*
X180101616Y-87380673D02*
X180012757Y-87439342D01*
X180012757Y-87439342D02*
X179941329Y-87563060D01*
X179941329Y-87563060D02*
X179934949Y-87669348D01*
X179934949Y-87669348D02*
X179993618Y-87758206D01*
X179993618Y-87758206D02*
X180447250Y-88020111D01*
X151887333Y-97091523D02*
X151887333Y-96615333D01*
X151601619Y-97186761D02*
X152601619Y-96853428D01*
X152601619Y-96853428D02*
X151601619Y-96520095D01*
X151601619Y-96186761D02*
X152601619Y-96186761D01*
X152601619Y-96186761D02*
X152601619Y-95948666D01*
X152601619Y-95948666D02*
X152554000Y-95805809D01*
X152554000Y-95805809D02*
X152458761Y-95710571D01*
X152458761Y-95710571D02*
X152363523Y-95662952D01*
X152363523Y-95662952D02*
X152173047Y-95615333D01*
X152173047Y-95615333D02*
X152030190Y-95615333D01*
X152030190Y-95615333D02*
X151839714Y-95662952D01*
X151839714Y-95662952D02*
X151744476Y-95710571D01*
X151744476Y-95710571D02*
X151649238Y-95805809D01*
X151649238Y-95805809D02*
X151601619Y-95948666D01*
X151601619Y-95948666D02*
X151601619Y-96186761D01*
X151649238Y-95234380D02*
X151601619Y-95091523D01*
X151601619Y-95091523D02*
X151601619Y-94853428D01*
X151601619Y-94853428D02*
X151649238Y-94758190D01*
X151649238Y-94758190D02*
X151696857Y-94710571D01*
X151696857Y-94710571D02*
X151792095Y-94662952D01*
X151792095Y-94662952D02*
X151887333Y-94662952D01*
X151887333Y-94662952D02*
X151982571Y-94710571D01*
X151982571Y-94710571D02*
X152030190Y-94758190D01*
X152030190Y-94758190D02*
X152077809Y-94853428D01*
X152077809Y-94853428D02*
X152125428Y-95043904D01*
X152125428Y-95043904D02*
X152173047Y-95139142D01*
X152173047Y-95139142D02*
X152220666Y-95186761D01*
X152220666Y-95186761D02*
X152315904Y-95234380D01*
X152315904Y-95234380D02*
X152411142Y-95234380D01*
X152411142Y-95234380D02*
X152506380Y-95186761D01*
X152506380Y-95186761D02*
X152554000Y-95139142D01*
X152554000Y-95139142D02*
X152601619Y-95043904D01*
X152601619Y-95043904D02*
X152601619Y-94805809D01*
X152601619Y-94805809D02*
X152554000Y-94662952D01*
X151601619Y-93710571D02*
X151601619Y-94281999D01*
X151601619Y-93996285D02*
X152601619Y-93996285D01*
X152601619Y-93996285D02*
X152458761Y-94091523D01*
X152458761Y-94091523D02*
X152363523Y-94186761D01*
X152363523Y-94186761D02*
X152315904Y-94281999D01*
X152601619Y-93091523D02*
X152601619Y-92996285D01*
X152601619Y-92996285D02*
X152554000Y-92901047D01*
X152554000Y-92901047D02*
X152506380Y-92853428D01*
X152506380Y-92853428D02*
X152411142Y-92805809D01*
X152411142Y-92805809D02*
X152220666Y-92758190D01*
X152220666Y-92758190D02*
X151982571Y-92758190D01*
X151982571Y-92758190D02*
X151792095Y-92805809D01*
X151792095Y-92805809D02*
X151696857Y-92853428D01*
X151696857Y-92853428D02*
X151649238Y-92901047D01*
X151649238Y-92901047D02*
X151601619Y-92996285D01*
X151601619Y-92996285D02*
X151601619Y-93091523D01*
X151601619Y-93091523D02*
X151649238Y-93186761D01*
X151649238Y-93186761D02*
X151696857Y-93234380D01*
X151696857Y-93234380D02*
X151792095Y-93281999D01*
X151792095Y-93281999D02*
X151982571Y-93329618D01*
X151982571Y-93329618D02*
X152220666Y-93329618D01*
X152220666Y-93329618D02*
X152411142Y-93281999D01*
X152411142Y-93281999D02*
X152506380Y-93234380D01*
X152506380Y-93234380D02*
X152554000Y-93186761D01*
X152554000Y-93186761D02*
X152601619Y-93091523D01*
X151601619Y-91805809D02*
X151601619Y-92377237D01*
X151601619Y-92091523D02*
X152601619Y-92091523D01*
X152601619Y-92091523D02*
X152458761Y-92186761D01*
X152458761Y-92186761D02*
X152363523Y-92281999D01*
X152363523Y-92281999D02*
X152315904Y-92377237D01*
X152601619Y-90901047D02*
X152601619Y-91377237D01*
X152601619Y-91377237D02*
X152125428Y-91424856D01*
X152125428Y-91424856D02*
X152173047Y-91377237D01*
X152173047Y-91377237D02*
X152220666Y-91281999D01*
X152220666Y-91281999D02*
X152220666Y-91043904D01*
X152220666Y-91043904D02*
X152173047Y-90948666D01*
X152173047Y-90948666D02*
X152125428Y-90901047D01*
X152125428Y-90901047D02*
X152030190Y-90853428D01*
X152030190Y-90853428D02*
X151792095Y-90853428D01*
X151792095Y-90853428D02*
X151696857Y-90901047D01*
X151696857Y-90901047D02*
X151649238Y-90948666D01*
X151649238Y-90948666D02*
X151601619Y-91043904D01*
X151601619Y-91043904D02*
X151601619Y-91281999D01*
X151601619Y-91281999D02*
X151649238Y-91377237D01*
X151649238Y-91377237D02*
X151696857Y-91424856D01*
%TO.C,J2*%
X126135854Y-110089359D02*
X126135854Y-110803645D01*
X126135854Y-110803645D02*
X126183473Y-110946502D01*
X126183473Y-110946502D02*
X126278711Y-111041740D01*
X126278711Y-111041740D02*
X126421568Y-111089359D01*
X126421568Y-111089359D02*
X126516806Y-111089359D01*
X125707282Y-110184598D02*
X125659663Y-110136979D01*
X125659663Y-110136979D02*
X125564425Y-110089359D01*
X125564425Y-110089359D02*
X125326330Y-110089359D01*
X125326330Y-110089359D02*
X125231092Y-110136979D01*
X125231092Y-110136979D02*
X125183473Y-110184598D01*
X125183473Y-110184598D02*
X125135854Y-110279836D01*
X125135854Y-110279836D02*
X125135854Y-110375074D01*
X125135854Y-110375074D02*
X125183473Y-110517931D01*
X125183473Y-110517931D02*
X125754901Y-111089359D01*
X125754901Y-111089359D02*
X125135854Y-111089359D01*
D11*
%TO.C,R2*%
X189617769Y-82929252D02*
X184547769Y-91710749D01*
X189202077Y-82689252D02*
X189617769Y-82929252D01*
X186707923Y-81249252D02*
X186292231Y-81009252D01*
X186292231Y-81009252D02*
X181222231Y-89790749D01*
X184547769Y-91710749D02*
X184132077Y-91470749D01*
X181222231Y-89790749D02*
X181637923Y-90030749D01*
D12*
%TO.C,J2*%
X126327780Y-82768724D02*
X126327780Y-105628724D01*
D11*
X127012521Y-81451979D02*
X129672521Y-81451979D01*
X127012521Y-104371979D02*
X127012521Y-81451979D01*
X127012521Y-104371979D02*
X129672521Y-104371979D01*
X128342521Y-106971979D02*
X129672521Y-106971979D01*
D12*
X128867780Y-108168724D02*
X146647780Y-108168724D01*
D11*
X129672521Y-104371979D02*
X129672521Y-81451979D01*
X129672521Y-106971979D02*
X129672521Y-105641979D01*
D12*
X146647780Y-80228724D02*
X128867780Y-80228724D01*
X149187780Y-105628724D02*
X149187780Y-82768724D01*
X128867780Y-80228724D02*
G75*
G03*
X126327780Y-82768724I1J-2540001D01*
G01*
X126327780Y-105628724D02*
G75*
G03*
X128867780Y-108168724I2540001J1D01*
G01*
X149187776Y-82768724D02*
G75*
G03*
X146647780Y-80228724I-2539955J45D01*
G01*
X146647780Y-108168718D02*
G75*
G03*
X149187780Y-105628724I1J2539999D01*
G01*
D11*
%TO.C,R4*%
X116305000Y-89792436D02*
X116305000Y-90246564D01*
X114835000Y-89792436D02*
X114835000Y-90246564D01*
%TO.C,J1*%
X115585000Y-94934000D02*
X114315000Y-94934000D01*
X114315000Y-94934000D02*
X114315000Y-96204000D01*
X121045000Y-97246929D02*
X121045000Y-97701071D01*
X120285000Y-97246929D02*
X120285000Y-97701071D01*
X118505000Y-97246929D02*
X118505000Y-97701071D01*
X117745000Y-97246929D02*
X117745000Y-97701071D01*
X115965000Y-97314000D02*
X115965000Y-97701071D01*
X115205000Y-97314000D02*
X115205000Y-97701071D01*
X121045000Y-99786929D02*
X121045000Y-100184000D01*
X120285000Y-99786929D02*
X120285000Y-100184000D01*
X118505000Y-99786929D02*
X118505000Y-100184000D01*
X117745000Y-99786929D02*
X117745000Y-100184000D01*
X115965000Y-99786929D02*
X115965000Y-100184000D01*
X115205000Y-99786929D02*
X115205000Y-100184000D01*
X121995000Y-100184000D02*
X121995000Y-102844000D01*
X119395000Y-100184000D02*
X119395000Y-102844000D01*
X116855000Y-100184000D02*
X116855000Y-102844000D01*
X114255000Y-100184000D02*
X121995000Y-100184000D01*
X121995000Y-102844000D02*
X114255000Y-102844000D01*
X120285000Y-102844000D02*
X120285000Y-108844000D01*
X117745000Y-102844000D02*
X117745000Y-108844000D01*
X115865000Y-102844000D02*
X115865000Y-108844000D01*
X115745000Y-102844000D02*
X115745000Y-108844000D01*
X115625000Y-102844000D02*
X115625000Y-108844000D01*
X115505000Y-102844000D02*
X115505000Y-108844000D01*
X115385000Y-102844000D02*
X115385000Y-108844000D01*
X115265000Y-102844000D02*
X115265000Y-108844000D01*
X115205000Y-102844000D02*
X115205000Y-108844000D01*
X114255000Y-102844000D02*
X114255000Y-100184000D01*
X121045000Y-108844000D02*
X121045000Y-102844000D01*
X120285000Y-108844000D02*
X121045000Y-108844000D01*
X118505000Y-108844000D02*
X118505000Y-102844000D01*
X117745000Y-108844000D02*
X118505000Y-108844000D01*
X115965000Y-108844000D02*
X115965000Y-102844000D01*
X115205000Y-108844000D02*
X115965000Y-108844000D01*
%TO.C,J4*%
X184404000Y-94742000D02*
X183134000Y-94742000D01*
X183134000Y-94742000D02*
X183134000Y-96012000D01*
X189864000Y-97054929D02*
X189864000Y-97509071D01*
X189104000Y-97054929D02*
X189104000Y-97509071D01*
X187324000Y-97054929D02*
X187324000Y-97509071D01*
X186564000Y-97054929D02*
X186564000Y-97509071D01*
X184784000Y-97122000D02*
X184784000Y-97509071D01*
X184024000Y-97122000D02*
X184024000Y-97509071D01*
X189864000Y-99594929D02*
X189864000Y-99992000D01*
X189104000Y-99594929D02*
X189104000Y-99992000D01*
X187324000Y-99594929D02*
X187324000Y-99992000D01*
X186564000Y-99594929D02*
X186564000Y-99992000D01*
X184784000Y-99594929D02*
X184784000Y-99992000D01*
X184024000Y-99594929D02*
X184024000Y-99992000D01*
X190814000Y-99992000D02*
X190814000Y-102652000D01*
X188214000Y-99992000D02*
X188214000Y-102652000D01*
X185674000Y-99992000D02*
X185674000Y-102652000D01*
X183074000Y-99992000D02*
X190814000Y-99992000D01*
X190814000Y-102652000D02*
X183074000Y-102652000D01*
X189104000Y-102652000D02*
X189104000Y-108652000D01*
X186564000Y-102652000D02*
X186564000Y-108652000D01*
X184684000Y-102652000D02*
X184684000Y-108652000D01*
X184564000Y-102652000D02*
X184564000Y-108652000D01*
X184444000Y-102652000D02*
X184444000Y-108652000D01*
X184324000Y-102652000D02*
X184324000Y-108652000D01*
X184204000Y-102652000D02*
X184204000Y-108652000D01*
X184084000Y-102652000D02*
X184084000Y-108652000D01*
X184024000Y-102652000D02*
X184024000Y-108652000D01*
X183074000Y-102652000D02*
X183074000Y-99992000D01*
X189864000Y-108652000D02*
X189864000Y-102652000D01*
X189104000Y-108652000D02*
X189864000Y-108652000D01*
X187324000Y-108652000D02*
X187324000Y-102652000D01*
X186564000Y-108652000D02*
X187324000Y-108652000D01*
X184784000Y-108652000D02*
X184784000Y-102652000D01*
X184024000Y-108652000D02*
X184784000Y-108652000D01*
%TO.C,R1*%
X190981000Y-88926936D02*
X190981000Y-89381064D01*
X189511000Y-88926936D02*
X189511000Y-89381064D01*
%TO.C,R3*%
X118253769Y-81263252D02*
X123323769Y-90044749D01*
X117838077Y-81503252D02*
X118253769Y-81263252D01*
X115343923Y-82943252D02*
X114928231Y-83183252D01*
X114928231Y-83183252D02*
X119998231Y-91964749D01*
X123323769Y-90044749D02*
X122908077Y-90284749D01*
X119998231Y-91964749D02*
X120413923Y-91724749D01*
%TD*%
M02*
