M48
; DRILL file {KiCad (7.0.0)} date Mon Dec  4 19:22:31 2023
; FORMAT={-:-/ absolute / inch / decimal}
; #@! TF.CreationDate,2023-12-04T19:22:31-08:00
; #@! TF.GenerationSoftware,Kicad,Pcbnew,(7.0.0)
; #@! TF.FileFunction,Plated,1,2,PTH
FMAT,2
INCH
; #@! TA.AperFunction,Plated,PTH,ViaDrill
T1C0.0157
; #@! TA.AperFunction,Plated,PTH,ComponentDrill
T2C0.0394
; #@! TA.AperFunction,Plated,PTH,ComponentDrill
T3C0.0472
%
G90
G05
T1
X5.18Y-3.22
X5.1969Y-3.6031
X5.2Y-3.48
X6.41Y-4.07
T2
X4.5506Y-3.7876
X4.5506Y-3.8876
X4.6506Y-3.7876
X4.6506Y-3.8876
X4.7506Y-3.7876
X4.7506Y-3.8876
X5.0529Y-3.2591
X5.0529Y-3.3591
X5.0529Y-3.4591
X5.0529Y-3.5591
X5.0529Y-3.6591
X5.0529Y-3.7591
X5.0529Y-3.8591
X5.0529Y-3.9591
X5.0529Y-4.0591
X5.0529Y-4.1591
X5.65Y-3.3499
X5.65Y-4.25
X5.75Y-3.3499
X5.75Y-4.25
X5.85Y-3.3499
X5.85Y-4.25
X5.95Y-3.3499
X5.95Y-4.25
X6.05Y-3.3499
X6.05Y-4.25
X6.15Y-3.3499
X6.15Y-4.25
X6.25Y-3.3499
X6.25Y-4.25
X6.35Y-3.3499
X6.35Y-4.25
X6.45Y-3.3499
X6.45Y-4.25
X6.55Y-3.3499
X6.55Y-4.25
X6.65Y-3.3499
X6.65Y-4.25
X6.75Y-3.3499
X6.75Y-4.25
X7.26Y-3.78
X7.26Y-3.88
X7.36Y-3.78
X7.36Y-3.88
X7.46Y-3.78
X7.46Y-3.88
T3
X4.565Y-3.1935
X4.815Y-3.6265
X5.46Y-3.19
X5.96Y-3.19
X6.33Y-3.19
X6.83Y-3.19
X7.175Y-3.6165
X7.425Y-3.1835
T0
M30
