%TF.GenerationSoftware,KiCad,Pcbnew,(7.0.0)*%
%TF.CreationDate,2023-12-04T19:22:37-08:00*%
%TF.ProjectId,Top_Board,546f705f-426f-4617-9264-2e6b69636164,0*%
%TF.SameCoordinates,Original*%
%TF.FileFunction,Soldermask,Top*%
%TF.FilePolarity,Negative*%
%FSLAX46Y46*%
G04 Gerber Fmt 4.6, Leading zero omitted, Abs format (unit mm)*
G04 Created by KiCad (PCBNEW (7.0.0)) date 2023-12-04 19:22:37*
%MOMM*%
%LPD*%
G01*
G04 APERTURE LIST*
G04 Aperture macros list*
%AMHorizOval*
0 Thick line with rounded ends*
0 $1 width*
0 $2 $3 position (X,Y) of the first rounded end (center of the circle)*
0 $4 $5 position (X,Y) of the second rounded end (center of the circle)*
0 Add line between two ends*
20,1,$1,$2,$3,$4,$5,0*
0 Add two circle primitives to create the rounded ends*
1,1,$1,$2,$3*
1,1,$1,$4,$5*%
G04 Aperture macros list end*
%ADD10C,2.000000*%
%ADD11C,2.400000*%
%ADD12HorizOval,2.400000X0.000000X0.000000X0.000000X0.000000X0*%
%ADD13C,1.700000*%
%ADD14O,1.700000X1.700000*%
%ADD15HorizOval,2.400000X0.000000X0.000000X0.000000X0.000000X0*%
%ADD16O,2.400000X2.400000*%
G04 APERTURE END LIST*
D10*
%TO.C,U1*%
X171450000Y-107950000D03*
X168910000Y-107950000D03*
X166370000Y-107950000D03*
X163830000Y-107950000D03*
X161290000Y-107950000D03*
X158750000Y-107950000D03*
X156210000Y-107950000D03*
X153670000Y-107950000D03*
X151130000Y-107950000D03*
X148590000Y-107950000D03*
X146050000Y-107950000D03*
X143510000Y-107950000D03*
X171450000Y-85088136D03*
X168910000Y-85088136D03*
X166370000Y-85088136D03*
X163830000Y-85088136D03*
X161290000Y-85088136D03*
X158750000Y-85088136D03*
X156210000Y-85088136D03*
X153670000Y-85088136D03*
X151130000Y-85088136D03*
X148590000Y-85088136D03*
X146050000Y-85088136D03*
X143510000Y-85088136D03*
%TD*%
D11*
%TO.C,R2*%
X188595000Y-80860739D03*
D12*
X182244999Y-91859261D03*
%TD*%
D13*
%TO.C,J2*%
X128342521Y-105641979D03*
D14*
X128342520Y-103101978D03*
D13*
X128342521Y-100561979D03*
D14*
X128342520Y-98021978D03*
X128342520Y-95481978D03*
X128342520Y-92941978D03*
X128342520Y-90401978D03*
X128342520Y-87861978D03*
X128342520Y-85321978D03*
X128342520Y-82781978D03*
%TD*%
D13*
%TO.C,J1*%
X115585000Y-96204000D03*
D14*
X115584999Y-98743999D03*
X118124999Y-96203999D03*
X118124999Y-98743999D03*
X120664999Y-96203999D03*
X120664999Y-98743999D03*
%TD*%
D13*
%TO.C,J4*%
X184404000Y-96012000D03*
D14*
X184403999Y-98551999D03*
X186943999Y-96011999D03*
X186943999Y-98551999D03*
X189483999Y-96011999D03*
X189483999Y-98551999D03*
%TD*%
D11*
%TO.C,R3*%
X115951000Y-81114739D03*
D15*
X122300999Y-92113261D03*
%TD*%
D11*
%TO.C,R6*%
X160782000Y-81026000D03*
D16*
X173481999Y-81025999D03*
%TD*%
D11*
%TO.C,R8*%
X138684000Y-81026000D03*
D16*
X151383999Y-81025999D03*
%TD*%
M02*
