%TF.GenerationSoftware,KiCad,Pcbnew,(7.0.0)*%
%TF.CreationDate,2023-12-04T19:22:37-08:00*%
%TF.ProjectId,Top_Board,546f705f-426f-4617-9264-2e6b69636164,0*%
%TF.SameCoordinates,Original*%
%TF.FileFunction,Copper,L2,Bot*%
%TF.FilePolarity,Positive*%
%FSLAX46Y46*%
G04 Gerber Fmt 4.6, Leading zero omitted, Abs format (unit mm)*
G04 Created by KiCad (PCBNEW (7.0.0)) date 2023-12-04 19:22:37*
%MOMM*%
%LPD*%
G01*
G04 APERTURE LIST*
G04 Aperture macros list*
%AMRoundRect*
0 Rectangle with rounded corners*
0 $1 Rounding radius*
0 $2 $3 $4 $5 $6 $7 $8 $9 X,Y pos of 4 corners*
0 Add a 4 corners polygon primitive as box body*
4,1,4,$2,$3,$4,$5,$6,$7,$8,$9,$2,$3,0*
0 Add four circle primitives for the rounded corners*
1,1,$1+$1,$2,$3*
1,1,$1+$1,$4,$5*
1,1,$1+$1,$6,$7*
1,1,$1+$1,$8,$9*
0 Add four rect primitives between the rounded corners*
20,1,$1+$1,$2,$3,$4,$5,0*
20,1,$1+$1,$4,$5,$6,$7,0*
20,1,$1+$1,$6,$7,$8,$9,0*
20,1,$1+$1,$8,$9,$2,$3,0*%
%AMHorizOval*
0 Thick line with rounded ends*
0 $1 width*
0 $2 $3 position (X,Y) of the first rounded end (center of the circle)*
0 $4 $5 position (X,Y) of the second rounded end (center of the circle)*
0 Add line between two ends*
20,1,$1,$2,$3,$4,$5,0*
0 Add two circle primitives to create the rounded ends*
1,1,$1,$2,$3*
1,1,$1,$4,$5*%
G04 Aperture macros list end*
%ADD10C,0.300000*%
%TA.AperFunction,NonConductor*%
%ADD11C,0.300000*%
%TD*%
%TA.AperFunction,NonConductor*%
%ADD12C,0.200000*%
%TD*%
%TA.AperFunction,ComponentPad*%
%ADD13C,2.000000*%
%TD*%
%TA.AperFunction,ComponentPad*%
%ADD14C,2.400000*%
%TD*%
%TA.AperFunction,ComponentPad*%
%ADD15HorizOval,2.400000X0.000000X0.000000X0.000000X0.000000X0*%
%TD*%
%TA.AperFunction,ComponentPad*%
%ADD16C,1.700000*%
%TD*%
%TA.AperFunction,ComponentPad*%
%ADD17O,1.700000X1.700000*%
%TD*%
%TA.AperFunction,SMDPad,CuDef*%
%ADD18RoundRect,0.250000X-0.450000X0.262500X-0.450000X-0.262500X0.450000X-0.262500X0.450000X0.262500X0*%
%TD*%
%TA.AperFunction,SMDPad,CuDef*%
%ADD19RoundRect,0.250000X-0.262500X-0.450000X0.262500X-0.450000X0.262500X0.450000X-0.262500X0.450000X0*%
%TD*%
%TA.AperFunction,ComponentPad*%
%ADD20HorizOval,2.400000X0.000000X0.000000X0.000000X0.000000X0*%
%TD*%
%TA.AperFunction,ComponentPad*%
%ADD21O,2.400000X2.400000*%
%TD*%
%TA.AperFunction,ViaPad*%
%ADD22C,0.800000*%
%TD*%
%TA.AperFunction,Conductor*%
%ADD23C,0.250000*%
%TD*%
G04 APERTURE END LIST*
D10*
D11*
X145650647Y-120441071D02*
X146650647Y-120441071D01*
X146650647Y-120441071D02*
X146007790Y-121941071D01*
X147436361Y-121083928D02*
X147293504Y-121012500D01*
X147293504Y-121012500D02*
X147222075Y-120941071D01*
X147222075Y-120941071D02*
X147150647Y-120798214D01*
X147150647Y-120798214D02*
X147150647Y-120726785D01*
X147150647Y-120726785D02*
X147222075Y-120583928D01*
X147222075Y-120583928D02*
X147293504Y-120512500D01*
X147293504Y-120512500D02*
X147436361Y-120441071D01*
X147436361Y-120441071D02*
X147722075Y-120441071D01*
X147722075Y-120441071D02*
X147864933Y-120512500D01*
X147864933Y-120512500D02*
X147936361Y-120583928D01*
X147936361Y-120583928D02*
X148007790Y-120726785D01*
X148007790Y-120726785D02*
X148007790Y-120798214D01*
X148007790Y-120798214D02*
X147936361Y-120941071D01*
X147936361Y-120941071D02*
X147864933Y-121012500D01*
X147864933Y-121012500D02*
X147722075Y-121083928D01*
X147722075Y-121083928D02*
X147436361Y-121083928D01*
X147436361Y-121083928D02*
X147293504Y-121155357D01*
X147293504Y-121155357D02*
X147222075Y-121226785D01*
X147222075Y-121226785D02*
X147150647Y-121369642D01*
X147150647Y-121369642D02*
X147150647Y-121655357D01*
X147150647Y-121655357D02*
X147222075Y-121798214D01*
X147222075Y-121798214D02*
X147293504Y-121869642D01*
X147293504Y-121869642D02*
X147436361Y-121941071D01*
X147436361Y-121941071D02*
X147722075Y-121941071D01*
X147722075Y-121941071D02*
X147864933Y-121869642D01*
X147864933Y-121869642D02*
X147936361Y-121798214D01*
X147936361Y-121798214D02*
X148007790Y-121655357D01*
X148007790Y-121655357D02*
X148007790Y-121369642D01*
X148007790Y-121369642D02*
X147936361Y-121226785D01*
X147936361Y-121226785D02*
X147864933Y-121155357D01*
X147864933Y-121155357D02*
X147722075Y-121083928D01*
X148650646Y-121798214D02*
X148722075Y-121869642D01*
X148722075Y-121869642D02*
X148650646Y-121941071D01*
X148650646Y-121941071D02*
X148579218Y-121869642D01*
X148579218Y-121869642D02*
X148650646Y-121798214D01*
X148650646Y-121798214D02*
X148650646Y-121941071D01*
X149222075Y-120441071D02*
X150222075Y-120441071D01*
X150222075Y-120441071D02*
X149579218Y-121941071D01*
X151436361Y-120941071D02*
X151436361Y-121941071D01*
X151079218Y-120369642D02*
X150722075Y-121441071D01*
X150722075Y-121441071D02*
X151650646Y-121441071D01*
X152507789Y-120441071D02*
X152650646Y-120441071D01*
X152650646Y-120441071D02*
X152793503Y-120512500D01*
X152793503Y-120512500D02*
X152864932Y-120583928D01*
X152864932Y-120583928D02*
X152936360Y-120726785D01*
X152936360Y-120726785D02*
X153007789Y-121012500D01*
X153007789Y-121012500D02*
X153007789Y-121369642D01*
X153007789Y-121369642D02*
X152936360Y-121655357D01*
X152936360Y-121655357D02*
X152864932Y-121798214D01*
X152864932Y-121798214D02*
X152793503Y-121869642D01*
X152793503Y-121869642D02*
X152650646Y-121941071D01*
X152650646Y-121941071D02*
X152507789Y-121941071D01*
X152507789Y-121941071D02*
X152364932Y-121869642D01*
X152364932Y-121869642D02*
X152293503Y-121798214D01*
X152293503Y-121798214D02*
X152222074Y-121655357D01*
X152222074Y-121655357D02*
X152150646Y-121369642D01*
X152150646Y-121369642D02*
X152150646Y-121012500D01*
X152150646Y-121012500D02*
X152222074Y-120726785D01*
X152222074Y-120726785D02*
X152293503Y-120583928D01*
X152293503Y-120583928D02*
X152364932Y-120512500D01*
X152364932Y-120512500D02*
X152507789Y-120441071D01*
X153936360Y-120441071D02*
X154079217Y-120441071D01*
X154079217Y-120441071D02*
X154222074Y-120512500D01*
X154222074Y-120512500D02*
X154293503Y-120583928D01*
X154293503Y-120583928D02*
X154364931Y-120726785D01*
X154364931Y-120726785D02*
X154436360Y-121012500D01*
X154436360Y-121012500D02*
X154436360Y-121369642D01*
X154436360Y-121369642D02*
X154364931Y-121655357D01*
X154364931Y-121655357D02*
X154293503Y-121798214D01*
X154293503Y-121798214D02*
X154222074Y-121869642D01*
X154222074Y-121869642D02*
X154079217Y-121941071D01*
X154079217Y-121941071D02*
X153936360Y-121941071D01*
X153936360Y-121941071D02*
X153793503Y-121869642D01*
X153793503Y-121869642D02*
X153722074Y-121798214D01*
X153722074Y-121798214D02*
X153650645Y-121655357D01*
X153650645Y-121655357D02*
X153579217Y-121369642D01*
X153579217Y-121369642D02*
X153579217Y-121012500D01*
X153579217Y-121012500D02*
X153650645Y-120726785D01*
X153650645Y-120726785D02*
X153722074Y-120583928D01*
X153722074Y-120583928D02*
X153793503Y-120512500D01*
X153793503Y-120512500D02*
X153936360Y-120441071D01*
X155979216Y-121941071D02*
X155979216Y-120941071D01*
X155979216Y-121083928D02*
X156050645Y-121012500D01*
X156050645Y-121012500D02*
X156193502Y-120941071D01*
X156193502Y-120941071D02*
X156407788Y-120941071D01*
X156407788Y-120941071D02*
X156550645Y-121012500D01*
X156550645Y-121012500D02*
X156622074Y-121155357D01*
X156622074Y-121155357D02*
X156622074Y-121941071D01*
X156622074Y-121155357D02*
X156693502Y-121012500D01*
X156693502Y-121012500D02*
X156836359Y-120941071D01*
X156836359Y-120941071D02*
X157050645Y-120941071D01*
X157050645Y-120941071D02*
X157193502Y-121012500D01*
X157193502Y-121012500D02*
X157264931Y-121155357D01*
X157264931Y-121155357D02*
X157264931Y-121941071D01*
X157979216Y-121941071D02*
X157979216Y-120941071D01*
X157979216Y-121083928D02*
X158050645Y-121012500D01*
X158050645Y-121012500D02*
X158193502Y-120941071D01*
X158193502Y-120941071D02*
X158407788Y-120941071D01*
X158407788Y-120941071D02*
X158550645Y-121012500D01*
X158550645Y-121012500D02*
X158622074Y-121155357D01*
X158622074Y-121155357D02*
X158622074Y-121941071D01*
X158622074Y-121155357D02*
X158693502Y-121012500D01*
X158693502Y-121012500D02*
X158836359Y-120941071D01*
X158836359Y-120941071D02*
X159050645Y-120941071D01*
X159050645Y-120941071D02*
X159193502Y-121012500D01*
X159193502Y-121012500D02*
X159264931Y-121155357D01*
X159264931Y-121155357D02*
X159264931Y-121941071D01*
D12*
X191899218Y-110228000D02*
X191899218Y-123776420D01*
X113159218Y-110228000D02*
X113159218Y-123776420D01*
X191899218Y-123190000D02*
X113159218Y-123190000D01*
X191899218Y-123190000D02*
X113159218Y-123190000D01*
X191899218Y-123190000D02*
X190772714Y-123776421D01*
X191899218Y-123190000D02*
X190772714Y-122603579D01*
X113159218Y-123190000D02*
X114285722Y-122603579D01*
X113159218Y-123190000D02*
X114285722Y-123776421D01*
D13*
%TO.P,U1,1,3v*%
%TO.N,3V*%
X171450000Y-107950000D03*
%TO.P,U1,2,1*%
%TO.N,unconnected-(U1-1-Pad2)*%
X168910000Y-107950000D03*
%TO.P,U1,3,2*%
%TO.N,unconnected-(U1-2-Pad3)*%
X166370000Y-107950000D03*
%TO.P,U1,4,3*%
%TO.N,unconnected-(U1-3-Pad4)*%
X163830000Y-107950000D03*
%TO.P,U1,5,10*%
%TO.N,D10*%
X161290000Y-107950000D03*
%TO.P,U1,6,11*%
%TO.N,D11*%
X158750000Y-107950000D03*
%TO.P,U1,7,12*%
%TO.N,SDA*%
X156210000Y-107950000D03*
%TO.P,U1,8,13*%
%TO.N,SCL*%
X153670000Y-107950000D03*
%TO.P,U1,9,NC*%
%TO.N,unconnected-(U1-NC-Pad9)*%
X151130000Y-107950000D03*
%TO.P,U1,10,NC*%
%TO.N,unconnected-(U1-NC-Pad10)*%
X148590000Y-107950000D03*
%TO.P,U1,11,GND*%
%TO.N,GND*%
X146050000Y-107950000D03*
%TO.P,U1,12,5V*%
%TO.N,5V*%
X143510000Y-107950000D03*
%TO.P,U1,13,GND*%
%TO.N,GND*%
X171450000Y-85088136D03*
%TO.P,U1,14,GND*%
X168910000Y-85088136D03*
%TO.P,U1,15,43*%
%TO.N,D43*%
X166370000Y-85088136D03*
%TO.P,U1,16,44*%
%TO.N,D44*%
X163830000Y-85088136D03*
%TO.P,U1,17,18*%
%TO.N,D18*%
X161290000Y-85088136D03*
%TO.P,U1,18,17*%
%TO.N,D17*%
X158750000Y-85088136D03*
%TO.P,U1,19,21*%
%TO.N,unconnected-(U1-21-Pad19)*%
X156210000Y-85088136D03*
%TO.P,U1,20,16*%
%TO.N,unconnected-(U1-16-Pad20)*%
X153670000Y-85088136D03*
%TO.P,U1,21,NC*%
%TO.N,unconnected-(U1-NC-Pad21)*%
X151130000Y-85088136D03*
%TO.P,U1,22,GND*%
%TO.N,GND*%
X148590000Y-85088136D03*
%TO.P,U1,23,GND*%
X146050000Y-85088136D03*
%TO.P,U1,24,3v*%
%TO.N,unconnected-(U1-3v-Pad24)*%
X143510000Y-85088136D03*
%TD*%
D14*
%TO.P,R2,1*%
%TO.N,AN0*%
X188595000Y-80860739D03*
D15*
%TO.P,R2,2*%
%TO.N,GND*%
X182244999Y-91859261D03*
%TD*%
D16*
%TO.P,J2,1,Pin_1*%
%TO.N,AN3*%
X128342521Y-105641979D03*
D17*
%TO.P,J2,2,Pin_2*%
%TO.N,AN2*%
X128342520Y-103101978D03*
D16*
%TO.P,J2,3,Pin_3*%
%TO.N,AN1*%
X128342521Y-100561979D03*
D17*
%TO.P,J2,4,Pin_4*%
%TO.N,AN0*%
X128342520Y-98021978D03*
%TO.P,J2,5,Pin_5*%
%TO.N,unconnected-(J2-Pin_5-Pad5)*%
X128342520Y-95481978D03*
%TO.P,J2,6,Pin_6*%
%TO.N,unconnected-(J2-Pin_6-Pad6)*%
X128342520Y-92941978D03*
%TO.P,J2,7,Pin_7*%
%TO.N,SDA*%
X128342520Y-90401978D03*
%TO.P,J2,8,Pin_8*%
%TO.N,SCL*%
X128342520Y-87861978D03*
%TO.P,J2,9,Pin_9*%
%TO.N,GND*%
X128342520Y-85321978D03*
%TO.P,J2,10,Pin_10*%
%TO.N,3V*%
X128342520Y-82781978D03*
%TD*%
D18*
%TO.P,R4,1*%
%TO.N,AN2*%
X115570000Y-89107000D03*
%TO.P,R4,2*%
%TO.N,GND*%
X115570000Y-90932000D03*
%TD*%
D16*
%TO.P,J1,1,Pin_1*%
%TO.N,AN0*%
X115585000Y-96204000D03*
D17*
%TO.P,J1,2,Pin_2*%
%TO.N,GND*%
X115584999Y-98743999D03*
%TO.P,J1,3,Pin_3*%
%TO.N,AN1*%
X118124999Y-96203999D03*
%TO.P,J1,4,Pin_4*%
%TO.N,5V*%
X118124999Y-98743999D03*
%TO.P,J1,5,Pin_5*%
%TO.N,AN2*%
X120664999Y-96203999D03*
%TO.P,J1,6,Pin_6*%
%TO.N,AN3*%
X120664999Y-98743999D03*
%TD*%
D19*
%TO.P,R7,1*%
%TO.N,AN3*%
X133072500Y-81686400D03*
%TO.P,R7,2*%
%TO.N,GND*%
X134897500Y-81686400D03*
%TD*%
D16*
%TO.P,J4,1,Pin_1*%
%TO.N,D17*%
X184404000Y-96012000D03*
D17*
%TO.P,J4,2,Pin_2*%
%TO.N,D43*%
X184403999Y-98551999D03*
%TO.P,J4,3,Pin_3*%
%TO.N,D11*%
X186943999Y-96011999D03*
%TO.P,J4,4,Pin_4*%
%TO.N,D44*%
X186943999Y-98551999D03*
%TO.P,J4,5,Pin_5*%
%TO.N,D10*%
X189483999Y-96011999D03*
%TO.P,J4,6,Pin_6*%
%TO.N,D18*%
X189483999Y-98551999D03*
%TD*%
D18*
%TO.P,R1,1*%
%TO.N,AN0*%
X190246000Y-88241500D03*
%TO.P,R1,2*%
%TO.N,GND*%
X190246000Y-90066500D03*
%TD*%
D14*
%TO.P,R3,1*%
%TO.N,AN2*%
X115951000Y-81114739D03*
D20*
%TO.P,R3,2*%
%TO.N,GND*%
X122300999Y-92113261D03*
%TD*%
D14*
%TO.P,R6,1*%
%TO.N,AN1*%
X160782000Y-81026000D03*
D21*
%TO.P,R6,2*%
%TO.N,GND*%
X173481999Y-81025999D03*
%TD*%
D19*
%TO.P,R5,1*%
%TO.N,AN1*%
X155322900Y-81686400D03*
%TO.P,R5,2*%
%TO.N,GND*%
X157147900Y-81686400D03*
%TD*%
D14*
%TO.P,R8,1*%
%TO.N,AN3*%
X138684000Y-81026000D03*
D21*
%TO.P,R8,2*%
%TO.N,GND*%
X151383999Y-81025999D03*
%TD*%
D22*
%TO.N,AN3*%
X131572000Y-81788000D03*
%TO.N,SCL*%
X132000271Y-91519729D03*
%TO.N,D11*%
X162814000Y-103378000D03*
%TO.N,3V*%
X132080000Y-88392000D03*
%TD*%
D23*
%TO.N,GND*%
X113792000Y-97028000D02*
X113792000Y-92710000D01*
X151384000Y-81026000D02*
X152584000Y-79826000D01*
X126061000Y-109220000D02*
X126238000Y-109220000D01*
X171450000Y-83058000D02*
X173482000Y-81026000D01*
X113869000Y-97028000D02*
X113792000Y-97028000D01*
X126293000Y-109275000D02*
X144725000Y-109275000D01*
X136269100Y-83058000D02*
X139954000Y-83058000D01*
X155287500Y-79826000D02*
X157147900Y-81686400D01*
X115585000Y-98744000D02*
X126061000Y-109220000D01*
X115585000Y-98744000D02*
X113869000Y-97028000D01*
X190246000Y-90066500D02*
X188453238Y-91859262D01*
X144725000Y-109275000D02*
X146050000Y-107950000D01*
X116751262Y-92113262D02*
X122301000Y-92113262D01*
X128342521Y-85321979D02*
X127254000Y-86410500D01*
X115570000Y-90932000D02*
X116751262Y-92113262D01*
X182245000Y-91859262D02*
X182245000Y-89789000D01*
X134897500Y-81686400D02*
X136269100Y-83058000D01*
X127254000Y-86410500D02*
X127254000Y-87160262D01*
X113792000Y-92710000D02*
X115570000Y-90932000D01*
X152584000Y-79826000D02*
X155287500Y-79826000D01*
X127254000Y-87160262D02*
X122301000Y-92113262D01*
X182245000Y-89789000D02*
X173482000Y-81026000D01*
X139954000Y-83058000D02*
X141986000Y-81026000D01*
X141986000Y-81026000D02*
X151384000Y-81026000D01*
X126238000Y-109220000D02*
X126293000Y-109275000D01*
X171450000Y-85088136D02*
X171450000Y-83058000D01*
X188453238Y-91859262D02*
X182245000Y-91859262D01*
%TO.N,5V*%
X143510000Y-107950000D02*
X127331000Y-107950000D01*
X127331000Y-107950000D02*
X118125000Y-98744000D01*
%TO.N,AN3*%
X133072500Y-81686400D02*
X134932900Y-79826000D01*
X137484000Y-79826000D02*
X138684000Y-81026000D01*
X131673600Y-81686400D02*
X133072500Y-81686400D01*
X134932900Y-79826000D02*
X137484000Y-79826000D01*
X120665000Y-98744000D02*
X127562979Y-105641979D01*
X131572000Y-81788000D02*
X131673600Y-81686400D01*
X127562979Y-105641979D02*
X128342521Y-105641979D01*
%TO.N,AN2*%
X126056979Y-101926979D02*
X120665000Y-96535000D01*
X127167521Y-101926979D02*
X126056979Y-101926979D01*
X115951000Y-88726000D02*
X115570000Y-89107000D01*
X115951000Y-81114739D02*
X115951000Y-88726000D01*
X120665000Y-96535000D02*
X120665000Y-96204000D01*
X128342521Y-103101979D02*
X127167521Y-101926979D01*
%TO.N,AN1*%
X141986000Y-82804000D02*
X154205300Y-82804000D01*
X128342521Y-100561979D02*
X133858000Y-95046500D01*
X136652000Y-83820000D02*
X140970000Y-83820000D01*
X119587000Y-94742000D02*
X118125000Y-96204000D01*
X155322900Y-81686400D02*
X156347900Y-82711400D01*
X122522542Y-94742000D02*
X119587000Y-94742000D01*
X133858000Y-86614000D02*
X136652000Y-83820000D01*
X140970000Y-83820000D02*
X141986000Y-82804000D01*
X156347900Y-82711400D02*
X159096600Y-82711400D01*
X133858000Y-95046500D02*
X133858000Y-86614000D01*
X159096600Y-82711400D02*
X160782000Y-81026000D01*
X154205300Y-82804000D02*
X155322900Y-81686400D01*
X128342521Y-100561979D02*
X122522542Y-94742000D01*
%TO.N,AN0*%
X188595000Y-80860739D02*
X188595000Y-86590500D01*
X117809000Y-93980000D02*
X115585000Y-96204000D01*
X188595000Y-86590500D02*
X190246000Y-88241500D01*
X124300542Y-93980000D02*
X117809000Y-93980000D01*
X128342521Y-98021979D02*
X124300542Y-93980000D01*
%TO.N,SCL*%
X132000271Y-91519729D02*
X128342521Y-87861979D01*
%TO.N,D10*%
X190659000Y-99038701D02*
X188605701Y-101092000D01*
X168148000Y-101092000D02*
X161290000Y-107950000D01*
X189484000Y-96012000D02*
X190659000Y-97187000D01*
X190659000Y-97187000D02*
X190659000Y-99038701D01*
X188605701Y-101092000D02*
X168148000Y-101092000D01*
%TO.N,D11*%
X162814000Y-103886000D02*
X158750000Y-107950000D01*
X162814000Y-103378000D02*
X162814000Y-103886000D01*
%TO.N,D43*%
X184404000Y-98552000D02*
X179833864Y-98552000D01*
X179833864Y-98552000D02*
X166370000Y-85088136D01*
%TO.N,D44*%
X186944000Y-98552000D02*
X185769000Y-99727000D01*
X185769000Y-99727000D02*
X178468864Y-99727000D01*
X178468864Y-99727000D02*
X163830000Y-85088136D01*
%TO.N,D18*%
X187859000Y-100177000D02*
X176377000Y-100177000D01*
X176377000Y-100177000D02*
X175260000Y-99060000D01*
X175260000Y-99058136D02*
X161290000Y-85088136D01*
X175260000Y-99060000D02*
X175260000Y-99058136D01*
X189484000Y-98552000D02*
X187859000Y-100177000D01*
%TO.N,3V*%
X132080000Y-84328000D02*
X130533979Y-82781979D01*
X130533979Y-82781979D02*
X128342521Y-82781979D01*
X132080000Y-88392000D02*
X132080000Y-84328000D01*
%TD*%
M02*
