%TF.GenerationSoftware,KiCad,Pcbnew,(7.0.0)*%
%TF.CreationDate,2023-03-09T06:04:35-08:00*%
%TF.ProjectId,Voltage_Sensor_Timer,566f6c74-6167-4655-9f53-656e736f725f,0*%
%TF.SameCoordinates,Original*%
%TF.FileFunction,Copper,L1,Top*%
%TF.FilePolarity,Positive*%
%FSLAX46Y46*%
G04 Gerber Fmt 4.6, Leading zero omitted, Abs format (unit mm)*
G04 Created by KiCad (PCBNEW (7.0.0)) date 2023-03-09 06:04:35*
%MOMM*%
%LPD*%
G01*
G04 APERTURE LIST*
%TA.AperFunction,ComponentPad*%
%ADD10C,1.600000*%
%TD*%
%TA.AperFunction,ComponentPad*%
%ADD11O,1.600000X1.600000*%
%TD*%
%TA.AperFunction,ComponentPad*%
%ADD12C,1.700000*%
%TD*%
%TA.AperFunction,ComponentPad*%
%ADD13O,1.700000X1.700000*%
%TD*%
%TA.AperFunction,ComponentPad*%
%ADD14C,1.524000*%
%TD*%
%TA.AperFunction,Conductor*%
%ADD15C,0.250000*%
%TD*%
G04 APERTURE END LIST*
D10*
%TO.P,ESP1,0,RESET*%
%TO.N,RESET*%
X132588000Y-106172000D03*
%TO.P,ESP1,1,3.3V*%
%TO.N,unconnected-(ESP1-3.3V-Pad1)*%
X135128000Y-106172000D03*
%TO.P,ESP1,2,3.3V*%
%TO.N,3.3V*%
X137668000Y-106172000D03*
%TO.P,ESP1,3,GND*%
%TO.N,GND*%
X140208000Y-106172000D03*
%TO.P,ESP1,4,A0*%
%TO.N,A0*%
X142748000Y-106172000D03*
%TO.P,ESP1,5,A1*%
%TO.N,A1*%
X145288000Y-106172000D03*
%TO.P,ESP1,6,A2*%
%TO.N,A2*%
X147828000Y-106172000D03*
%TO.P,ESP1,7,A3*%
%TO.N,A3*%
X150368000Y-106172000D03*
%TO.P,ESP1,8,A4*%
%TO.N,A4*%
X152908000Y-106172000D03*
%TO.P,ESP1,9,A5*%
%TO.N,A5*%
X155448000Y-106172000D03*
%TO.P,ESP1,10,SCK*%
%TO.N,SCK*%
X157988000Y-106172000D03*
%TO.P,ESP1,11,MOSI*%
%TO.N,MOSI*%
X160528000Y-106172000D03*
%TO.P,ESP1,12,MISO*%
%TO.N,MISO*%
X163068000Y-106172000D03*
%TO.P,ESP1,13,RX*%
%TO.N,RX*%
X165608000Y-106172000D03*
%TO.P,ESP1,14,TX*%
%TO.N,TX*%
X168148000Y-106172000D03*
%TO.P,ESP1,15,TXD0*%
%TO.N,TXDO*%
X170688000Y-106172000D03*
%TO.P,ESP1,16,VBAT*%
%TO.N,unconnected-(ESP1-VBAT-Pad16)*%
X142748000Y-85852000D03*
%TO.P,ESP1,17,EN*%
%TO.N,unconnected-(ESP1-EN-Pad17)*%
X145288000Y-85852000D03*
%TO.P,ESP1,18,VBUS*%
%TO.N,unconnected-(ESP1-VBUS-Pad18)*%
X147828000Y-85852000D03*
%TO.P,ESP1,19,D13*%
%TO.N,unconnected-(ESP1-D13-Pad19)*%
X150368000Y-85852000D03*
%TO.P,ESP1,20,D12*%
%TO.N,unconnected-(ESP1-D12-Pad20)*%
X152908000Y-85852000D03*
%TO.P,ESP1,21,D11*%
%TO.N,unconnected-(ESP1-D11-Pad21)*%
X155448000Y-85852000D03*
%TO.P,ESP1,22,D10*%
%TO.N,D10*%
X157988000Y-85852000D03*
%TO.P,ESP1,23,D9*%
%TO.N,D9*%
X160528000Y-85852000D03*
%TO.P,ESP1,24,D6*%
%TO.N,D6*%
X163068000Y-85852000D03*
%TO.P,ESP1,25,D5*%
%TO.N,D5*%
X165608000Y-85852000D03*
%TO.P,ESP1,26,SCL*%
%TO.N,SCL*%
X168148000Y-85852000D03*
%TO.P,ESP1,27,SDA*%
%TO.N,SDA*%
X170688000Y-85852000D03*
%TD*%
%TO.P,R2,1*%
%TO.N,AN0*%
X184404000Y-100076000D03*
D11*
%TO.P,R2,2*%
%TO.N,GND*%
X184403999Y-84835999D03*
%TD*%
D12*
%TO.P,J2,1,Pin_1*%
%TO.N,AN0*%
X116347000Y-105353000D03*
D13*
%TO.P,J2,2,Pin_2*%
%TO.N,AN1*%
X118886999Y-105352999D03*
%TO.P,J2,3,Pin_3*%
%TO.N,AN2*%
X121426999Y-105352999D03*
%TD*%
D10*
%TO.P,R3,1*%
%TO.N,AN2*%
X118872000Y-86106000D03*
D11*
%TO.P,R3,2*%
%TO.N,GND*%
X118871999Y-101345999D03*
%TD*%
D14*
%TO.P,ADS1,0,A0*%
%TO.N,AN0*%
X124715293Y-89667251D03*
%TO.P,ADS1,1,A1*%
%TO.N,AN1*%
X124715293Y-87127251D03*
%TO.P,ADS1,2,A2*%
%TO.N,AN2*%
X124715293Y-84587251D03*
%TO.P,ADS1,3,A3*%
%TO.N,AN3*%
X124715293Y-82047251D03*
%TO.P,ADS1,4,SDA*%
%TO.N,SDA*%
X124715293Y-97287251D03*
%TO.P,ADS1,5,SCL*%
%TO.N,SCL*%
X124715293Y-99827251D03*
%TO.P,ADS1,6,VDD*%
%TO.N,3.3V*%
X124715293Y-104907251D03*
%TO.P,ADS1,7,GND*%
%TO.N,GND*%
X124715293Y-102367251D03*
%TO.P,ADS1,8,ALRT*%
%TO.N,ALRT*%
X124715293Y-92207251D03*
%TO.P,ADS1,9,ADDR*%
%TO.N,ADDR*%
X124715293Y-94747251D03*
%TD*%
D12*
%TO.P,J3,1,Pin_1*%
%TO.N,AN3*%
X183896000Y-105353000D03*
D13*
%TO.P,J3,2,Pin_2*%
%TO.N,3.3V*%
X186435999Y-105352999D03*
%TO.P,J3,3,Pin_3*%
%TO.N,GND*%
X188975999Y-105352999D03*
%TD*%
D15*
%TO.N,AN3*%
X181879000Y-103336000D02*
X181879000Y-85770009D01*
X183896000Y-105353000D02*
X181879000Y-103336000D01*
X181879000Y-85770009D02*
X178156242Y-82047251D01*
X178156242Y-82047251D02*
X124715293Y-82047251D01*
%TO.N,AN2*%
X121427000Y-87875544D02*
X121427000Y-88661000D01*
X124715293Y-84587251D02*
X121427000Y-87875544D01*
X118872000Y-86106000D02*
X121427000Y-88661000D01*
X121427000Y-88661000D02*
X121427000Y-105353000D01*
%TO.N,AN0*%
X123190000Y-91192544D02*
X124715293Y-89667251D01*
X116347000Y-105353000D02*
X116347000Y-106441000D01*
X123190000Y-107442000D02*
X123190000Y-91192544D01*
X117348000Y-107442000D02*
X123190000Y-107442000D01*
X116347000Y-106441000D02*
X117348000Y-107442000D01*
%TO.N,SDA*%
X159252749Y-97287251D02*
X170688000Y-85852000D01*
X124715293Y-97287251D02*
X159252749Y-97287251D01*
%TO.N,3.3V*%
X174854000Y-106528000D02*
X172212000Y-103886000D01*
X139954000Y-103886000D02*
X137668000Y-106172000D01*
X186436000Y-105353000D02*
X185261000Y-106528000D01*
X185261000Y-106528000D02*
X174854000Y-106528000D01*
X172212000Y-103886000D02*
X139954000Y-103886000D01*
%TD*%
M02*
