%TF.GenerationSoftware,KiCad,Pcbnew,(7.0.0)*%
%TF.CreationDate,2023-03-09T06:04:35-08:00*%
%TF.ProjectId,Voltage_Sensor_Timer,566f6c74-6167-4655-9f53-656e736f725f,0*%
%TF.SameCoordinates,Original*%
%TF.FileFunction,Legend,Bot*%
%TF.FilePolarity,Positive*%
%FSLAX46Y46*%
G04 Gerber Fmt 4.6, Leading zero omitted, Abs format (unit mm)*
G04 Created by KiCad (PCBNEW (7.0.0)) date 2023-03-09 06:04:35*
%MOMM*%
%LPD*%
G01*
G04 APERTURE LIST*
%ADD10C,0.150000*%
%ADD11C,0.120000*%
%ADD12C,0.101600*%
G04 APERTURE END LIST*
D10*
X121777142Y-82856380D02*
X121158095Y-82856380D01*
X121158095Y-82856380D02*
X121491428Y-83237333D01*
X121491428Y-83237333D02*
X121348571Y-83237333D01*
X121348571Y-83237333D02*
X121253333Y-83284952D01*
X121253333Y-83284952D02*
X121205714Y-83332571D01*
X121205714Y-83332571D02*
X121158095Y-83427809D01*
X121158095Y-83427809D02*
X121158095Y-83665904D01*
X121158095Y-83665904D02*
X121205714Y-83761142D01*
X121205714Y-83761142D02*
X121253333Y-83808761D01*
X121253333Y-83808761D02*
X121348571Y-83856380D01*
X121348571Y-83856380D02*
X121634285Y-83856380D01*
X121634285Y-83856380D02*
X121729523Y-83808761D01*
X121729523Y-83808761D02*
X121777142Y-83761142D01*
X120729523Y-83761142D02*
X120681904Y-83808761D01*
X120681904Y-83808761D02*
X120729523Y-83856380D01*
X120729523Y-83856380D02*
X120777142Y-83808761D01*
X120777142Y-83808761D02*
X120729523Y-83761142D01*
X120729523Y-83761142D02*
X120729523Y-83856380D01*
X120205714Y-83856380D02*
X120015238Y-83856380D01*
X120015238Y-83856380D02*
X119920000Y-83808761D01*
X119920000Y-83808761D02*
X119872381Y-83761142D01*
X119872381Y-83761142D02*
X119777143Y-83618285D01*
X119777143Y-83618285D02*
X119729524Y-83427809D01*
X119729524Y-83427809D02*
X119729524Y-83046857D01*
X119729524Y-83046857D02*
X119777143Y-82951619D01*
X119777143Y-82951619D02*
X119824762Y-82904000D01*
X119824762Y-82904000D02*
X119920000Y-82856380D01*
X119920000Y-82856380D02*
X120110476Y-82856380D01*
X120110476Y-82856380D02*
X120205714Y-82904000D01*
X120205714Y-82904000D02*
X120253333Y-82951619D01*
X120253333Y-82951619D02*
X120300952Y-83046857D01*
X120300952Y-83046857D02*
X120300952Y-83284952D01*
X120300952Y-83284952D02*
X120253333Y-83380190D01*
X120253333Y-83380190D02*
X120205714Y-83427809D01*
X120205714Y-83427809D02*
X120110476Y-83475428D01*
X120110476Y-83475428D02*
X119920000Y-83475428D01*
X119920000Y-83475428D02*
X119824762Y-83427809D01*
X119824762Y-83427809D02*
X119777143Y-83380190D01*
X119777143Y-83380190D02*
X119729524Y-83284952D01*
X118700952Y-83856380D02*
X118700952Y-82856380D01*
X118700952Y-82856380D02*
X118367619Y-83570666D01*
X118367619Y-83570666D02*
X118034286Y-82856380D01*
X118034286Y-82856380D02*
X118034286Y-83856380D01*
X117415238Y-83856380D02*
X117510476Y-83808761D01*
X117510476Y-83808761D02*
X117558095Y-83761142D01*
X117558095Y-83761142D02*
X117605714Y-83665904D01*
X117605714Y-83665904D02*
X117605714Y-83380190D01*
X117605714Y-83380190D02*
X117558095Y-83284952D01*
X117558095Y-83284952D02*
X117510476Y-83237333D01*
X117510476Y-83237333D02*
X117415238Y-83189714D01*
X117415238Y-83189714D02*
X117272381Y-83189714D01*
X117272381Y-83189714D02*
X117177143Y-83237333D01*
X117177143Y-83237333D02*
X117129524Y-83284952D01*
X117129524Y-83284952D02*
X117081905Y-83380190D01*
X117081905Y-83380190D02*
X117081905Y-83665904D01*
X117081905Y-83665904D02*
X117129524Y-83761142D01*
X117129524Y-83761142D02*
X117177143Y-83808761D01*
X117177143Y-83808761D02*
X117272381Y-83856380D01*
X117272381Y-83856380D02*
X117415238Y-83856380D01*
X116653333Y-83856380D02*
X116653333Y-82856380D01*
X116224762Y-83856380D02*
X116224762Y-83332571D01*
X116224762Y-83332571D02*
X116272381Y-83237333D01*
X116272381Y-83237333D02*
X116367619Y-83189714D01*
X116367619Y-83189714D02*
X116510476Y-83189714D01*
X116510476Y-83189714D02*
X116605714Y-83237333D01*
X116605714Y-83237333D02*
X116653333Y-83284952D01*
X115748571Y-83856380D02*
X115748571Y-83189714D01*
X115748571Y-83284952D02*
X115700952Y-83237333D01*
X115700952Y-83237333D02*
X115605714Y-83189714D01*
X115605714Y-83189714D02*
X115462857Y-83189714D01*
X115462857Y-83189714D02*
X115367619Y-83237333D01*
X115367619Y-83237333D02*
X115320000Y-83332571D01*
X115320000Y-83332571D02*
X115320000Y-83856380D01*
X115320000Y-83332571D02*
X115272381Y-83237333D01*
X115272381Y-83237333D02*
X115177143Y-83189714D01*
X115177143Y-83189714D02*
X115034286Y-83189714D01*
X115034286Y-83189714D02*
X114939047Y-83237333D01*
X114939047Y-83237333D02*
X114891428Y-83332571D01*
X114891428Y-83332571D02*
X114891428Y-83856380D01*
X114462857Y-83808761D02*
X114367619Y-83856380D01*
X114367619Y-83856380D02*
X114177143Y-83856380D01*
X114177143Y-83856380D02*
X114081905Y-83808761D01*
X114081905Y-83808761D02*
X114034286Y-83713523D01*
X114034286Y-83713523D02*
X114034286Y-83665904D01*
X114034286Y-83665904D02*
X114081905Y-83570666D01*
X114081905Y-83570666D02*
X114177143Y-83523047D01*
X114177143Y-83523047D02*
X114320000Y-83523047D01*
X114320000Y-83523047D02*
X114415238Y-83475428D01*
X114415238Y-83475428D02*
X114462857Y-83380190D01*
X114462857Y-83380190D02*
X114462857Y-83332571D01*
X114462857Y-83332571D02*
X114415238Y-83237333D01*
X114415238Y-83237333D02*
X114320000Y-83189714D01*
X114320000Y-83189714D02*
X114177143Y-83189714D01*
X114177143Y-83189714D02*
X114081905Y-83237333D01*
X189849142Y-81840380D02*
X189230095Y-81840380D01*
X189230095Y-81840380D02*
X189563428Y-82221333D01*
X189563428Y-82221333D02*
X189420571Y-82221333D01*
X189420571Y-82221333D02*
X189325333Y-82268952D01*
X189325333Y-82268952D02*
X189277714Y-82316571D01*
X189277714Y-82316571D02*
X189230095Y-82411809D01*
X189230095Y-82411809D02*
X189230095Y-82649904D01*
X189230095Y-82649904D02*
X189277714Y-82745142D01*
X189277714Y-82745142D02*
X189325333Y-82792761D01*
X189325333Y-82792761D02*
X189420571Y-82840380D01*
X189420571Y-82840380D02*
X189706285Y-82840380D01*
X189706285Y-82840380D02*
X189801523Y-82792761D01*
X189801523Y-82792761D02*
X189849142Y-82745142D01*
X188801523Y-82745142D02*
X188753904Y-82792761D01*
X188753904Y-82792761D02*
X188801523Y-82840380D01*
X188801523Y-82840380D02*
X188849142Y-82792761D01*
X188849142Y-82792761D02*
X188801523Y-82745142D01*
X188801523Y-82745142D02*
X188801523Y-82840380D01*
X188277714Y-82840380D02*
X188087238Y-82840380D01*
X188087238Y-82840380D02*
X187992000Y-82792761D01*
X187992000Y-82792761D02*
X187944381Y-82745142D01*
X187944381Y-82745142D02*
X187849143Y-82602285D01*
X187849143Y-82602285D02*
X187801524Y-82411809D01*
X187801524Y-82411809D02*
X187801524Y-82030857D01*
X187801524Y-82030857D02*
X187849143Y-81935619D01*
X187849143Y-81935619D02*
X187896762Y-81888000D01*
X187896762Y-81888000D02*
X187992000Y-81840380D01*
X187992000Y-81840380D02*
X188182476Y-81840380D01*
X188182476Y-81840380D02*
X188277714Y-81888000D01*
X188277714Y-81888000D02*
X188325333Y-81935619D01*
X188325333Y-81935619D02*
X188372952Y-82030857D01*
X188372952Y-82030857D02*
X188372952Y-82268952D01*
X188372952Y-82268952D02*
X188325333Y-82364190D01*
X188325333Y-82364190D02*
X188277714Y-82411809D01*
X188277714Y-82411809D02*
X188182476Y-82459428D01*
X188182476Y-82459428D02*
X187992000Y-82459428D01*
X187992000Y-82459428D02*
X187896762Y-82411809D01*
X187896762Y-82411809D02*
X187849143Y-82364190D01*
X187849143Y-82364190D02*
X187801524Y-82268952D01*
X186772952Y-82840380D02*
X186772952Y-81840380D01*
X186772952Y-81840380D02*
X186439619Y-82554666D01*
X186439619Y-82554666D02*
X186106286Y-81840380D01*
X186106286Y-81840380D02*
X186106286Y-82840380D01*
X185487238Y-82840380D02*
X185582476Y-82792761D01*
X185582476Y-82792761D02*
X185630095Y-82745142D01*
X185630095Y-82745142D02*
X185677714Y-82649904D01*
X185677714Y-82649904D02*
X185677714Y-82364190D01*
X185677714Y-82364190D02*
X185630095Y-82268952D01*
X185630095Y-82268952D02*
X185582476Y-82221333D01*
X185582476Y-82221333D02*
X185487238Y-82173714D01*
X185487238Y-82173714D02*
X185344381Y-82173714D01*
X185344381Y-82173714D02*
X185249143Y-82221333D01*
X185249143Y-82221333D02*
X185201524Y-82268952D01*
X185201524Y-82268952D02*
X185153905Y-82364190D01*
X185153905Y-82364190D02*
X185153905Y-82649904D01*
X185153905Y-82649904D02*
X185201524Y-82745142D01*
X185201524Y-82745142D02*
X185249143Y-82792761D01*
X185249143Y-82792761D02*
X185344381Y-82840380D01*
X185344381Y-82840380D02*
X185487238Y-82840380D01*
X184725333Y-82840380D02*
X184725333Y-81840380D01*
X184296762Y-82840380D02*
X184296762Y-82316571D01*
X184296762Y-82316571D02*
X184344381Y-82221333D01*
X184344381Y-82221333D02*
X184439619Y-82173714D01*
X184439619Y-82173714D02*
X184582476Y-82173714D01*
X184582476Y-82173714D02*
X184677714Y-82221333D01*
X184677714Y-82221333D02*
X184725333Y-82268952D01*
X183820571Y-82840380D02*
X183820571Y-82173714D01*
X183820571Y-82268952D02*
X183772952Y-82221333D01*
X183772952Y-82221333D02*
X183677714Y-82173714D01*
X183677714Y-82173714D02*
X183534857Y-82173714D01*
X183534857Y-82173714D02*
X183439619Y-82221333D01*
X183439619Y-82221333D02*
X183392000Y-82316571D01*
X183392000Y-82316571D02*
X183392000Y-82840380D01*
X183392000Y-82316571D02*
X183344381Y-82221333D01*
X183344381Y-82221333D02*
X183249143Y-82173714D01*
X183249143Y-82173714D02*
X183106286Y-82173714D01*
X183106286Y-82173714D02*
X183011047Y-82221333D01*
X183011047Y-82221333D02*
X182963428Y-82316571D01*
X182963428Y-82316571D02*
X182963428Y-82840380D01*
X146299333Y-97091523D02*
X146299333Y-96615333D01*
X146013619Y-97186761D02*
X147013619Y-96853428D01*
X147013619Y-96853428D02*
X146013619Y-96520095D01*
X146013619Y-96186761D02*
X147013619Y-96186761D01*
X147013619Y-96186761D02*
X147013619Y-95948666D01*
X147013619Y-95948666D02*
X146966000Y-95805809D01*
X146966000Y-95805809D02*
X146870761Y-95710571D01*
X146870761Y-95710571D02*
X146775523Y-95662952D01*
X146775523Y-95662952D02*
X146585047Y-95615333D01*
X146585047Y-95615333D02*
X146442190Y-95615333D01*
X146442190Y-95615333D02*
X146251714Y-95662952D01*
X146251714Y-95662952D02*
X146156476Y-95710571D01*
X146156476Y-95710571D02*
X146061238Y-95805809D01*
X146061238Y-95805809D02*
X146013619Y-95948666D01*
X146013619Y-95948666D02*
X146013619Y-96186761D01*
X146061238Y-95234380D02*
X146013619Y-95091523D01*
X146013619Y-95091523D02*
X146013619Y-94853428D01*
X146013619Y-94853428D02*
X146061238Y-94758190D01*
X146061238Y-94758190D02*
X146108857Y-94710571D01*
X146108857Y-94710571D02*
X146204095Y-94662952D01*
X146204095Y-94662952D02*
X146299333Y-94662952D01*
X146299333Y-94662952D02*
X146394571Y-94710571D01*
X146394571Y-94710571D02*
X146442190Y-94758190D01*
X146442190Y-94758190D02*
X146489809Y-94853428D01*
X146489809Y-94853428D02*
X146537428Y-95043904D01*
X146537428Y-95043904D02*
X146585047Y-95139142D01*
X146585047Y-95139142D02*
X146632666Y-95186761D01*
X146632666Y-95186761D02*
X146727904Y-95234380D01*
X146727904Y-95234380D02*
X146823142Y-95234380D01*
X146823142Y-95234380D02*
X146918380Y-95186761D01*
X146918380Y-95186761D02*
X146966000Y-95139142D01*
X146966000Y-95139142D02*
X147013619Y-95043904D01*
X147013619Y-95043904D02*
X147013619Y-94805809D01*
X147013619Y-94805809D02*
X146966000Y-94662952D01*
X146013619Y-93710571D02*
X146013619Y-94281999D01*
X146013619Y-93996285D02*
X147013619Y-93996285D01*
X147013619Y-93996285D02*
X146870761Y-94091523D01*
X146870761Y-94091523D02*
X146775523Y-94186761D01*
X146775523Y-94186761D02*
X146727904Y-94281999D01*
X147013619Y-93091523D02*
X147013619Y-92996285D01*
X147013619Y-92996285D02*
X146966000Y-92901047D01*
X146966000Y-92901047D02*
X146918380Y-92853428D01*
X146918380Y-92853428D02*
X146823142Y-92805809D01*
X146823142Y-92805809D02*
X146632666Y-92758190D01*
X146632666Y-92758190D02*
X146394571Y-92758190D01*
X146394571Y-92758190D02*
X146204095Y-92805809D01*
X146204095Y-92805809D02*
X146108857Y-92853428D01*
X146108857Y-92853428D02*
X146061238Y-92901047D01*
X146061238Y-92901047D02*
X146013619Y-92996285D01*
X146013619Y-92996285D02*
X146013619Y-93091523D01*
X146013619Y-93091523D02*
X146061238Y-93186761D01*
X146061238Y-93186761D02*
X146108857Y-93234380D01*
X146108857Y-93234380D02*
X146204095Y-93281999D01*
X146204095Y-93281999D02*
X146394571Y-93329618D01*
X146394571Y-93329618D02*
X146632666Y-93329618D01*
X146632666Y-93329618D02*
X146823142Y-93281999D01*
X146823142Y-93281999D02*
X146918380Y-93234380D01*
X146918380Y-93234380D02*
X146966000Y-93186761D01*
X146966000Y-93186761D02*
X147013619Y-93091523D01*
X146013619Y-91805809D02*
X146013619Y-92377237D01*
X146013619Y-92091523D02*
X147013619Y-92091523D01*
X147013619Y-92091523D02*
X146870761Y-92186761D01*
X146870761Y-92186761D02*
X146775523Y-92281999D01*
X146775523Y-92281999D02*
X146727904Y-92377237D01*
X147013619Y-90901047D02*
X147013619Y-91377237D01*
X147013619Y-91377237D02*
X146537428Y-91424856D01*
X146537428Y-91424856D02*
X146585047Y-91377237D01*
X146585047Y-91377237D02*
X146632666Y-91281999D01*
X146632666Y-91281999D02*
X146632666Y-91043904D01*
X146632666Y-91043904D02*
X146585047Y-90948666D01*
X146585047Y-90948666D02*
X146537428Y-90901047D01*
X146537428Y-90901047D02*
X146442190Y-90853428D01*
X146442190Y-90853428D02*
X146204095Y-90853428D01*
X146204095Y-90853428D02*
X146108857Y-90901047D01*
X146108857Y-90901047D02*
X146061238Y-90948666D01*
X146061238Y-90948666D02*
X146013619Y-91043904D01*
X146013619Y-91043904D02*
X146013619Y-91281999D01*
X146013619Y-91281999D02*
X146061238Y-91377237D01*
X146061238Y-91377237D02*
X146108857Y-91424856D01*
D11*
%TO.C,R2*%
X184404000Y-99036000D02*
X184404000Y-97076000D01*
X182684000Y-97076000D02*
X182684000Y-87836000D01*
X186124000Y-97076000D02*
X182684000Y-97076000D01*
X182684000Y-87836000D02*
X186124000Y-87836000D01*
X186124000Y-87836000D02*
X186124000Y-97076000D01*
X184404000Y-85876000D02*
X184404000Y-87836000D01*
%TO.C,R4*%
X115757000Y-93094436D02*
X115757000Y-93548564D01*
X114287000Y-93094436D02*
X114287000Y-93548564D01*
%TO.C,J2*%
X116347000Y-104083000D02*
X115077000Y-104083000D01*
X115077000Y-104083000D02*
X115077000Y-105353000D01*
X121807000Y-106395929D02*
X121807000Y-106793000D01*
X121047000Y-106395929D02*
X121047000Y-106793000D01*
X119267000Y-106395929D02*
X119267000Y-106793000D01*
X118507000Y-106395929D02*
X118507000Y-106793000D01*
X116727000Y-106463000D02*
X116727000Y-106793000D01*
X115967000Y-106463000D02*
X115967000Y-106793000D01*
X122757000Y-106793000D02*
X122757000Y-109453000D01*
X120157000Y-106793000D02*
X120157000Y-109453000D01*
X117617000Y-106793000D02*
X117617000Y-109453000D01*
X115017000Y-106793000D02*
X122757000Y-106793000D01*
X122757000Y-109453000D02*
X115017000Y-109453000D01*
X121047000Y-109453000D02*
X121047000Y-115453000D01*
X118507000Y-109453000D02*
X118507000Y-115453000D01*
X116627000Y-109453000D02*
X116627000Y-115453000D01*
X116507000Y-109453000D02*
X116507000Y-115453000D01*
X116387000Y-109453000D02*
X116387000Y-115453000D01*
X116267000Y-109453000D02*
X116267000Y-115453000D01*
X116147000Y-109453000D02*
X116147000Y-115453000D01*
X116027000Y-109453000D02*
X116027000Y-115453000D01*
X115967000Y-109453000D02*
X115967000Y-115453000D01*
X115017000Y-109453000D02*
X115017000Y-106793000D01*
X121807000Y-115453000D02*
X121807000Y-109453000D01*
X121047000Y-115453000D02*
X121807000Y-115453000D01*
X119267000Y-115453000D02*
X119267000Y-109453000D01*
X118507000Y-115453000D02*
X119267000Y-115453000D01*
X116727000Y-115453000D02*
X116727000Y-109453000D01*
X115967000Y-115453000D02*
X116727000Y-115453000D01*
%TO.C,R1*%
X188241000Y-92278564D02*
X188241000Y-91824436D01*
X189711000Y-92278564D02*
X189711000Y-91824436D01*
%TO.C,R3*%
X118872000Y-87146000D02*
X118872000Y-89106000D01*
X120592000Y-89106000D02*
X120592000Y-98346000D01*
X117152000Y-89106000D02*
X120592000Y-89106000D01*
X120592000Y-98346000D02*
X117152000Y-98346000D01*
X117152000Y-98346000D02*
X117152000Y-89106000D01*
X118872000Y-100306000D02*
X118872000Y-98346000D01*
D12*
%TO.C,ADS1*%
X122682000Y-82042000D02*
X122682000Y-104902000D01*
X125222000Y-107442000D02*
X143002000Y-107442000D01*
X143002000Y-79502000D02*
X125222000Y-79502000D01*
X145542000Y-104902000D02*
X145542000Y-82042000D01*
X125222000Y-79502000D02*
G75*
G03*
X122682000Y-82042000I1J-2540001D01*
G01*
X122682000Y-104902000D02*
G75*
G03*
X125222000Y-107442000I2540001J1D01*
G01*
X145542000Y-82042000D02*
G75*
G03*
X143002000Y-79502000I-2540000J0D01*
G01*
X143002000Y-107442000D02*
G75*
G03*
X145542000Y-104902000I0J2540000D01*
G01*
D11*
%TO.C,J3*%
X183896000Y-104083000D02*
X182626000Y-104083000D01*
X182626000Y-104083000D02*
X182626000Y-105353000D01*
X189356000Y-106395929D02*
X189356000Y-106793000D01*
X188596000Y-106395929D02*
X188596000Y-106793000D01*
X186816000Y-106395929D02*
X186816000Y-106793000D01*
X186056000Y-106395929D02*
X186056000Y-106793000D01*
X184276000Y-106463000D02*
X184276000Y-106793000D01*
X183516000Y-106463000D02*
X183516000Y-106793000D01*
X190306000Y-106793000D02*
X190306000Y-109453000D01*
X187706000Y-106793000D02*
X187706000Y-109453000D01*
X185166000Y-106793000D02*
X185166000Y-109453000D01*
X182566000Y-106793000D02*
X190306000Y-106793000D01*
X190306000Y-109453000D02*
X182566000Y-109453000D01*
X188596000Y-109453000D02*
X188596000Y-115453000D01*
X186056000Y-109453000D02*
X186056000Y-115453000D01*
X184176000Y-109453000D02*
X184176000Y-115453000D01*
X184056000Y-109453000D02*
X184056000Y-115453000D01*
X183936000Y-109453000D02*
X183936000Y-115453000D01*
X183816000Y-109453000D02*
X183816000Y-115453000D01*
X183696000Y-109453000D02*
X183696000Y-115453000D01*
X183576000Y-109453000D02*
X183576000Y-115453000D01*
X183516000Y-109453000D02*
X183516000Y-115453000D01*
X182566000Y-109453000D02*
X182566000Y-106793000D01*
X189356000Y-115453000D02*
X189356000Y-109453000D01*
X188596000Y-115453000D02*
X189356000Y-115453000D01*
X186816000Y-115453000D02*
X186816000Y-109453000D01*
X186056000Y-115453000D02*
X186816000Y-115453000D01*
X184276000Y-115453000D02*
X184276000Y-109453000D01*
X183516000Y-115453000D02*
X184276000Y-115453000D01*
%TD*%
M02*
