M48
; DRILL file {KiCad (7.0.0)} date Thu Apr  6 13:34:28 2023
; FORMAT={-:-/ absolute / inch / decimal}
; #@! TF.CreationDate,2023-04-06T13:34:28-07:00
; #@! TF.GenerationSoftware,Kicad,Pcbnew,(7.0.0)
; #@! TF.FileFunction,Plated,1,2,PTH
FMAT,2
INCH
; #@! TA.AperFunction,Plated,PTH,ViaDrill
T1C0.0157
; #@! TA.AperFunction,Plated,PTH,ComponentDrill
T2C0.0394
; #@! TA.AperFunction,Plated,PTH,ComponentDrill
T3C0.0472
%
G90
G05
T1
X4.5039Y-3.3566
X6.6Y-3.19
X7.025Y-3.555
T2
X4.5506Y-3.7876
X4.5506Y-3.8876
X4.6506Y-3.7876
X4.6506Y-3.8876
X4.7506Y-3.7876
X4.7506Y-3.8876
X5.0529Y-3.2591
X5.0529Y-3.3591
X5.0529Y-3.4591
X5.0529Y-3.5591
X5.0529Y-3.6591
X5.0529Y-3.7591
X5.0529Y-3.8591
X5.0529Y-3.9591
X5.0529Y-4.0591
X5.0529Y-4.1591
X5.2204Y-4.1789
X5.3204Y-4.1789
X5.4204Y-4.1789
X5.5204Y-4.1789
X5.6204Y-3.3789
X5.6204Y-4.1789
X5.7204Y-3.3789
X5.7204Y-4.1789
X5.8204Y-3.3789
X5.8204Y-4.1789
X5.9204Y-3.3789
X5.9204Y-4.1789
X6.0204Y-3.3789
X6.0204Y-4.1789
X6.1204Y-3.3789
X6.1204Y-4.1789
X6.2204Y-3.3789
X6.2204Y-4.1789
X6.3204Y-3.3789
X6.3204Y-4.1789
X6.4204Y-3.3789
X6.4204Y-4.1789
X6.5204Y-3.3789
X6.5204Y-4.1789
X6.6204Y-3.3789
X6.6204Y-4.1789
X6.7204Y-3.3789
X6.7204Y-4.1789
X7.055Y-3.205
X7.055Y-3.305
X7.26Y-3.78
X7.26Y-3.88
X7.36Y-3.78
X7.36Y-3.88
X7.46Y-3.78
X7.46Y-3.88
T3
X4.565Y-3.1935
X4.815Y-3.6265
X7.175Y-3.6165
X7.425Y-3.1835
T0
M30
