%TF.GenerationSoftware,KiCad,Pcbnew,(7.0.0)*%
%TF.CreationDate,2023-04-06T13:34:31-07:00*%
%TF.ProjectId,Voltage_Sensor_Timer,566f6c74-6167-4655-9f53-656e736f725f,0*%
%TF.SameCoordinates,Original*%
%TF.FileFunction,Legend,Bot*%
%TF.FilePolarity,Positive*%
%FSLAX46Y46*%
G04 Gerber Fmt 4.6, Leading zero omitted, Abs format (unit mm)*
G04 Created by KiCad (PCBNEW (7.0.0)) date 2023-04-06 13:34:31*
%MOMM*%
%LPD*%
G01*
G04 APERTURE LIST*
%ADD10C,0.150000*%
%ADD11C,0.125000*%
%ADD12C,0.120000*%
%ADD13C,0.101600*%
G04 APERTURE END LIST*
D10*
X123792060Y-87913472D02*
X123482536Y-87377361D01*
X123482536Y-87377361D02*
X123319288Y-87856512D01*
X123319288Y-87856512D02*
X123247860Y-87732795D01*
X123247860Y-87732795D02*
X123159001Y-87674125D01*
X123159001Y-87674125D02*
X123093953Y-87656696D01*
X123093953Y-87656696D02*
X122987664Y-87663075D01*
X122987664Y-87663075D02*
X122781468Y-87782123D01*
X122781468Y-87782123D02*
X122722799Y-87870981D01*
X122722799Y-87870981D02*
X122705369Y-87936030D01*
X122705369Y-87936030D02*
X122711749Y-88042318D01*
X122711749Y-88042318D02*
X122854606Y-88289754D01*
X122854606Y-88289754D02*
X122943464Y-88348423D01*
X122943464Y-88348423D02*
X123008513Y-88365853D01*
X122484704Y-87458588D02*
X122419655Y-87441158D01*
X122419655Y-87441158D02*
X122402225Y-87506207D01*
X122402225Y-87506207D02*
X122467274Y-87523637D01*
X122467274Y-87523637D02*
X122484704Y-87458588D01*
X122484704Y-87458588D02*
X122402225Y-87506207D01*
X122140320Y-87052575D02*
X122045082Y-86887618D01*
X122045082Y-86887618D02*
X122038703Y-86781330D01*
X122038703Y-86781330D02*
X122056132Y-86716281D01*
X122056132Y-86716281D02*
X122132231Y-86562374D01*
X122132231Y-86562374D02*
X122273379Y-86425897D01*
X122273379Y-86425897D02*
X122603293Y-86235420D01*
X122603293Y-86235420D02*
X122709582Y-86229041D01*
X122709582Y-86229041D02*
X122774630Y-86246470D01*
X122774630Y-86246470D02*
X122863489Y-86305140D01*
X122863489Y-86305140D02*
X122958727Y-86470097D01*
X122958727Y-86470097D02*
X122965107Y-86576385D01*
X122965107Y-86576385D02*
X122947677Y-86641434D01*
X122947677Y-86641434D02*
X122889008Y-86730292D01*
X122889008Y-86730292D02*
X122682811Y-86849340D01*
X122682811Y-86849340D02*
X122576523Y-86855719D01*
X122576523Y-86855719D02*
X122511474Y-86838290D01*
X122511474Y-86838290D02*
X122422616Y-86779621D01*
X122422616Y-86779621D02*
X122327378Y-86614663D01*
X122327378Y-86614663D02*
X122320998Y-86508375D01*
X122320998Y-86508375D02*
X122338428Y-86443326D01*
X122338428Y-86443326D02*
X122397097Y-86354468D01*
X121387940Y-85749413D02*
X122253965Y-85249413D01*
X122253965Y-85249413D02*
X121468709Y-85317881D01*
X121468709Y-85317881D02*
X121920632Y-84672063D01*
X121920632Y-84672063D02*
X121054606Y-85172063D01*
X120745082Y-84635952D02*
X120833941Y-84694621D01*
X120833941Y-84694621D02*
X120898990Y-84712051D01*
X120898990Y-84712051D02*
X121005278Y-84705671D01*
X121005278Y-84705671D02*
X121252714Y-84562814D01*
X121252714Y-84562814D02*
X121311383Y-84473956D01*
X121311383Y-84473956D02*
X121328812Y-84408907D01*
X121328812Y-84408907D02*
X121322433Y-84302619D01*
X121322433Y-84302619D02*
X121251004Y-84178901D01*
X121251004Y-84178901D02*
X121162146Y-84120232D01*
X121162146Y-84120232D02*
X121097097Y-84102802D01*
X121097097Y-84102802D02*
X120990809Y-84109182D01*
X120990809Y-84109182D02*
X120743373Y-84252039D01*
X120743373Y-84252039D02*
X120684704Y-84340897D01*
X120684704Y-84340897D02*
X120667274Y-84405946D01*
X120667274Y-84405946D02*
X120673654Y-84512234D01*
X120673654Y-84512234D02*
X120745082Y-84635952D01*
X120364130Y-83976123D02*
X121230155Y-83476123D01*
X120149844Y-83604969D02*
X120603477Y-83343065D01*
X120603477Y-83343065D02*
X120709765Y-83336685D01*
X120709765Y-83336685D02*
X120798623Y-83395354D01*
X120798623Y-83395354D02*
X120870052Y-83519072D01*
X120870052Y-83519072D02*
X120876431Y-83625360D01*
X120876431Y-83625360D02*
X120859002Y-83690409D01*
X119911749Y-83192576D02*
X120489099Y-82859243D01*
X120406621Y-82906862D02*
X120424050Y-82841813D01*
X120424050Y-82841813D02*
X120417671Y-82735525D01*
X120417671Y-82735525D02*
X120346242Y-82611807D01*
X120346242Y-82611807D02*
X120257384Y-82553138D01*
X120257384Y-82553138D02*
X120151096Y-82559518D01*
X120151096Y-82559518D02*
X119697463Y-82821423D01*
X120151096Y-82559518D02*
X120209765Y-82470659D01*
X120209765Y-82470659D02*
X120203385Y-82364371D01*
X120203385Y-82364371D02*
X120131956Y-82240653D01*
X120131956Y-82240653D02*
X120043098Y-82181984D01*
X120043098Y-82181984D02*
X119936810Y-82188364D01*
X119936810Y-82188364D02*
X119483178Y-82450269D01*
X119310131Y-82055306D02*
X119221273Y-81996637D01*
X119221273Y-81996637D02*
X119126035Y-81831680D01*
X119126035Y-81831680D02*
X119119655Y-81725391D01*
X119119655Y-81725391D02*
X119178324Y-81636533D01*
X119178324Y-81636533D02*
X119219564Y-81612724D01*
X119219564Y-81612724D02*
X119325852Y-81606344D01*
X119325852Y-81606344D02*
X119414710Y-81665013D01*
X119414710Y-81665013D02*
X119486139Y-81788731D01*
X119486139Y-81788731D02*
X119574997Y-81847400D01*
X119574997Y-81847400D02*
X119681285Y-81841020D01*
X119681285Y-81841020D02*
X119722524Y-81817211D01*
X119722524Y-81817211D02*
X119781193Y-81728352D01*
X119781193Y-81728352D02*
X119774814Y-81622064D01*
X119774814Y-81622064D02*
X119703385Y-81498346D01*
X119703385Y-81498346D02*
X119614527Y-81439677D01*
D11*
X177367428Y-81751785D02*
X177367428Y-81001785D01*
X177367428Y-81001785D02*
X177188857Y-81001785D01*
X177188857Y-81001785D02*
X177081714Y-81037500D01*
X177081714Y-81037500D02*
X177010285Y-81108928D01*
X177010285Y-81108928D02*
X176974571Y-81180357D01*
X176974571Y-81180357D02*
X176938857Y-81323214D01*
X176938857Y-81323214D02*
X176938857Y-81430357D01*
X176938857Y-81430357D02*
X176974571Y-81573214D01*
X176974571Y-81573214D02*
X177010285Y-81644642D01*
X177010285Y-81644642D02*
X177081714Y-81716071D01*
X177081714Y-81716071D02*
X177188857Y-81751785D01*
X177188857Y-81751785D02*
X177367428Y-81751785D01*
X176260285Y-81001785D02*
X176617428Y-81001785D01*
X176617428Y-81001785D02*
X176653142Y-81358928D01*
X176653142Y-81358928D02*
X176617428Y-81323214D01*
X176617428Y-81323214D02*
X176546000Y-81287500D01*
X176546000Y-81287500D02*
X176367428Y-81287500D01*
X176367428Y-81287500D02*
X176296000Y-81323214D01*
X176296000Y-81323214D02*
X176260285Y-81358928D01*
X176260285Y-81358928D02*
X176224571Y-81430357D01*
X176224571Y-81430357D02*
X176224571Y-81608928D01*
X176224571Y-81608928D02*
X176260285Y-81680357D01*
X176260285Y-81680357D02*
X176296000Y-81716071D01*
X176296000Y-81716071D02*
X176367428Y-81751785D01*
X176367428Y-81751785D02*
X176546000Y-81751785D01*
X176546000Y-81751785D02*
X176617428Y-81716071D01*
X176617428Y-81716071D02*
X176653142Y-81680357D01*
D10*
X184040082Y-81937908D02*
X183730558Y-82474019D01*
X183730558Y-82474019D02*
X184227139Y-82375820D01*
X184227139Y-82375820D02*
X184155711Y-82499538D01*
X184155711Y-82499538D02*
X184149331Y-82605826D01*
X184149331Y-82605826D02*
X184166761Y-82670875D01*
X184166761Y-82670875D02*
X184225430Y-82759733D01*
X184225430Y-82759733D02*
X184431626Y-82878781D01*
X184431626Y-82878781D02*
X184537914Y-82885161D01*
X184537914Y-82885161D02*
X184602963Y-82867731D01*
X184602963Y-82867731D02*
X184691822Y-82809062D01*
X184691822Y-82809062D02*
X184834679Y-82561626D01*
X184834679Y-82561626D02*
X184841058Y-82455338D01*
X184841058Y-82455338D02*
X184823629Y-82390289D01*
X184299819Y-83297554D02*
X184317249Y-83362602D01*
X184317249Y-83362602D02*
X184382298Y-83345173D01*
X184382298Y-83345173D02*
X184364868Y-83280124D01*
X184364868Y-83280124D02*
X184299819Y-83297554D01*
X184299819Y-83297554D02*
X184382298Y-83345173D01*
X184120393Y-83798805D02*
X184025155Y-83963762D01*
X184025155Y-83963762D02*
X183936297Y-84022431D01*
X183936297Y-84022431D02*
X183871248Y-84039861D01*
X183871248Y-84039861D02*
X183699911Y-84050911D01*
X183699911Y-84050911D02*
X183511144Y-83996912D01*
X183511144Y-83996912D02*
X183181230Y-83806436D01*
X183181230Y-83806436D02*
X183122561Y-83717577D01*
X183122561Y-83717577D02*
X183105131Y-83652529D01*
X183105131Y-83652529D02*
X183111511Y-83546240D01*
X183111511Y-83546240D02*
X183206749Y-83381283D01*
X183206749Y-83381283D02*
X183295607Y-83322614D01*
X183295607Y-83322614D02*
X183360656Y-83305184D01*
X183360656Y-83305184D02*
X183466944Y-83311564D01*
X183466944Y-83311564D02*
X183673141Y-83430612D01*
X183673141Y-83430612D02*
X183731810Y-83519470D01*
X183731810Y-83519470D02*
X183749239Y-83584519D01*
X183749239Y-83584519D02*
X183742860Y-83690807D01*
X183742860Y-83690807D02*
X183647622Y-83855764D01*
X183647622Y-83855764D02*
X183558763Y-83914433D01*
X183558763Y-83914433D02*
X183493714Y-83931863D01*
X183493714Y-83931863D02*
X183387426Y-83925483D01*
X183368012Y-85101967D02*
X182501987Y-84601967D01*
X182501987Y-84601967D02*
X182953910Y-85247785D01*
X182953910Y-85247785D02*
X182168654Y-85179317D01*
X182168654Y-85179317D02*
X183034679Y-85679317D01*
X182725155Y-86215428D02*
X182731535Y-86109140D01*
X182731535Y-86109140D02*
X182714105Y-86044091D01*
X182714105Y-86044091D02*
X182655436Y-85955232D01*
X182655436Y-85955232D02*
X182408000Y-85812375D01*
X182408000Y-85812375D02*
X182301712Y-85805996D01*
X182301712Y-85805996D02*
X182236663Y-85823425D01*
X182236663Y-85823425D02*
X182147805Y-85882094D01*
X182147805Y-85882094D02*
X182076376Y-86005812D01*
X182076376Y-86005812D02*
X182069997Y-86112100D01*
X182069997Y-86112100D02*
X182087426Y-86177149D01*
X182087426Y-86177149D02*
X182146095Y-86266008D01*
X182146095Y-86266008D02*
X182393531Y-86408865D01*
X182393531Y-86408865D02*
X182499819Y-86415245D01*
X182499819Y-86415245D02*
X182564868Y-86397815D01*
X182564868Y-86397815D02*
X182653727Y-86339146D01*
X182653727Y-86339146D02*
X182725155Y-86215428D01*
X182344203Y-86875257D02*
X181478177Y-86375257D01*
X182129917Y-87246410D02*
X181676285Y-86984506D01*
X181676285Y-86984506D02*
X181617616Y-86895647D01*
X181617616Y-86895647D02*
X181623995Y-86789359D01*
X181623995Y-86789359D02*
X181695424Y-86665641D01*
X181695424Y-86665641D02*
X181784282Y-86606972D01*
X181784282Y-86606972D02*
X181849331Y-86589542D01*
X181891822Y-87658804D02*
X181314471Y-87325470D01*
X181396950Y-87373089D02*
X181331901Y-87390519D01*
X181331901Y-87390519D02*
X181243043Y-87449188D01*
X181243043Y-87449188D02*
X181171614Y-87572906D01*
X181171614Y-87572906D02*
X181165235Y-87679194D01*
X181165235Y-87679194D02*
X181223904Y-87768053D01*
X181223904Y-87768053D02*
X181677536Y-88029957D01*
X181223904Y-87768053D02*
X181117616Y-87761673D01*
X181117616Y-87761673D02*
X181028757Y-87820342D01*
X181028757Y-87820342D02*
X180957329Y-87944060D01*
X180957329Y-87944060D02*
X180950949Y-88050348D01*
X180950949Y-88050348D02*
X181009618Y-88139206D01*
X181009618Y-88139206D02*
X181463250Y-88401111D01*
D11*
X176974571Y-83450500D02*
X177046000Y-83414785D01*
X177046000Y-83414785D02*
X177153142Y-83414785D01*
X177153142Y-83414785D02*
X177260285Y-83450500D01*
X177260285Y-83450500D02*
X177331714Y-83521928D01*
X177331714Y-83521928D02*
X177367428Y-83593357D01*
X177367428Y-83593357D02*
X177403142Y-83736214D01*
X177403142Y-83736214D02*
X177403142Y-83843357D01*
X177403142Y-83843357D02*
X177367428Y-83986214D01*
X177367428Y-83986214D02*
X177331714Y-84057642D01*
X177331714Y-84057642D02*
X177260285Y-84129071D01*
X177260285Y-84129071D02*
X177153142Y-84164785D01*
X177153142Y-84164785D02*
X177081714Y-84164785D01*
X177081714Y-84164785D02*
X176974571Y-84129071D01*
X176974571Y-84129071D02*
X176938857Y-84093357D01*
X176938857Y-84093357D02*
X176938857Y-83843357D01*
X176938857Y-83843357D02*
X177081714Y-83843357D01*
X176617428Y-84164785D02*
X176617428Y-83414785D01*
X176617428Y-83414785D02*
X176188857Y-84164785D01*
X176188857Y-84164785D02*
X176188857Y-83414785D01*
X175831714Y-84164785D02*
X175831714Y-83414785D01*
X175831714Y-83414785D02*
X175653143Y-83414785D01*
X175653143Y-83414785D02*
X175546000Y-83450500D01*
X175546000Y-83450500D02*
X175474571Y-83521928D01*
X175474571Y-83521928D02*
X175438857Y-83593357D01*
X175438857Y-83593357D02*
X175403143Y-83736214D01*
X175403143Y-83736214D02*
X175403143Y-83843357D01*
X175403143Y-83843357D02*
X175438857Y-83986214D01*
X175438857Y-83986214D02*
X175474571Y-84057642D01*
X175474571Y-84057642D02*
X175546000Y-84129071D01*
X175546000Y-84129071D02*
X175653143Y-84164785D01*
X175653143Y-84164785D02*
X175831714Y-84164785D01*
D10*
X150109333Y-97218523D02*
X150109333Y-96742333D01*
X149823619Y-97313761D02*
X150823619Y-96980428D01*
X150823619Y-96980428D02*
X149823619Y-96647095D01*
X149823619Y-96313761D02*
X150823619Y-96313761D01*
X150823619Y-96313761D02*
X150823619Y-96075666D01*
X150823619Y-96075666D02*
X150776000Y-95932809D01*
X150776000Y-95932809D02*
X150680761Y-95837571D01*
X150680761Y-95837571D02*
X150585523Y-95789952D01*
X150585523Y-95789952D02*
X150395047Y-95742333D01*
X150395047Y-95742333D02*
X150252190Y-95742333D01*
X150252190Y-95742333D02*
X150061714Y-95789952D01*
X150061714Y-95789952D02*
X149966476Y-95837571D01*
X149966476Y-95837571D02*
X149871238Y-95932809D01*
X149871238Y-95932809D02*
X149823619Y-96075666D01*
X149823619Y-96075666D02*
X149823619Y-96313761D01*
X149871238Y-95361380D02*
X149823619Y-95218523D01*
X149823619Y-95218523D02*
X149823619Y-94980428D01*
X149823619Y-94980428D02*
X149871238Y-94885190D01*
X149871238Y-94885190D02*
X149918857Y-94837571D01*
X149918857Y-94837571D02*
X150014095Y-94789952D01*
X150014095Y-94789952D02*
X150109333Y-94789952D01*
X150109333Y-94789952D02*
X150204571Y-94837571D01*
X150204571Y-94837571D02*
X150252190Y-94885190D01*
X150252190Y-94885190D02*
X150299809Y-94980428D01*
X150299809Y-94980428D02*
X150347428Y-95170904D01*
X150347428Y-95170904D02*
X150395047Y-95266142D01*
X150395047Y-95266142D02*
X150442666Y-95313761D01*
X150442666Y-95313761D02*
X150537904Y-95361380D01*
X150537904Y-95361380D02*
X150633142Y-95361380D01*
X150633142Y-95361380D02*
X150728380Y-95313761D01*
X150728380Y-95313761D02*
X150776000Y-95266142D01*
X150776000Y-95266142D02*
X150823619Y-95170904D01*
X150823619Y-95170904D02*
X150823619Y-94932809D01*
X150823619Y-94932809D02*
X150776000Y-94789952D01*
X149823619Y-93837571D02*
X149823619Y-94408999D01*
X149823619Y-94123285D02*
X150823619Y-94123285D01*
X150823619Y-94123285D02*
X150680761Y-94218523D01*
X150680761Y-94218523D02*
X150585523Y-94313761D01*
X150585523Y-94313761D02*
X150537904Y-94408999D01*
X150823619Y-93218523D02*
X150823619Y-93123285D01*
X150823619Y-93123285D02*
X150776000Y-93028047D01*
X150776000Y-93028047D02*
X150728380Y-92980428D01*
X150728380Y-92980428D02*
X150633142Y-92932809D01*
X150633142Y-92932809D02*
X150442666Y-92885190D01*
X150442666Y-92885190D02*
X150204571Y-92885190D01*
X150204571Y-92885190D02*
X150014095Y-92932809D01*
X150014095Y-92932809D02*
X149918857Y-92980428D01*
X149918857Y-92980428D02*
X149871238Y-93028047D01*
X149871238Y-93028047D02*
X149823619Y-93123285D01*
X149823619Y-93123285D02*
X149823619Y-93218523D01*
X149823619Y-93218523D02*
X149871238Y-93313761D01*
X149871238Y-93313761D02*
X149918857Y-93361380D01*
X149918857Y-93361380D02*
X150014095Y-93408999D01*
X150014095Y-93408999D02*
X150204571Y-93456618D01*
X150204571Y-93456618D02*
X150442666Y-93456618D01*
X150442666Y-93456618D02*
X150633142Y-93408999D01*
X150633142Y-93408999D02*
X150728380Y-93361380D01*
X150728380Y-93361380D02*
X150776000Y-93313761D01*
X150776000Y-93313761D02*
X150823619Y-93218523D01*
X149823619Y-91932809D02*
X149823619Y-92504237D01*
X149823619Y-92218523D02*
X150823619Y-92218523D01*
X150823619Y-92218523D02*
X150680761Y-92313761D01*
X150680761Y-92313761D02*
X150585523Y-92408999D01*
X150585523Y-92408999D02*
X150537904Y-92504237D01*
X150823619Y-91028047D02*
X150823619Y-91504237D01*
X150823619Y-91504237D02*
X150347428Y-91551856D01*
X150347428Y-91551856D02*
X150395047Y-91504237D01*
X150395047Y-91504237D02*
X150442666Y-91408999D01*
X150442666Y-91408999D02*
X150442666Y-91170904D01*
X150442666Y-91170904D02*
X150395047Y-91075666D01*
X150395047Y-91075666D02*
X150347428Y-91028047D01*
X150347428Y-91028047D02*
X150252190Y-90980428D01*
X150252190Y-90980428D02*
X150014095Y-90980428D01*
X150014095Y-90980428D02*
X149918857Y-91028047D01*
X149918857Y-91028047D02*
X149871238Y-91075666D01*
X149871238Y-91075666D02*
X149823619Y-91170904D01*
X149823619Y-91170904D02*
X149823619Y-91408999D01*
X149823619Y-91408999D02*
X149871238Y-91504237D01*
X149871238Y-91504237D02*
X149918857Y-91551856D01*
%TO.C,J2*%
X126135854Y-110089359D02*
X126135854Y-110803645D01*
X126135854Y-110803645D02*
X126183473Y-110946502D01*
X126183473Y-110946502D02*
X126278711Y-111041740D01*
X126278711Y-111041740D02*
X126421568Y-111089359D01*
X126421568Y-111089359D02*
X126516806Y-111089359D01*
X125707282Y-110184598D02*
X125659663Y-110136979D01*
X125659663Y-110136979D02*
X125564425Y-110089359D01*
X125564425Y-110089359D02*
X125326330Y-110089359D01*
X125326330Y-110089359D02*
X125231092Y-110136979D01*
X125231092Y-110136979D02*
X125183473Y-110184598D01*
X125183473Y-110184598D02*
X125135854Y-110279836D01*
X125135854Y-110279836D02*
X125135854Y-110375074D01*
X125135854Y-110375074D02*
X125183473Y-110517931D01*
X125183473Y-110517931D02*
X125754901Y-111089359D01*
X125754901Y-111089359D02*
X125135854Y-111089359D01*
D12*
%TO.C,R2*%
X189617769Y-82929252D02*
X184547769Y-91710749D01*
X189202077Y-82689252D02*
X189617769Y-82929252D01*
X186707923Y-81249252D02*
X186292231Y-81009252D01*
X186292231Y-81009252D02*
X181222231Y-89790749D01*
X184547769Y-91710749D02*
X184132077Y-91470749D01*
X181222231Y-89790749D02*
X181637923Y-90030749D01*
D13*
%TO.C,J2*%
X126327780Y-82768724D02*
X126327780Y-105628724D01*
D12*
X127012521Y-81451979D02*
X129672521Y-81451979D01*
X127012521Y-104371979D02*
X127012521Y-81451979D01*
X127012521Y-104371979D02*
X129672521Y-104371979D01*
X128342521Y-106971979D02*
X129672521Y-106971979D01*
D13*
X128867780Y-108168724D02*
X146647780Y-108168724D01*
D12*
X129672521Y-104371979D02*
X129672521Y-81451979D01*
X129672521Y-106971979D02*
X129672521Y-105641979D01*
D13*
X146647780Y-80228724D02*
X128867780Y-80228724D01*
X149187780Y-105628724D02*
X149187780Y-82768724D01*
X128867780Y-80228724D02*
G75*
G03*
X126327780Y-82768724I1J-2540001D01*
G01*
X126327780Y-105628724D02*
G75*
G03*
X128867780Y-108168724I2540001J1D01*
G01*
X149187776Y-82768724D02*
G75*
G03*
X146647780Y-80228724I-2539955J45D01*
G01*
X146647780Y-108168718D02*
G75*
G03*
X149187780Y-105628724I1J2539999D01*
G01*
D12*
%TO.C,R4*%
X116305000Y-89792436D02*
X116305000Y-90246564D01*
X114835000Y-89792436D02*
X114835000Y-90246564D01*
%TO.C,J1*%
X115585000Y-94934000D02*
X114315000Y-94934000D01*
X114315000Y-94934000D02*
X114315000Y-96204000D01*
X121045000Y-97246929D02*
X121045000Y-97701071D01*
X120285000Y-97246929D02*
X120285000Y-97701071D01*
X118505000Y-97246929D02*
X118505000Y-97701071D01*
X117745000Y-97246929D02*
X117745000Y-97701071D01*
X115965000Y-97314000D02*
X115965000Y-97701071D01*
X115205000Y-97314000D02*
X115205000Y-97701071D01*
X121045000Y-99786929D02*
X121045000Y-100184000D01*
X120285000Y-99786929D02*
X120285000Y-100184000D01*
X118505000Y-99786929D02*
X118505000Y-100184000D01*
X117745000Y-99786929D02*
X117745000Y-100184000D01*
X115965000Y-99786929D02*
X115965000Y-100184000D01*
X115205000Y-99786929D02*
X115205000Y-100184000D01*
X121995000Y-100184000D02*
X121995000Y-102844000D01*
X119395000Y-100184000D02*
X119395000Y-102844000D01*
X116855000Y-100184000D02*
X116855000Y-102844000D01*
X114255000Y-100184000D02*
X121995000Y-100184000D01*
X121995000Y-102844000D02*
X114255000Y-102844000D01*
X120285000Y-102844000D02*
X120285000Y-108844000D01*
X117745000Y-102844000D02*
X117745000Y-108844000D01*
X115865000Y-102844000D02*
X115865000Y-108844000D01*
X115745000Y-102844000D02*
X115745000Y-108844000D01*
X115625000Y-102844000D02*
X115625000Y-108844000D01*
X115505000Y-102844000D02*
X115505000Y-108844000D01*
X115385000Y-102844000D02*
X115385000Y-108844000D01*
X115265000Y-102844000D02*
X115265000Y-108844000D01*
X115205000Y-102844000D02*
X115205000Y-108844000D01*
X114255000Y-102844000D02*
X114255000Y-100184000D01*
X121045000Y-108844000D02*
X121045000Y-102844000D01*
X120285000Y-108844000D02*
X121045000Y-108844000D01*
X118505000Y-108844000D02*
X118505000Y-102844000D01*
X117745000Y-108844000D02*
X118505000Y-108844000D01*
X115965000Y-108844000D02*
X115965000Y-102844000D01*
X115205000Y-108844000D02*
X115965000Y-108844000D01*
%TO.C,J4*%
X184404000Y-94742000D02*
X183134000Y-94742000D01*
X183134000Y-94742000D02*
X183134000Y-96012000D01*
X189864000Y-97054929D02*
X189864000Y-97509071D01*
X189104000Y-97054929D02*
X189104000Y-97509071D01*
X187324000Y-97054929D02*
X187324000Y-97509071D01*
X186564000Y-97054929D02*
X186564000Y-97509071D01*
X184784000Y-97122000D02*
X184784000Y-97509071D01*
X184024000Y-97122000D02*
X184024000Y-97509071D01*
X189864000Y-99594929D02*
X189864000Y-99992000D01*
X189104000Y-99594929D02*
X189104000Y-99992000D01*
X187324000Y-99594929D02*
X187324000Y-99992000D01*
X186564000Y-99594929D02*
X186564000Y-99992000D01*
X184784000Y-99594929D02*
X184784000Y-99992000D01*
X184024000Y-99594929D02*
X184024000Y-99992000D01*
X190814000Y-99992000D02*
X190814000Y-102652000D01*
X188214000Y-99992000D02*
X188214000Y-102652000D01*
X185674000Y-99992000D02*
X185674000Y-102652000D01*
X183074000Y-99992000D02*
X190814000Y-99992000D01*
X190814000Y-102652000D02*
X183074000Y-102652000D01*
X189104000Y-102652000D02*
X189104000Y-108652000D01*
X186564000Y-102652000D02*
X186564000Y-108652000D01*
X184684000Y-102652000D02*
X184684000Y-108652000D01*
X184564000Y-102652000D02*
X184564000Y-108652000D01*
X184444000Y-102652000D02*
X184444000Y-108652000D01*
X184324000Y-102652000D02*
X184324000Y-108652000D01*
X184204000Y-102652000D02*
X184204000Y-108652000D01*
X184084000Y-102652000D02*
X184084000Y-108652000D01*
X184024000Y-102652000D02*
X184024000Y-108652000D01*
X183074000Y-102652000D02*
X183074000Y-99992000D01*
X189864000Y-108652000D02*
X189864000Y-102652000D01*
X189104000Y-108652000D02*
X189864000Y-108652000D01*
X187324000Y-108652000D02*
X187324000Y-102652000D01*
X186564000Y-108652000D02*
X187324000Y-108652000D01*
X184784000Y-108652000D02*
X184784000Y-102652000D01*
X184024000Y-108652000D02*
X184784000Y-108652000D01*
%TO.C,R1*%
X190981000Y-88926936D02*
X190981000Y-89381064D01*
X189511000Y-88926936D02*
X189511000Y-89381064D01*
%TO.C,R3*%
X118253769Y-81263252D02*
X123323769Y-90044749D01*
X117838077Y-81503252D02*
X118253769Y-81263252D01*
X115343923Y-82943252D02*
X114928231Y-83183252D01*
X114928231Y-83183252D02*
X119998231Y-91964749D01*
X123323769Y-90044749D02*
X122908077Y-90284749D01*
X119998231Y-91964749D02*
X120413923Y-91724749D01*
%TO.C,J3*%
X180527000Y-85277000D02*
X177867000Y-85277000D01*
X180527000Y-82677000D02*
X180527000Y-85277000D01*
X180527000Y-82677000D02*
X177867000Y-82677000D01*
X180527000Y-81407000D02*
X180527000Y-80077000D01*
X180527000Y-80077000D02*
X179197000Y-80077000D01*
X177867000Y-82677000D02*
X177867000Y-85277000D01*
%TD*%
M02*
