M48
; DRILL file {KiCad (7.0.0)} date Sat Mar 18 03:10:00 2023
; FORMAT={-:-/ absolute / inch / decimal}
; #@! TF.CreationDate,2023-03-18T03:10:00-07:00
; #@! TF.GenerationSoftware,Kicad,Pcbnew,(7.0.0)
; #@! TF.FileFunction,Plated,1,2,PTH
FMAT,2
INCH
; #@! TA.AperFunction,Plated,PTH,ComponentDrill
T1C0.0394
; #@! TA.AperFunction,Plated,PTH,ComponentDrill
T2C0.0709
%
G90
G05
T1
X5.115Y-2.69
X5.115Y-2.79
X5.115Y-2.89
X5.115Y-5.4
X5.115Y-5.5
X5.115Y-5.6
X5.215Y-2.69
X5.215Y-2.79
X5.215Y-2.89
X5.215Y-5.4
X5.215Y-5.5
X5.215Y-5.6
T2
X5.8367Y-2.9954
X5.8367Y-3.1954
X5.8367Y-3.3954
X5.8367Y-3.5954
X5.8367Y-3.7954
X5.8367Y-3.9954
X5.8367Y-4.1954
X5.8367Y-4.3954
X5.8367Y-4.5954
X5.8367Y-4.7954
X5.8367Y-4.9954
X5.8367Y-5.1954
T0
M30
