%TF.GenerationSoftware,KiCad,Pcbnew,(7.0.0)*%
%TF.CreationDate,2023-12-04T19:23:21-08:00*%
%TF.ProjectId,Bottom_Board,426f7474-6f6d-45f4-926f-6172642e6b69,0*%
%TF.SameCoordinates,Original*%
%TF.FileFunction,Copper,L1,Top*%
%TF.FilePolarity,Positive*%
%FSLAX46Y46*%
G04 Gerber Fmt 4.6, Leading zero omitted, Abs format (unit mm)*
G04 Created by KiCad (PCBNEW (7.0.0)) date 2023-12-04 19:23:21*
%MOMM*%
%LPD*%
G01*
G04 APERTURE LIST*
%TA.AperFunction,ComponentPad*%
%ADD10R,2.000000X2.000000*%
%TD*%
%TA.AperFunction,ComponentPad*%
%ADD11C,2.000000*%
%TD*%
%TA.AperFunction,ComponentPad*%
%ADD12C,3.000000*%
%TD*%
%TA.AperFunction,ComponentPad*%
%ADD13C,1.700000*%
%TD*%
%TA.AperFunction,ComponentPad*%
%ADD14O,1.700000X1.700000*%
%TD*%
%TA.AperFunction,ComponentPad*%
%ADD15C,2.880000*%
%TD*%
%TA.AperFunction,ComponentPad*%
%ADD16C,1.440000*%
%TD*%
%TA.AperFunction,ComponentPad*%
%ADD17R,1.600000X1.600000*%
%TD*%
%TA.AperFunction,ComponentPad*%
%ADD18O,1.600000X1.600000*%
%TD*%
%TA.AperFunction,ComponentPad*%
%ADD19R,1.700000X1.700000*%
%TD*%
%TA.AperFunction,ViaPad*%
%ADD20C,0.800000*%
%TD*%
%TA.AperFunction,Conductor*%
%ADD21C,0.250000*%
%TD*%
G04 APERTURE END LIST*
D10*
%TO.P,C2,1*%
%TO.N,5V*%
X149270322Y-127507999D03*
D11*
%TO.P,C2,2*%
%TO.N,AN1*%
X144270323Y-127508000D03*
%TD*%
D12*
%TO.P,J5,1*%
%TO.N,AN1*%
X163220000Y-126786000D03*
%TO.P,J5,2*%
X163220000Y-134286000D03*
%TO.P,J5,3*%
%TO.N,5V*%
X163220000Y-141786000D03*
%TO.P,J5,4*%
%TO.N,-5V*%
X160720000Y-129286000D03*
%TO.P,J5,5*%
%TO.N,12V*%
X160720000Y-139286000D03*
%TO.P,J5,6*%
%TO.N,AN1*%
X172720000Y-129286000D03*
%TO.P,J5,7*%
X172720000Y-139286000D03*
%TD*%
D10*
%TO.P,C3,1*%
%TO.N,5V*%
X149351999Y-139445999D03*
D11*
%TO.P,C3,2*%
%TO.N,AN1*%
X144352000Y-139446000D03*
%TD*%
D13*
%TO.P,J2,1,Pin_1*%
%TO.N,AN0*%
X123698000Y-68326000D03*
D14*
%TO.P,J2,2,Pin_2*%
%TO.N,AN1*%
X121157999Y-68325999D03*
%TO.P,J2,3,Pin_3*%
X123697999Y-70865999D03*
%TO.P,J2,4,Pin_4*%
%TO.N,5V*%
X121157999Y-70865999D03*
%TO.P,J2,5,Pin_5*%
%TO.N,AN2*%
X123697999Y-73405999D03*
%TO.P,J2,6,Pin_6*%
%TO.N,AN3*%
X121157999Y-73405999D03*
%TD*%
D15*
%TO.P,J3,1,Pin_1*%
%TO.N,D11*%
X166250125Y-118364000D03*
%TO.P,J3,2,Pin_2*%
%TO.N,AN1*%
X166250125Y-113284000D03*
%TO.P,J3,3,Pin_3*%
%TO.N,AN3*%
X166250125Y-108204000D03*
%TO.P,J3,4,Pin_4*%
%TO.N,AN2*%
X166250125Y-103124000D03*
%TO.P,J3,5,Pin_5*%
%TO.N,AN1*%
X166250125Y-98044000D03*
%TO.P,J3,6,Pin_6*%
%TO.N,E23_INPUT*%
X166250125Y-92964000D03*
%TD*%
D12*
%TO.P,TP1,1,1*%
%TO.N,Net-(C4-Pad1)*%
X131572000Y-123190000D03*
%TD*%
D13*
%TO.P,J1,1,Pin_1*%
%TO.N,D17*%
X123698000Y-137160000D03*
D14*
%TO.P,J1,2,Pin_2*%
%TO.N,D43*%
X121157999Y-137159999D03*
%TO.P,J1,3,Pin_3*%
%TO.N,D11*%
X123697999Y-139699999D03*
%TO.P,J1,4,Pin_4*%
%TO.N,D44*%
X121157999Y-139699999D03*
%TO.P,J1,5,Pin_5*%
%TO.N,D10*%
X123697999Y-142239999D03*
%TO.P,J1,6,Pin_6*%
%TO.N,D18*%
X121157999Y-142239999D03*
%TD*%
D16*
%TO.P,RV2,1,1*%
%TO.N,Net-(R15-Pad2)*%
X150070000Y-115824000D03*
%TO.P,RV2,2,2*%
%TO.N,Net-(U1B--)*%
X152610000Y-113284000D03*
%TO.P,RV2,3,3*%
%TO.N,Net-(R18-Pad1)*%
X150070000Y-110744000D03*
%TD*%
D17*
%TO.P,SW2,1*%
%TO.N,D43*%
X163956999Y-76933229D03*
D18*
%TO.P,SW2,2*%
%TO.N,D44*%
X163956999Y-79473229D03*
%TO.P,SW2,3*%
%TO.N,D18*%
X163956999Y-82013229D03*
%TO.P,SW2,4*%
%TO.N,D10*%
X163956999Y-84553229D03*
%TO.P,SW2,5*%
%TO.N,AN1*%
X171576999Y-84553229D03*
%TO.P,SW2,6*%
X171576999Y-82013229D03*
%TO.P,SW2,7*%
X171576999Y-79473229D03*
%TO.P,SW2,8*%
X171576999Y-76933229D03*
%TD*%
D12*
%TO.P,TP2,1,1*%
%TO.N,Net-(U1D--)*%
X131318000Y-80010000D03*
%TD*%
D16*
%TO.P,RV1,1,1*%
%TO.N,Net-(R2-Pad1)*%
X150114000Y-104140000D03*
%TO.P,RV1,2,2*%
%TO.N,Net-(R6-Pad2)*%
X152654000Y-101600000D03*
%TO.P,RV1,3,3*%
%TO.N,Net-(R3-Pad2)*%
X150114000Y-99060000D03*
%TD*%
D19*
%TO.P,JP1,1,A*%
%TO.N,2x_OUTPUT*%
X135381999Y-115798599D03*
D14*
%TO.P,JP1,2,C*%
%TO.N,AN0*%
X135381999Y-113258599D03*
%TO.P,JP1,3,B*%
%TO.N,4x_OUTPUT*%
X135381999Y-110718599D03*
%TD*%
D20*
%TO.N,Net-(C4-Pad2)*%
X129286000Y-119126000D03*
X128016000Y-109474000D03*
%TO.N,Net-(C8-Pad2)*%
X134620000Y-89662000D03*
X127254000Y-91694000D03*
%TO.N,Net-(R2-Pad1)*%
X137160000Y-91694000D03*
%TO.N,-5V*%
X115925600Y-111302800D03*
X116789200Y-91948000D03*
%TO.N,Net-(R6-Pad2)*%
X141224000Y-93980000D03*
%TO.N,Net-(R15-Pad2)*%
X137160000Y-93472000D03*
%TO.N,Net-(U1B--)*%
X125984000Y-94742000D03*
%TO.N,Net-(R18-Pad1)*%
X151638000Y-110744000D03*
%TO.N,5V*%
X134061200Y-94691200D03*
X125501400Y-91922600D03*
X124561600Y-111328200D03*
%TD*%
D21*
%TO.N,AN3*%
X133096000Y-75184000D02*
X166116000Y-108204000D01*
X122936000Y-75184000D02*
X133096000Y-75184000D01*
X121158000Y-73406000D02*
X122936000Y-75184000D01*
X166116000Y-108204000D02*
X166250125Y-108204000D01*
%TO.N,AN2*%
X136532125Y-73406000D02*
X166250125Y-103124000D01*
X123698000Y-73406000D02*
X136532125Y-73406000D01*
%TO.N,AN1*%
X171577000Y-82013230D02*
X171577000Y-84553230D01*
X171577000Y-76933230D02*
X171577000Y-79473230D01*
X171577000Y-74041000D02*
X171577000Y-76933230D01*
X171577000Y-79473230D02*
X171577000Y-82013230D01*
X123698000Y-70866000D02*
X168402000Y-70866000D01*
X168402000Y-70866000D02*
X171577000Y-74041000D01*
%TO.N,D43*%
X121666000Y-146558000D02*
X166372792Y-146558000D01*
X118676000Y-139642000D02*
X118676000Y-143568000D01*
X121158000Y-137160000D02*
X118676000Y-139642000D01*
X118676000Y-143568000D02*
X121666000Y-146558000D01*
X170180000Y-83156230D02*
X163957000Y-76933230D01*
X170180000Y-142750792D02*
X170180000Y-83156230D01*
X166372792Y-146558000D02*
X170180000Y-142750792D01*
%TO.N,D44*%
X166244396Y-146050000D02*
X121920000Y-146050000D01*
X169672000Y-142622396D02*
X166244396Y-146050000D01*
X119126000Y-143256000D02*
X119126000Y-141732000D01*
X119126000Y-141732000D02*
X121158000Y-139700000D01*
X163957000Y-79473230D02*
X169672000Y-85188230D01*
X169672000Y-85188230D02*
X169672000Y-142622396D01*
X121920000Y-146050000D02*
X119126000Y-143256000D01*
%TO.N,D18*%
X169164000Y-142494000D02*
X169164000Y-87220230D01*
X121158000Y-142240000D02*
X121158000Y-143442081D01*
X123257919Y-145542000D02*
X166116000Y-145542000D01*
X166116000Y-145542000D02*
X169164000Y-142494000D01*
X121158000Y-143442081D02*
X123257919Y-145542000D01*
X169164000Y-87220230D02*
X163957000Y-82013230D01*
%TO.N,D10*%
X124206000Y-144780000D02*
X165862000Y-144780000D01*
X123698000Y-142240000D02*
X123698000Y-144272000D01*
X168402000Y-142240000D02*
X168402000Y-88998230D01*
X123698000Y-144272000D02*
X124206000Y-144780000D01*
X168402000Y-88998230D02*
X163957000Y-84553230D01*
X165862000Y-144780000D02*
X168402000Y-142240000D01*
%TO.N,D11*%
X157988000Y-135890000D02*
X130048000Y-135890000D01*
X126238000Y-139700000D02*
X123698000Y-139700000D01*
X130048000Y-135890000D02*
X126238000Y-139700000D01*
X166250125Y-118364000D02*
X166250125Y-127627875D01*
X166250125Y-127627875D02*
X157988000Y-135890000D01*
%TO.N,Net-(C4-Pad2)*%
X129286000Y-119126000D02*
X128016000Y-117856000D01*
X128016000Y-117856000D02*
X128016000Y-109474000D01*
%TO.N,Net-(C8-Pad2)*%
X132588000Y-91694000D02*
X134620000Y-89662000D01*
X127254000Y-91694000D02*
X132588000Y-91694000D01*
%TO.N,Net-(R2-Pad1)*%
X137668000Y-91694000D02*
X150114000Y-104140000D01*
X137160000Y-91694000D02*
X137668000Y-91694000D01*
%TO.N,-5V*%
X118110000Y-102108000D02*
X126949200Y-102108000D01*
X115925600Y-111302800D02*
X115824000Y-111201200D01*
X160720000Y-129286000D02*
X152515800Y-121081800D01*
X131064000Y-106222800D02*
X126974600Y-102133400D01*
X137337800Y-121081800D02*
X131064000Y-114808000D01*
X126949200Y-102108000D02*
X126974600Y-102133400D01*
X115824000Y-104394000D02*
X118110000Y-102108000D01*
X152515800Y-121081800D02*
X137337800Y-121081800D01*
X115824000Y-111201200D02*
X115824000Y-104394000D01*
X131064000Y-114808000D02*
X131064000Y-106222800D01*
X126974600Y-102133400D02*
X116789200Y-91948000D01*
%TO.N,Net-(R6-Pad2)*%
X152654000Y-98298000D02*
X152654000Y-101600000D01*
X141224000Y-93980000D02*
X148336000Y-93980000D01*
X148336000Y-93980000D02*
X152654000Y-98298000D01*
%TO.N,Net-(R15-Pad2)*%
X148082000Y-104394000D02*
X148082000Y-113836000D01*
X148082000Y-113836000D02*
X150070000Y-115824000D01*
X137160000Y-93472000D02*
X148082000Y-104394000D01*
%TO.N,Net-(U1B--)*%
X149098000Y-117856000D02*
X150622000Y-117856000D01*
X152610000Y-115868000D02*
X152610000Y-113284000D01*
X125984000Y-94742000D02*
X149098000Y-117856000D01*
X150622000Y-117856000D02*
X152610000Y-115868000D01*
%TO.N,Net-(R18-Pad1)*%
X150070000Y-110744000D02*
X151638000Y-110744000D01*
%TO.N,5V*%
X138098404Y-122478800D02*
X144241123Y-122478800D01*
X130614000Y-110294000D02*
X130614000Y-114994396D01*
X113639600Y-91821000D02*
X114909600Y-90551000D01*
X125730000Y-108204000D02*
X128524000Y-108204000D01*
X128524000Y-108204000D02*
X130614000Y-110294000D01*
X134061200Y-94691200D02*
X128270000Y-94691200D01*
X128270000Y-94691200D02*
X125501400Y-91922600D01*
X122605800Y-113284000D02*
X124561600Y-111328200D01*
X124561600Y-111328200D02*
X124561600Y-109372400D01*
X130614000Y-114994396D02*
X138098404Y-122478800D01*
X125501400Y-91922600D02*
X124129800Y-90551000D01*
X124129800Y-90551000D02*
X114909600Y-90551000D01*
X113639600Y-91821000D02*
X113639600Y-112420400D01*
X144241123Y-122478800D02*
X149270323Y-127508000D01*
X119151400Y-72872600D02*
X119151400Y-85572600D01*
X124561600Y-109372400D02*
X125730000Y-108204000D01*
X121158000Y-70866000D02*
X119151400Y-72872600D01*
X114503200Y-113284000D02*
X122605800Y-113284000D01*
X119151400Y-85572600D02*
X125501400Y-91922600D01*
X113639600Y-112420400D02*
X114503200Y-113284000D01*
%TD*%
M02*
