%TF.GenerationSoftware,KiCad,Pcbnew,(7.0.0)*%
%TF.CreationDate,2023-12-04T19:23:21-08:00*%
%TF.ProjectId,Bottom_Board,426f7474-6f6d-45f4-926f-6172642e6b69,0*%
%TF.SameCoordinates,Original*%
%TF.FileFunction,Copper,L2,Bot*%
%TF.FilePolarity,Positive*%
%FSLAX46Y46*%
G04 Gerber Fmt 4.6, Leading zero omitted, Abs format (unit mm)*
G04 Created by KiCad (PCBNEW (7.0.0)) date 2023-12-04 19:23:21*
%MOMM*%
%LPD*%
G01*
G04 APERTURE LIST*
G04 Aperture macros list*
%AMRoundRect*
0 Rectangle with rounded corners*
0 $1 Rounding radius*
0 $2 $3 $4 $5 $6 $7 $8 $9 X,Y pos of 4 corners*
0 Add a 4 corners polygon primitive as box body*
4,1,4,$2,$3,$4,$5,$6,$7,$8,$9,$2,$3,0*
0 Add four circle primitives for the rounded corners*
1,1,$1+$1,$2,$3*
1,1,$1+$1,$4,$5*
1,1,$1+$1,$6,$7*
1,1,$1+$1,$8,$9*
0 Add four rect primitives between the rounded corners*
20,1,$1+$1,$2,$3,$4,$5,0*
20,1,$1+$1,$4,$5,$6,$7,0*
20,1,$1+$1,$6,$7,$8,$9,0*
20,1,$1+$1,$8,$9,$2,$3,0*%
G04 Aperture macros list end*
%TA.AperFunction,ComponentPad*%
%ADD10R,2.000000X2.000000*%
%TD*%
%TA.AperFunction,ComponentPad*%
%ADD11C,2.000000*%
%TD*%
%TA.AperFunction,ComponentPad*%
%ADD12C,3.000000*%
%TD*%
%TA.AperFunction,ComponentPad*%
%ADD13C,1.700000*%
%TD*%
%TA.AperFunction,ComponentPad*%
%ADD14O,1.700000X1.700000*%
%TD*%
%TA.AperFunction,ComponentPad*%
%ADD15C,2.880000*%
%TD*%
%TA.AperFunction,ComponentPad*%
%ADD16C,1.440000*%
%TD*%
%TA.AperFunction,ComponentPad*%
%ADD17R,1.600000X1.600000*%
%TD*%
%TA.AperFunction,ComponentPad*%
%ADD18O,1.600000X1.600000*%
%TD*%
%TA.AperFunction,ComponentPad*%
%ADD19R,1.700000X1.700000*%
%TD*%
%TA.AperFunction,SMDPad,CuDef*%
%ADD20RoundRect,0.200000X-0.275000X0.200000X-0.275000X-0.200000X0.275000X-0.200000X0.275000X0.200000X0*%
%TD*%
%TA.AperFunction,SMDPad,CuDef*%
%ADD21RoundRect,0.225000X-0.225000X-0.250000X0.225000X-0.250000X0.225000X0.250000X-0.225000X0.250000X0*%
%TD*%
%TA.AperFunction,SMDPad,CuDef*%
%ADD22RoundRect,0.200000X0.275000X-0.200000X0.275000X0.200000X-0.275000X0.200000X-0.275000X-0.200000X0*%
%TD*%
%TA.AperFunction,SMDPad,CuDef*%
%ADD23RoundRect,0.150000X0.825000X0.150000X-0.825000X0.150000X-0.825000X-0.150000X0.825000X-0.150000X0*%
%TD*%
%TA.AperFunction,SMDPad,CuDef*%
%ADD24RoundRect,0.225000X0.225000X0.250000X-0.225000X0.250000X-0.225000X-0.250000X0.225000X-0.250000X0*%
%TD*%
%TA.AperFunction,SMDPad,CuDef*%
%ADD25RoundRect,0.200000X0.200000X0.275000X-0.200000X0.275000X-0.200000X-0.275000X0.200000X-0.275000X0*%
%TD*%
%TA.AperFunction,SMDPad,CuDef*%
%ADD26RoundRect,0.200000X-0.200000X-0.275000X0.200000X-0.275000X0.200000X0.275000X-0.200000X0.275000X0*%
%TD*%
%TA.AperFunction,SMDPad,CuDef*%
%ADD27RoundRect,0.225000X0.250000X-0.225000X0.250000X0.225000X-0.250000X0.225000X-0.250000X-0.225000X0*%
%TD*%
%TA.AperFunction,SMDPad,CuDef*%
%ADD28RoundRect,0.218750X-0.218750X-0.256250X0.218750X-0.256250X0.218750X0.256250X-0.218750X0.256250X0*%
%TD*%
%TA.AperFunction,ViaPad*%
%ADD29C,0.800000*%
%TD*%
%TA.AperFunction,Conductor*%
%ADD30C,0.250000*%
%TD*%
G04 APERTURE END LIST*
D10*
%TO.P,C2,1*%
%TO.N,5V*%
X149270322Y-127507999D03*
D11*
%TO.P,C2,2*%
%TO.N,AN1*%
X144270323Y-127508000D03*
%TD*%
D12*
%TO.P,J5,1*%
%TO.N,AN1*%
X163220000Y-126786000D03*
%TO.P,J5,2*%
X163220000Y-134286000D03*
%TO.P,J5,3*%
%TO.N,5V*%
X163220000Y-141786000D03*
%TO.P,J5,4*%
%TO.N,-5V*%
X160720000Y-129286000D03*
%TO.P,J5,5*%
%TO.N,12V*%
X160720000Y-139286000D03*
%TO.P,J5,6*%
%TO.N,AN1*%
X172720000Y-129286000D03*
%TO.P,J5,7*%
X172720000Y-139286000D03*
%TD*%
D10*
%TO.P,C3,1*%
%TO.N,5V*%
X149351999Y-139445999D03*
D11*
%TO.P,C3,2*%
%TO.N,AN1*%
X144352000Y-139446000D03*
%TD*%
D13*
%TO.P,J2,1,Pin_1*%
%TO.N,AN0*%
X123698000Y-68326000D03*
D14*
%TO.P,J2,2,Pin_2*%
%TO.N,AN1*%
X121157999Y-68325999D03*
%TO.P,J2,3,Pin_3*%
X123697999Y-70865999D03*
%TO.P,J2,4,Pin_4*%
%TO.N,5V*%
X121157999Y-70865999D03*
%TO.P,J2,5,Pin_5*%
%TO.N,AN2*%
X123697999Y-73405999D03*
%TO.P,J2,6,Pin_6*%
%TO.N,AN3*%
X121157999Y-73405999D03*
%TD*%
D15*
%TO.P,J3,1,Pin_1*%
%TO.N,D11*%
X166250125Y-118364000D03*
%TO.P,J3,2,Pin_2*%
%TO.N,AN1*%
X166250125Y-113284000D03*
%TO.P,J3,3,Pin_3*%
%TO.N,AN3*%
X166250125Y-108204000D03*
%TO.P,J3,4,Pin_4*%
%TO.N,AN2*%
X166250125Y-103124000D03*
%TO.P,J3,5,Pin_5*%
%TO.N,AN1*%
X166250125Y-98044000D03*
%TO.P,J3,6,Pin_6*%
%TO.N,E23_INPUT*%
X166250125Y-92964000D03*
%TD*%
D12*
%TO.P,TP1,1,1*%
%TO.N,Net-(C4-Pad1)*%
X131572000Y-123190000D03*
%TD*%
D13*
%TO.P,J1,1,Pin_1*%
%TO.N,D17*%
X123698000Y-137160000D03*
D14*
%TO.P,J1,2,Pin_2*%
%TO.N,D43*%
X121157999Y-137159999D03*
%TO.P,J1,3,Pin_3*%
%TO.N,D11*%
X123697999Y-139699999D03*
%TO.P,J1,4,Pin_4*%
%TO.N,D44*%
X121157999Y-139699999D03*
%TO.P,J1,5,Pin_5*%
%TO.N,D10*%
X123697999Y-142239999D03*
%TO.P,J1,6,Pin_6*%
%TO.N,D18*%
X121157999Y-142239999D03*
%TD*%
D16*
%TO.P,RV2,1,1*%
%TO.N,Net-(R15-Pad2)*%
X150070000Y-115824000D03*
%TO.P,RV2,2,2*%
%TO.N,Net-(U1B--)*%
X152610000Y-113284000D03*
%TO.P,RV2,3,3*%
%TO.N,Net-(R18-Pad1)*%
X150070000Y-110744000D03*
%TD*%
D17*
%TO.P,SW2,1*%
%TO.N,D43*%
X163956999Y-76933229D03*
D18*
%TO.P,SW2,2*%
%TO.N,D44*%
X163956999Y-79473229D03*
%TO.P,SW2,3*%
%TO.N,D18*%
X163956999Y-82013229D03*
%TO.P,SW2,4*%
%TO.N,D10*%
X163956999Y-84553229D03*
%TO.P,SW2,5*%
%TO.N,AN1*%
X171576999Y-84553229D03*
%TO.P,SW2,6*%
X171576999Y-82013229D03*
%TO.P,SW2,7*%
X171576999Y-79473229D03*
%TO.P,SW2,8*%
X171576999Y-76933229D03*
%TD*%
D12*
%TO.P,TP2,1,1*%
%TO.N,Net-(U1D--)*%
X131318000Y-80010000D03*
%TD*%
D16*
%TO.P,RV1,1,1*%
%TO.N,Net-(R2-Pad1)*%
X150114000Y-104140000D03*
%TO.P,RV1,2,2*%
%TO.N,Net-(R6-Pad2)*%
X152654000Y-101600000D03*
%TO.P,RV1,3,3*%
%TO.N,Net-(R3-Pad2)*%
X150114000Y-99060000D03*
%TD*%
D19*
%TO.P,JP1,1,A*%
%TO.N,2x_OUTPUT*%
X135381999Y-115798599D03*
D14*
%TO.P,JP1,2,C*%
%TO.N,AN0*%
X135381999Y-113258599D03*
%TO.P,JP1,3,B*%
%TO.N,4x_OUTPUT*%
X135381999Y-110718599D03*
%TD*%
D20*
%TO.P,R19,1*%
%TO.N,Net-(U1B--)*%
X129616200Y-94679000D03*
%TO.P,R19,2*%
%TO.N,Net-(D1-K)*%
X129616200Y-96329000D03*
%TD*%
%TO.P,R11,1*%
%TO.N,Net-(U1C--)*%
X116332000Y-95504000D03*
%TO.P,R11,2*%
%TO.N,Net-(R11-Pad2)*%
X116332000Y-97154000D03*
%TD*%
D21*
%TO.P,C4,1*%
%TO.N,Net-(C4-Pad1)*%
X126466600Y-119076200D03*
%TO.P,C4,2*%
%TO.N,Net-(C4-Pad2)*%
X128016600Y-119076200D03*
%TD*%
D22*
%TO.P,R22,1*%
%TO.N,Net-(C4-Pad2)*%
X132397600Y-102774500D03*
%TO.P,R22,2*%
%TO.N,Net-(U1A--)*%
X132397600Y-101124500D03*
%TD*%
D21*
%TO.P,C8,1*%
%TO.N,Net-(C8-Pad1)*%
X132334000Y-85648800D03*
%TO.P,C8,2*%
%TO.N,Net-(C8-Pad2)*%
X133884000Y-85648800D03*
%TD*%
D23*
%TO.P,U1,1*%
%TO.N,Net-(C8-Pad1)*%
X123633000Y-88138000D03*
%TO.P,U1,2,-*%
%TO.N,Net-(U1A--)*%
X123633000Y-89408000D03*
%TO.P,U1,3,+*%
%TO.N,Net-(U1A-+)*%
X123633000Y-90678000D03*
%TO.P,U1,4,V+*%
%TO.N,5V*%
X123633000Y-91948000D03*
%TO.P,U1,5,+*%
%TO.N,Net-(U1B-+)*%
X123633000Y-93218000D03*
%TO.P,U1,6,-*%
%TO.N,Net-(U1B--)*%
X123633000Y-94488000D03*
%TO.P,U1,7*%
%TO.N,Net-(D1-A)*%
X123633000Y-95758000D03*
%TO.P,U1,8*%
%TO.N,Net-(R11-Pad2)*%
X118683000Y-95758000D03*
%TO.P,U1,9,-*%
%TO.N,Net-(U1C--)*%
X118683000Y-94488000D03*
%TO.P,U1,10,+*%
%TO.N,Net-(U1C-+)*%
X118683000Y-93218000D03*
%TO.P,U1,11,V-*%
%TO.N,-5V*%
X118683000Y-91948000D03*
%TO.P,U1,12,+*%
%TO.N,Net-(D1-K)*%
X118683000Y-90678000D03*
%TO.P,U1,13,-*%
%TO.N,Net-(U1D--)*%
X118683000Y-89408000D03*
%TO.P,U1,14*%
X118683000Y-88138000D03*
%TD*%
D20*
%TO.P,R4,1*%
%TO.N,E23_INPUT*%
X111760000Y-94171000D03*
%TO.P,R4,2*%
%TO.N,E60*%
X111760000Y-95821000D03*
%TD*%
%TO.P,R14,1*%
%TO.N,E60*%
X132308600Y-110122200D03*
%TO.P,R14,2*%
%TO.N,4x_OUTPUT*%
X132308600Y-111772200D03*
%TD*%
D24*
%TO.P,C1,1*%
%TO.N,5V*%
X154839000Y-133400800D03*
%TO.P,C1,2*%
%TO.N,AN1*%
X153289000Y-133400800D03*
%TD*%
D23*
%TO.P,U2,1*%
%TO.N,N/C*%
X122682000Y-107442000D03*
%TO.P,U2,2*%
X122682000Y-108712000D03*
%TO.P,U2,3*%
X122682000Y-109982000D03*
%TO.P,U2,4,V+*%
%TO.N,5V*%
X122682000Y-111252000D03*
%TO.P,U2,5,+*%
%TO.N,Net-(U2B-+)*%
X122682000Y-112522000D03*
%TO.P,U2,6,-*%
%TO.N,Net-(U2B--)*%
X122682000Y-113792000D03*
%TO.P,U2,7*%
%TO.N,Net-(C4-Pad1)*%
X122682000Y-115062000D03*
%TO.P,U2,8*%
%TO.N,N/C*%
X117732000Y-115062000D03*
%TO.P,U2,9*%
X117732000Y-113792000D03*
%TO.P,U2,10*%
X117732000Y-112522000D03*
%TO.P,U2,11,V-*%
%TO.N,-5V*%
X117732000Y-111252000D03*
%TO.P,U2,12*%
%TO.N,N/C*%
X117732000Y-109982000D03*
%TO.P,U2,13*%
X117732000Y-108712000D03*
%TO.P,U2,14*%
X117732000Y-107442000D03*
%TD*%
D25*
%TO.P,R12,1*%
%TO.N,2x_OUTPUT*%
X130148600Y-117094000D03*
%TO.P,R12,2*%
%TO.N,Net-(C4-Pad1)*%
X128498600Y-117094000D03*
%TD*%
D26*
%TO.P,R18,1*%
%TO.N,Net-(R18-Pad1)*%
X112890800Y-107467400D03*
%TO.P,R18,2*%
%TO.N,-5V*%
X114540800Y-107467400D03*
%TD*%
%TO.P,R10,1*%
%TO.N,Net-(R10-Pad1)*%
X137607600Y-83953100D03*
%TO.P,R10,2*%
%TO.N,Net-(C7-Pad1)*%
X139257600Y-83953100D03*
%TD*%
D25*
%TO.P,R20,1*%
%TO.N,Net-(U1D--)*%
X115633000Y-86868000D03*
%TO.P,R20,2*%
%TO.N,Net-(C8-Pad2)*%
X113983000Y-86868000D03*
%TD*%
%TO.P,R2,1*%
%TO.N,Net-(R2-Pad1)*%
X135762000Y-91694000D03*
%TO.P,R2,2*%
%TO.N,5V*%
X134112000Y-91694000D03*
%TD*%
%TO.P,R9,1*%
%TO.N,E60*%
X128065800Y-113792000D03*
%TO.P,R9,2*%
%TO.N,Net-(U2B--)*%
X126415800Y-113792000D03*
%TD*%
D26*
%TO.P,R7,1*%
%TO.N,Net-(R10-Pad1)*%
X137607600Y-85810475D03*
%TO.P,R7,2*%
%TO.N,E60*%
X139257600Y-85810475D03*
%TD*%
D24*
%TO.P,C6,1*%
%TO.N,E60*%
X128003600Y-112218200D03*
%TO.P,C6,2*%
%TO.N,Net-(U2B-+)*%
X126453600Y-112218200D03*
%TD*%
D27*
%TO.P,C9,1*%
%TO.N,Net-(U1A-+)*%
X129590800Y-91237400D03*
%TO.P,C9,2*%
%TO.N,E60*%
X129590800Y-89687400D03*
%TD*%
D22*
%TO.P,R16,1*%
%TO.N,Net-(R11-Pad2)*%
X131140200Y-96329000D03*
%TO.P,R16,2*%
%TO.N,Net-(U1B--)*%
X131140200Y-94679000D03*
%TD*%
D26*
%TO.P,R6,1*%
%TO.N,Net-(U2B--)*%
X128498600Y-115520200D03*
%TO.P,R6,2*%
%TO.N,Net-(R6-Pad2)*%
X130148600Y-115520200D03*
%TD*%
D25*
%TO.P,R1,1*%
%TO.N,Net-(C4-Pad2)*%
X128053600Y-110694200D03*
%TO.P,R1,2*%
%TO.N,Net-(U2B-+)*%
X126403600Y-110694200D03*
%TD*%
%TO.P,R3,1*%
%TO.N,-5V*%
X114502200Y-105740200D03*
%TO.P,R3,2*%
%TO.N,Net-(R3-Pad2)*%
X112852200Y-105740200D03*
%TD*%
D26*
%TO.P,R24,1*%
%TO.N,Net-(U1A--)*%
X132271000Y-87426800D03*
%TO.P,R24,2*%
%TO.N,E60*%
X133921000Y-87426800D03*
%TD*%
D28*
%TO.P,D1,1,K*%
%TO.N,Net-(D1-K)*%
X122044500Y-98698000D03*
%TO.P,D1,2,A*%
%TO.N,Net-(D1-A)*%
X123619500Y-98698000D03*
%TD*%
D26*
%TO.P,R15,1*%
%TO.N,5V*%
X134112000Y-93472000D03*
%TO.P,R15,2*%
%TO.N,Net-(R15-Pad2)*%
X135762000Y-93472000D03*
%TD*%
D24*
%TO.P,C7,1*%
%TO.N,Net-(C7-Pad1)*%
X139157600Y-87763100D03*
%TO.P,C7,2*%
%TO.N,E60*%
X137607600Y-87763100D03*
%TD*%
D20*
%TO.P,R21,1*%
%TO.N,Net-(C8-Pad2)*%
X131368800Y-89637400D03*
%TO.P,R21,2*%
%TO.N,Net-(U1A-+)*%
X131368800Y-91287400D03*
%TD*%
%TO.P,R8,1*%
%TO.N,Net-(U2B--)*%
X126492000Y-115469400D03*
%TO.P,R8,2*%
%TO.N,Net-(C4-Pad1)*%
X126492000Y-117119400D03*
%TD*%
D24*
%TO.P,C5,1*%
%TO.N,Net-(U1C--)*%
X116345000Y-93726000D03*
%TO.P,C5,2*%
%TO.N,Net-(U1C-+)*%
X114795000Y-93726000D03*
%TD*%
D20*
%TO.P,R13,1*%
%TO.N,4x_OUTPUT*%
X132308600Y-113932200D03*
%TO.P,R13,2*%
%TO.N,2x_OUTPUT*%
X132308600Y-115582200D03*
%TD*%
D22*
%TO.P,R23,1*%
%TO.N,Net-(U1A--)*%
X130048000Y-87298800D03*
%TO.P,R23,2*%
%TO.N,Net-(C8-Pad1)*%
X130048000Y-85648800D03*
%TD*%
%TO.P,R5,1*%
%TO.N,E23_INPUT*%
X109982000Y-95758000D03*
%TO.P,R5,2*%
%TO.N,Net-(U1C-+)*%
X109982000Y-94108000D03*
%TD*%
D26*
%TO.P,R17,1*%
%TO.N,Net-(U1B-+)*%
X129540000Y-93014800D03*
%TO.P,R17,2*%
%TO.N,E60*%
X131190000Y-93014800D03*
%TD*%
D29*
%TO.N,Net-(C4-Pad2)*%
X129286000Y-119126000D03*
X128016000Y-109474000D03*
%TO.N,Net-(C8-Pad2)*%
X134620000Y-89662000D03*
X127254000Y-91694000D03*
%TO.N,Net-(R2-Pad1)*%
X137160000Y-91694000D03*
%TO.N,-5V*%
X115925600Y-111302800D03*
X116789200Y-91948000D03*
%TO.N,Net-(R6-Pad2)*%
X141224000Y-93980000D03*
%TO.N,Net-(R15-Pad2)*%
X137160000Y-93472000D03*
%TO.N,Net-(U1B--)*%
X125984000Y-94742000D03*
%TO.N,Net-(R18-Pad1)*%
X151638000Y-110744000D03*
%TO.N,5V*%
X134061200Y-94691200D03*
X125501400Y-91922600D03*
X124561600Y-111328200D03*
%TD*%
D30*
%TO.N,AN1*%
X144352000Y-139446000D02*
X150219400Y-145313400D01*
X168656000Y-100449875D02*
X168656000Y-110878125D01*
X168351200Y-139417200D02*
X163220000Y-134286000D01*
X153289000Y-132795000D02*
X159298000Y-126786000D01*
X168351200Y-145313400D02*
X168351200Y-139417200D01*
X161720000Y-125286000D02*
X163220000Y-126786000D01*
X171577000Y-92717125D02*
X166250125Y-98044000D01*
X153289000Y-133400800D02*
X153289000Y-132795000D01*
X123698000Y-70866000D02*
X121158000Y-68326000D01*
X159298000Y-126786000D02*
X163220000Y-126786000D01*
X165481000Y-132025000D02*
X165481000Y-129047000D01*
X166250125Y-98044000D02*
X168656000Y-100449875D01*
X163220000Y-126786000D02*
X163220000Y-116314125D01*
X163220000Y-134286000D02*
X165481000Y-132025000D01*
X163220000Y-126786000D02*
X165481000Y-129047000D01*
X171577000Y-84553230D02*
X171577000Y-92717125D01*
X150219400Y-145313400D02*
X168351200Y-145313400D01*
X168656000Y-110878125D02*
X166250125Y-113284000D01*
X161720000Y-125286000D02*
X146492323Y-125286000D01*
X146492323Y-125286000D02*
X144270323Y-127508000D01*
X163220000Y-116314125D02*
X166250125Y-113284000D01*
%TO.N,E60*%
X132727200Y-88620600D02*
X133921000Y-87426800D01*
X132168800Y-92036000D02*
X132168800Y-90792200D01*
X129667000Y-89687400D02*
X130733800Y-88620600D01*
X128003600Y-112218200D02*
X128003600Y-113729800D01*
X137607600Y-87763100D02*
X137607600Y-87945796D01*
X131940200Y-96912062D02*
X131940200Y-93765000D01*
X131940200Y-93765000D02*
X131190000Y-93014800D01*
X139257600Y-86113100D02*
X137607600Y-87763100D01*
X137607600Y-87945796D02*
X134761196Y-90792200D01*
X132842000Y-101854000D02*
X130048000Y-101854000D01*
X130302000Y-110122200D02*
X130099600Y-110122200D01*
X131851400Y-90474800D02*
X130378200Y-90474800D01*
X128523131Y-100329131D02*
X131940200Y-96912062D01*
X130733800Y-88620600D02*
X132727200Y-88620600D01*
X134761196Y-90792200D02*
X132168800Y-90792200D01*
X130378200Y-90474800D02*
X129590800Y-89687400D01*
X133197600Y-107226600D02*
X133197600Y-102209600D01*
X132168800Y-90792200D02*
X131851400Y-90474800D01*
X130048000Y-101854000D02*
X128651000Y-100457000D01*
X130302000Y-110122200D02*
X133197600Y-107226600D01*
X128003600Y-113729800D02*
X128065800Y-113792000D01*
X132308600Y-110122200D02*
X130302000Y-110122200D01*
X128651000Y-100457000D02*
X128523131Y-100329131D01*
X131190000Y-93014800D02*
X132168800Y-92036000D01*
X133197600Y-102209600D02*
X132842000Y-101854000D01*
X129590800Y-89687400D02*
X129667000Y-89687400D01*
X116396000Y-100457000D02*
X128651000Y-100457000D01*
X111760000Y-95821000D02*
X116396000Y-100457000D01*
X130099600Y-110122200D02*
X128003600Y-112218200D01*
X139257600Y-85810475D02*
X139257600Y-86113100D01*
%TO.N,Net-(C4-Pad1)*%
X130580400Y-123190000D02*
X126466600Y-119076200D01*
X122682000Y-115062000D02*
X124739400Y-117119400D01*
X126492000Y-117119400D02*
X128473200Y-117119400D01*
X126492000Y-117119400D02*
X126492000Y-119050800D01*
X128473200Y-117119400D02*
X128498600Y-117094000D01*
X131572000Y-123190000D02*
X130580400Y-123190000D01*
X124739400Y-117119400D02*
X126492000Y-117119400D01*
X126492000Y-119050800D02*
X126466600Y-119076200D01*
%TO.N,Net-(C4-Pad2)*%
X132397600Y-106350200D02*
X128053600Y-110694200D01*
X129286000Y-119126000D02*
X129236200Y-119076200D01*
X128016000Y-110656600D02*
X128016000Y-109474000D01*
X128053600Y-110694200D02*
X128016000Y-110656600D01*
X132397600Y-102774500D02*
X132397600Y-106350200D01*
X128016600Y-119076200D02*
X129236200Y-119076200D01*
%TO.N,Net-(U1C--)*%
X116332000Y-95504000D02*
X117348000Y-94488000D01*
X117348000Y-94488000D02*
X118683000Y-94488000D01*
X116345000Y-93726000D02*
X116345000Y-95491000D01*
X116345000Y-95491000D02*
X116332000Y-95504000D01*
%TO.N,Net-(U1C-+)*%
X114795000Y-93726000D02*
X114515000Y-93446000D01*
X114515000Y-93446000D02*
X110644000Y-93446000D01*
X110644000Y-93446000D02*
X109982000Y-94108000D01*
X118391000Y-92926000D02*
X118683000Y-93218000D01*
X115595000Y-92926000D02*
X118391000Y-92926000D01*
X114795000Y-93726000D02*
X115595000Y-92926000D01*
%TO.N,Net-(U2B-+)*%
X126149800Y-112522000D02*
X126453600Y-112218200D01*
X122682000Y-112522000D02*
X126149800Y-112522000D01*
X126453600Y-110744200D02*
X126403600Y-110694200D01*
X126453600Y-112218200D02*
X126453600Y-110744200D01*
%TO.N,Net-(C7-Pad1)*%
X139257600Y-83953100D02*
X139982600Y-84678100D01*
X139982600Y-86938100D02*
X139157600Y-87763100D01*
X139982600Y-84678100D02*
X139982600Y-86938100D01*
%TO.N,Net-(C8-Pad1)*%
X127558800Y-88138000D02*
X130048000Y-85648800D01*
X132334000Y-85648800D02*
X130048000Y-85648800D01*
X123633000Y-88138000D02*
X127558800Y-88138000D01*
%TO.N,Net-(C8-Pad2)*%
X134620000Y-89662000D02*
X134644600Y-89637400D01*
X114300000Y-86868000D02*
X113983000Y-86868000D01*
X134644600Y-89637400D02*
X135279600Y-89637400D01*
X126757600Y-91197600D02*
X124780151Y-91197600D01*
X134595400Y-89637400D02*
X134620000Y-89662000D01*
X119704751Y-90053000D02*
X117485000Y-90053000D01*
X117485000Y-90053000D02*
X114300000Y-86868000D01*
X131368800Y-89637400D02*
X134595400Y-89637400D01*
X136296400Y-88061200D02*
X133884000Y-85648800D01*
X120974751Y-91323000D02*
X119704751Y-90053000D01*
X127254000Y-91694000D02*
X126757600Y-91197600D01*
X124780151Y-91197600D02*
X124654751Y-91323000D01*
X136296400Y-88620600D02*
X136296400Y-88061200D01*
X135279600Y-89637400D02*
X136296400Y-88620600D01*
X124654751Y-91323000D02*
X120974751Y-91323000D01*
%TO.N,Net-(U1A-+)*%
X129640800Y-91287400D02*
X129590800Y-91237400D01*
X131368800Y-91287400D02*
X129640800Y-91287400D01*
X129031400Y-90678000D02*
X123633000Y-90678000D01*
X129590800Y-91237400D02*
X129031400Y-90678000D01*
%TO.N,Net-(D1-K)*%
X122044500Y-98698000D02*
X122844500Y-99498000D01*
X121132600Y-92750849D02*
X119059751Y-90678000D01*
X119059751Y-90678000D02*
X118683000Y-90678000D01*
X121132600Y-97786100D02*
X121132600Y-92750849D01*
X122844500Y-99498000D02*
X126447200Y-99498000D01*
X126447200Y-99498000D02*
X129616200Y-96329000D01*
X122044500Y-98698000D02*
X121132600Y-97786100D01*
%TO.N,Net-(D1-A)*%
X123619500Y-95771500D02*
X123619500Y-98698000D01*
X123633000Y-95758000D02*
X123619500Y-95771500D01*
%TO.N,Net-(R2-Pad1)*%
X137160000Y-91694000D02*
X137109200Y-91744800D01*
X135762000Y-91744800D02*
X137109200Y-91744800D01*
%TO.N,-5V*%
X114540800Y-105778800D02*
X114502200Y-105740200D01*
X117681200Y-111302800D02*
X117732000Y-111252000D01*
X114745000Y-108712000D02*
X114745000Y-107671600D01*
X114745000Y-108712000D02*
X117285000Y-111252000D01*
X114540800Y-107467400D02*
X114540800Y-105778800D01*
X117285000Y-111252000D02*
X117732000Y-111252000D01*
X114745000Y-107671600D02*
X114540800Y-107467400D01*
X118683000Y-91948000D02*
X116789200Y-91948000D01*
X115925600Y-111302800D02*
X117681200Y-111302800D01*
%TO.N,Net-(R3-Pad2)*%
X108458000Y-71120000D02*
X114300000Y-65278000D01*
X169672000Y-93726000D02*
X168148000Y-95250000D01*
X112852200Y-105740200D02*
X108458000Y-101346000D01*
X108458000Y-101346000D02*
X108458000Y-71120000D01*
X141732000Y-65278000D02*
X169672000Y-93218000D01*
X168148000Y-95250000D02*
X153924000Y-95250000D01*
X153924000Y-95250000D02*
X150114000Y-99060000D01*
X114300000Y-65278000D02*
X141732000Y-65278000D01*
X169672000Y-93218000D02*
X169672000Y-93726000D01*
%TO.N,E23_INPUT*%
X114554000Y-66040000D02*
X139326125Y-66040000D01*
X139326125Y-66040000D02*
X166250125Y-92964000D01*
X111760000Y-94171000D02*
X111569000Y-94171000D01*
X109982000Y-95758000D02*
X109182000Y-94958000D01*
X109182000Y-94958000D02*
X109182000Y-71412000D01*
X111569000Y-94171000D02*
X109982000Y-95758000D01*
X109182000Y-71412000D02*
X114554000Y-66040000D01*
%TO.N,Net-(U2B--)*%
X128447800Y-115469400D02*
X128498600Y-115520200D01*
X124736151Y-115469400D02*
X126492000Y-115469400D01*
X123058751Y-113792000D02*
X124736151Y-115469400D01*
X122682000Y-113792000D02*
X123058751Y-113792000D01*
X126492000Y-113868200D02*
X126415800Y-113792000D01*
X126492000Y-115469400D02*
X128447800Y-115469400D01*
X126492000Y-115469400D02*
X126492000Y-113868200D01*
%TO.N,Net-(R6-Pad2)*%
X130148600Y-115520200D02*
X130302000Y-115366800D01*
X130302000Y-115366800D02*
X130302000Y-112014000D01*
X134874000Y-106680000D02*
X134874000Y-100584000D01*
X133096000Y-110998000D02*
X133604000Y-110490000D01*
X133604000Y-107950000D02*
X134874000Y-106680000D01*
X133604000Y-110490000D02*
X133604000Y-107950000D01*
X141224000Y-94234000D02*
X141224000Y-93980000D01*
X134874000Y-100584000D02*
X141224000Y-94234000D01*
X131318000Y-110998000D02*
X133096000Y-110998000D01*
X130302000Y-112014000D02*
X131318000Y-110998000D01*
%TO.N,Net-(R10-Pad1)*%
X137607600Y-85810475D02*
X137607600Y-83953100D01*
%TO.N,Net-(R11-Pad2)*%
X117287000Y-97154000D02*
X116332000Y-97154000D01*
X127521200Y-99948000D02*
X122050521Y-99948000D01*
X118683000Y-95758000D02*
X117287000Y-97154000D01*
X122050521Y-99948000D02*
X118683000Y-96580479D01*
X118683000Y-96580479D02*
X118683000Y-95758000D01*
X131140200Y-96329000D02*
X127521200Y-99948000D01*
%TO.N,2x_OUTPUT*%
X130796800Y-117094000D02*
X130148600Y-117094000D01*
X132308600Y-115582200D02*
X130796800Y-117094000D01*
X132308600Y-115582200D02*
X132525000Y-115798600D01*
X132525000Y-115798600D02*
X135382000Y-115798600D01*
%TO.N,4x_OUTPUT*%
X132308600Y-111772200D02*
X134328400Y-111772200D01*
X134328400Y-111772200D02*
X135382000Y-110718600D01*
X132308600Y-111772200D02*
X132308600Y-113932200D01*
%TO.N,Net-(R15-Pad2)*%
X136906000Y-93472000D02*
X137160000Y-93472000D01*
X136956800Y-93522800D02*
X136906000Y-93472000D01*
X135762000Y-93522800D02*
X136956800Y-93522800D01*
%TO.N,Net-(U1B--)*%
X125921000Y-94679000D02*
X125984000Y-94742000D01*
X126047000Y-94679000D02*
X129616200Y-94679000D01*
X123824000Y-94679000D02*
X125921000Y-94679000D01*
X123633000Y-94488000D02*
X123824000Y-94679000D01*
X131140200Y-94679000D02*
X129616200Y-94679000D01*
X125984000Y-94742000D02*
X126047000Y-94679000D01*
%TO.N,Net-(U1B-+)*%
X123836200Y-93014800D02*
X123633000Y-93218000D01*
X129540000Y-93014800D02*
X123836200Y-93014800D01*
%TO.N,Net-(R18-Pad1)*%
X133212299Y-125984000D02*
X120142000Y-125984000D01*
X141594299Y-117602000D02*
X133212299Y-125984000D01*
X151638000Y-110744000D02*
X152908000Y-110744000D01*
X112890800Y-118732800D02*
X112890800Y-107467400D01*
X154178000Y-117602000D02*
X141594299Y-117602000D01*
X152908000Y-110744000D02*
X154178000Y-112014000D01*
X120142000Y-125984000D02*
X112890800Y-118732800D01*
X154178000Y-112014000D02*
X154178000Y-117602000D01*
%TO.N,Net-(U1D--)*%
X118683000Y-88138000D02*
X116903000Y-88138000D01*
X118683000Y-89408000D02*
X118683000Y-88138000D01*
X116903000Y-88138000D02*
X115633000Y-86868000D01*
X131318000Y-80010000D02*
X126811000Y-80010000D01*
X126811000Y-80010000D02*
X118683000Y-88138000D01*
%TO.N,Net-(U1A--)*%
X133109000Y-84238800D02*
X133109000Y-86588800D01*
X127938800Y-89408000D02*
X130048000Y-87298800D01*
X123633000Y-89408000D02*
X127938800Y-89408000D01*
X140944600Y-83134200D02*
X139852400Y-82042000D01*
X135305800Y-82042000D02*
X133109000Y-84238800D01*
X139852400Y-82042000D02*
X135305800Y-82042000D01*
X140944600Y-92577500D02*
X140944600Y-83134200D01*
X132143000Y-87298800D02*
X132271000Y-87426800D01*
X133109000Y-86588800D02*
X132271000Y-87426800D01*
X130048000Y-87298800D02*
X132143000Y-87298800D01*
X132397600Y-101124500D02*
X140944600Y-92577500D01*
%TO.N,AN0*%
X138176000Y-101295200D02*
X138176000Y-110464600D01*
X142392400Y-97078800D02*
X138176000Y-101295200D01*
X138176000Y-110464600D02*
X135382000Y-113258600D01*
X123698000Y-68326000D02*
X131775200Y-76403200D01*
X142392400Y-79527400D02*
X142392400Y-97078800D01*
X139268200Y-76403200D02*
X142392400Y-79527400D01*
X131775200Y-76403200D02*
X139268200Y-76403200D01*
%TO.N,5V*%
X134112000Y-91744800D02*
X134112000Y-93522800D01*
X149352000Y-139446000D02*
X153009600Y-139446000D01*
X155349600Y-141786000D02*
X159512000Y-141786000D01*
X153009600Y-139446000D02*
X155349600Y-141786000D01*
X122758200Y-111328200D02*
X122682000Y-111252000D01*
X134112000Y-93522800D02*
X134112000Y-94640400D01*
X159512000Y-141786000D02*
X163220000Y-141786000D01*
X154839000Y-137113000D02*
X159512000Y-141786000D01*
X154839000Y-133400800D02*
X154839000Y-137113000D01*
X149352000Y-139446000D02*
X149352000Y-127589677D01*
X134112000Y-94640400D02*
X134061200Y-94691200D01*
X149352000Y-127589677D02*
X149270323Y-127508000D01*
X125501400Y-91922600D02*
X123658400Y-91922600D01*
X124561600Y-111328200D02*
X122758200Y-111328200D01*
X123658400Y-91922600D02*
X123633000Y-91948000D01*
%TD*%
%TA.AperFunction,Conductor*%
%TO.N,AN1*%
G36*
X122484951Y-68972540D02*
G01*
X122529269Y-69011405D01*
X122656399Y-69192966D01*
X122656402Y-69192970D01*
X122659505Y-69197401D01*
X122826599Y-69364495D01*
X122831031Y-69367598D01*
X122831033Y-69367600D01*
X123012595Y-69494731D01*
X123051460Y-69539049D01*
X123065471Y-69596306D01*
X123051460Y-69653563D01*
X123012595Y-69697881D01*
X122831352Y-69824788D01*
X122823092Y-69831719D01*
X122663719Y-69991092D01*
X122656788Y-69999352D01*
X122529880Y-70180596D01*
X122485562Y-70219461D01*
X122428305Y-70233472D01*
X122371048Y-70219461D01*
X122326730Y-70180595D01*
X122199600Y-69999034D01*
X122196495Y-69994599D01*
X122029401Y-69827505D01*
X122024970Y-69824402D01*
X122024966Y-69824399D01*
X121843405Y-69697269D01*
X121804540Y-69652951D01*
X121790529Y-69595694D01*
X121804540Y-69538437D01*
X121843406Y-69494119D01*
X122024638Y-69367219D01*
X122032909Y-69360278D01*
X122192278Y-69200909D01*
X122199219Y-69192638D01*
X122326119Y-69011406D01*
X122370437Y-68972540D01*
X122427694Y-68958529D01*
X122484951Y-68972540D01*
G37*
%TD.AperFunction*%
%TA.AperFunction,Conductor*%
G36*
X174687500Y-63017113D02*
G01*
X174732887Y-63062500D01*
X174749500Y-63124500D01*
X174749500Y-128343729D01*
X174732591Y-128406239D01*
X174686475Y-128451702D01*
X174623729Y-128467716D01*
X174561467Y-128449916D01*
X174516668Y-128403156D01*
X174408931Y-128205849D01*
X174404147Y-128198406D01*
X174310800Y-128073710D01*
X174299689Y-128065392D01*
X174287508Y-128072044D01*
X173085095Y-129274456D01*
X173078431Y-129285998D01*
X173085095Y-129297541D01*
X174287508Y-130499954D01*
X174299689Y-130506606D01*
X174310800Y-130498288D01*
X174404147Y-130373593D01*
X174408931Y-130366150D01*
X174516668Y-130168844D01*
X174561467Y-130122084D01*
X174623729Y-130104284D01*
X174686475Y-130120298D01*
X174732591Y-130165761D01*
X174749500Y-130228271D01*
X174749500Y-138343729D01*
X174732591Y-138406239D01*
X174686475Y-138451702D01*
X174623729Y-138467716D01*
X174561467Y-138449916D01*
X174516668Y-138403156D01*
X174408931Y-138205849D01*
X174404147Y-138198406D01*
X174310800Y-138073710D01*
X174299689Y-138065392D01*
X174287508Y-138072044D01*
X173085095Y-139274456D01*
X173078431Y-139285999D01*
X173085095Y-139297541D01*
X174287508Y-140499954D01*
X174299689Y-140506606D01*
X174310800Y-140498288D01*
X174404147Y-140373593D01*
X174408931Y-140366150D01*
X174516668Y-140168844D01*
X174561467Y-140122084D01*
X174623729Y-140104284D01*
X174686475Y-140120298D01*
X174732591Y-140165761D01*
X174749500Y-140228271D01*
X174749500Y-147375500D01*
X174732887Y-147437500D01*
X174687500Y-147482887D01*
X174625500Y-147499500D01*
X100124500Y-147499500D01*
X100062500Y-147482887D01*
X100017113Y-147437500D01*
X100000500Y-147375500D01*
X100000500Y-142240000D01*
X119802341Y-142240000D01*
X119802813Y-142245395D01*
X119818221Y-142421512D01*
X119822937Y-142475408D01*
X119824336Y-142480630D01*
X119824337Y-142480634D01*
X119882694Y-142698430D01*
X119882697Y-142698438D01*
X119884097Y-142703663D01*
X119886385Y-142708570D01*
X119886386Y-142708572D01*
X119981678Y-142912927D01*
X119981681Y-142912933D01*
X119983965Y-142917830D01*
X119987064Y-142922257D01*
X119987066Y-142922259D01*
X120116399Y-143106966D01*
X120116402Y-143106970D01*
X120119505Y-143111401D01*
X120286599Y-143278495D01*
X120480170Y-143414035D01*
X120694337Y-143513903D01*
X120922592Y-143575063D01*
X121158000Y-143595659D01*
X121393408Y-143575063D01*
X121621663Y-143513903D01*
X121835830Y-143414035D01*
X122029401Y-143278495D01*
X122196495Y-143111401D01*
X122326424Y-142925842D01*
X122370743Y-142886976D01*
X122428000Y-142872965D01*
X122485257Y-142886976D01*
X122529575Y-142925842D01*
X122656395Y-143106961D01*
X122656401Y-143106968D01*
X122659505Y-143111401D01*
X122826599Y-143278495D01*
X123020170Y-143414035D01*
X123234337Y-143513903D01*
X123462592Y-143575063D01*
X123698000Y-143595659D01*
X123933408Y-143575063D01*
X124161663Y-143513903D01*
X124375830Y-143414035D01*
X124569401Y-143278495D01*
X124736495Y-143111401D01*
X124872035Y-142917830D01*
X124971903Y-142703663D01*
X125033063Y-142475408D01*
X125053659Y-142240000D01*
X125033063Y-142004592D01*
X124971903Y-141776337D01*
X124872035Y-141562171D01*
X124736495Y-141368599D01*
X124569401Y-141201505D01*
X124564968Y-141198401D01*
X124564961Y-141198395D01*
X124383842Y-141071575D01*
X124344976Y-141027257D01*
X124330965Y-140970000D01*
X124344976Y-140912743D01*
X124383842Y-140868425D01*
X124564961Y-140741604D01*
X124564961Y-140741603D01*
X124569401Y-140738495D01*
X124638648Y-140669248D01*
X143487749Y-140669248D01*
X143495855Y-140680439D01*
X143524717Y-140702903D01*
X143533279Y-140708496D01*
X143742885Y-140821929D01*
X143752239Y-140826032D01*
X143977656Y-140903417D01*
X143987568Y-140905928D01*
X144222643Y-140945155D01*
X144232839Y-140946000D01*
X144471161Y-140946000D01*
X144481356Y-140945155D01*
X144716431Y-140905928D01*
X144726343Y-140903417D01*
X144951760Y-140826032D01*
X144961114Y-140821929D01*
X145170723Y-140708495D01*
X145179281Y-140702903D01*
X145208146Y-140680437D01*
X145216250Y-140669250D01*
X145209589Y-140657142D01*
X144363542Y-139811095D01*
X144352000Y-139804431D01*
X144340457Y-139811095D01*
X143494408Y-140657143D01*
X143487749Y-140669248D01*
X124638648Y-140669248D01*
X124736495Y-140571401D01*
X124872035Y-140377830D01*
X124971903Y-140163663D01*
X125033063Y-139935408D01*
X125053659Y-139700000D01*
X125033063Y-139464592D01*
X125029452Y-139451117D01*
X142847283Y-139451117D01*
X142866962Y-139688618D01*
X142868646Y-139698712D01*
X142927153Y-139929747D01*
X142930472Y-139939414D01*
X143026208Y-140157673D01*
X143031070Y-140166656D01*
X143120999Y-140304304D01*
X143128963Y-140312024D01*
X143138345Y-140306100D01*
X143986904Y-139457542D01*
X143993568Y-139445999D01*
X144710431Y-139445999D01*
X144717095Y-139457542D01*
X145565653Y-140306100D01*
X145575034Y-140312024D01*
X145583002Y-140304299D01*
X145672924Y-140166664D01*
X145677792Y-140157669D01*
X145773527Y-139939414D01*
X145776846Y-139929747D01*
X145835353Y-139698712D01*
X145837037Y-139688618D01*
X145856717Y-139451117D01*
X145856717Y-139440883D01*
X145837037Y-139203381D01*
X145835353Y-139193287D01*
X145776846Y-138962252D01*
X145773527Y-138952585D01*
X145677792Y-138734330D01*
X145672924Y-138725335D01*
X145583002Y-138587699D01*
X145575034Y-138579974D01*
X145565653Y-138585898D01*
X144717095Y-139434457D01*
X144710431Y-139445999D01*
X143993568Y-139445999D01*
X143986904Y-139434457D01*
X143138345Y-138585898D01*
X143128964Y-138579974D01*
X143120997Y-138587699D01*
X143031072Y-138725338D01*
X143026207Y-138734328D01*
X142930472Y-138952585D01*
X142927153Y-138962252D01*
X142868646Y-139193287D01*
X142866962Y-139203381D01*
X142847283Y-139440883D01*
X142847283Y-139451117D01*
X125029452Y-139451117D01*
X124971903Y-139236337D01*
X124872035Y-139022171D01*
X124736495Y-138828599D01*
X124569401Y-138661505D01*
X124564970Y-138658402D01*
X124564966Y-138658399D01*
X124383841Y-138531574D01*
X124344976Y-138487256D01*
X124330965Y-138429999D01*
X124344976Y-138372742D01*
X124383839Y-138328426D01*
X124534762Y-138222749D01*
X143487748Y-138222749D01*
X143494408Y-138234855D01*
X144340457Y-139080904D01*
X144352000Y-139087568D01*
X144363542Y-139080904D01*
X145209590Y-138234855D01*
X145216250Y-138222749D01*
X145208143Y-138211559D01*
X145179286Y-138189099D01*
X145170719Y-138183503D01*
X144961114Y-138070070D01*
X144951760Y-138065967D01*
X144726343Y-137988582D01*
X144716431Y-137986071D01*
X144481356Y-137946844D01*
X144471161Y-137946000D01*
X144232839Y-137946000D01*
X144222643Y-137946844D01*
X143987568Y-137986071D01*
X143977656Y-137988582D01*
X143752239Y-138065967D01*
X143742885Y-138070070D01*
X143533276Y-138183504D01*
X143524717Y-138189096D01*
X143495854Y-138211560D01*
X143487748Y-138222749D01*
X124534762Y-138222749D01*
X124569401Y-138198495D01*
X124736495Y-138031401D01*
X124872035Y-137837830D01*
X124971903Y-137623663D01*
X125033063Y-137395408D01*
X125053659Y-137160000D01*
X125033063Y-136924592D01*
X124971903Y-136696337D01*
X124872035Y-136482171D01*
X124736495Y-136288599D01*
X124569401Y-136121505D01*
X124564970Y-136118402D01*
X124564966Y-136118399D01*
X124380259Y-135989066D01*
X124380257Y-135989064D01*
X124375830Y-135985965D01*
X124370933Y-135983681D01*
X124370927Y-135983678D01*
X124166572Y-135888386D01*
X124166570Y-135888385D01*
X124161663Y-135886097D01*
X124156438Y-135884697D01*
X124156430Y-135884694D01*
X123938634Y-135826337D01*
X123938630Y-135826336D01*
X123933408Y-135824937D01*
X123928020Y-135824465D01*
X123928017Y-135824465D01*
X123703395Y-135804813D01*
X123698000Y-135804341D01*
X123692605Y-135804813D01*
X123467982Y-135824465D01*
X123467977Y-135824465D01*
X123462592Y-135824937D01*
X123457371Y-135826335D01*
X123457365Y-135826337D01*
X123239569Y-135884694D01*
X123239557Y-135884698D01*
X123234337Y-135886097D01*
X123229432Y-135888383D01*
X123229427Y-135888386D01*
X123025081Y-135983675D01*
X123025077Y-135983677D01*
X123020171Y-135985965D01*
X123015738Y-135989068D01*
X123015731Y-135989073D01*
X122831034Y-136118399D01*
X122831029Y-136118402D01*
X122826599Y-136121505D01*
X122822775Y-136125328D01*
X122822769Y-136125334D01*
X122663334Y-136284769D01*
X122663328Y-136284775D01*
X122659505Y-136288599D01*
X122656403Y-136293028D01*
X122656403Y-136293029D01*
X122529574Y-136474160D01*
X122485256Y-136513025D01*
X122427999Y-136527036D01*
X122370742Y-136513025D01*
X122326426Y-136474161D01*
X122196495Y-136288599D01*
X122029401Y-136121505D01*
X122024970Y-136118402D01*
X122024966Y-136118399D01*
X121840259Y-135989066D01*
X121840257Y-135989064D01*
X121835830Y-135985965D01*
X121830933Y-135983681D01*
X121830927Y-135983678D01*
X121626572Y-135888386D01*
X121626570Y-135888385D01*
X121621663Y-135886097D01*
X121616438Y-135884697D01*
X121616430Y-135884694D01*
X121398634Y-135826337D01*
X121398630Y-135826336D01*
X121393408Y-135824937D01*
X121388020Y-135824465D01*
X121388017Y-135824465D01*
X121163395Y-135804813D01*
X121158000Y-135804341D01*
X121152605Y-135804813D01*
X120927982Y-135824465D01*
X120927977Y-135824465D01*
X120922592Y-135824937D01*
X120917371Y-135826335D01*
X120917365Y-135826337D01*
X120699569Y-135884694D01*
X120699557Y-135884698D01*
X120694337Y-135886097D01*
X120689432Y-135888383D01*
X120689427Y-135888386D01*
X120485081Y-135983675D01*
X120485077Y-135983677D01*
X120480171Y-135985965D01*
X120475738Y-135989068D01*
X120475731Y-135989073D01*
X120291034Y-136118399D01*
X120291029Y-136118402D01*
X120286599Y-136121505D01*
X120282775Y-136125328D01*
X120282769Y-136125334D01*
X120123334Y-136284769D01*
X120123328Y-136284775D01*
X120119505Y-136288599D01*
X120116402Y-136293029D01*
X120116399Y-136293034D01*
X119987073Y-136477731D01*
X119987068Y-136477738D01*
X119983965Y-136482171D01*
X119981677Y-136487077D01*
X119981675Y-136487081D01*
X119886386Y-136691427D01*
X119886383Y-136691432D01*
X119884097Y-136696337D01*
X119882698Y-136701557D01*
X119882694Y-136701569D01*
X119824337Y-136919365D01*
X119824335Y-136919371D01*
X119822937Y-136924592D01*
X119822465Y-136929977D01*
X119822465Y-136929982D01*
X119812236Y-137046897D01*
X119802341Y-137160000D01*
X119802813Y-137165395D01*
X119821644Y-137380637D01*
X119822937Y-137395408D01*
X119824336Y-137400630D01*
X119824337Y-137400634D01*
X119882694Y-137618430D01*
X119882697Y-137618438D01*
X119884097Y-137623663D01*
X119886385Y-137628570D01*
X119886386Y-137628572D01*
X119981678Y-137832927D01*
X119981681Y-137832933D01*
X119983965Y-137837830D01*
X119987064Y-137842257D01*
X119987066Y-137842259D01*
X120116399Y-138026966D01*
X120116402Y-138026970D01*
X120119505Y-138031401D01*
X120286599Y-138198495D01*
X120291032Y-138201599D01*
X120291038Y-138201604D01*
X120472158Y-138328425D01*
X120511024Y-138372743D01*
X120525035Y-138430000D01*
X120511024Y-138487257D01*
X120472160Y-138531574D01*
X120286599Y-138661505D01*
X120282775Y-138665328D01*
X120282769Y-138665334D01*
X120123334Y-138824769D01*
X120123328Y-138824775D01*
X120119505Y-138828599D01*
X120116402Y-138833029D01*
X120116399Y-138833034D01*
X119987073Y-139017731D01*
X119987068Y-139017738D01*
X119983965Y-139022171D01*
X119981677Y-139027077D01*
X119981675Y-139027081D01*
X119886386Y-139231427D01*
X119886383Y-139231432D01*
X119884097Y-139236337D01*
X119882698Y-139241557D01*
X119882694Y-139241569D01*
X119824337Y-139459365D01*
X119824335Y-139459371D01*
X119822937Y-139464592D01*
X119802341Y-139700000D01*
X119802813Y-139705395D01*
X119822441Y-139929747D01*
X119822937Y-139935408D01*
X119824336Y-139940630D01*
X119824337Y-139940634D01*
X119882694Y-140158430D01*
X119882697Y-140158438D01*
X119884097Y-140163663D01*
X119886385Y-140168570D01*
X119886386Y-140168572D01*
X119981678Y-140372927D01*
X119981681Y-140372933D01*
X119983965Y-140377830D01*
X119987064Y-140382257D01*
X119987066Y-140382259D01*
X120116399Y-140566966D01*
X120116402Y-140566970D01*
X120119505Y-140571401D01*
X120286599Y-140738495D01*
X120291032Y-140741599D01*
X120291038Y-140741604D01*
X120472158Y-140868425D01*
X120511024Y-140912743D01*
X120525035Y-140970000D01*
X120511024Y-141027257D01*
X120472159Y-141071575D01*
X120291041Y-141198395D01*
X120286599Y-141201505D01*
X120282775Y-141205328D01*
X120282769Y-141205334D01*
X120123334Y-141364769D01*
X120123328Y-141364775D01*
X120119505Y-141368599D01*
X120116402Y-141373029D01*
X120116399Y-141373034D01*
X119987073Y-141557731D01*
X119987068Y-141557738D01*
X119983965Y-141562171D01*
X119981677Y-141567077D01*
X119981675Y-141567081D01*
X119886386Y-141771427D01*
X119886383Y-141771432D01*
X119884097Y-141776337D01*
X119882698Y-141781557D01*
X119882694Y-141781569D01*
X119824337Y-141999365D01*
X119824335Y-141999371D01*
X119822937Y-142004592D01*
X119802341Y-142240000D01*
X100000500Y-142240000D01*
X100000500Y-128731248D01*
X143406072Y-128731248D01*
X143414178Y-128742439D01*
X143443040Y-128764903D01*
X143451602Y-128770496D01*
X143661208Y-128883929D01*
X143670562Y-128888032D01*
X143895979Y-128965417D01*
X143905891Y-128967928D01*
X144140966Y-129007155D01*
X144151162Y-129008000D01*
X144389484Y-129008000D01*
X144399679Y-129007155D01*
X144634754Y-128967928D01*
X144644666Y-128965417D01*
X144870083Y-128888032D01*
X144879437Y-128883929D01*
X145089046Y-128770495D01*
X145097604Y-128764903D01*
X145126469Y-128742437D01*
X145134573Y-128731250D01*
X145127912Y-128719142D01*
X144961348Y-128552578D01*
X147769823Y-128552578D01*
X147769824Y-128555872D01*
X147770176Y-128559150D01*
X147770177Y-128559161D01*
X147775402Y-128607768D01*
X147775403Y-128607773D01*
X147776232Y-128615483D01*
X147778942Y-128622749D01*
X147778943Y-128622753D01*
X147810866Y-128708342D01*
X147826527Y-128750331D01*
X147831841Y-128757430D01*
X147831842Y-128757431D01*
X147841622Y-128770496D01*
X147912777Y-128865546D01*
X148027992Y-128951796D01*
X148162840Y-129002091D01*
X148222450Y-129008500D01*
X148602500Y-129008500D01*
X148664500Y-129025113D01*
X148709887Y-129070500D01*
X148726500Y-129132500D01*
X148726500Y-137821501D01*
X148709887Y-137883501D01*
X148664500Y-137928888D01*
X148602500Y-137945501D01*
X148304128Y-137945501D01*
X148300850Y-137945853D01*
X148300838Y-137945854D01*
X148252231Y-137951079D01*
X148252225Y-137951080D01*
X148244517Y-137951909D01*
X148237252Y-137954618D01*
X148237246Y-137954620D01*
X148117980Y-137999104D01*
X148117978Y-137999104D01*
X148109669Y-138002204D01*
X148102572Y-138007516D01*
X148102568Y-138007519D01*
X148001550Y-138083141D01*
X148001546Y-138083144D01*
X147994454Y-138088454D01*
X147989144Y-138095546D01*
X147989141Y-138095550D01*
X147913519Y-138196568D01*
X147913516Y-138196572D01*
X147908204Y-138203669D01*
X147905104Y-138211978D01*
X147905104Y-138211980D01*
X147860620Y-138331247D01*
X147860619Y-138331250D01*
X147857909Y-138338517D01*
X147857079Y-138346227D01*
X147857079Y-138346232D01*
X147851855Y-138394819D01*
X147851854Y-138394831D01*
X147851500Y-138398127D01*
X147851500Y-138401448D01*
X147851500Y-138401449D01*
X147851500Y-140490560D01*
X147851500Y-140490578D01*
X147851501Y-140493872D01*
X147851853Y-140497150D01*
X147851854Y-140497161D01*
X147857079Y-140545768D01*
X147857080Y-140545773D01*
X147857909Y-140553483D01*
X147860619Y-140560749D01*
X147860620Y-140560753D01*
X147894217Y-140650831D01*
X147908204Y-140688331D01*
X147913518Y-140695430D01*
X147913519Y-140695431D01*
X147923299Y-140708496D01*
X147994454Y-140803546D01*
X148109669Y-140889796D01*
X148244517Y-140940091D01*
X148304127Y-140946500D01*
X150399872Y-140946499D01*
X150459483Y-140940091D01*
X150594331Y-140889796D01*
X150709546Y-140803546D01*
X150795796Y-140688331D01*
X150846091Y-140553483D01*
X150852500Y-140493873D01*
X150852500Y-140195500D01*
X150869113Y-140133500D01*
X150914500Y-140088113D01*
X150976500Y-140071500D01*
X152699148Y-140071500D01*
X152746601Y-140080939D01*
X152786829Y-140107819D01*
X154852307Y-142173297D01*
X154859756Y-142181483D01*
X154863814Y-142187877D01*
X154869499Y-142193215D01*
X154869501Y-142193218D01*
X154912839Y-142233915D01*
X154915636Y-142236626D01*
X154935130Y-142256120D01*
X154938215Y-142258513D01*
X154938301Y-142258580D01*
X154947173Y-142266158D01*
X154979018Y-142296062D01*
X154985848Y-142299817D01*
X154985851Y-142299819D01*
X154996571Y-142305712D01*
X155012822Y-142316386D01*
X155028664Y-142328674D01*
X155035821Y-142331771D01*
X155035823Y-142331772D01*
X155068755Y-142346022D01*
X155079250Y-142351164D01*
X155117508Y-142372197D01*
X155136912Y-142377179D01*
X155155314Y-142383480D01*
X155166541Y-142388338D01*
X155173705Y-142391438D01*
X155211297Y-142397391D01*
X155216839Y-142398269D01*
X155228282Y-142400639D01*
X155263025Y-142409560D01*
X155263026Y-142409560D01*
X155270581Y-142411500D01*
X155290617Y-142411500D01*
X155310002Y-142413025D01*
X155329796Y-142416160D01*
X155367876Y-142412560D01*
X155373276Y-142412050D01*
X155384945Y-142411500D01*
X159432981Y-142411500D01*
X159453017Y-142411500D01*
X159472402Y-142413025D01*
X159492196Y-142416160D01*
X159530276Y-142412560D01*
X159535676Y-142412050D01*
X159547345Y-142411500D01*
X159551350Y-142411500D01*
X161232084Y-142411500D01*
X161280897Y-142421512D01*
X161321827Y-142449930D01*
X161348266Y-142492166D01*
X161395633Y-142619161D01*
X161397753Y-142623043D01*
X161397756Y-142623050D01*
X161530647Y-142866420D01*
X161532774Y-142870315D01*
X161704261Y-143099395D01*
X161906605Y-143301739D01*
X162135685Y-143473226D01*
X162386839Y-143610367D01*
X162654954Y-143710369D01*
X162934572Y-143771196D01*
X163220000Y-143791610D01*
X163505428Y-143771196D01*
X163785046Y-143710369D01*
X164053161Y-143610367D01*
X164304315Y-143473226D01*
X164533395Y-143301739D01*
X164735739Y-143099395D01*
X164907226Y-142870315D01*
X165044367Y-142619161D01*
X165144369Y-142351046D01*
X165205196Y-142071428D01*
X165225610Y-141786000D01*
X165205196Y-141500572D01*
X165144369Y-141220954D01*
X165044367Y-140952839D01*
X164996779Y-140865689D01*
X171499392Y-140865689D01*
X171507710Y-140876800D01*
X171632406Y-140970147D01*
X171639849Y-140974931D01*
X171883158Y-141107787D01*
X171891196Y-141111458D01*
X172150952Y-141208342D01*
X172159421Y-141210828D01*
X172430309Y-141269757D01*
X172439065Y-141271016D01*
X172715582Y-141290793D01*
X172724418Y-141290793D01*
X173000934Y-141271016D01*
X173009690Y-141269757D01*
X173280578Y-141210828D01*
X173289047Y-141208342D01*
X173548803Y-141111458D01*
X173556841Y-141107787D01*
X173800150Y-140974931D01*
X173807593Y-140970147D01*
X173932288Y-140876800D01*
X173940606Y-140865689D01*
X173933954Y-140853508D01*
X172731542Y-139651095D01*
X172720000Y-139644431D01*
X172708457Y-139651095D01*
X171506044Y-140853508D01*
X171499392Y-140865689D01*
X164996779Y-140865689D01*
X164907226Y-140701685D01*
X164735739Y-140472605D01*
X164533395Y-140270261D01*
X164304315Y-140098774D01*
X164254367Y-140071500D01*
X164057050Y-139963756D01*
X164057043Y-139963753D01*
X164053161Y-139961633D01*
X164049017Y-139960087D01*
X164049012Y-139960085D01*
X163789189Y-139863176D01*
X163789185Y-139863175D01*
X163785046Y-139861631D01*
X163754780Y-139855047D01*
X163509761Y-139801746D01*
X163509753Y-139801744D01*
X163505428Y-139800804D01*
X163501014Y-139800488D01*
X163501005Y-139800487D01*
X163224418Y-139780706D01*
X163220000Y-139780390D01*
X163215582Y-139780706D01*
X162938994Y-139800487D01*
X162938983Y-139800488D01*
X162934572Y-139800804D01*
X162930248Y-139801744D01*
X162930238Y-139801746D01*
X162829963Y-139823560D01*
X162768670Y-139821371D01*
X162715923Y-139790075D01*
X162684628Y-139737328D01*
X162682439Y-139676039D01*
X162705196Y-139571428D01*
X162725294Y-139290418D01*
X170715207Y-139290418D01*
X170734983Y-139566934D01*
X170736242Y-139575690D01*
X170795171Y-139846578D01*
X170797657Y-139855047D01*
X170894541Y-140114803D01*
X170898212Y-140122841D01*
X171031068Y-140366150D01*
X171035852Y-140373593D01*
X171129198Y-140498288D01*
X171140309Y-140506606D01*
X171152490Y-140499954D01*
X172354903Y-139297542D01*
X172361567Y-139286000D01*
X172354903Y-139274457D01*
X171149308Y-138068862D01*
X171140135Y-138062967D01*
X171131894Y-138070108D01*
X171035855Y-138198402D01*
X171031068Y-138205850D01*
X170898212Y-138449158D01*
X170894541Y-138457196D01*
X170797657Y-138716952D01*
X170795171Y-138725421D01*
X170736242Y-138996309D01*
X170734983Y-139005065D01*
X170715207Y-139281582D01*
X170715207Y-139290418D01*
X162725294Y-139290418D01*
X162725610Y-139286000D01*
X162705196Y-139000572D01*
X162644369Y-138720954D01*
X162544367Y-138452839D01*
X162407226Y-138201685D01*
X162235739Y-137972605D01*
X162033395Y-137770261D01*
X161947733Y-137706135D01*
X171496967Y-137706135D01*
X171502862Y-137715308D01*
X172708457Y-138920903D01*
X172720000Y-138927567D01*
X172731542Y-138920903D01*
X173933954Y-137718490D01*
X173940606Y-137706309D01*
X173932288Y-137695198D01*
X173807593Y-137601852D01*
X173800150Y-137597068D01*
X173556841Y-137464212D01*
X173548803Y-137460541D01*
X173289047Y-137363657D01*
X173280578Y-137361171D01*
X173009690Y-137302242D01*
X173000934Y-137300983D01*
X172724418Y-137281207D01*
X172715582Y-137281207D01*
X172439065Y-137300983D01*
X172430309Y-137302242D01*
X172159421Y-137361171D01*
X172150952Y-137363657D01*
X171891196Y-137460541D01*
X171883158Y-137464212D01*
X171639850Y-137597068D01*
X171632402Y-137601855D01*
X171504108Y-137697894D01*
X171496967Y-137706135D01*
X161947733Y-137706135D01*
X161804315Y-137598774D01*
X161800420Y-137596647D01*
X161557050Y-137463756D01*
X161557043Y-137463753D01*
X161553161Y-137461633D01*
X161549017Y-137460087D01*
X161549012Y-137460085D01*
X161289189Y-137363176D01*
X161289185Y-137363175D01*
X161285046Y-137361631D01*
X161255075Y-137355111D01*
X161009761Y-137301746D01*
X161009753Y-137301744D01*
X161005428Y-137300804D01*
X161001014Y-137300488D01*
X161001005Y-137300487D01*
X160724418Y-137280706D01*
X160720000Y-137280390D01*
X160715582Y-137280706D01*
X160438994Y-137300487D01*
X160438983Y-137300488D01*
X160434572Y-137300804D01*
X160430248Y-137301744D01*
X160430238Y-137301746D01*
X160159279Y-137360690D01*
X160159276Y-137360690D01*
X160154954Y-137361631D01*
X160150818Y-137363173D01*
X160150810Y-137363176D01*
X159890987Y-137460085D01*
X159890976Y-137460089D01*
X159886839Y-137461633D01*
X159882961Y-137463750D01*
X159882949Y-137463756D01*
X159639579Y-137596647D01*
X159639571Y-137596651D01*
X159635685Y-137598774D01*
X159632135Y-137601431D01*
X159632131Y-137601434D01*
X159410156Y-137767602D01*
X159410149Y-137767607D01*
X159406605Y-137770261D01*
X159403474Y-137773391D01*
X159403467Y-137773398D01*
X159207398Y-137969467D01*
X159207391Y-137969474D01*
X159204261Y-137972605D01*
X159201607Y-137976149D01*
X159201602Y-137976156D01*
X159035434Y-138198131D01*
X159032774Y-138201685D01*
X159030651Y-138205571D01*
X159030647Y-138205579D01*
X158897756Y-138448949D01*
X158897750Y-138448961D01*
X158895633Y-138452839D01*
X158894089Y-138456976D01*
X158894085Y-138456987D01*
X158797176Y-138716810D01*
X158797173Y-138716818D01*
X158795631Y-138720954D01*
X158794690Y-138725276D01*
X158794690Y-138725279D01*
X158735746Y-138996238D01*
X158735744Y-138996248D01*
X158734804Y-139000572D01*
X158734488Y-139004983D01*
X158734487Y-139004994D01*
X158718293Y-139231427D01*
X158714390Y-139286000D01*
X158714706Y-139290418D01*
X158734487Y-139567005D01*
X158734488Y-139567014D01*
X158734804Y-139571428D01*
X158735744Y-139575753D01*
X158735746Y-139575761D01*
X158786940Y-139811095D01*
X158795631Y-139851046D01*
X158797176Y-139855188D01*
X158798061Y-139858203D01*
X158799443Y-139922944D01*
X158768001Y-139979553D01*
X158712310Y-140012594D01*
X158647556Y-140013055D01*
X158591400Y-139980810D01*
X157307090Y-138696500D01*
X155500819Y-136890228D01*
X155473939Y-136850000D01*
X155464500Y-136802547D01*
X155464500Y-135865689D01*
X161999392Y-135865689D01*
X162007710Y-135876800D01*
X162132406Y-135970147D01*
X162139849Y-135974931D01*
X162383158Y-136107787D01*
X162391196Y-136111458D01*
X162650952Y-136208342D01*
X162659421Y-136210828D01*
X162930309Y-136269757D01*
X162939065Y-136271016D01*
X163215582Y-136290793D01*
X163224418Y-136290793D01*
X163500934Y-136271016D01*
X163509690Y-136269757D01*
X163780578Y-136210828D01*
X163789047Y-136208342D01*
X164048803Y-136111458D01*
X164056841Y-136107787D01*
X164300150Y-135974931D01*
X164307593Y-135970147D01*
X164432288Y-135876800D01*
X164440606Y-135865689D01*
X164433954Y-135853508D01*
X163231542Y-134651095D01*
X163220000Y-134644431D01*
X163208457Y-134651095D01*
X162006044Y-135853508D01*
X161999392Y-135865689D01*
X155464500Y-135865689D01*
X155464500Y-134324279D01*
X155472265Y-134290418D01*
X161215207Y-134290418D01*
X161234983Y-134566934D01*
X161236242Y-134575690D01*
X161295171Y-134846578D01*
X161297657Y-134855047D01*
X161394541Y-135114803D01*
X161398212Y-135122841D01*
X161531068Y-135366150D01*
X161535852Y-135373593D01*
X161629198Y-135498288D01*
X161640309Y-135506606D01*
X161652490Y-135499954D01*
X162854903Y-134297542D01*
X162861567Y-134286000D01*
X163578431Y-134286000D01*
X163585095Y-134297542D01*
X164787508Y-135499954D01*
X164799689Y-135506606D01*
X164810800Y-135498288D01*
X164904147Y-135373593D01*
X164908931Y-135366150D01*
X165041787Y-135122841D01*
X165045458Y-135114803D01*
X165142342Y-134855047D01*
X165144828Y-134846578D01*
X165203757Y-134575690D01*
X165205016Y-134566934D01*
X165224793Y-134290418D01*
X165224793Y-134281582D01*
X165205016Y-134005065D01*
X165203757Y-133996309D01*
X165144828Y-133725421D01*
X165142342Y-133716952D01*
X165045458Y-133457196D01*
X165041787Y-133449158D01*
X164908931Y-133205849D01*
X164904147Y-133198406D01*
X164810800Y-133073710D01*
X164799689Y-133065392D01*
X164787508Y-133072044D01*
X163585095Y-134274457D01*
X163578431Y-134286000D01*
X162861567Y-134286000D01*
X162854903Y-134274457D01*
X161649308Y-133068862D01*
X161640135Y-133062967D01*
X161631894Y-133070108D01*
X161535855Y-133198402D01*
X161531068Y-133205850D01*
X161398212Y-133449158D01*
X161394541Y-133457196D01*
X161297657Y-133716952D01*
X161295171Y-133725421D01*
X161236242Y-133996309D01*
X161234983Y-134005065D01*
X161215207Y-134281582D01*
X161215207Y-134290418D01*
X155472265Y-134290418D01*
X155476891Y-134270247D01*
X155511396Y-134227251D01*
X155517044Y-134223768D01*
X155636968Y-134103844D01*
X155726003Y-133959497D01*
X155779349Y-133798508D01*
X155789500Y-133699145D01*
X155789499Y-133102456D01*
X155779349Y-133003092D01*
X155726003Y-132842103D01*
X155642136Y-132706135D01*
X161996967Y-132706135D01*
X162002862Y-132715308D01*
X163208457Y-133920903D01*
X163220000Y-133927567D01*
X163231542Y-133920903D01*
X164433954Y-132718490D01*
X164440606Y-132706309D01*
X164432288Y-132695198D01*
X164307593Y-132601852D01*
X164300150Y-132597068D01*
X164056841Y-132464212D01*
X164048803Y-132460541D01*
X163789047Y-132363657D01*
X163780578Y-132361171D01*
X163509690Y-132302242D01*
X163500934Y-132300983D01*
X163224418Y-132281207D01*
X163215582Y-132281207D01*
X162939065Y-132300983D01*
X162930309Y-132302242D01*
X162659421Y-132361171D01*
X162650952Y-132363657D01*
X162391196Y-132460541D01*
X162383158Y-132464212D01*
X162139850Y-132597068D01*
X162132402Y-132601855D01*
X162004108Y-132697894D01*
X161996967Y-132706135D01*
X155642136Y-132706135D01*
X155636968Y-132697756D01*
X155517044Y-132577832D01*
X155510894Y-132574038D01*
X155510892Y-132574037D01*
X155378845Y-132492589D01*
X155378843Y-132492588D01*
X155372697Y-132488797D01*
X155365842Y-132486525D01*
X155365841Y-132486525D01*
X155218136Y-132437581D01*
X155218135Y-132437580D01*
X155211708Y-132435451D01*
X155204975Y-132434763D01*
X155204970Y-132434762D01*
X155115476Y-132425619D01*
X155115459Y-132425618D01*
X155112345Y-132425300D01*
X155109196Y-132425300D01*
X154568805Y-132425300D01*
X154568785Y-132425300D01*
X154565656Y-132425301D01*
X154562524Y-132425620D01*
X154562522Y-132425621D01*
X154473027Y-132434762D01*
X154473017Y-132434763D01*
X154466292Y-132435451D01*
X154459870Y-132437578D01*
X154459865Y-132437580D01*
X154312158Y-132486525D01*
X154312154Y-132486526D01*
X154305303Y-132488797D01*
X154299159Y-132492586D01*
X154299154Y-132492589D01*
X154167104Y-132574039D01*
X154167099Y-132574042D01*
X154160956Y-132577832D01*
X154155855Y-132582932D01*
X154155841Y-132582944D01*
X154151317Y-132587468D01*
X154095730Y-132619555D01*
X154031547Y-132619552D01*
X153975964Y-132587459D01*
X153971842Y-132583337D01*
X153960580Y-132574432D01*
X153828633Y-132493046D01*
X153815625Y-132486980D01*
X153668030Y-132438072D01*
X153654874Y-132435256D01*
X153565444Y-132426119D01*
X153559168Y-132425800D01*
X153555326Y-132425800D01*
X153542450Y-132429250D01*
X153539000Y-132442126D01*
X153539000Y-134359473D01*
X153542450Y-134372348D01*
X153555326Y-134375799D01*
X153559165Y-134375799D01*
X153565447Y-134375478D01*
X153654867Y-134366344D01*
X153668036Y-134363525D01*
X153815625Y-134314619D01*
X153828633Y-134308553D01*
X153960584Y-134227164D01*
X153971831Y-134218272D01*
X153975955Y-134214148D01*
X154031544Y-134182048D01*
X154095735Y-134182044D01*
X154151327Y-134214138D01*
X154160956Y-134223768D01*
X154166603Y-134227251D01*
X154201109Y-134270247D01*
X154213500Y-134324279D01*
X154213500Y-137035225D01*
X154212978Y-137046280D01*
X154211327Y-137053667D01*
X154211571Y-137061453D01*
X154211571Y-137061461D01*
X154213439Y-137120873D01*
X154213500Y-137124768D01*
X154213500Y-137152350D01*
X154213988Y-137156219D01*
X154213989Y-137156225D01*
X154214004Y-137156343D01*
X154214918Y-137167966D01*
X154216045Y-137203830D01*
X154216046Y-137203837D01*
X154216291Y-137211627D01*
X154218467Y-137219119D01*
X154218468Y-137219121D01*
X154221879Y-137230862D01*
X154225825Y-137249915D01*
X154228336Y-137269792D01*
X154231206Y-137277042D01*
X154231208Y-137277048D01*
X154244414Y-137310404D01*
X154248197Y-137321451D01*
X154260382Y-137363390D01*
X154264353Y-137370105D01*
X154264354Y-137370107D01*
X154270581Y-137380637D01*
X154279136Y-137398099D01*
X154283642Y-137409480D01*
X154283643Y-137409483D01*
X154286514Y-137416732D01*
X154308440Y-137446912D01*
X154312181Y-137452060D01*
X154318593Y-137461822D01*
X154336856Y-137492702D01*
X154336859Y-137492707D01*
X154340830Y-137499420D01*
X154346345Y-137504935D01*
X154354990Y-137513580D01*
X154367626Y-137528374D01*
X154374819Y-137538275D01*
X154374823Y-137538279D01*
X154379406Y-137544587D01*
X154385415Y-137549558D01*
X154385416Y-137549559D01*
X154413058Y-137572426D01*
X154421699Y-137580289D01*
X157790228Y-140948819D01*
X157820478Y-140998182D01*
X157825020Y-141055898D01*
X157802865Y-141109385D01*
X157758842Y-141146985D01*
X157702547Y-141160500D01*
X155660052Y-141160500D01*
X155612599Y-141151061D01*
X155572371Y-141124181D01*
X154552474Y-140104284D01*
X153506886Y-139058695D01*
X153499442Y-139050514D01*
X153495386Y-139044123D01*
X153446375Y-138998098D01*
X153443578Y-138995387D01*
X153426827Y-138978636D01*
X153426826Y-138978635D01*
X153424071Y-138975880D01*
X153420890Y-138973412D01*
X153412014Y-138965830D01*
X153385869Y-138941278D01*
X153385867Y-138941276D01*
X153380182Y-138935938D01*
X153373349Y-138932182D01*
X153373343Y-138932177D01*
X153362625Y-138926285D01*
X153346366Y-138915606D01*
X153336695Y-138908104D01*
X153336692Y-138908102D01*
X153330536Y-138903327D01*
X153323379Y-138900229D01*
X153323376Y-138900228D01*
X153290449Y-138885978D01*
X153279963Y-138880841D01*
X153248532Y-138863562D01*
X153248523Y-138863558D01*
X153241692Y-138859803D01*
X153234135Y-138857862D01*
X153234131Y-138857861D01*
X153222288Y-138854820D01*
X153203884Y-138848519D01*
X153192657Y-138843660D01*
X153192650Y-138843658D01*
X153185496Y-138840562D01*
X153177792Y-138839341D01*
X153177790Y-138839341D01*
X153142359Y-138833729D01*
X153130924Y-138831361D01*
X153096171Y-138822438D01*
X153096163Y-138822437D01*
X153088619Y-138820500D01*
X153080823Y-138820500D01*
X153068583Y-138820500D01*
X153049197Y-138818974D01*
X153029404Y-138815840D01*
X153021638Y-138816574D01*
X153021635Y-138816574D01*
X152985924Y-138819950D01*
X152974255Y-138820500D01*
X150976499Y-138820500D01*
X150914499Y-138803887D01*
X150869112Y-138758500D01*
X150852499Y-138696500D01*
X150852499Y-138401439D01*
X150852499Y-138398128D01*
X150846091Y-138338517D01*
X150795796Y-138203669D01*
X150709546Y-138088454D01*
X150683374Y-138068862D01*
X150601431Y-138007519D01*
X150601430Y-138007518D01*
X150594331Y-138002204D01*
X150514972Y-137972605D01*
X150466752Y-137954620D01*
X150466750Y-137954619D01*
X150459483Y-137951909D01*
X150451770Y-137951079D01*
X150451767Y-137951079D01*
X150403180Y-137945855D01*
X150403169Y-137945854D01*
X150399873Y-137945500D01*
X150396551Y-137945500D01*
X150101500Y-137945500D01*
X150039500Y-137928887D01*
X149994113Y-137883500D01*
X149977500Y-137821500D01*
X149977500Y-133695965D01*
X152339001Y-133695965D01*
X152339321Y-133702247D01*
X152348455Y-133791667D01*
X152351274Y-133804836D01*
X152400180Y-133952425D01*
X152406246Y-133965433D01*
X152487632Y-134097380D01*
X152496537Y-134108642D01*
X152606157Y-134218262D01*
X152617419Y-134227167D01*
X152749366Y-134308553D01*
X152762374Y-134314619D01*
X152909969Y-134363527D01*
X152923125Y-134366343D01*
X153012555Y-134375480D01*
X153018832Y-134375800D01*
X153022674Y-134375800D01*
X153035549Y-134372349D01*
X153039000Y-134359474D01*
X153039000Y-133667126D01*
X153035549Y-133654250D01*
X153022674Y-133650800D01*
X152355327Y-133650800D01*
X152342451Y-133654250D01*
X152339001Y-133667126D01*
X152339001Y-133695965D01*
X149977500Y-133695965D01*
X149977500Y-133134474D01*
X152339000Y-133134474D01*
X152342450Y-133147349D01*
X152355326Y-133150800D01*
X153022674Y-133150800D01*
X153035549Y-133147349D01*
X153039000Y-133134474D01*
X153039000Y-132442127D01*
X153035549Y-132429251D01*
X153022674Y-132425801D01*
X153018835Y-132425801D01*
X153012552Y-132426121D01*
X152923132Y-132435255D01*
X152909963Y-132438074D01*
X152762374Y-132486980D01*
X152749366Y-132493046D01*
X152617419Y-132574432D01*
X152606157Y-132583337D01*
X152496537Y-132692957D01*
X152487632Y-132704219D01*
X152406246Y-132836166D01*
X152400180Y-132849174D01*
X152351272Y-132996769D01*
X152348456Y-133009925D01*
X152339319Y-133099355D01*
X152339000Y-133105632D01*
X152339000Y-133134474D01*
X149977500Y-133134474D01*
X149977500Y-129286000D01*
X158714390Y-129286000D01*
X158714706Y-129290418D01*
X158734487Y-129567005D01*
X158734488Y-129567014D01*
X158734804Y-129571428D01*
X158735744Y-129575753D01*
X158735746Y-129575761D01*
X158752134Y-129651095D01*
X158795631Y-129851046D01*
X158797175Y-129855185D01*
X158797176Y-129855189D01*
X158894007Y-130114803D01*
X158895633Y-130119161D01*
X158897753Y-130123043D01*
X158897756Y-130123050D01*
X159030500Y-130366150D01*
X159032774Y-130370315D01*
X159204261Y-130599395D01*
X159406605Y-130801739D01*
X159635685Y-130973226D01*
X159886839Y-131110367D01*
X160154954Y-131210369D01*
X160434572Y-131271196D01*
X160720000Y-131291610D01*
X161005428Y-131271196D01*
X161285046Y-131210369D01*
X161553161Y-131110367D01*
X161804315Y-130973226D01*
X161947968Y-130865689D01*
X171499392Y-130865689D01*
X171507710Y-130876800D01*
X171632406Y-130970147D01*
X171639849Y-130974931D01*
X171883158Y-131107787D01*
X171891196Y-131111458D01*
X172150952Y-131208342D01*
X172159421Y-131210828D01*
X172430309Y-131269757D01*
X172439065Y-131271016D01*
X172715582Y-131290793D01*
X172724418Y-131290793D01*
X173000934Y-131271016D01*
X173009690Y-131269757D01*
X173280578Y-131210828D01*
X173289047Y-131208342D01*
X173548803Y-131111458D01*
X173556841Y-131107787D01*
X173800150Y-130974931D01*
X173807593Y-130970147D01*
X173932288Y-130876800D01*
X173940606Y-130865689D01*
X173933954Y-130853508D01*
X172731542Y-129651095D01*
X172720000Y-129644431D01*
X172708457Y-129651095D01*
X171506044Y-130853508D01*
X171499392Y-130865689D01*
X161947968Y-130865689D01*
X162033395Y-130801739D01*
X162235739Y-130599395D01*
X162407226Y-130370315D01*
X162544367Y-130119161D01*
X162644369Y-129851046D01*
X162705196Y-129571428D01*
X162725294Y-129290418D01*
X170715207Y-129290418D01*
X170734983Y-129566934D01*
X170736242Y-129575690D01*
X170795171Y-129846578D01*
X170797657Y-129855047D01*
X170894541Y-130114803D01*
X170898212Y-130122841D01*
X171031068Y-130366150D01*
X171035852Y-130373593D01*
X171129198Y-130498288D01*
X171140309Y-130506606D01*
X171152490Y-130499954D01*
X172354903Y-129297542D01*
X172361567Y-129285999D01*
X172354903Y-129274457D01*
X171149308Y-128068862D01*
X171140135Y-128062967D01*
X171131894Y-128070108D01*
X171035855Y-128198402D01*
X171031068Y-128205850D01*
X170898212Y-128449158D01*
X170894541Y-128457196D01*
X170797657Y-128716952D01*
X170795171Y-128725421D01*
X170736242Y-128996309D01*
X170734983Y-129005065D01*
X170715207Y-129281582D01*
X170715207Y-129290418D01*
X162725294Y-129290418D01*
X162725610Y-129286000D01*
X162705196Y-129000572D01*
X162682322Y-128895426D01*
X162684512Y-128834133D01*
X162715808Y-128781386D01*
X162768555Y-128750091D01*
X162829848Y-128747902D01*
X162930312Y-128769757D01*
X162939065Y-128771016D01*
X163215582Y-128790793D01*
X163224418Y-128790793D01*
X163500934Y-128771016D01*
X163509690Y-128769757D01*
X163780578Y-128710828D01*
X163789047Y-128708342D01*
X164048803Y-128611458D01*
X164056841Y-128607787D01*
X164300150Y-128474931D01*
X164307593Y-128470147D01*
X164432288Y-128376800D01*
X164440606Y-128365689D01*
X164433954Y-128353508D01*
X163220000Y-127139553D01*
X162866447Y-126786000D01*
X163578431Y-126786000D01*
X163585095Y-126797542D01*
X164787508Y-127999954D01*
X164799689Y-128006606D01*
X164810800Y-127998288D01*
X164904147Y-127873593D01*
X164908931Y-127866150D01*
X164996305Y-127706135D01*
X171496967Y-127706135D01*
X171502862Y-127715308D01*
X172708457Y-128920903D01*
X172719999Y-128927567D01*
X172731542Y-128920903D01*
X173933954Y-127718490D01*
X173940606Y-127706309D01*
X173932288Y-127695198D01*
X173807593Y-127601852D01*
X173800150Y-127597068D01*
X173556841Y-127464212D01*
X173548803Y-127460541D01*
X173289047Y-127363657D01*
X173280578Y-127361171D01*
X173009690Y-127302242D01*
X173000934Y-127300983D01*
X172724418Y-127281207D01*
X172715582Y-127281207D01*
X172439065Y-127300983D01*
X172430309Y-127302242D01*
X172159421Y-127361171D01*
X172150952Y-127363657D01*
X171891196Y-127460541D01*
X171883158Y-127464212D01*
X171639850Y-127597068D01*
X171632402Y-127601855D01*
X171504108Y-127697894D01*
X171496967Y-127706135D01*
X164996305Y-127706135D01*
X165041787Y-127622841D01*
X165045458Y-127614803D01*
X165142342Y-127355047D01*
X165144828Y-127346578D01*
X165203757Y-127075690D01*
X165205016Y-127066934D01*
X165224793Y-126790418D01*
X165224793Y-126781582D01*
X165205016Y-126505065D01*
X165203757Y-126496309D01*
X165144828Y-126225421D01*
X165142342Y-126216952D01*
X165045458Y-125957196D01*
X165041787Y-125949158D01*
X164908931Y-125705849D01*
X164904147Y-125698406D01*
X164810800Y-125573710D01*
X164799689Y-125565392D01*
X164787508Y-125572044D01*
X163585095Y-126774457D01*
X163578431Y-126786000D01*
X162866447Y-126786000D01*
X161649310Y-125568864D01*
X161640135Y-125562967D01*
X161631894Y-125570108D01*
X161535855Y-125698402D01*
X161531068Y-125705850D01*
X161398212Y-125949158D01*
X161394541Y-125957196D01*
X161297657Y-126216952D01*
X161295171Y-126225421D01*
X161236242Y-126496309D01*
X161234983Y-126505065D01*
X161215207Y-126781582D01*
X161215207Y-126790418D01*
X161234983Y-127066934D01*
X161236242Y-127075690D01*
X161258097Y-127176152D01*
X161255908Y-127237444D01*
X161224613Y-127290191D01*
X161171867Y-127321487D01*
X161110574Y-127323676D01*
X161009765Y-127301747D01*
X161009758Y-127301746D01*
X161005428Y-127300804D01*
X161001014Y-127300488D01*
X161001005Y-127300487D01*
X160724418Y-127280706D01*
X160720000Y-127280390D01*
X160715582Y-127280706D01*
X160438994Y-127300487D01*
X160438983Y-127300488D01*
X160434572Y-127300804D01*
X160430248Y-127301744D01*
X160430238Y-127301746D01*
X160159279Y-127360690D01*
X160159276Y-127360690D01*
X160154954Y-127361631D01*
X160150818Y-127363173D01*
X160150810Y-127363176D01*
X159890987Y-127460085D01*
X159890976Y-127460089D01*
X159886839Y-127461633D01*
X159882961Y-127463750D01*
X159882949Y-127463756D01*
X159639579Y-127596647D01*
X159639571Y-127596651D01*
X159635685Y-127598774D01*
X159632135Y-127601431D01*
X159632131Y-127601434D01*
X159410156Y-127767602D01*
X159410149Y-127767607D01*
X159406605Y-127770261D01*
X159403474Y-127773391D01*
X159403467Y-127773398D01*
X159207398Y-127969467D01*
X159207391Y-127969474D01*
X159204261Y-127972605D01*
X159201607Y-127976149D01*
X159201602Y-127976156D01*
X159035434Y-128198131D01*
X159032774Y-128201685D01*
X159030651Y-128205571D01*
X159030647Y-128205579D01*
X158897756Y-128448949D01*
X158897750Y-128448961D01*
X158895633Y-128452839D01*
X158894089Y-128456976D01*
X158894085Y-128456987D01*
X158797176Y-128716810D01*
X158797173Y-128716818D01*
X158795631Y-128720954D01*
X158794690Y-128725276D01*
X158794690Y-128725279D01*
X158735746Y-128996238D01*
X158735744Y-128996248D01*
X158734804Y-129000572D01*
X158734488Y-129004983D01*
X158734487Y-129004994D01*
X158725368Y-129132499D01*
X158714390Y-129286000D01*
X149977500Y-129286000D01*
X149977500Y-129132499D01*
X149994113Y-129070499D01*
X150039500Y-129025112D01*
X150101500Y-129008499D01*
X150314884Y-129008499D01*
X150318195Y-129008499D01*
X150377806Y-129002091D01*
X150512654Y-128951796D01*
X150627869Y-128865546D01*
X150714119Y-128750331D01*
X150764414Y-128615483D01*
X150770823Y-128555873D01*
X150770822Y-126460128D01*
X150764414Y-126400517D01*
X150714119Y-126265669D01*
X150627869Y-126150454D01*
X150512654Y-126064204D01*
X150377806Y-126013909D01*
X150370093Y-126013079D01*
X150370090Y-126013079D01*
X150321503Y-126007855D01*
X150321492Y-126007854D01*
X150318196Y-126007500D01*
X150314873Y-126007500D01*
X148225762Y-126007500D01*
X148225743Y-126007500D01*
X148222451Y-126007501D01*
X148219173Y-126007853D01*
X148219161Y-126007854D01*
X148170554Y-126013079D01*
X148170548Y-126013080D01*
X148162840Y-126013909D01*
X148155575Y-126016618D01*
X148155569Y-126016620D01*
X148036303Y-126061104D01*
X148036301Y-126061104D01*
X148027992Y-126064204D01*
X148020895Y-126069516D01*
X148020891Y-126069519D01*
X147919873Y-126145141D01*
X147919869Y-126145144D01*
X147912777Y-126150454D01*
X147907467Y-126157546D01*
X147907464Y-126157550D01*
X147831842Y-126258568D01*
X147831839Y-126258572D01*
X147826527Y-126265669D01*
X147823427Y-126273978D01*
X147823427Y-126273980D01*
X147778943Y-126393247D01*
X147778942Y-126393250D01*
X147776232Y-126400517D01*
X147775402Y-126408227D01*
X147775402Y-126408232D01*
X147770178Y-126456819D01*
X147770177Y-126456831D01*
X147769823Y-126460127D01*
X147769823Y-126463448D01*
X147769823Y-126463449D01*
X147769823Y-128552560D01*
X147769823Y-128552578D01*
X144961348Y-128552578D01*
X144281865Y-127873095D01*
X144270322Y-127866431D01*
X144258780Y-127873095D01*
X143412731Y-128719143D01*
X143406072Y-128731248D01*
X100000500Y-128731248D01*
X100000500Y-127513117D01*
X142765606Y-127513117D01*
X142785285Y-127750618D01*
X142786969Y-127760712D01*
X142845476Y-127991747D01*
X142848795Y-128001414D01*
X142944531Y-128219673D01*
X142949393Y-128228656D01*
X143039322Y-128366304D01*
X143047286Y-128374024D01*
X143056668Y-128368100D01*
X143905227Y-127519542D01*
X143911891Y-127508000D01*
X144628754Y-127508000D01*
X144635418Y-127519542D01*
X145483976Y-128368100D01*
X145493357Y-128374024D01*
X145501325Y-128366299D01*
X145591247Y-128228664D01*
X145596115Y-128219669D01*
X145691850Y-128001414D01*
X145695169Y-127991747D01*
X145753676Y-127760712D01*
X145755360Y-127750618D01*
X145775040Y-127513117D01*
X145775040Y-127502883D01*
X145755360Y-127265381D01*
X145753676Y-127255287D01*
X145695169Y-127024252D01*
X145691850Y-127014585D01*
X145596115Y-126796330D01*
X145591247Y-126787335D01*
X145501325Y-126649699D01*
X145493357Y-126641974D01*
X145483976Y-126647898D01*
X144635418Y-127496457D01*
X144628754Y-127508000D01*
X143911891Y-127508000D01*
X143905227Y-127496457D01*
X143056668Y-126647898D01*
X143047287Y-126641974D01*
X143039320Y-126649699D01*
X142949395Y-126787338D01*
X142944530Y-126796328D01*
X142848795Y-127014585D01*
X142845476Y-127024252D01*
X142786969Y-127255287D01*
X142785285Y-127265381D01*
X142765606Y-127502883D01*
X142765606Y-127513117D01*
X100000500Y-127513117D01*
X100000500Y-71100196D01*
X107827840Y-71100196D01*
X107828574Y-71107961D01*
X107828574Y-71107964D01*
X107831950Y-71143676D01*
X107832500Y-71155345D01*
X107832500Y-101268225D01*
X107831978Y-101279280D01*
X107830327Y-101286667D01*
X107830571Y-101294453D01*
X107830571Y-101294461D01*
X107832439Y-101353873D01*
X107832500Y-101357768D01*
X107832500Y-101385350D01*
X107832988Y-101389219D01*
X107832989Y-101389225D01*
X107833004Y-101389343D01*
X107833918Y-101400966D01*
X107835045Y-101436830D01*
X107835046Y-101436837D01*
X107835291Y-101444627D01*
X107837467Y-101452119D01*
X107837468Y-101452121D01*
X107840879Y-101463862D01*
X107844825Y-101482915D01*
X107847336Y-101502792D01*
X107850206Y-101510042D01*
X107850208Y-101510048D01*
X107863414Y-101543404D01*
X107867197Y-101554451D01*
X107879382Y-101596390D01*
X107883353Y-101603105D01*
X107883354Y-101603107D01*
X107889581Y-101613637D01*
X107898136Y-101631099D01*
X107902642Y-101642480D01*
X107902643Y-101642483D01*
X107905514Y-101649732D01*
X107927440Y-101679912D01*
X107931181Y-101685060D01*
X107937593Y-101694822D01*
X107955856Y-101725702D01*
X107955859Y-101725707D01*
X107959830Y-101732420D01*
X107965345Y-101737935D01*
X107973990Y-101746580D01*
X107986626Y-101761374D01*
X107993819Y-101771275D01*
X107993823Y-101771279D01*
X107998406Y-101777587D01*
X108004415Y-101782558D01*
X108004416Y-101782559D01*
X108032058Y-101805426D01*
X108040699Y-101813289D01*
X111915381Y-105687972D01*
X111942261Y-105728200D01*
X111951700Y-105775653D01*
X111951700Y-106071816D01*
X111958114Y-106142396D01*
X111960062Y-106148648D01*
X111960064Y-106148657D01*
X111999652Y-106275700D01*
X112008722Y-106304806D01*
X112096728Y-106450385D01*
X112102031Y-106455688D01*
X112181762Y-106535419D01*
X112213856Y-106591006D01*
X112213856Y-106655194D01*
X112181762Y-106710781D01*
X112140631Y-106751911D01*
X112140627Y-106751915D01*
X112135328Y-106757215D01*
X112131451Y-106763627D01*
X112131448Y-106763632D01*
X112051200Y-106896378D01*
X112051198Y-106896382D01*
X112047322Y-106902794D01*
X112045092Y-106909948D01*
X112045092Y-106909950D01*
X111998664Y-107058942D01*
X111998661Y-107058953D01*
X111996714Y-107065204D01*
X111996120Y-107071735D01*
X111996120Y-107071738D01*
X111992026Y-107116793D01*
X111990300Y-107135784D01*
X111990300Y-107799016D01*
X111996714Y-107869596D01*
X111998662Y-107875848D01*
X111998664Y-107875857D01*
X112033344Y-107987148D01*
X112047322Y-108032006D01*
X112051199Y-108038420D01*
X112051200Y-108038421D01*
X112128836Y-108166847D01*
X112135328Y-108177585D01*
X112140630Y-108182887D01*
X112140631Y-108182888D01*
X112228981Y-108271238D01*
X112255861Y-108311466D01*
X112265300Y-108358919D01*
X112265300Y-118655025D01*
X112264778Y-118666080D01*
X112263127Y-118673467D01*
X112263371Y-118681253D01*
X112263371Y-118681261D01*
X112265239Y-118740673D01*
X112265300Y-118744568D01*
X112265300Y-118772150D01*
X112265788Y-118776019D01*
X112265789Y-118776025D01*
X112265804Y-118776143D01*
X112266718Y-118787766D01*
X112267845Y-118823630D01*
X112267846Y-118823637D01*
X112268091Y-118831427D01*
X112270267Y-118838919D01*
X112270268Y-118838921D01*
X112273679Y-118850662D01*
X112277625Y-118869715D01*
X112280136Y-118889592D01*
X112283006Y-118896842D01*
X112283008Y-118896848D01*
X112296214Y-118930204D01*
X112299997Y-118941251D01*
X112312182Y-118983190D01*
X112316153Y-118989905D01*
X112316154Y-118989907D01*
X112322381Y-119000437D01*
X112330936Y-119017899D01*
X112335442Y-119029280D01*
X112335443Y-119029283D01*
X112338314Y-119036532D01*
X112360240Y-119066712D01*
X112363981Y-119071860D01*
X112370393Y-119081622D01*
X112388656Y-119112502D01*
X112388659Y-119112507D01*
X112392630Y-119119220D01*
X112398145Y-119124735D01*
X112406790Y-119133380D01*
X112419426Y-119148174D01*
X112426619Y-119158075D01*
X112426623Y-119158079D01*
X112431206Y-119164387D01*
X112437215Y-119169358D01*
X112437216Y-119169359D01*
X112464858Y-119192226D01*
X112473499Y-119200089D01*
X119644707Y-126371298D01*
X119652159Y-126379487D01*
X119656214Y-126385877D01*
X119700609Y-126427567D01*
X119705223Y-126431900D01*
X119708020Y-126434611D01*
X119727529Y-126454120D01*
X119730709Y-126456587D01*
X119739571Y-126464155D01*
X119752880Y-126476654D01*
X119765732Y-126488723D01*
X119765734Y-126488724D01*
X119771418Y-126494062D01*
X119778251Y-126497818D01*
X119778252Y-126497819D01*
X119788973Y-126503713D01*
X119805234Y-126514394D01*
X119821064Y-126526673D01*
X119861155Y-126544021D01*
X119871635Y-126549155D01*
X119909908Y-126570197D01*
X119929316Y-126575180D01*
X119947719Y-126581481D01*
X119958944Y-126586339D01*
X119958946Y-126586339D01*
X119966104Y-126589437D01*
X120009258Y-126596271D01*
X120020644Y-126598629D01*
X120062981Y-126609500D01*
X120083017Y-126609500D01*
X120102415Y-126611027D01*
X120114486Y-126612939D01*
X120114487Y-126612939D01*
X120122196Y-126614160D01*
X120160276Y-126610560D01*
X120165676Y-126610050D01*
X120177345Y-126609500D01*
X133134524Y-126609500D01*
X133145579Y-126610021D01*
X133152966Y-126611673D01*
X133220171Y-126609561D01*
X133224067Y-126609500D01*
X133247747Y-126609500D01*
X133251649Y-126609500D01*
X133255612Y-126608999D01*
X133267262Y-126608080D01*
X133310926Y-126606709D01*
X133330160Y-126601119D01*
X133349216Y-126597174D01*
X133369091Y-126594664D01*
X133409694Y-126578587D01*
X133420749Y-126574802D01*
X133462689Y-126562618D01*
X133479928Y-126552422D01*
X133497402Y-126543862D01*
X133508773Y-126539360D01*
X133508775Y-126539358D01*
X133516031Y-126536486D01*
X133551368Y-126510811D01*
X133561123Y-126504403D01*
X133598719Y-126482170D01*
X133612883Y-126468005D01*
X133627678Y-126455368D01*
X133643886Y-126443594D01*
X133671727Y-126409938D01*
X133679578Y-126401309D01*
X133796138Y-126284749D01*
X143406071Y-126284749D01*
X143412731Y-126296855D01*
X144258780Y-127142904D01*
X144270323Y-127149568D01*
X144281865Y-127142904D01*
X145127913Y-126296855D01*
X145134573Y-126284749D01*
X145126466Y-126273559D01*
X145097609Y-126251099D01*
X145089042Y-126245503D01*
X144879437Y-126132070D01*
X144870083Y-126127967D01*
X144644666Y-126050582D01*
X144634754Y-126048071D01*
X144399679Y-126008844D01*
X144389484Y-126008000D01*
X144151162Y-126008000D01*
X144140966Y-126008844D01*
X143905891Y-126048071D01*
X143895979Y-126050582D01*
X143670562Y-126127967D01*
X143661208Y-126132070D01*
X143451599Y-126245504D01*
X143443040Y-126251096D01*
X143414177Y-126273560D01*
X143406071Y-126284749D01*
X133796138Y-126284749D01*
X134874752Y-125206135D01*
X161996967Y-125206135D01*
X162002862Y-125215308D01*
X163208457Y-126420903D01*
X163220000Y-126427567D01*
X163231542Y-126420903D01*
X164433954Y-125218490D01*
X164440606Y-125206309D01*
X164432288Y-125195198D01*
X164307593Y-125101852D01*
X164300150Y-125097068D01*
X164056841Y-124964212D01*
X164048803Y-124960541D01*
X163789047Y-124863657D01*
X163780578Y-124861171D01*
X163509690Y-124802242D01*
X163500934Y-124800983D01*
X163224418Y-124781207D01*
X163215582Y-124781207D01*
X162939065Y-124800983D01*
X162930309Y-124802242D01*
X162659421Y-124861171D01*
X162650952Y-124863657D01*
X162391196Y-124960541D01*
X162383158Y-124964212D01*
X162139850Y-125097068D01*
X162132402Y-125101855D01*
X162004108Y-125197894D01*
X161996967Y-125206135D01*
X134874752Y-125206135D01*
X141716889Y-118364000D01*
X164304668Y-118364000D01*
X164304984Y-118368418D01*
X164324153Y-118636444D01*
X164324154Y-118636453D01*
X164324470Y-118640867D01*
X164325410Y-118645192D01*
X164325412Y-118645200D01*
X164374253Y-118869715D01*
X164383473Y-118912099D01*
X164385022Y-118916252D01*
X164478927Y-119168023D01*
X164478929Y-119168029D01*
X164480475Y-119172172D01*
X164482597Y-119176058D01*
X164611375Y-119411899D01*
X164611379Y-119411906D01*
X164613502Y-119415793D01*
X164616159Y-119419342D01*
X164777194Y-119634460D01*
X164777199Y-119634466D01*
X164779847Y-119638003D01*
X164976122Y-119834278D01*
X164979659Y-119836926D01*
X164979664Y-119836930D01*
X165066052Y-119901599D01*
X165198332Y-120000623D01*
X165202222Y-120002747D01*
X165202225Y-120002749D01*
X165269380Y-120039418D01*
X165441953Y-120133650D01*
X165702026Y-120230652D01*
X165973258Y-120289655D01*
X166250125Y-120309457D01*
X166526992Y-120289655D01*
X166798224Y-120230652D01*
X167058297Y-120133650D01*
X167301918Y-120000623D01*
X167524128Y-119834278D01*
X167720403Y-119638003D01*
X167886748Y-119415793D01*
X168019775Y-119172172D01*
X168116777Y-118912099D01*
X168175780Y-118640867D01*
X168195582Y-118364000D01*
X168175780Y-118087133D01*
X168116777Y-117815901D01*
X168019775Y-117555828D01*
X167886748Y-117312207D01*
X167788199Y-117180562D01*
X167723055Y-117093539D01*
X167723051Y-117093534D01*
X167720403Y-117089997D01*
X167524128Y-116893722D01*
X167520591Y-116891074D01*
X167520585Y-116891069D01*
X167348875Y-116762529D01*
X167301918Y-116727377D01*
X167298031Y-116725254D01*
X167298024Y-116725250D01*
X167062183Y-116596472D01*
X167058297Y-116594350D01*
X167054154Y-116592804D01*
X167054148Y-116592802D01*
X166802377Y-116498897D01*
X166798224Y-116497348D01*
X166793892Y-116496405D01*
X166793890Y-116496405D01*
X166531325Y-116439287D01*
X166531317Y-116439285D01*
X166526992Y-116438345D01*
X166522578Y-116438029D01*
X166522569Y-116438028D01*
X166254543Y-116418859D01*
X166250125Y-116418543D01*
X166245707Y-116418859D01*
X165977680Y-116438028D01*
X165977669Y-116438029D01*
X165973258Y-116438345D01*
X165968934Y-116439285D01*
X165968924Y-116439287D01*
X165706359Y-116496405D01*
X165706353Y-116496406D01*
X165702026Y-116497348D01*
X165697876Y-116498895D01*
X165697872Y-116498897D01*
X165446101Y-116592802D01*
X165446090Y-116592806D01*
X165441953Y-116594350D01*
X165438071Y-116596469D01*
X165438066Y-116596472D01*
X165202225Y-116725250D01*
X165202211Y-116725258D01*
X165198332Y-116727377D01*
X165194786Y-116730030D01*
X165194782Y-116730034D01*
X164979664Y-116891069D01*
X164979651Y-116891079D01*
X164976122Y-116893722D01*
X164972996Y-116896847D01*
X164972989Y-116896854D01*
X164782979Y-117086864D01*
X164782972Y-117086871D01*
X164779847Y-117089997D01*
X164777204Y-117093526D01*
X164777194Y-117093539D01*
X164616159Y-117308657D01*
X164616155Y-117308661D01*
X164613502Y-117312207D01*
X164611383Y-117316086D01*
X164611375Y-117316100D01*
X164482597Y-117551941D01*
X164480475Y-117555828D01*
X164478931Y-117559965D01*
X164478927Y-117559976D01*
X164385022Y-117811747D01*
X164383473Y-117815901D01*
X164382531Y-117820228D01*
X164382530Y-117820234D01*
X164325412Y-118082799D01*
X164325410Y-118082809D01*
X164324470Y-118087133D01*
X164324154Y-118091544D01*
X164324153Y-118091555D01*
X164309460Y-118296993D01*
X164304668Y-118364000D01*
X141716889Y-118364000D01*
X141817070Y-118263819D01*
X141857299Y-118236939D01*
X141904752Y-118227500D01*
X154107151Y-118227500D01*
X154130386Y-118229696D01*
X154138412Y-118231227D01*
X154193758Y-118227745D01*
X154201545Y-118227500D01*
X154213458Y-118227500D01*
X154217350Y-118227500D01*
X154233042Y-118225517D01*
X154240769Y-118224786D01*
X154296138Y-118221304D01*
X154303898Y-118218782D01*
X154326687Y-118213688D01*
X154326805Y-118213672D01*
X154334792Y-118212664D01*
X154342046Y-118209791D01*
X154342049Y-118209791D01*
X154386377Y-118192240D01*
X154393700Y-118189603D01*
X154446441Y-118172467D01*
X154453329Y-118168094D01*
X154474133Y-118157494D01*
X154481732Y-118154486D01*
X154526631Y-118121864D01*
X154533026Y-118117517D01*
X154579877Y-118087786D01*
X154585458Y-118081841D01*
X154602983Y-118066391D01*
X154609587Y-118061594D01*
X154621965Y-118046632D01*
X154644937Y-118018862D01*
X154650078Y-118013029D01*
X154688062Y-117972582D01*
X154691996Y-117965426D01*
X154705122Y-117946109D01*
X154710324Y-117939823D01*
X154733948Y-117889618D01*
X154737460Y-117882724D01*
X154764197Y-117834092D01*
X154766226Y-117826185D01*
X154774139Y-117804209D01*
X154777614Y-117796826D01*
X154788010Y-117742325D01*
X154789698Y-117734768D01*
X154803500Y-117681019D01*
X154803500Y-117672849D01*
X154805696Y-117649614D01*
X154805766Y-117649246D01*
X154807227Y-117641588D01*
X154803745Y-117586241D01*
X154803500Y-117578455D01*
X154803500Y-114820826D01*
X165072379Y-114820826D01*
X165080697Y-114831937D01*
X165195052Y-114917543D01*
X165202495Y-114922327D01*
X165438271Y-115051070D01*
X165446309Y-115054741D01*
X165698024Y-115148626D01*
X165706493Y-115151112D01*
X165968995Y-115208216D01*
X165977751Y-115209475D01*
X166245707Y-115228640D01*
X166254543Y-115228640D01*
X166522498Y-115209475D01*
X166531254Y-115208216D01*
X166793756Y-115151112D01*
X166802225Y-115148626D01*
X167053940Y-115054741D01*
X167061978Y-115051070D01*
X167297754Y-114922327D01*
X167305197Y-114917543D01*
X167419551Y-114831938D01*
X167427869Y-114820826D01*
X167421217Y-114808645D01*
X166261667Y-113649095D01*
X166250125Y-113642431D01*
X166238582Y-113649095D01*
X165079031Y-114808645D01*
X165072379Y-114820826D01*
X154803500Y-114820826D01*
X154803500Y-113288418D01*
X164305485Y-113288418D01*
X164324649Y-113556373D01*
X164325908Y-113565129D01*
X164383012Y-113827631D01*
X164385498Y-113836100D01*
X164479383Y-114087815D01*
X164483054Y-114095853D01*
X164611797Y-114331629D01*
X164616581Y-114339072D01*
X164702186Y-114453426D01*
X164713297Y-114461744D01*
X164725478Y-114455092D01*
X165885029Y-113295542D01*
X165891693Y-113284000D01*
X166608556Y-113284000D01*
X166615220Y-113295542D01*
X167774770Y-114455092D01*
X167786951Y-114461744D01*
X167798063Y-114453426D01*
X167883668Y-114339072D01*
X167888452Y-114331629D01*
X168017195Y-114095853D01*
X168020866Y-114087815D01*
X168114751Y-113836100D01*
X168117237Y-113827631D01*
X168174341Y-113565129D01*
X168175600Y-113556373D01*
X168194765Y-113288418D01*
X168194765Y-113279582D01*
X168175600Y-113011626D01*
X168174341Y-113002870D01*
X168117237Y-112740368D01*
X168114751Y-112731899D01*
X168020866Y-112480184D01*
X168017195Y-112472146D01*
X167888452Y-112236370D01*
X167883668Y-112228927D01*
X167798062Y-112114572D01*
X167786951Y-112106254D01*
X167774770Y-112112906D01*
X166615220Y-113272457D01*
X166608556Y-113284000D01*
X165891693Y-113284000D01*
X165885029Y-113272457D01*
X164722296Y-112109724D01*
X164713123Y-112103829D01*
X164704882Y-112110970D01*
X164616584Y-112228923D01*
X164611797Y-112236371D01*
X164483054Y-112472146D01*
X164479383Y-112480184D01*
X164385498Y-112731899D01*
X164383012Y-112740368D01*
X164325908Y-113002870D01*
X164324649Y-113011626D01*
X164305485Y-113279582D01*
X164305485Y-113288418D01*
X154803500Y-113288418D01*
X154803500Y-112091771D01*
X154804020Y-112080718D01*
X154805672Y-112073332D01*
X154803561Y-112006144D01*
X154803500Y-112002250D01*
X154803500Y-111978545D01*
X154803500Y-111974650D01*
X154802998Y-111970681D01*
X154802080Y-111959024D01*
X154801954Y-111955017D01*
X154800709Y-111915373D01*
X154795120Y-111896140D01*
X154791174Y-111877083D01*
X154789641Y-111864944D01*
X154788664Y-111857208D01*
X154772582Y-111816591D01*
X154768803Y-111805551D01*
X154758795Y-111771102D01*
X154758793Y-111771099D01*
X154756618Y-111763610D01*
X154752647Y-111756896D01*
X154752645Y-111756891D01*
X154746794Y-111746998D01*
X165069954Y-111746998D01*
X165075849Y-111756171D01*
X166238582Y-112918904D01*
X166250125Y-112925568D01*
X166261667Y-112918904D01*
X167421217Y-111759353D01*
X167427869Y-111747172D01*
X167419551Y-111736061D01*
X167305197Y-111650456D01*
X167297754Y-111645672D01*
X167061978Y-111516929D01*
X167053940Y-111513258D01*
X166802225Y-111419373D01*
X166793756Y-111416887D01*
X166531254Y-111359783D01*
X166522498Y-111358524D01*
X166254543Y-111339360D01*
X166245707Y-111339360D01*
X165977751Y-111358524D01*
X165968995Y-111359783D01*
X165706493Y-111416887D01*
X165698024Y-111419373D01*
X165446309Y-111513258D01*
X165438271Y-111516929D01*
X165202496Y-111645672D01*
X165195048Y-111650459D01*
X165077095Y-111738757D01*
X165069954Y-111746998D01*
X154746794Y-111746998D01*
X154746421Y-111746368D01*
X154737858Y-111728890D01*
X154730486Y-111710268D01*
X154725902Y-111703959D01*
X154725899Y-111703953D01*
X154704817Y-111674937D01*
X154698401Y-111665170D01*
X154680143Y-111634296D01*
X154680140Y-111634292D01*
X154676170Y-111627579D01*
X154662006Y-111613415D01*
X154649368Y-111598618D01*
X154642184Y-111588729D01*
X154642178Y-111588723D01*
X154637594Y-111582413D01*
X154603946Y-111554577D01*
X154595305Y-111546714D01*
X153405286Y-110356695D01*
X153397842Y-110348514D01*
X153393786Y-110342123D01*
X153344775Y-110296098D01*
X153341978Y-110293387D01*
X153325227Y-110276636D01*
X153322471Y-110273880D01*
X153319290Y-110271412D01*
X153310414Y-110263830D01*
X153284269Y-110239278D01*
X153284267Y-110239276D01*
X153278582Y-110233938D01*
X153271749Y-110230182D01*
X153271743Y-110230177D01*
X153261025Y-110224285D01*
X153244766Y-110213606D01*
X153235095Y-110206104D01*
X153235092Y-110206102D01*
X153228936Y-110201327D01*
X153221779Y-110198229D01*
X153221776Y-110198228D01*
X153188849Y-110183978D01*
X153178363Y-110178841D01*
X153146932Y-110161562D01*
X153146923Y-110161558D01*
X153140092Y-110157803D01*
X153132535Y-110155862D01*
X153132531Y-110155861D01*
X153120688Y-110152820D01*
X153102284Y-110146519D01*
X153091057Y-110141660D01*
X153091050Y-110141658D01*
X153083896Y-110138562D01*
X153076192Y-110137341D01*
X153076190Y-110137341D01*
X153040759Y-110131729D01*
X153029324Y-110129361D01*
X152994571Y-110120438D01*
X152994563Y-110120437D01*
X152987019Y-110118500D01*
X152979223Y-110118500D01*
X152966983Y-110118500D01*
X152947597Y-110116974D01*
X152927804Y-110113840D01*
X152920038Y-110114574D01*
X152920035Y-110114574D01*
X152884324Y-110117950D01*
X152872655Y-110118500D01*
X152341748Y-110118500D01*
X152291315Y-110107781D01*
X152253218Y-110080104D01*
X152253050Y-110080291D01*
X152251271Y-110078689D01*
X152249601Y-110077476D01*
X152243871Y-110071112D01*
X152238613Y-110067292D01*
X152238611Y-110067290D01*
X152095988Y-109963669D01*
X152095987Y-109963668D01*
X152090730Y-109959849D01*
X152084792Y-109957205D01*
X151923745Y-109885501D01*
X151923740Y-109885499D01*
X151917803Y-109882856D01*
X151911444Y-109881504D01*
X151911440Y-109881503D01*
X151739008Y-109844852D01*
X151739005Y-109844851D01*
X151732646Y-109843500D01*
X151543354Y-109843500D01*
X151536995Y-109844851D01*
X151536991Y-109844852D01*
X151364559Y-109881503D01*
X151364552Y-109881505D01*
X151358197Y-109882856D01*
X151352262Y-109885498D01*
X151352254Y-109885501D01*
X151191208Y-109957205D01*
X151185270Y-109959849D01*
X151180021Y-109963662D01*
X151180008Y-109963670D01*
X151170382Y-109970664D01*
X151113325Y-109993327D01*
X151052389Y-109985843D01*
X151009761Y-109955248D01*
X151008529Y-109956481D01*
X150857519Y-109805471D01*
X150777616Y-109749523D01*
X150687020Y-109686087D01*
X150687018Y-109686086D01*
X150682581Y-109682979D01*
X150489030Y-109592724D01*
X150483805Y-109591324D01*
X150483797Y-109591321D01*
X150309297Y-109544565D01*
X150282747Y-109537451D01*
X150277359Y-109536979D01*
X150277356Y-109536979D01*
X150075395Y-109519310D01*
X150070000Y-109518838D01*
X150064605Y-109519310D01*
X149862643Y-109536979D01*
X149862638Y-109536979D01*
X149857253Y-109537451D01*
X149852028Y-109538850D01*
X149852028Y-109538851D01*
X149656202Y-109591321D01*
X149656190Y-109591325D01*
X149650970Y-109592724D01*
X149646065Y-109595010D01*
X149646060Y-109595013D01*
X149462329Y-109680689D01*
X149462325Y-109680691D01*
X149457419Y-109682979D01*
X149452986Y-109686082D01*
X149452979Y-109686087D01*
X149286916Y-109802365D01*
X149286911Y-109802368D01*
X149282481Y-109805471D01*
X149278657Y-109809294D01*
X149278651Y-109809300D01*
X149135300Y-109952651D01*
X149135294Y-109952657D01*
X149131471Y-109956481D01*
X149128368Y-109960911D01*
X149128365Y-109960916D01*
X149012087Y-110126979D01*
X149012082Y-110126986D01*
X149008979Y-110131419D01*
X149006691Y-110136325D01*
X149006689Y-110136329D01*
X148921013Y-110320060D01*
X148921010Y-110320065D01*
X148918724Y-110324970D01*
X148917325Y-110330190D01*
X148917321Y-110330202D01*
X148868120Y-110513827D01*
X148863451Y-110531253D01*
X148862979Y-110536638D01*
X148862979Y-110536643D01*
X148851501Y-110667839D01*
X148844838Y-110744000D01*
X148845310Y-110749395D01*
X148862396Y-110944696D01*
X148863451Y-110956747D01*
X148869982Y-110981121D01*
X148917321Y-111157797D01*
X148917324Y-111157805D01*
X148918724Y-111163030D01*
X149008979Y-111356581D01*
X149012086Y-111361018D01*
X149012087Y-111361020D01*
X149083859Y-111463522D01*
X149131471Y-111531519D01*
X149282481Y-111682529D01*
X149457419Y-111805021D01*
X149650970Y-111895276D01*
X149857253Y-111950549D01*
X150070000Y-111969162D01*
X150282747Y-111950549D01*
X150489030Y-111895276D01*
X150682581Y-111805021D01*
X150857519Y-111682529D01*
X151008529Y-111531519D01*
X151009765Y-111532755D01*
X151052373Y-111502162D01*
X151113321Y-111494670D01*
X151170388Y-111517339D01*
X151185270Y-111528151D01*
X151358197Y-111605144D01*
X151543354Y-111644500D01*
X151726143Y-111644500D01*
X151732646Y-111644500D01*
X151917803Y-111605144D01*
X152090730Y-111528151D01*
X152243871Y-111416888D01*
X152249601Y-111410523D01*
X152251271Y-111409310D01*
X152253050Y-111407709D01*
X152253218Y-111407895D01*
X152291315Y-111380219D01*
X152341748Y-111369500D01*
X152597548Y-111369500D01*
X152645001Y-111378939D01*
X152685229Y-111405819D01*
X153249601Y-111970192D01*
X153282742Y-112029979D01*
X153279164Y-112098244D01*
X153239956Y-112154239D01*
X153177032Y-112180949D01*
X153109515Y-112170255D01*
X153033939Y-112135013D01*
X153033937Y-112135012D01*
X153029030Y-112132724D01*
X153023805Y-112131324D01*
X153023797Y-112131321D01*
X152868066Y-112089594D01*
X152822747Y-112077451D01*
X152817359Y-112076979D01*
X152817356Y-112076979D01*
X152615395Y-112059310D01*
X152610000Y-112058838D01*
X152604605Y-112059310D01*
X152402643Y-112076979D01*
X152402638Y-112076979D01*
X152397253Y-112077451D01*
X152392028Y-112078850D01*
X152392028Y-112078851D01*
X152196202Y-112131321D01*
X152196190Y-112131325D01*
X152190970Y-112132724D01*
X152186065Y-112135010D01*
X152186060Y-112135013D01*
X152002329Y-112220689D01*
X152002325Y-112220691D01*
X151997419Y-112222979D01*
X151992986Y-112226082D01*
X151992979Y-112226087D01*
X151826916Y-112342365D01*
X151826911Y-112342368D01*
X151822481Y-112345471D01*
X151818657Y-112349294D01*
X151818651Y-112349300D01*
X151675300Y-112492651D01*
X151675294Y-112492657D01*
X151671471Y-112496481D01*
X151668368Y-112500911D01*
X151668365Y-112500916D01*
X151552087Y-112666979D01*
X151552082Y-112666986D01*
X151548979Y-112671419D01*
X151546691Y-112676325D01*
X151546689Y-112676329D01*
X151461013Y-112860060D01*
X151461010Y-112860065D01*
X151458724Y-112864970D01*
X151457325Y-112870190D01*
X151457321Y-112870202D01*
X151411512Y-113041168D01*
X151403451Y-113071253D01*
X151402979Y-113076638D01*
X151402979Y-113076643D01*
X151392361Y-113198010D01*
X151384838Y-113284000D01*
X151385310Y-113289395D01*
X151402739Y-113488617D01*
X151403451Y-113496747D01*
X151404851Y-113501971D01*
X151457321Y-113697797D01*
X151457324Y-113697805D01*
X151458724Y-113703030D01*
X151461012Y-113707937D01*
X151461013Y-113707939D01*
X151469982Y-113727172D01*
X151548979Y-113896581D01*
X151552086Y-113901018D01*
X151552087Y-113901020D01*
X151589741Y-113954796D01*
X151671471Y-114071519D01*
X151822481Y-114222529D01*
X151997419Y-114345021D01*
X152190970Y-114435276D01*
X152397253Y-114490549D01*
X152610000Y-114509162D01*
X152822747Y-114490549D01*
X153029030Y-114435276D01*
X153222581Y-114345021D01*
X153308752Y-114284683D01*
X153357377Y-114250637D01*
X153420391Y-114228477D01*
X153485757Y-114242223D01*
X153534509Y-114287884D01*
X153552500Y-114352212D01*
X153552500Y-116852500D01*
X153535887Y-116914500D01*
X153490500Y-116959887D01*
X153428500Y-116976500D01*
X150942471Y-116976500D01*
X150884257Y-116961986D01*
X150839671Y-116921841D01*
X150819150Y-116865463D01*
X150827499Y-116806051D01*
X150858445Y-116763455D01*
X150857519Y-116762529D01*
X150926898Y-116693150D01*
X151008529Y-116611519D01*
X151131021Y-116436581D01*
X151221276Y-116243030D01*
X151276549Y-116036747D01*
X151295162Y-115824000D01*
X151276549Y-115611253D01*
X151221276Y-115404970D01*
X151131021Y-115211419D01*
X151008529Y-115036481D01*
X150857519Y-114885471D01*
X150765196Y-114820826D01*
X150687020Y-114766087D01*
X150687018Y-114766086D01*
X150682581Y-114762979D01*
X150521086Y-114687672D01*
X150493939Y-114675013D01*
X150493937Y-114675012D01*
X150489030Y-114672724D01*
X150483805Y-114671324D01*
X150483797Y-114671321D01*
X150319579Y-114627320D01*
X150282747Y-114617451D01*
X150277359Y-114616979D01*
X150277356Y-114616979D01*
X150075395Y-114599310D01*
X150070000Y-114598838D01*
X150064605Y-114599310D01*
X149862643Y-114616979D01*
X149862638Y-114616979D01*
X149857253Y-114617451D01*
X149852028Y-114618850D01*
X149852028Y-114618851D01*
X149656202Y-114671321D01*
X149656190Y-114671325D01*
X149650970Y-114672724D01*
X149646065Y-114675010D01*
X149646060Y-114675013D01*
X149462329Y-114760689D01*
X149462325Y-114760691D01*
X149457419Y-114762979D01*
X149452986Y-114766082D01*
X149452979Y-114766087D01*
X149286916Y-114882365D01*
X149286911Y-114882368D01*
X149282481Y-114885471D01*
X149278657Y-114889294D01*
X149278651Y-114889300D01*
X149135300Y-115032651D01*
X149135294Y-115032657D01*
X149131471Y-115036481D01*
X149128368Y-115040911D01*
X149128365Y-115040916D01*
X149012087Y-115206979D01*
X149012082Y-115206986D01*
X149008979Y-115211419D01*
X149006691Y-115216325D01*
X149006689Y-115216329D01*
X148921013Y-115400060D01*
X148921010Y-115400065D01*
X148918724Y-115404970D01*
X148917325Y-115410190D01*
X148917321Y-115410202D01*
X148864851Y-115606028D01*
X148863451Y-115611253D01*
X148862979Y-115616638D01*
X148862979Y-115616643D01*
X148848668Y-115780221D01*
X148844838Y-115824000D01*
X148845310Y-115829395D01*
X148853446Y-115922396D01*
X148863451Y-116036747D01*
X148864851Y-116041971D01*
X148917321Y-116237797D01*
X148917324Y-116237805D01*
X148918724Y-116243030D01*
X148921012Y-116247937D01*
X148921013Y-116247939D01*
X148957644Y-116326494D01*
X149008979Y-116436581D01*
X149012086Y-116441018D01*
X149012087Y-116441020D01*
X149037196Y-116476879D01*
X149131471Y-116611519D01*
X149135299Y-116615347D01*
X149135300Y-116615348D01*
X149282481Y-116762529D01*
X149281554Y-116763455D01*
X149312501Y-116806051D01*
X149320850Y-116865463D01*
X149300329Y-116921841D01*
X149255743Y-116961986D01*
X149197529Y-116976500D01*
X141672071Y-116976500D01*
X141661018Y-116975979D01*
X141653632Y-116974328D01*
X141645834Y-116974573D01*
X141586444Y-116976439D01*
X141582550Y-116976500D01*
X141554949Y-116976500D01*
X141551098Y-116976986D01*
X141551067Y-116976988D01*
X141550939Y-116977005D01*
X141539328Y-116977918D01*
X141503471Y-116979045D01*
X141503464Y-116979046D01*
X141495672Y-116979291D01*
X141488187Y-116981465D01*
X141488171Y-116981468D01*
X141476425Y-116984881D01*
X141457382Y-116988825D01*
X141445248Y-116990358D01*
X141445247Y-116990358D01*
X141437507Y-116991336D01*
X141430257Y-116994205D01*
X141430250Y-116994208D01*
X141396897Y-117007413D01*
X141385853Y-117011194D01*
X141351400Y-117021204D01*
X141351389Y-117021208D01*
X141343909Y-117023382D01*
X141337197Y-117027351D01*
X141337195Y-117027352D01*
X141326663Y-117033580D01*
X141309203Y-117042134D01*
X141297818Y-117046642D01*
X141297812Y-117046644D01*
X141290567Y-117049514D01*
X141284262Y-117054094D01*
X141284254Y-117054099D01*
X141255231Y-117075185D01*
X141245473Y-117081595D01*
X141214595Y-117099857D01*
X141214589Y-117099861D01*
X141207879Y-117103830D01*
X141202366Y-117109341D01*
X141202359Y-117109348D01*
X141193709Y-117117998D01*
X141178926Y-117130624D01*
X141169025Y-117137817D01*
X141169015Y-117137826D01*
X141162712Y-117142406D01*
X141157743Y-117148411D01*
X141157740Y-117148415D01*
X141134871Y-117176059D01*
X141127010Y-117184697D01*
X132989527Y-125322181D01*
X132949299Y-125349061D01*
X132901846Y-125358500D01*
X132166929Y-125358500D01*
X132110108Y-125344715D01*
X132065921Y-125306426D01*
X132044191Y-125252145D01*
X132049750Y-125193941D01*
X132081362Y-125144754D01*
X132131999Y-125115522D01*
X132132722Y-125115309D01*
X132137046Y-125114369D01*
X132405161Y-125014367D01*
X132656315Y-124877226D01*
X132885395Y-124705739D01*
X133087739Y-124503395D01*
X133259226Y-124274315D01*
X133396367Y-124023161D01*
X133496369Y-123755046D01*
X133557196Y-123475428D01*
X133577610Y-123190000D01*
X133557196Y-122904572D01*
X133496369Y-122624954D01*
X133396367Y-122356839D01*
X133259226Y-122105685D01*
X133087739Y-121876605D01*
X132885395Y-121674261D01*
X132656315Y-121502774D01*
X132652420Y-121500647D01*
X132409050Y-121367756D01*
X132409043Y-121367753D01*
X132405161Y-121365633D01*
X132401017Y-121364087D01*
X132401012Y-121364085D01*
X132141189Y-121267176D01*
X132141185Y-121267175D01*
X132137046Y-121265631D01*
X132107075Y-121259111D01*
X131861761Y-121205746D01*
X131861753Y-121205744D01*
X131857428Y-121204804D01*
X131853014Y-121204488D01*
X131853005Y-121204487D01*
X131576418Y-121184706D01*
X131572000Y-121184390D01*
X131567582Y-121184706D01*
X131290994Y-121204487D01*
X131290983Y-121204488D01*
X131286572Y-121204804D01*
X131282248Y-121205744D01*
X131282238Y-121205746D01*
X131011279Y-121264690D01*
X131011276Y-121264690D01*
X131006954Y-121265631D01*
X131002818Y-121267173D01*
X131002810Y-121267176D01*
X130742987Y-121364085D01*
X130742976Y-121364089D01*
X130738839Y-121365633D01*
X130734961Y-121367750D01*
X130734949Y-121367756D01*
X130491579Y-121500647D01*
X130491571Y-121500651D01*
X130487685Y-121502774D01*
X130484135Y-121505431D01*
X130484131Y-121505434D01*
X130262159Y-121671600D01*
X130262157Y-121671602D01*
X130258605Y-121674261D01*
X130255475Y-121677390D01*
X130255468Y-121677397D01*
X130191607Y-121741257D01*
X130136019Y-121773349D01*
X130071833Y-121773349D01*
X130016246Y-121741255D01*
X128476803Y-120201813D01*
X128445188Y-120147964D01*
X128443827Y-120085535D01*
X128473063Y-120030358D01*
X128525479Y-119996426D01*
X128550297Y-119988203D01*
X128690705Y-119901597D01*
X128736164Y-119884701D01*
X128784630Y-119886535D01*
X128822003Y-119903743D01*
X128822385Y-119903082D01*
X128828010Y-119906330D01*
X128833270Y-119910151D01*
X129006197Y-119987144D01*
X129191354Y-120026500D01*
X129374143Y-120026500D01*
X129380646Y-120026500D01*
X129565803Y-119987144D01*
X129738730Y-119910151D01*
X129891871Y-119798888D01*
X130018533Y-119658216D01*
X130113179Y-119494284D01*
X130171674Y-119314256D01*
X130191460Y-119126000D01*
X130171674Y-118937744D01*
X130113179Y-118757716D01*
X130018533Y-118593784D01*
X129944312Y-118511354D01*
X129896220Y-118457942D01*
X129896219Y-118457941D01*
X129891871Y-118453112D01*
X129886613Y-118449292D01*
X129886611Y-118449290D01*
X129743988Y-118345669D01*
X129743987Y-118345668D01*
X129738730Y-118341849D01*
X129732792Y-118339205D01*
X129571745Y-118267501D01*
X129571740Y-118267499D01*
X129565803Y-118264856D01*
X129559444Y-118263504D01*
X129559440Y-118263503D01*
X129387008Y-118226852D01*
X129387005Y-118226851D01*
X129380646Y-118225500D01*
X129191354Y-118225500D01*
X129184998Y-118226850D01*
X129184988Y-118226852D01*
X129018518Y-118262236D01*
X129007201Y-118261730D01*
X128999520Y-118267828D01*
X128876522Y-118322591D01*
X128828251Y-118333293D01*
X128779635Y-118324283D01*
X128738405Y-118296993D01*
X128718474Y-118277062D01*
X128685117Y-118216321D01*
X128689562Y-118147165D01*
X128730423Y-118091194D01*
X128794933Y-118065890D01*
X128825796Y-118063086D01*
X128912193Y-118036163D01*
X128935870Y-118034978D01*
X128955847Y-118022561D01*
X128988206Y-118012478D01*
X129133785Y-117924472D01*
X129235918Y-117822338D01*
X129291506Y-117790244D01*
X129355694Y-117790244D01*
X129411281Y-117822338D01*
X129513415Y-117924472D01*
X129658994Y-118012478D01*
X129768600Y-118046632D01*
X129815142Y-118061135D01*
X129815144Y-118061135D01*
X129821404Y-118063086D01*
X129891984Y-118069500D01*
X130402397Y-118069500D01*
X130405216Y-118069500D01*
X130475796Y-118063086D01*
X130638206Y-118012478D01*
X130783785Y-117924472D01*
X130904072Y-117804185D01*
X130945022Y-117736443D01*
X130975610Y-117702252D01*
X131016540Y-117681522D01*
X131047190Y-117672618D01*
X131064429Y-117662422D01*
X131081903Y-117653862D01*
X131093274Y-117649360D01*
X131093276Y-117649358D01*
X131100532Y-117646486D01*
X131135869Y-117620811D01*
X131145624Y-117614403D01*
X131183220Y-117592170D01*
X131197384Y-117578005D01*
X131212179Y-117565368D01*
X131228387Y-117553594D01*
X131256228Y-117519938D01*
X131264079Y-117511309D01*
X132256371Y-116519019D01*
X132296600Y-116492139D01*
X132344053Y-116482700D01*
X132637397Y-116482700D01*
X132640216Y-116482700D01*
X132710796Y-116476286D01*
X132829532Y-116439287D01*
X132860254Y-116429714D01*
X132897144Y-116424100D01*
X133907501Y-116424100D01*
X133969501Y-116440713D01*
X134014888Y-116486100D01*
X134031501Y-116548100D01*
X134031501Y-116696472D01*
X134031853Y-116699750D01*
X134031854Y-116699761D01*
X134037079Y-116748368D01*
X134037080Y-116748373D01*
X134037909Y-116756083D01*
X134040619Y-116763349D01*
X134040620Y-116763353D01*
X134056546Y-116806051D01*
X134088204Y-116890931D01*
X134093518Y-116898030D01*
X134093519Y-116898031D01*
X134153322Y-116977918D01*
X134174454Y-117006146D01*
X134289669Y-117092396D01*
X134424517Y-117142691D01*
X134484127Y-117149100D01*
X136279872Y-117149099D01*
X136339483Y-117142691D01*
X136474331Y-117092396D01*
X136589546Y-117006146D01*
X136675796Y-116890931D01*
X136726091Y-116756083D01*
X136732500Y-116696473D01*
X136732499Y-114900728D01*
X136726091Y-114841117D01*
X136675796Y-114706269D01*
X136589546Y-114591054D01*
X136557928Y-114567385D01*
X136481431Y-114510119D01*
X136481430Y-114510118D01*
X136474331Y-114504804D01*
X136404359Y-114478706D01*
X136342916Y-114455789D01*
X136292537Y-114420810D01*
X136265084Y-114365965D01*
X136267273Y-114304672D01*
X136298566Y-114251929D01*
X136420495Y-114130001D01*
X136556035Y-113936430D01*
X136655903Y-113722263D01*
X136717063Y-113494008D01*
X136737659Y-113258600D01*
X136717063Y-113023192D01*
X136690143Y-112922726D01*
X136690143Y-112858539D01*
X136722235Y-112802953D01*
X138563306Y-110961882D01*
X138571482Y-110954443D01*
X138577877Y-110950386D01*
X138623933Y-110901340D01*
X138626550Y-110898638D01*
X138646120Y-110879070D01*
X138648565Y-110875916D01*
X138656155Y-110867028D01*
X138686062Y-110835182D01*
X138689980Y-110828056D01*
X138695710Y-110817632D01*
X138706393Y-110801366D01*
X138718674Y-110785536D01*
X138736018Y-110745451D01*
X138741160Y-110734956D01*
X138762197Y-110696692D01*
X138767179Y-110677289D01*
X138773480Y-110658883D01*
X138781438Y-110640495D01*
X138788269Y-110597356D01*
X138790639Y-110585915D01*
X138799560Y-110551174D01*
X138799559Y-110551174D01*
X138801500Y-110543619D01*
X138801500Y-110523583D01*
X138803025Y-110504197D01*
X138806160Y-110484404D01*
X138802050Y-110440924D01*
X138801500Y-110429255D01*
X138801500Y-108204000D01*
X164304668Y-108204000D01*
X164304984Y-108208418D01*
X164324153Y-108476444D01*
X164324154Y-108476453D01*
X164324470Y-108480867D01*
X164325410Y-108485192D01*
X164325412Y-108485200D01*
X164376885Y-108721814D01*
X164383473Y-108752099D01*
X164385022Y-108756252D01*
X164478927Y-109008023D01*
X164478929Y-109008029D01*
X164480475Y-109012172D01*
X164482597Y-109016058D01*
X164611375Y-109251899D01*
X164611379Y-109251906D01*
X164613502Y-109255793D01*
X164630667Y-109278722D01*
X164777194Y-109474460D01*
X164777199Y-109474466D01*
X164779847Y-109478003D01*
X164976122Y-109674278D01*
X164979659Y-109676926D01*
X164979664Y-109676930D01*
X165049797Y-109729431D01*
X165198332Y-109840623D01*
X165202222Y-109842747D01*
X165202225Y-109842749D01*
X165250357Y-109869031D01*
X165441953Y-109973650D01*
X165702026Y-110070652D01*
X165973258Y-110129655D01*
X166250125Y-110149457D01*
X166526992Y-110129655D01*
X166798224Y-110070652D01*
X167058297Y-109973650D01*
X167301918Y-109840623D01*
X167524128Y-109674278D01*
X167720403Y-109478003D01*
X167886748Y-109255793D01*
X168019775Y-109012172D01*
X168116777Y-108752099D01*
X168175780Y-108480867D01*
X168195582Y-108204000D01*
X168175780Y-107927133D01*
X168116777Y-107655901D01*
X168019775Y-107395828D01*
X167886748Y-107152207D01*
X167778118Y-107007095D01*
X167723055Y-106933539D01*
X167723051Y-106933534D01*
X167720403Y-106929997D01*
X167524128Y-106733722D01*
X167520591Y-106731074D01*
X167520585Y-106731069D01*
X167334987Y-106592132D01*
X167301918Y-106567377D01*
X167298031Y-106565254D01*
X167298024Y-106565250D01*
X167062183Y-106436472D01*
X167058297Y-106434350D01*
X167054154Y-106432804D01*
X167054148Y-106432802D01*
X166802377Y-106338897D01*
X166798224Y-106337348D01*
X166793892Y-106336405D01*
X166793890Y-106336405D01*
X166531325Y-106279287D01*
X166531317Y-106279285D01*
X166526992Y-106278345D01*
X166522578Y-106278029D01*
X166522569Y-106278028D01*
X166254543Y-106258859D01*
X166250125Y-106258543D01*
X166245707Y-106258859D01*
X165977680Y-106278028D01*
X165977669Y-106278029D01*
X165973258Y-106278345D01*
X165968934Y-106279285D01*
X165968924Y-106279287D01*
X165706359Y-106336405D01*
X165706353Y-106336406D01*
X165702026Y-106337348D01*
X165697876Y-106338895D01*
X165697872Y-106338897D01*
X165446101Y-106432802D01*
X165446090Y-106432806D01*
X165441953Y-106434350D01*
X165438071Y-106436469D01*
X165438066Y-106436472D01*
X165202225Y-106565250D01*
X165202211Y-106565258D01*
X165198332Y-106567377D01*
X165194786Y-106570030D01*
X165194782Y-106570034D01*
X164979664Y-106731069D01*
X164979651Y-106731079D01*
X164976122Y-106733722D01*
X164972996Y-106736847D01*
X164972989Y-106736854D01*
X164782979Y-106926864D01*
X164782972Y-106926871D01*
X164779847Y-106929997D01*
X164777204Y-106933526D01*
X164777194Y-106933539D01*
X164616159Y-107148657D01*
X164616155Y-107148661D01*
X164613502Y-107152207D01*
X164611383Y-107156086D01*
X164611375Y-107156100D01*
X164482597Y-107391941D01*
X164480475Y-107395828D01*
X164478931Y-107399965D01*
X164478927Y-107399976D01*
X164385022Y-107651747D01*
X164383473Y-107655901D01*
X164382531Y-107660228D01*
X164382530Y-107660234D01*
X164325412Y-107922799D01*
X164325410Y-107922809D01*
X164324470Y-107927133D01*
X164324154Y-107931544D01*
X164324153Y-107931555D01*
X164306557Y-108177585D01*
X164304668Y-108204000D01*
X138801500Y-108204000D01*
X138801500Y-104140000D01*
X148888838Y-104140000D01*
X148907451Y-104352747D01*
X148908851Y-104357971D01*
X148961321Y-104553797D01*
X148961324Y-104553805D01*
X148962724Y-104559030D01*
X148965012Y-104563937D01*
X148965013Y-104563939D01*
X148980397Y-104596930D01*
X149052979Y-104752581D01*
X149056086Y-104757018D01*
X149056087Y-104757020D01*
X149061465Y-104764700D01*
X149175471Y-104927519D01*
X149326481Y-105078529D01*
X149501419Y-105201021D01*
X149694970Y-105291276D01*
X149901253Y-105346549D01*
X150114000Y-105365162D01*
X150326747Y-105346549D01*
X150533030Y-105291276D01*
X150726581Y-105201021D01*
X150901519Y-105078529D01*
X151052529Y-104927519D01*
X151175021Y-104752581D01*
X151265276Y-104559030D01*
X151320549Y-104352747D01*
X151339162Y-104140000D01*
X151320549Y-103927253D01*
X151265276Y-103720970D01*
X151175021Y-103527419D01*
X151052529Y-103352481D01*
X150901519Y-103201471D01*
X150790878Y-103124000D01*
X164304668Y-103124000D01*
X164304984Y-103128418D01*
X164324153Y-103396444D01*
X164324154Y-103396453D01*
X164324470Y-103400867D01*
X164325410Y-103405192D01*
X164325412Y-103405200D01*
X164365654Y-103590186D01*
X164383473Y-103672099D01*
X164385022Y-103676252D01*
X164478927Y-103928023D01*
X164478929Y-103928029D01*
X164480475Y-103932172D01*
X164482597Y-103936058D01*
X164611375Y-104171899D01*
X164611379Y-104171906D01*
X164613502Y-104175793D01*
X164616159Y-104179342D01*
X164777194Y-104394460D01*
X164777199Y-104394466D01*
X164779847Y-104398003D01*
X164976122Y-104594278D01*
X164979659Y-104596926D01*
X164979664Y-104596930D01*
X165085980Y-104676517D01*
X165198332Y-104760623D01*
X165202222Y-104762747D01*
X165202225Y-104762749D01*
X165221116Y-104773064D01*
X165441953Y-104893650D01*
X165702026Y-104990652D01*
X165973258Y-105049655D01*
X166250125Y-105069457D01*
X166526992Y-105049655D01*
X166798224Y-104990652D01*
X167058297Y-104893650D01*
X167301918Y-104760623D01*
X167524128Y-104594278D01*
X167720403Y-104398003D01*
X167886748Y-104175793D01*
X168019775Y-103932172D01*
X168116777Y-103672099D01*
X168175780Y-103400867D01*
X168195582Y-103124000D01*
X168175780Y-102847133D01*
X168116777Y-102575901D01*
X168019775Y-102315828D01*
X167907916Y-102110973D01*
X167888874Y-102076100D01*
X167888872Y-102076097D01*
X167886748Y-102072207D01*
X167782966Y-101933571D01*
X167723055Y-101853539D01*
X167723051Y-101853534D01*
X167720403Y-101849997D01*
X167524128Y-101653722D01*
X167520591Y-101651074D01*
X167520585Y-101651069D01*
X167305467Y-101490034D01*
X167301918Y-101487377D01*
X167298031Y-101485254D01*
X167298024Y-101485250D01*
X167087314Y-101370194D01*
X167058297Y-101354350D01*
X167054154Y-101352804D01*
X167054148Y-101352802D01*
X166802377Y-101258897D01*
X166798224Y-101257348D01*
X166793892Y-101256405D01*
X166793890Y-101256405D01*
X166531325Y-101199287D01*
X166531317Y-101199285D01*
X166526992Y-101198345D01*
X166522578Y-101198029D01*
X166522569Y-101198028D01*
X166254543Y-101178859D01*
X166250125Y-101178543D01*
X166245707Y-101178859D01*
X165977680Y-101198028D01*
X165977669Y-101198029D01*
X165973258Y-101198345D01*
X165968934Y-101199285D01*
X165968924Y-101199287D01*
X165706359Y-101256405D01*
X165706353Y-101256406D01*
X165702026Y-101257348D01*
X165697876Y-101258895D01*
X165697872Y-101258897D01*
X165446101Y-101352802D01*
X165446090Y-101352806D01*
X165441953Y-101354350D01*
X165438071Y-101356469D01*
X165438066Y-101356472D01*
X165202225Y-101485250D01*
X165202211Y-101485258D01*
X165198332Y-101487377D01*
X165194786Y-101490030D01*
X165194782Y-101490034D01*
X164979664Y-101651069D01*
X164979651Y-101651079D01*
X164976122Y-101653722D01*
X164972996Y-101656847D01*
X164972989Y-101656854D01*
X164782979Y-101846864D01*
X164782972Y-101846871D01*
X164779847Y-101849997D01*
X164777204Y-101853526D01*
X164777194Y-101853539D01*
X164616159Y-102068657D01*
X164616155Y-102068661D01*
X164613502Y-102072207D01*
X164611383Y-102076086D01*
X164611375Y-102076100D01*
X164482597Y-102311941D01*
X164480475Y-102315828D01*
X164478931Y-102319965D01*
X164478927Y-102319976D01*
X164385022Y-102571747D01*
X164383473Y-102575901D01*
X164382531Y-102580228D01*
X164382530Y-102580234D01*
X164325412Y-102842799D01*
X164325410Y-102842809D01*
X164324470Y-102847133D01*
X164324154Y-102851544D01*
X164324153Y-102851555D01*
X164314343Y-102988724D01*
X164304668Y-103124000D01*
X150790878Y-103124000D01*
X150767966Y-103107957D01*
X150731020Y-103082087D01*
X150731018Y-103082086D01*
X150726581Y-103078979D01*
X150533030Y-102988724D01*
X150527805Y-102987324D01*
X150527797Y-102987321D01*
X150376220Y-102946707D01*
X150326747Y-102933451D01*
X150321359Y-102932979D01*
X150321356Y-102932979D01*
X150119395Y-102915310D01*
X150114000Y-102914838D01*
X150108605Y-102915310D01*
X149906643Y-102932979D01*
X149906638Y-102932979D01*
X149901253Y-102933451D01*
X149896028Y-102934850D01*
X149896028Y-102934851D01*
X149700202Y-102987321D01*
X149700190Y-102987325D01*
X149694970Y-102988724D01*
X149690065Y-102991010D01*
X149690060Y-102991013D01*
X149506329Y-103076689D01*
X149506325Y-103076691D01*
X149501419Y-103078979D01*
X149496986Y-103082082D01*
X149496979Y-103082087D01*
X149330916Y-103198365D01*
X149330911Y-103198368D01*
X149326481Y-103201471D01*
X149322657Y-103205294D01*
X149322651Y-103205300D01*
X149179300Y-103348651D01*
X149179294Y-103348657D01*
X149175471Y-103352481D01*
X149172368Y-103356911D01*
X149172365Y-103356916D01*
X149056087Y-103522979D01*
X149056082Y-103522986D01*
X149052979Y-103527419D01*
X149050691Y-103532325D01*
X149050689Y-103532329D01*
X148965013Y-103716060D01*
X148965010Y-103716065D01*
X148962724Y-103720970D01*
X148961325Y-103726190D01*
X148961321Y-103726202D01*
X148908851Y-103922028D01*
X148907451Y-103927253D01*
X148906979Y-103932638D01*
X148906979Y-103932643D01*
X148889310Y-104134605D01*
X148888838Y-104140000D01*
X138801500Y-104140000D01*
X138801500Y-101605652D01*
X138802624Y-101600000D01*
X151428838Y-101600000D01*
X151429310Y-101605395D01*
X151444964Y-101784329D01*
X151447451Y-101812747D01*
X151456593Y-101846864D01*
X151501321Y-102013797D01*
X151501324Y-102013805D01*
X151502724Y-102019030D01*
X151592979Y-102212581D01*
X151715471Y-102387519D01*
X151866481Y-102538529D01*
X152041419Y-102661021D01*
X152234970Y-102751276D01*
X152441253Y-102806549D01*
X152654000Y-102825162D01*
X152866747Y-102806549D01*
X153073030Y-102751276D01*
X153266581Y-102661021D01*
X153441519Y-102538529D01*
X153592529Y-102387519D01*
X153715021Y-102212581D01*
X153805276Y-102019030D01*
X153860549Y-101812747D01*
X153879162Y-101600000D01*
X153860549Y-101387253D01*
X153805276Y-101180970D01*
X153715021Y-100987419D01*
X153592529Y-100812481D01*
X153441519Y-100661471D01*
X153266581Y-100538979D01*
X153134553Y-100477413D01*
X153077939Y-100451013D01*
X153077937Y-100451012D01*
X153073030Y-100448724D01*
X153067805Y-100447324D01*
X153067797Y-100447321D01*
X152916220Y-100406707D01*
X152866747Y-100393451D01*
X152861359Y-100392979D01*
X152861356Y-100392979D01*
X152659395Y-100375310D01*
X152654000Y-100374838D01*
X152648605Y-100375310D01*
X152446643Y-100392979D01*
X152446638Y-100392979D01*
X152441253Y-100393451D01*
X152436028Y-100394850D01*
X152436028Y-100394851D01*
X152240202Y-100447321D01*
X152240190Y-100447325D01*
X152234970Y-100448724D01*
X152230065Y-100451010D01*
X152230060Y-100451013D01*
X152046329Y-100536689D01*
X152046325Y-100536691D01*
X152041419Y-100538979D01*
X152036986Y-100542082D01*
X152036979Y-100542087D01*
X151870916Y-100658365D01*
X151870911Y-100658368D01*
X151866481Y-100661471D01*
X151862657Y-100665294D01*
X151862651Y-100665300D01*
X151719300Y-100808651D01*
X151719294Y-100808657D01*
X151715471Y-100812481D01*
X151712368Y-100816911D01*
X151712365Y-100816916D01*
X151596087Y-100982979D01*
X151596082Y-100982986D01*
X151592979Y-100987419D01*
X151590691Y-100992325D01*
X151590689Y-100992329D01*
X151505013Y-101176060D01*
X151505010Y-101176065D01*
X151502724Y-101180970D01*
X151501325Y-101186190D01*
X151501321Y-101186202D01*
X151456682Y-101352802D01*
X151447451Y-101387253D01*
X151446979Y-101392638D01*
X151446979Y-101392643D01*
X151433314Y-101548837D01*
X151428838Y-101600000D01*
X138802624Y-101600000D01*
X138810939Y-101558199D01*
X138837819Y-101517971D01*
X140787145Y-99568645D01*
X142779711Y-97576078D01*
X142787881Y-97568644D01*
X142794277Y-97564586D01*
X142840318Y-97515556D01*
X142842935Y-97512854D01*
X142862520Y-97493271D01*
X142864985Y-97490092D01*
X142872567Y-97481216D01*
X142872586Y-97481196D01*
X142902462Y-97449382D01*
X142912113Y-97431823D01*
X142922790Y-97415570D01*
X142935073Y-97399736D01*
X142952426Y-97359632D01*
X142957558Y-97349161D01*
X142974835Y-97317735D01*
X142974835Y-97317734D01*
X142978597Y-97310892D01*
X142983577Y-97291491D01*
X142989881Y-97273081D01*
X142993337Y-97265095D01*
X142997838Y-97254696D01*
X143004672Y-97211541D01*
X143007038Y-97200121D01*
X143015960Y-97165374D01*
X143017900Y-97157819D01*
X143017900Y-97137783D01*
X143019425Y-97118397D01*
X143022560Y-97098604D01*
X143018450Y-97055124D01*
X143017900Y-97043455D01*
X143017900Y-79605175D01*
X143018421Y-79594119D01*
X143020073Y-79586733D01*
X143017961Y-79519527D01*
X143017900Y-79515632D01*
X143017900Y-79491941D01*
X143017900Y-79488050D01*
X143017398Y-79484077D01*
X143016480Y-79472418D01*
X143015354Y-79436573D01*
X143015109Y-79428773D01*
X143009520Y-79409540D01*
X143005574Y-79390483D01*
X143004997Y-79385918D01*
X143003064Y-79370608D01*
X142986982Y-79329991D01*
X142983203Y-79318951D01*
X142973195Y-79284502D01*
X142973193Y-79284499D01*
X142971018Y-79277010D01*
X142960817Y-79259760D01*
X142952263Y-79242301D01*
X142944886Y-79223668D01*
X142919208Y-79188325D01*
X142912801Y-79178571D01*
X142894542Y-79147696D01*
X142894541Y-79147694D01*
X142890570Y-79140980D01*
X142876405Y-79126815D01*
X142863770Y-79112022D01*
X142851994Y-79095813D01*
X142845983Y-79090840D01*
X142845981Y-79090838D01*
X142818341Y-79067973D01*
X142809700Y-79060110D01*
X139765486Y-76015895D01*
X139758042Y-76007714D01*
X139753986Y-76001323D01*
X139704975Y-75955298D01*
X139702178Y-75952587D01*
X139685427Y-75935836D01*
X139682671Y-75933080D01*
X139679490Y-75930612D01*
X139670614Y-75923030D01*
X139644469Y-75898478D01*
X139644467Y-75898476D01*
X139638782Y-75893138D01*
X139631949Y-75889382D01*
X139631943Y-75889377D01*
X139621225Y-75883485D01*
X139604966Y-75872806D01*
X139595295Y-75865304D01*
X139595292Y-75865302D01*
X139589136Y-75860527D01*
X139581979Y-75857429D01*
X139581976Y-75857428D01*
X139549049Y-75843178D01*
X139538563Y-75838041D01*
X139507132Y-75820762D01*
X139507123Y-75820758D01*
X139500292Y-75817003D01*
X139492735Y-75815062D01*
X139492731Y-75815061D01*
X139480888Y-75812020D01*
X139462484Y-75805719D01*
X139451257Y-75800860D01*
X139451250Y-75800858D01*
X139444096Y-75797762D01*
X139436392Y-75796541D01*
X139436390Y-75796541D01*
X139400959Y-75790929D01*
X139389524Y-75788561D01*
X139354771Y-75779638D01*
X139354763Y-75779637D01*
X139347219Y-75777700D01*
X139339423Y-75777700D01*
X139327183Y-75777700D01*
X139307797Y-75776174D01*
X139288004Y-75773040D01*
X139280238Y-75773774D01*
X139280235Y-75773774D01*
X139244524Y-75777150D01*
X139232855Y-75777700D01*
X132085652Y-75777700D01*
X132038199Y-75768261D01*
X131997971Y-75741381D01*
X125038237Y-68781646D01*
X125006143Y-68726058D01*
X125006143Y-68661876D01*
X125033063Y-68561408D01*
X125053659Y-68326000D01*
X125033063Y-68090592D01*
X124971903Y-67862337D01*
X124872035Y-67648171D01*
X124736495Y-67454599D01*
X124569401Y-67287505D01*
X124564970Y-67284402D01*
X124564966Y-67284399D01*
X124380259Y-67155066D01*
X124380257Y-67155064D01*
X124375830Y-67151965D01*
X124370933Y-67149681D01*
X124370927Y-67149678D01*
X124166572Y-67054386D01*
X124166570Y-67054385D01*
X124161663Y-67052097D01*
X124156438Y-67050697D01*
X124156430Y-67050694D01*
X123938634Y-66992337D01*
X123938630Y-66992336D01*
X123933408Y-66990937D01*
X123928020Y-66990465D01*
X123928017Y-66990465D01*
X123703395Y-66970813D01*
X123698000Y-66970341D01*
X123692605Y-66970813D01*
X123467982Y-66990465D01*
X123467977Y-66990465D01*
X123462592Y-66990937D01*
X123457371Y-66992335D01*
X123457365Y-66992337D01*
X123239569Y-67050694D01*
X123239557Y-67050698D01*
X123234337Y-67052097D01*
X123229432Y-67054383D01*
X123229427Y-67054386D01*
X123025081Y-67149675D01*
X123025077Y-67149677D01*
X123020171Y-67151965D01*
X123015738Y-67155068D01*
X123015731Y-67155073D01*
X122831034Y-67284399D01*
X122831029Y-67284402D01*
X122826599Y-67287505D01*
X122822775Y-67291328D01*
X122822769Y-67291334D01*
X122663334Y-67450769D01*
X122663328Y-67450775D01*
X122659505Y-67454599D01*
X122656403Y-67459028D01*
X122656403Y-67459029D01*
X122529269Y-67640596D01*
X122484951Y-67679461D01*
X122427694Y-67693472D01*
X122370437Y-67679461D01*
X122326119Y-67640595D01*
X122199215Y-67459357D01*
X122192280Y-67451092D01*
X122032909Y-67291721D01*
X122024643Y-67284784D01*
X121840008Y-67155501D01*
X121830676Y-67150113D01*
X121626397Y-67054856D01*
X121616263Y-67051168D01*
X121421780Y-66999056D01*
X121410551Y-66998688D01*
X121408000Y-67009631D01*
X121408000Y-68452000D01*
X121391387Y-68514000D01*
X121346000Y-68559387D01*
X121284000Y-68576000D01*
X119841631Y-68576000D01*
X119830688Y-68578551D01*
X119831056Y-68589780D01*
X119883168Y-68784263D01*
X119886856Y-68794397D01*
X119982113Y-68998676D01*
X119987501Y-69008008D01*
X120116784Y-69192643D01*
X120123721Y-69200909D01*
X120283090Y-69360278D01*
X120291356Y-69367215D01*
X120472595Y-69494120D01*
X120511460Y-69538438D01*
X120525471Y-69595695D01*
X120511460Y-69652952D01*
X120472594Y-69697270D01*
X120291034Y-69824399D01*
X120291029Y-69824402D01*
X120286599Y-69827505D01*
X120282775Y-69831328D01*
X120282769Y-69831334D01*
X120123334Y-69990769D01*
X120123328Y-69990775D01*
X120119505Y-69994599D01*
X120116402Y-69999029D01*
X120116399Y-69999034D01*
X119987073Y-70183731D01*
X119987068Y-70183738D01*
X119983965Y-70188171D01*
X119981677Y-70193077D01*
X119981675Y-70193081D01*
X119886386Y-70397427D01*
X119886383Y-70397432D01*
X119884097Y-70402337D01*
X119882698Y-70407557D01*
X119882694Y-70407569D01*
X119824337Y-70625365D01*
X119824335Y-70625371D01*
X119822937Y-70630592D01*
X119822465Y-70635977D01*
X119822465Y-70635982D01*
X119816111Y-70708609D01*
X119802341Y-70866000D01*
X119802813Y-70871395D01*
X119820256Y-71070773D01*
X119822937Y-71101408D01*
X119824336Y-71106630D01*
X119824337Y-71106634D01*
X119882694Y-71324430D01*
X119882697Y-71324438D01*
X119884097Y-71329663D01*
X119886385Y-71334570D01*
X119886386Y-71334572D01*
X119981678Y-71538927D01*
X119981681Y-71538933D01*
X119983965Y-71543830D01*
X119987064Y-71548257D01*
X119987066Y-71548259D01*
X120116399Y-71732966D01*
X120116402Y-71732970D01*
X120119505Y-71737401D01*
X120286599Y-71904495D01*
X120291032Y-71907599D01*
X120291038Y-71907604D01*
X120472158Y-72034425D01*
X120511024Y-72078743D01*
X120525035Y-72136000D01*
X120511024Y-72193257D01*
X120472160Y-72237574D01*
X120286599Y-72367505D01*
X120282775Y-72371328D01*
X120282769Y-72371334D01*
X120123334Y-72530769D01*
X120123328Y-72530775D01*
X120119505Y-72534599D01*
X120116402Y-72539029D01*
X120116399Y-72539034D01*
X119987073Y-72723731D01*
X119987068Y-72723738D01*
X119983965Y-72728171D01*
X119981677Y-72733077D01*
X119981675Y-72733081D01*
X119886386Y-72937427D01*
X119886383Y-72937432D01*
X119884097Y-72942337D01*
X119882698Y-72947557D01*
X119882694Y-72947569D01*
X119824337Y-73165365D01*
X119824335Y-73165371D01*
X119822937Y-73170592D01*
X119802341Y-73406000D01*
X119822937Y-73641408D01*
X119824336Y-73646630D01*
X119824337Y-73646634D01*
X119882694Y-73864430D01*
X119882697Y-73864438D01*
X119884097Y-73869663D01*
X119886385Y-73874570D01*
X119886386Y-73874572D01*
X119981678Y-74078927D01*
X119981681Y-74078933D01*
X119983965Y-74083830D01*
X119987064Y-74088257D01*
X119987066Y-74088259D01*
X120116399Y-74272966D01*
X120116402Y-74272970D01*
X120119505Y-74277401D01*
X120286599Y-74444495D01*
X120480170Y-74580035D01*
X120694337Y-74679903D01*
X120922592Y-74741063D01*
X121158000Y-74761659D01*
X121393408Y-74741063D01*
X121621663Y-74679903D01*
X121835830Y-74580035D01*
X122029401Y-74444495D01*
X122196495Y-74277401D01*
X122326424Y-74091842D01*
X122370743Y-74052976D01*
X122428000Y-74038965D01*
X122485257Y-74052976D01*
X122529575Y-74091842D01*
X122656395Y-74272961D01*
X122656401Y-74272968D01*
X122659505Y-74277401D01*
X122826599Y-74444495D01*
X123020170Y-74580035D01*
X123234337Y-74679903D01*
X123462592Y-74741063D01*
X123698000Y-74761659D01*
X123933408Y-74741063D01*
X124161663Y-74679903D01*
X124375830Y-74580035D01*
X124569401Y-74444495D01*
X124736495Y-74277401D01*
X124872035Y-74083830D01*
X124971903Y-73869663D01*
X125033063Y-73641408D01*
X125053659Y-73406000D01*
X125033063Y-73170592D01*
X124971903Y-72942337D01*
X124872035Y-72728171D01*
X124736495Y-72534599D01*
X124569401Y-72367505D01*
X124564970Y-72364402D01*
X124564966Y-72364399D01*
X124383405Y-72237269D01*
X124344540Y-72192951D01*
X124330529Y-72135694D01*
X124344540Y-72078437D01*
X124383406Y-72034119D01*
X124564638Y-71907219D01*
X124572909Y-71900278D01*
X124732278Y-71740909D01*
X124739215Y-71732643D01*
X124868498Y-71548008D01*
X124873886Y-71538676D01*
X124969143Y-71334397D01*
X124972831Y-71324263D01*
X125024943Y-71129780D01*
X125025311Y-71118551D01*
X125014369Y-71116000D01*
X123572000Y-71116000D01*
X123510000Y-71099387D01*
X123464613Y-71054000D01*
X123448000Y-70992000D01*
X123448000Y-70740000D01*
X123464613Y-70678000D01*
X123510000Y-70632613D01*
X123572000Y-70616000D01*
X125014372Y-70616000D01*
X125019462Y-70614813D01*
X125081669Y-70616339D01*
X125135302Y-70647892D01*
X131277907Y-76790497D01*
X131285356Y-76798683D01*
X131289414Y-76805077D01*
X131295099Y-76810415D01*
X131295101Y-76810418D01*
X131338439Y-76851115D01*
X131341235Y-76853825D01*
X131360730Y-76873320D01*
X131363815Y-76875713D01*
X131363901Y-76875780D01*
X131372773Y-76883358D01*
X131398932Y-76907923D01*
X131398934Y-76907924D01*
X131404618Y-76913262D01*
X131411451Y-76917018D01*
X131411452Y-76917019D01*
X131422173Y-76922913D01*
X131438434Y-76933594D01*
X131454264Y-76945873D01*
X131491783Y-76962108D01*
X131494340Y-76963215D01*
X131504836Y-76968356D01*
X131543108Y-76989397D01*
X131550658Y-76991335D01*
X131550667Y-76991339D01*
X131562512Y-76994380D01*
X131580916Y-77000680D01*
X131599305Y-77008638D01*
X131636897Y-77014591D01*
X131642439Y-77015469D01*
X131653882Y-77017839D01*
X131688625Y-77026760D01*
X131688626Y-77026760D01*
X131696181Y-77028700D01*
X131716217Y-77028700D01*
X131735602Y-77030225D01*
X131755396Y-77033360D01*
X131793476Y-77029760D01*
X131798876Y-77029250D01*
X131810545Y-77028700D01*
X138957748Y-77028700D01*
X139005201Y-77038139D01*
X139045429Y-77065019D01*
X141730581Y-79750172D01*
X141757461Y-79790400D01*
X141766900Y-79837853D01*
X141766900Y-82851297D01*
X141753089Y-82908169D01*
X141714733Y-82952372D01*
X141660375Y-82974059D01*
X141602125Y-82968401D01*
X141552957Y-82936657D01*
X141530531Y-82897583D01*
X141528495Y-82898465D01*
X141525394Y-82891300D01*
X141523218Y-82883810D01*
X141513017Y-82866560D01*
X141504463Y-82849101D01*
X141497086Y-82830468D01*
X141471408Y-82795125D01*
X141465001Y-82785371D01*
X141446742Y-82754496D01*
X141446741Y-82754494D01*
X141442770Y-82747780D01*
X141428605Y-82733615D01*
X141415970Y-82718822D01*
X141404194Y-82702613D01*
X141398183Y-82697640D01*
X141398181Y-82697638D01*
X141370541Y-82674773D01*
X141361900Y-82666910D01*
X140349686Y-81654695D01*
X140342242Y-81646514D01*
X140338186Y-81640123D01*
X140289175Y-81594098D01*
X140286378Y-81591387D01*
X140269627Y-81574636D01*
X140269626Y-81574635D01*
X140266871Y-81571880D01*
X140263690Y-81569412D01*
X140254814Y-81561830D01*
X140228669Y-81537278D01*
X140228667Y-81537276D01*
X140222982Y-81531938D01*
X140216149Y-81528182D01*
X140216143Y-81528177D01*
X140205425Y-81522285D01*
X140189166Y-81511606D01*
X140179495Y-81504104D01*
X140179492Y-81504102D01*
X140173336Y-81499327D01*
X140166179Y-81496229D01*
X140166176Y-81496228D01*
X140133249Y-81481978D01*
X140122763Y-81476841D01*
X140091332Y-81459562D01*
X140091323Y-81459558D01*
X140084492Y-81455803D01*
X140076935Y-81453862D01*
X140076931Y-81453861D01*
X140065088Y-81450820D01*
X140046684Y-81444519D01*
X140035457Y-81439660D01*
X140035450Y-81439658D01*
X140028296Y-81436562D01*
X140020592Y-81435341D01*
X140020590Y-81435341D01*
X139985159Y-81429729D01*
X139973724Y-81427361D01*
X139938971Y-81418438D01*
X139938963Y-81418437D01*
X139931419Y-81416500D01*
X139923623Y-81416500D01*
X139911383Y-81416500D01*
X139891997Y-81414974D01*
X139872204Y-81411840D01*
X139864438Y-81412574D01*
X139864435Y-81412574D01*
X139828724Y-81415950D01*
X139817055Y-81416500D01*
X135383571Y-81416500D01*
X135372518Y-81415979D01*
X135365132Y-81414328D01*
X135357334Y-81414573D01*
X135297944Y-81416439D01*
X135294050Y-81416500D01*
X135266450Y-81416500D01*
X135262599Y-81416986D01*
X135262568Y-81416988D01*
X135262440Y-81417005D01*
X135250829Y-81417918D01*
X135214971Y-81419045D01*
X135214964Y-81419046D01*
X135207172Y-81419291D01*
X135199688Y-81421465D01*
X135199677Y-81421467D01*
X135187928Y-81424881D01*
X135168883Y-81428825D01*
X135156747Y-81430358D01*
X135156744Y-81430358D01*
X135149008Y-81431336D01*
X135141760Y-81434205D01*
X135141750Y-81434208D01*
X135108392Y-81447415D01*
X135097350Y-81451196D01*
X135062897Y-81461207D01*
X135062892Y-81461208D01*
X135055410Y-81463383D01*
X135048702Y-81467349D01*
X135048697Y-81467352D01*
X135038164Y-81473581D01*
X135020700Y-81482136D01*
X135009324Y-81486640D01*
X135009317Y-81486643D01*
X135002068Y-81489514D01*
X134995762Y-81494094D01*
X134995757Y-81494098D01*
X134966727Y-81515189D01*
X134956969Y-81521598D01*
X134926098Y-81539856D01*
X134919379Y-81543830D01*
X134913863Y-81549344D01*
X134913856Y-81549351D01*
X134905207Y-81558000D01*
X134890424Y-81570626D01*
X134880527Y-81577817D01*
X134880520Y-81577823D01*
X134874213Y-81582406D01*
X134869246Y-81588408D01*
X134869235Y-81588420D01*
X134846370Y-81616059D01*
X134838510Y-81624697D01*
X132721696Y-83741511D01*
X132713511Y-83748959D01*
X132707123Y-83753014D01*
X132701788Y-83758694D01*
X132701783Y-83758699D01*
X132661096Y-83802025D01*
X132658392Y-83804816D01*
X132641628Y-83821580D01*
X132641621Y-83821587D01*
X132638880Y-83824329D01*
X132636500Y-83827396D01*
X132636489Y-83827409D01*
X132636400Y-83827525D01*
X132628842Y-83836370D01*
X132604280Y-83862527D01*
X132604273Y-83862536D01*
X132598938Y-83868218D01*
X132595182Y-83875049D01*
X132595179Y-83875054D01*
X132589285Y-83885775D01*
X132578609Y-83902027D01*
X132571109Y-83911696D01*
X132571101Y-83911707D01*
X132566327Y-83917864D01*
X132563234Y-83925008D01*
X132563229Y-83925019D01*
X132548974Y-83957960D01*
X132543838Y-83968443D01*
X132526560Y-83999873D01*
X132522803Y-84006708D01*
X132520864Y-84014256D01*
X132520863Y-84014261D01*
X132517822Y-84026107D01*
X132511521Y-84044511D01*
X132506658Y-84055748D01*
X132506656Y-84055752D01*
X132503562Y-84062904D01*
X132502342Y-84070603D01*
X132502342Y-84070605D01*
X132496729Y-84106041D01*
X132494361Y-84117476D01*
X132485438Y-84152228D01*
X132485436Y-84152236D01*
X132483500Y-84159781D01*
X132483500Y-84167577D01*
X132483500Y-84179817D01*
X132481974Y-84199202D01*
X132478840Y-84218996D01*
X132479574Y-84226761D01*
X132479574Y-84226764D01*
X132482950Y-84262476D01*
X132483500Y-84274145D01*
X132483500Y-84549300D01*
X132466887Y-84611300D01*
X132421500Y-84656687D01*
X132359500Y-84673300D01*
X132063805Y-84673300D01*
X132063785Y-84673300D01*
X132060656Y-84673301D01*
X132057524Y-84673620D01*
X132057522Y-84673621D01*
X131968027Y-84682762D01*
X131968017Y-84682763D01*
X131961292Y-84683451D01*
X131954870Y-84685578D01*
X131954865Y-84685580D01*
X131807158Y-84734525D01*
X131807154Y-84734526D01*
X131800303Y-84736797D01*
X131794159Y-84740586D01*
X131794154Y-84740589D01*
X131662107Y-84822037D01*
X131662101Y-84822041D01*
X131655956Y-84825832D01*
X131650849Y-84830938D01*
X131650845Y-84830942D01*
X131541142Y-84940645D01*
X131541138Y-84940649D01*
X131536032Y-84945756D01*
X131532241Y-84951901D01*
X131532237Y-84951907D01*
X131524534Y-84964397D01*
X131479427Y-85007578D01*
X131418996Y-85023300D01*
X130939519Y-85023300D01*
X130892066Y-85013861D01*
X130851838Y-84986981D01*
X130763488Y-84898631D01*
X130763487Y-84898630D01*
X130758185Y-84893328D01*
X130654986Y-84830942D01*
X130619021Y-84809200D01*
X130619020Y-84809199D01*
X130612606Y-84805322D01*
X130583500Y-84796252D01*
X130456457Y-84756664D01*
X130456448Y-84756662D01*
X130450196Y-84754714D01*
X130443662Y-84754120D01*
X130443661Y-84754120D01*
X130382425Y-84748555D01*
X130382419Y-84748554D01*
X130379616Y-84748300D01*
X129716384Y-84748300D01*
X129713581Y-84748554D01*
X129713574Y-84748555D01*
X129652338Y-84754120D01*
X129652335Y-84754120D01*
X129645804Y-84754714D01*
X129639553Y-84756661D01*
X129639542Y-84756664D01*
X129490550Y-84803092D01*
X129483394Y-84805322D01*
X129476982Y-84809198D01*
X129476978Y-84809200D01*
X129344232Y-84889448D01*
X129344227Y-84889451D01*
X129337815Y-84893328D01*
X129332515Y-84898627D01*
X129332511Y-84898631D01*
X129222831Y-85008311D01*
X129222827Y-85008315D01*
X129217528Y-85013615D01*
X129213651Y-85020027D01*
X129213648Y-85020032D01*
X129133400Y-85152778D01*
X129133398Y-85152782D01*
X129129522Y-85159194D01*
X129127292Y-85166348D01*
X129127292Y-85166350D01*
X129080864Y-85315342D01*
X129080861Y-85315353D01*
X129078914Y-85321604D01*
X129078320Y-85328135D01*
X129078320Y-85328138D01*
X129072916Y-85387611D01*
X129072500Y-85392184D01*
X129072500Y-85395003D01*
X129072500Y-85688347D01*
X129063061Y-85735800D01*
X129036181Y-85776028D01*
X127336028Y-87476181D01*
X127295800Y-87503061D01*
X127248347Y-87512500D01*
X124953808Y-87512500D01*
X124906355Y-87503061D01*
X124871757Y-87479943D01*
X124871545Y-87480217D01*
X124867677Y-87477217D01*
X124866127Y-87476181D01*
X124865383Y-87475437D01*
X124859865Y-87469919D01*
X124853151Y-87465948D01*
X124853148Y-87465946D01*
X124725113Y-87390227D01*
X124725111Y-87390226D01*
X124718398Y-87386256D01*
X124710905Y-87384079D01*
X124566657Y-87342170D01*
X124566650Y-87342168D01*
X124560569Y-87340402D01*
X124554258Y-87339905D01*
X124554251Y-87339904D01*
X124526128Y-87337691D01*
X124526114Y-87337690D01*
X124523694Y-87337500D01*
X122742306Y-87337500D01*
X122739886Y-87337690D01*
X122739871Y-87337691D01*
X122711748Y-87339904D01*
X122711739Y-87339905D01*
X122705431Y-87340402D01*
X122699351Y-87342168D01*
X122699342Y-87342170D01*
X122555094Y-87384079D01*
X122555091Y-87384080D01*
X122547602Y-87386256D01*
X122540891Y-87390224D01*
X122540886Y-87390227D01*
X122412851Y-87465946D01*
X122412844Y-87465950D01*
X122406135Y-87469919D01*
X122400620Y-87475433D01*
X122400616Y-87475437D01*
X122295437Y-87580616D01*
X122295433Y-87580620D01*
X122289919Y-87586135D01*
X122285950Y-87592844D01*
X122285946Y-87592851D01*
X122210227Y-87720886D01*
X122210224Y-87720891D01*
X122206256Y-87727602D01*
X122204080Y-87735091D01*
X122204079Y-87735094D01*
X122162170Y-87879342D01*
X122162168Y-87879351D01*
X122160402Y-87885431D01*
X122159905Y-87891739D01*
X122159904Y-87891748D01*
X122157691Y-87919871D01*
X122157690Y-87919886D01*
X122157500Y-87922306D01*
X122157500Y-88353694D01*
X122157690Y-88356114D01*
X122157691Y-88356128D01*
X122159904Y-88384251D01*
X122159905Y-88384258D01*
X122160402Y-88390569D01*
X122162168Y-88396650D01*
X122162170Y-88396657D01*
X122204079Y-88540905D01*
X122206256Y-88548398D01*
X122210226Y-88555111D01*
X122210227Y-88555113D01*
X122274323Y-88663495D01*
X122289919Y-88689865D01*
X122295432Y-88695378D01*
X122296691Y-88697001D01*
X122319725Y-88745951D01*
X122319725Y-88800049D01*
X122296691Y-88848999D01*
X122295432Y-88850621D01*
X122289919Y-88856135D01*
X122285951Y-88862844D01*
X122285949Y-88862847D01*
X122210227Y-88990886D01*
X122210224Y-88990891D01*
X122206256Y-88997602D01*
X122204080Y-89005091D01*
X122204079Y-89005094D01*
X122162170Y-89149342D01*
X122162168Y-89149351D01*
X122160402Y-89155431D01*
X122159905Y-89161739D01*
X122159904Y-89161748D01*
X122157691Y-89189871D01*
X122157690Y-89189886D01*
X122157500Y-89192306D01*
X122157500Y-89623694D01*
X122157690Y-89626114D01*
X122157691Y-89626128D01*
X122159904Y-89654251D01*
X122159905Y-89654258D01*
X122160402Y-89660569D01*
X122162168Y-89666650D01*
X122162170Y-89666657D01*
X122204079Y-89810905D01*
X122206256Y-89818398D01*
X122210226Y-89825111D01*
X122210227Y-89825113D01*
X122285949Y-89953153D01*
X122285951Y-89953155D01*
X122289919Y-89959865D01*
X122295433Y-89965379D01*
X122296689Y-89966998D01*
X122319724Y-90015947D01*
X122319725Y-90070045D01*
X122296693Y-90118996D01*
X122295430Y-90120623D01*
X122289919Y-90126135D01*
X122285952Y-90132842D01*
X122285948Y-90132848D01*
X122210227Y-90260886D01*
X122210224Y-90260891D01*
X122206256Y-90267602D01*
X122204080Y-90275091D01*
X122204079Y-90275094D01*
X122162170Y-90419342D01*
X122162168Y-90419351D01*
X122160402Y-90425431D01*
X122159905Y-90431739D01*
X122159904Y-90431748D01*
X122157691Y-90459871D01*
X122157690Y-90459886D01*
X122157500Y-90462306D01*
X122157500Y-90464751D01*
X122157500Y-90573500D01*
X122140887Y-90635500D01*
X122095500Y-90680887D01*
X122033500Y-90697500D01*
X121285204Y-90697500D01*
X121237751Y-90688061D01*
X121197523Y-90661181D01*
X120202037Y-89665695D01*
X120194593Y-89657515D01*
X120190537Y-89651123D01*
X120186255Y-89647101D01*
X120165830Y-89611288D01*
X120158500Y-89569288D01*
X120158500Y-89194751D01*
X120158500Y-89192306D01*
X120155598Y-89155431D01*
X120109744Y-88997602D01*
X120026081Y-88856135D01*
X120020561Y-88850615D01*
X120019310Y-88849002D01*
X119996274Y-88800050D01*
X119996274Y-88745950D01*
X120019310Y-88696998D01*
X120020561Y-88695384D01*
X120026081Y-88689865D01*
X120109744Y-88548398D01*
X120155598Y-88390569D01*
X120158500Y-88353694D01*
X120158500Y-87922306D01*
X120155598Y-87885431D01*
X120109744Y-87727602D01*
X120105772Y-87720886D01*
X120102674Y-87713726D01*
X120105884Y-87712336D01*
X120094202Y-87685113D01*
X120098350Y-87626756D01*
X120128790Y-87576798D01*
X127033771Y-80671819D01*
X127074000Y-80644939D01*
X127121453Y-80635500D01*
X129330084Y-80635500D01*
X129378897Y-80645512D01*
X129419827Y-80673930D01*
X129446266Y-80716166D01*
X129493633Y-80843161D01*
X129495753Y-80847043D01*
X129495756Y-80847050D01*
X129628647Y-81090420D01*
X129630774Y-81094315D01*
X129802261Y-81323395D01*
X130004605Y-81525739D01*
X130233685Y-81697226D01*
X130484839Y-81834367D01*
X130752954Y-81934369D01*
X131032572Y-81995196D01*
X131318000Y-82015610D01*
X131603428Y-81995196D01*
X131883046Y-81934369D01*
X132151161Y-81834367D01*
X132402315Y-81697226D01*
X132631395Y-81525739D01*
X132833739Y-81323395D01*
X133005226Y-81094315D01*
X133142367Y-80843161D01*
X133242369Y-80575046D01*
X133303196Y-80295428D01*
X133323610Y-80010000D01*
X133303196Y-79724572D01*
X133242369Y-79444954D01*
X133142367Y-79176839D01*
X133005226Y-78925685D01*
X132833739Y-78696605D01*
X132631395Y-78494261D01*
X132402315Y-78322774D01*
X132352473Y-78295558D01*
X132155050Y-78187756D01*
X132155043Y-78187753D01*
X132151161Y-78185633D01*
X132147017Y-78184087D01*
X132147012Y-78184085D01*
X131887189Y-78087176D01*
X131887185Y-78087175D01*
X131883046Y-78085631D01*
X131791195Y-78065650D01*
X131607761Y-78025746D01*
X131607753Y-78025744D01*
X131603428Y-78024804D01*
X131599014Y-78024488D01*
X131599005Y-78024487D01*
X131322418Y-78004706D01*
X131318000Y-78004390D01*
X131313582Y-78004706D01*
X131036994Y-78024487D01*
X131036983Y-78024488D01*
X131032572Y-78024804D01*
X131028248Y-78025744D01*
X131028238Y-78025746D01*
X130757279Y-78084690D01*
X130757276Y-78084690D01*
X130752954Y-78085631D01*
X130748818Y-78087173D01*
X130748810Y-78087176D01*
X130488987Y-78184085D01*
X130488976Y-78184089D01*
X130484839Y-78185633D01*
X130480961Y-78187750D01*
X130480949Y-78187756D01*
X130237579Y-78320647D01*
X130237571Y-78320651D01*
X130233685Y-78322774D01*
X130230135Y-78325431D01*
X130230131Y-78325434D01*
X130008156Y-78491602D01*
X130008149Y-78491607D01*
X130004605Y-78494261D01*
X130001474Y-78497391D01*
X130001467Y-78497398D01*
X129805398Y-78693467D01*
X129805391Y-78693474D01*
X129802261Y-78696605D01*
X129799607Y-78700149D01*
X129799602Y-78700156D01*
X129633434Y-78922131D01*
X129630774Y-78925685D01*
X129628651Y-78929571D01*
X129628647Y-78929579D01*
X129495756Y-79172949D01*
X129495750Y-79172961D01*
X129493633Y-79176839D01*
X129492087Y-79180982D01*
X129492085Y-79180988D01*
X129446266Y-79303834D01*
X129419827Y-79346070D01*
X129378897Y-79374488D01*
X129330084Y-79384500D01*
X126888775Y-79384500D01*
X126877719Y-79383978D01*
X126870333Y-79382327D01*
X126862545Y-79382571D01*
X126862538Y-79382571D01*
X126803127Y-79384439D01*
X126799232Y-79384500D01*
X126771650Y-79384500D01*
X126767805Y-79384985D01*
X126767780Y-79384987D01*
X126767653Y-79385004D01*
X126756034Y-79385918D01*
X126720172Y-79387045D01*
X126720165Y-79387046D01*
X126712373Y-79387291D01*
X126704888Y-79389465D01*
X126704872Y-79389468D01*
X126693126Y-79392881D01*
X126674083Y-79396825D01*
X126661949Y-79398358D01*
X126661948Y-79398358D01*
X126654208Y-79399336D01*
X126646958Y-79402205D01*
X126646951Y-79402208D01*
X126613598Y-79415413D01*
X126602554Y-79419194D01*
X126568101Y-79429204D01*
X126568090Y-79429208D01*
X126560610Y-79431382D01*
X126553898Y-79435351D01*
X126553896Y-79435352D01*
X126543364Y-79441580D01*
X126525904Y-79450134D01*
X126514519Y-79454642D01*
X126514513Y-79454644D01*
X126507268Y-79457514D01*
X126500963Y-79462094D01*
X126500955Y-79462099D01*
X126471932Y-79483185D01*
X126462174Y-79489595D01*
X126431296Y-79507857D01*
X126431290Y-79507861D01*
X126424580Y-79511830D01*
X126419067Y-79517341D01*
X126419060Y-79517348D01*
X126410410Y-79525998D01*
X126395627Y-79538624D01*
X126385726Y-79545817D01*
X126385716Y-79545826D01*
X126379413Y-79550406D01*
X126374444Y-79556411D01*
X126374441Y-79556415D01*
X126351572Y-79584059D01*
X126343711Y-79592697D01*
X118635228Y-87301181D01*
X118595000Y-87328061D01*
X118547547Y-87337500D01*
X117792306Y-87337500D01*
X117789886Y-87337690D01*
X117789871Y-87337691D01*
X117761748Y-87339904D01*
X117761739Y-87339905D01*
X117755431Y-87340402D01*
X117749351Y-87342168D01*
X117749342Y-87342170D01*
X117605094Y-87384079D01*
X117605091Y-87384080D01*
X117597602Y-87386256D01*
X117590891Y-87390224D01*
X117590886Y-87390227D01*
X117462851Y-87465946D01*
X117462844Y-87465950D01*
X117456135Y-87469919D01*
X117450620Y-87475433D01*
X117450616Y-87475437D01*
X117449873Y-87476181D01*
X117448322Y-87477217D01*
X117444455Y-87480217D01*
X117444242Y-87479943D01*
X117409645Y-87503061D01*
X117362192Y-87512500D01*
X117213453Y-87512500D01*
X117166000Y-87503061D01*
X117125772Y-87476181D01*
X116569819Y-86920228D01*
X116542939Y-86880000D01*
X116533500Y-86832547D01*
X116533500Y-86539203D01*
X116533500Y-86536384D01*
X116527086Y-86465804D01*
X116476478Y-86303394D01*
X116388472Y-86157815D01*
X116268185Y-86037528D01*
X116122606Y-85949522D01*
X116093500Y-85940452D01*
X115966457Y-85900864D01*
X115966448Y-85900862D01*
X115960196Y-85898914D01*
X115953662Y-85898320D01*
X115953661Y-85898320D01*
X115892425Y-85892755D01*
X115892419Y-85892754D01*
X115889616Y-85892500D01*
X115376384Y-85892500D01*
X115373581Y-85892754D01*
X115373574Y-85892755D01*
X115312338Y-85898320D01*
X115312335Y-85898320D01*
X115305804Y-85898914D01*
X115299553Y-85900861D01*
X115299542Y-85900864D01*
X115150550Y-85947292D01*
X115143394Y-85949522D01*
X115136982Y-85953398D01*
X115136978Y-85953400D01*
X115004232Y-86033648D01*
X115004227Y-86033651D01*
X114997815Y-86037528D01*
X114992515Y-86042827D01*
X114992511Y-86042831D01*
X114895681Y-86139662D01*
X114840094Y-86171756D01*
X114775906Y-86171756D01*
X114720319Y-86139662D01*
X114623488Y-86042831D01*
X114623487Y-86042830D01*
X114618185Y-86037528D01*
X114472606Y-85949522D01*
X114443500Y-85940452D01*
X114316457Y-85900864D01*
X114316448Y-85900862D01*
X114310196Y-85898914D01*
X114303662Y-85898320D01*
X114303661Y-85898320D01*
X114242425Y-85892755D01*
X114242419Y-85892754D01*
X114239616Y-85892500D01*
X113726384Y-85892500D01*
X113723581Y-85892754D01*
X113723574Y-85892755D01*
X113662338Y-85898320D01*
X113662335Y-85898320D01*
X113655804Y-85898914D01*
X113649553Y-85900861D01*
X113649542Y-85900864D01*
X113500550Y-85947292D01*
X113493394Y-85949522D01*
X113486982Y-85953398D01*
X113486978Y-85953400D01*
X113354232Y-86033648D01*
X113354227Y-86033651D01*
X113347815Y-86037528D01*
X113342515Y-86042827D01*
X113342511Y-86042831D01*
X113232831Y-86152511D01*
X113232827Y-86152515D01*
X113227528Y-86157815D01*
X113223651Y-86164227D01*
X113223648Y-86164232D01*
X113143400Y-86296978D01*
X113143398Y-86296982D01*
X113139522Y-86303394D01*
X113137292Y-86310548D01*
X113137292Y-86310550D01*
X113090864Y-86459542D01*
X113090861Y-86459553D01*
X113088914Y-86465804D01*
X113082500Y-86536384D01*
X113082500Y-87199616D01*
X113088914Y-87270196D01*
X113090862Y-87276448D01*
X113090864Y-87276457D01*
X113124401Y-87384079D01*
X113139522Y-87432606D01*
X113227528Y-87578185D01*
X113347815Y-87698472D01*
X113493394Y-87786478D01*
X113599156Y-87819434D01*
X113649542Y-87835135D01*
X113649544Y-87835135D01*
X113655804Y-87837086D01*
X113726384Y-87843500D01*
X114236797Y-87843500D01*
X114239616Y-87843500D01*
X114310196Y-87837086D01*
X114310213Y-87837281D01*
X114366753Y-87840055D01*
X114418445Y-87871036D01*
X116987707Y-90440298D01*
X116995159Y-90448487D01*
X116999214Y-90454877D01*
X117009729Y-90464751D01*
X117048223Y-90500900D01*
X117051019Y-90503610D01*
X117070529Y-90523120D01*
X117073709Y-90525587D01*
X117082571Y-90533155D01*
X117096020Y-90545785D01*
X117108732Y-90557723D01*
X117108734Y-90557724D01*
X117114418Y-90563062D01*
X117121251Y-90566818D01*
X117121252Y-90566819D01*
X117131973Y-90572713D01*
X117148235Y-90583396D01*
X117159500Y-90592134D01*
X117194855Y-90635560D01*
X117207500Y-90690113D01*
X117207500Y-90893694D01*
X117207690Y-90896114D01*
X117207691Y-90896128D01*
X117208563Y-90907205D01*
X117210402Y-90930569D01*
X117212167Y-90936646D01*
X117213244Y-90942539D01*
X117209367Y-91002594D01*
X117177672Y-91053751D01*
X117125623Y-91083961D01*
X117065481Y-91086107D01*
X116890209Y-91048852D01*
X116890204Y-91048851D01*
X116883846Y-91047500D01*
X116694554Y-91047500D01*
X116688195Y-91048851D01*
X116688191Y-91048852D01*
X116515759Y-91085503D01*
X116515752Y-91085505D01*
X116509397Y-91086856D01*
X116503462Y-91089498D01*
X116503454Y-91089501D01*
X116342407Y-91161205D01*
X116342402Y-91161207D01*
X116336470Y-91163849D01*
X116331216Y-91167665D01*
X116331211Y-91167669D01*
X116188588Y-91271290D01*
X116188581Y-91271295D01*
X116183329Y-91275112D01*
X116178984Y-91279937D01*
X116178979Y-91279942D01*
X116061013Y-91410956D01*
X116061008Y-91410962D01*
X116056667Y-91415784D01*
X116053422Y-91421404D01*
X116053418Y-91421410D01*
X115965269Y-91574089D01*
X115965266Y-91574094D01*
X115962021Y-91579716D01*
X115960015Y-91585888D01*
X115960013Y-91585894D01*
X115905533Y-91753564D01*
X115905531Y-91753573D01*
X115903526Y-91759744D01*
X115902848Y-91766194D01*
X115902846Y-91766204D01*
X115890000Y-91888435D01*
X115883740Y-91948000D01*
X115884419Y-91954460D01*
X115902846Y-92129795D01*
X115902847Y-92129803D01*
X115903526Y-92136256D01*
X115905532Y-92142432D01*
X115906885Y-92148792D01*
X115905016Y-92149189D01*
X115908696Y-92195889D01*
X115886543Y-92249381D01*
X115842518Y-92286983D01*
X115786221Y-92300500D01*
X115672775Y-92300500D01*
X115661719Y-92299978D01*
X115654333Y-92298327D01*
X115646545Y-92298571D01*
X115646538Y-92298571D01*
X115587127Y-92300439D01*
X115583232Y-92300500D01*
X115555650Y-92300500D01*
X115551805Y-92300985D01*
X115551780Y-92300987D01*
X115551653Y-92301004D01*
X115540034Y-92301918D01*
X115504172Y-92303045D01*
X115504165Y-92303046D01*
X115496373Y-92303291D01*
X115488888Y-92305465D01*
X115488872Y-92305468D01*
X115477126Y-92308881D01*
X115458083Y-92312825D01*
X115445949Y-92314358D01*
X115445948Y-92314358D01*
X115438208Y-92315336D01*
X115430958Y-92318205D01*
X115430951Y-92318208D01*
X115397598Y-92331413D01*
X115386554Y-92335194D01*
X115352101Y-92345204D01*
X115352090Y-92345208D01*
X115344610Y-92347382D01*
X115337898Y-92351351D01*
X115337896Y-92351352D01*
X115327364Y-92357580D01*
X115309904Y-92366134D01*
X115298519Y-92370642D01*
X115298513Y-92370644D01*
X115291268Y-92373514D01*
X115284963Y-92378094D01*
X115284955Y-92378099D01*
X115255932Y-92399185D01*
X115246174Y-92405595D01*
X115215296Y-92423857D01*
X115215290Y-92423861D01*
X115208580Y-92427830D01*
X115203067Y-92433341D01*
X115203060Y-92433348D01*
X115194410Y-92441998D01*
X115179627Y-92454624D01*
X115169726Y-92461817D01*
X115169716Y-92461826D01*
X115163413Y-92466406D01*
X115158444Y-92472411D01*
X115158441Y-92472415D01*
X115135572Y-92500059D01*
X115127711Y-92508697D01*
X114922227Y-92714181D01*
X114881999Y-92741061D01*
X114834546Y-92750500D01*
X114524805Y-92750500D01*
X114524785Y-92750500D01*
X114521656Y-92750501D01*
X114518524Y-92750820D01*
X114518522Y-92750821D01*
X114429027Y-92759962D01*
X114429017Y-92759963D01*
X114422292Y-92760651D01*
X114415870Y-92762778D01*
X114415865Y-92762780D01*
X114261303Y-92813997D01*
X114260609Y-92811903D01*
X114221851Y-92820500D01*
X110721771Y-92820500D01*
X110710718Y-92819979D01*
X110703332Y-92818328D01*
X110695534Y-92818573D01*
X110636144Y-92820439D01*
X110632250Y-92820500D01*
X110604650Y-92820500D01*
X110600799Y-92820986D01*
X110600768Y-92820988D01*
X110600640Y-92821005D01*
X110589029Y-92821918D01*
X110553171Y-92823045D01*
X110553164Y-92823046D01*
X110545372Y-92823291D01*
X110537888Y-92825465D01*
X110537877Y-92825467D01*
X110526128Y-92828881D01*
X110507083Y-92832825D01*
X110494947Y-92834358D01*
X110494944Y-92834358D01*
X110487208Y-92835336D01*
X110479960Y-92838205D01*
X110479950Y-92838208D01*
X110446592Y-92851415D01*
X110435550Y-92855196D01*
X110401097Y-92865207D01*
X110401092Y-92865208D01*
X110393610Y-92867383D01*
X110386902Y-92871349D01*
X110386897Y-92871352D01*
X110376364Y-92877581D01*
X110358900Y-92886136D01*
X110347524Y-92890640D01*
X110347517Y-92890643D01*
X110340268Y-92893514D01*
X110333962Y-92898094D01*
X110333957Y-92898098D01*
X110304927Y-92919189D01*
X110295169Y-92925598D01*
X110264298Y-92943856D01*
X110257579Y-92947830D01*
X110252063Y-92953344D01*
X110252056Y-92953351D01*
X110243407Y-92962000D01*
X110228624Y-92974626D01*
X110218727Y-92981817D01*
X110218720Y-92981823D01*
X110212413Y-92986406D01*
X110207446Y-92992408D01*
X110207435Y-92992420D01*
X110184570Y-93020059D01*
X110176710Y-93028697D01*
X110034225Y-93171183D01*
X109994000Y-93198061D01*
X109946547Y-93207500D01*
X109931500Y-93207500D01*
X109869500Y-93190887D01*
X109824113Y-93145500D01*
X109807500Y-93083500D01*
X109807500Y-71722452D01*
X109816939Y-71674999D01*
X109843819Y-71634771D01*
X113405143Y-68073448D01*
X119830688Y-68073448D01*
X119841631Y-68076000D01*
X120891674Y-68076000D01*
X120904549Y-68072549D01*
X120908000Y-68059674D01*
X120908000Y-67009631D01*
X120905448Y-66998688D01*
X120894219Y-66999056D01*
X120699736Y-67051168D01*
X120689602Y-67054856D01*
X120485332Y-67150110D01*
X120475982Y-67155508D01*
X120291357Y-67284784D01*
X120283092Y-67291719D01*
X120123719Y-67451092D01*
X120116784Y-67459357D01*
X119987508Y-67643982D01*
X119982110Y-67653332D01*
X119886856Y-67857602D01*
X119883168Y-67867736D01*
X119831056Y-68062219D01*
X119830688Y-68073448D01*
X113405143Y-68073448D01*
X114776772Y-66701819D01*
X114817000Y-66674939D01*
X114864453Y-66665500D01*
X139015673Y-66665500D01*
X139063126Y-66674939D01*
X139103354Y-66701819D01*
X164445012Y-92043478D01*
X164478497Y-92104801D01*
X164473513Y-92174492D01*
X164386772Y-92407055D01*
X164383473Y-92415901D01*
X164382531Y-92420228D01*
X164382530Y-92420234D01*
X164325412Y-92682799D01*
X164325410Y-92682809D01*
X164324470Y-92687133D01*
X164324154Y-92691544D01*
X164324153Y-92691555D01*
X164305806Y-92948082D01*
X164304668Y-92964000D01*
X164304984Y-92968418D01*
X164324153Y-93236444D01*
X164324154Y-93236453D01*
X164324470Y-93240867D01*
X164325410Y-93245192D01*
X164325412Y-93245200D01*
X164381731Y-93504093D01*
X164383473Y-93512099D01*
X164385022Y-93516252D01*
X164478927Y-93768023D01*
X164478929Y-93768029D01*
X164480475Y-93772172D01*
X164482597Y-93776058D01*
X164611375Y-94011899D01*
X164611379Y-94011906D01*
X164613502Y-94015793D01*
X164637186Y-94047431D01*
X164777194Y-94234460D01*
X164777199Y-94234466D01*
X164779847Y-94238003D01*
X164782978Y-94241134D01*
X164782979Y-94241135D01*
X164954663Y-94412819D01*
X164984913Y-94462182D01*
X164989455Y-94519898D01*
X164967300Y-94573385D01*
X164923277Y-94610985D01*
X164866982Y-94624500D01*
X154001775Y-94624500D01*
X153990719Y-94623978D01*
X153983333Y-94622327D01*
X153975545Y-94622571D01*
X153975538Y-94622571D01*
X153916113Y-94624439D01*
X153912219Y-94624500D01*
X153884650Y-94624500D01*
X153880794Y-94624986D01*
X153880791Y-94624987D01*
X153880735Y-94624994D01*
X153880662Y-94625003D01*
X153869044Y-94625917D01*
X153833165Y-94627045D01*
X153833164Y-94627045D01*
X153825373Y-94627290D01*
X153817888Y-94629464D01*
X153817884Y-94629465D01*
X153806125Y-94632881D01*
X153787087Y-94636823D01*
X153774949Y-94638357D01*
X153774941Y-94638358D01*
X153767208Y-94639336D01*
X153759960Y-94642205D01*
X153759954Y-94642207D01*
X153726597Y-94655413D01*
X153715554Y-94659194D01*
X153681100Y-94669205D01*
X153681094Y-94669207D01*
X153673610Y-94671382D01*
X153666898Y-94675351D01*
X153666896Y-94675352D01*
X153656364Y-94681580D01*
X153638904Y-94690134D01*
X153627519Y-94694642D01*
X153627513Y-94694644D01*
X153620268Y-94697514D01*
X153613963Y-94702094D01*
X153613955Y-94702099D01*
X153584932Y-94723185D01*
X153575174Y-94729595D01*
X153544296Y-94747857D01*
X153544290Y-94747861D01*
X153537580Y-94751830D01*
X153532067Y-94757341D01*
X153532060Y-94757348D01*
X153523410Y-94765998D01*
X153508627Y-94778624D01*
X153498726Y-94785817D01*
X153498716Y-94785826D01*
X153492413Y-94790406D01*
X153487444Y-94796411D01*
X153487441Y-94796415D01*
X153464572Y-94824059D01*
X153456711Y-94832697D01*
X150463501Y-97825906D01*
X150407917Y-97857999D01*
X150343733Y-97858002D01*
X150339148Y-97856773D01*
X150326747Y-97853451D01*
X150321355Y-97852979D01*
X150321354Y-97852979D01*
X150119395Y-97835310D01*
X150114000Y-97834838D01*
X150108605Y-97835310D01*
X149906643Y-97852979D01*
X149906638Y-97852979D01*
X149901253Y-97853451D01*
X149896028Y-97854850D01*
X149896028Y-97854851D01*
X149700202Y-97907321D01*
X149700190Y-97907325D01*
X149694970Y-97908724D01*
X149690065Y-97911010D01*
X149690060Y-97911013D01*
X149506329Y-97996689D01*
X149506325Y-97996691D01*
X149501419Y-97998979D01*
X149496986Y-98002082D01*
X149496979Y-98002087D01*
X149330916Y-98118365D01*
X149330911Y-98118368D01*
X149326481Y-98121471D01*
X149322657Y-98125294D01*
X149322651Y-98125300D01*
X149179300Y-98268651D01*
X149179294Y-98268657D01*
X149175471Y-98272481D01*
X149172368Y-98276911D01*
X149172365Y-98276916D01*
X149056087Y-98442979D01*
X149056082Y-98442986D01*
X149052979Y-98447419D01*
X149050691Y-98452325D01*
X149050689Y-98452329D01*
X148965013Y-98636060D01*
X148965010Y-98636065D01*
X148962724Y-98640970D01*
X148961325Y-98646190D01*
X148961321Y-98646202D01*
X148930530Y-98761120D01*
X148907451Y-98847253D01*
X148906979Y-98852638D01*
X148906979Y-98852643D01*
X148906068Y-98863061D01*
X148888838Y-99060000D01*
X148907451Y-99272747D01*
X148908851Y-99277971D01*
X148961321Y-99473797D01*
X148961324Y-99473805D01*
X148962724Y-99479030D01*
X149052979Y-99672581D01*
X149175471Y-99847519D01*
X149326481Y-99998529D01*
X149501419Y-100121021D01*
X149694970Y-100211276D01*
X149901253Y-100266549D01*
X150114000Y-100285162D01*
X150326747Y-100266549D01*
X150533030Y-100211276D01*
X150726581Y-100121021D01*
X150901519Y-99998529D01*
X151052529Y-99847519D01*
X151175021Y-99672581D01*
X151217807Y-99580826D01*
X165072379Y-99580826D01*
X165080697Y-99591937D01*
X165195052Y-99677543D01*
X165202495Y-99682327D01*
X165438271Y-99811070D01*
X165446309Y-99814741D01*
X165698024Y-99908626D01*
X165706493Y-99911112D01*
X165968995Y-99968216D01*
X165977751Y-99969475D01*
X166245707Y-99988640D01*
X166254543Y-99988640D01*
X166522498Y-99969475D01*
X166531254Y-99968216D01*
X166793756Y-99911112D01*
X166802225Y-99908626D01*
X167053940Y-99814741D01*
X167061978Y-99811070D01*
X167297754Y-99682327D01*
X167305197Y-99677543D01*
X167419551Y-99591938D01*
X167427869Y-99580826D01*
X167421217Y-99568645D01*
X166261667Y-98409095D01*
X166250125Y-98402431D01*
X166238582Y-98409095D01*
X165079031Y-99568645D01*
X165072379Y-99580826D01*
X151217807Y-99580826D01*
X151265276Y-99479030D01*
X151320549Y-99272747D01*
X151339162Y-99060000D01*
X151320549Y-98847253D01*
X151315999Y-98830276D01*
X151315997Y-98766087D01*
X151348090Y-98710498D01*
X152010170Y-98048418D01*
X164305485Y-98048418D01*
X164324649Y-98316373D01*
X164325908Y-98325129D01*
X164383012Y-98587631D01*
X164385498Y-98596100D01*
X164479383Y-98847815D01*
X164483054Y-98855853D01*
X164611797Y-99091629D01*
X164616581Y-99099072D01*
X164702186Y-99213426D01*
X164713297Y-99221744D01*
X164725478Y-99215092D01*
X165885029Y-98055542D01*
X165891693Y-98044000D01*
X166608556Y-98044000D01*
X166615220Y-98055542D01*
X167774770Y-99215092D01*
X167786951Y-99221744D01*
X167798063Y-99213426D01*
X167883668Y-99099072D01*
X167888452Y-99091629D01*
X168017195Y-98855853D01*
X168020866Y-98847815D01*
X168114751Y-98596100D01*
X168117237Y-98587631D01*
X168174341Y-98325129D01*
X168175600Y-98316373D01*
X168194765Y-98048418D01*
X168194765Y-98039582D01*
X168175600Y-97771626D01*
X168174341Y-97762870D01*
X168117237Y-97500368D01*
X168114751Y-97491899D01*
X168020866Y-97240184D01*
X168017195Y-97232146D01*
X167888452Y-96996370D01*
X167883668Y-96988927D01*
X167798062Y-96874572D01*
X167786951Y-96866254D01*
X167774770Y-96872906D01*
X166615220Y-98032457D01*
X166608556Y-98044000D01*
X165891693Y-98044000D01*
X165885029Y-98032457D01*
X164722296Y-96869724D01*
X164713123Y-96863829D01*
X164704882Y-96870970D01*
X164616584Y-96988923D01*
X164611797Y-96996371D01*
X164483054Y-97232146D01*
X164479383Y-97240184D01*
X164385498Y-97491899D01*
X164383012Y-97500368D01*
X164325908Y-97762870D01*
X164324649Y-97771626D01*
X164305485Y-98039582D01*
X164305485Y-98048418D01*
X152010170Y-98048418D01*
X154146770Y-95911819D01*
X154186999Y-95884939D01*
X154234452Y-95875500D01*
X165938582Y-95875500D01*
X165996710Y-95889968D01*
X166041273Y-95929997D01*
X166061872Y-95986245D01*
X166053700Y-96045586D01*
X166018664Y-96094173D01*
X165964940Y-96120666D01*
X165706493Y-96176887D01*
X165698024Y-96179373D01*
X165446309Y-96273258D01*
X165438271Y-96276929D01*
X165202496Y-96405672D01*
X165195048Y-96410459D01*
X165077095Y-96498757D01*
X165069954Y-96506998D01*
X165075849Y-96516171D01*
X166238582Y-97678904D01*
X166250125Y-97685568D01*
X166261667Y-97678904D01*
X167421217Y-96519353D01*
X167427869Y-96507172D01*
X167419551Y-96496061D01*
X167305197Y-96410456D01*
X167297754Y-96405672D01*
X167061978Y-96276929D01*
X167053940Y-96273258D01*
X166802225Y-96179373D01*
X166793756Y-96176887D01*
X166535310Y-96120666D01*
X166481586Y-96094173D01*
X166446550Y-96045586D01*
X166438378Y-95986245D01*
X166458977Y-95929997D01*
X166503540Y-95889968D01*
X166561668Y-95875500D01*
X168070225Y-95875500D01*
X168081280Y-95876021D01*
X168088667Y-95877673D01*
X168155872Y-95875561D01*
X168159768Y-95875500D01*
X168183448Y-95875500D01*
X168187350Y-95875500D01*
X168191313Y-95874999D01*
X168202963Y-95874080D01*
X168246627Y-95872709D01*
X168265861Y-95867119D01*
X168284917Y-95863174D01*
X168304792Y-95860664D01*
X168345395Y-95844587D01*
X168356450Y-95840802D01*
X168398390Y-95828618D01*
X168415629Y-95818422D01*
X168433103Y-95809862D01*
X168444474Y-95805360D01*
X168444476Y-95805358D01*
X168451732Y-95802486D01*
X168487069Y-95776811D01*
X168496824Y-95770403D01*
X168534420Y-95748170D01*
X168548584Y-95734005D01*
X168563379Y-95721368D01*
X168579587Y-95709594D01*
X168607428Y-95675938D01*
X168615279Y-95667309D01*
X170059311Y-94223278D01*
X170067481Y-94215844D01*
X170073877Y-94211786D01*
X170119918Y-94162756D01*
X170122535Y-94160054D01*
X170142120Y-94140471D01*
X170144585Y-94137292D01*
X170152167Y-94128416D01*
X170156588Y-94123708D01*
X170182062Y-94096582D01*
X170191713Y-94079023D01*
X170202390Y-94062770D01*
X170214673Y-94046936D01*
X170232018Y-94006852D01*
X170237151Y-93996371D01*
X170258197Y-93958092D01*
X170263179Y-93938684D01*
X170269482Y-93920276D01*
X170277437Y-93901896D01*
X170284271Y-93858744D01*
X170286633Y-93847338D01*
X170297500Y-93805019D01*
X170297500Y-93784983D01*
X170299027Y-93765585D01*
X170300939Y-93753513D01*
X170300938Y-93753513D01*
X170302160Y-93745804D01*
X170298050Y-93702324D01*
X170297500Y-93690655D01*
X170297500Y-93295775D01*
X170298021Y-93284719D01*
X170299673Y-93277333D01*
X170297561Y-93210127D01*
X170297500Y-93206232D01*
X170297500Y-93182541D01*
X170297500Y-93178650D01*
X170296998Y-93174677D01*
X170296080Y-93163018D01*
X170294954Y-93127173D01*
X170294709Y-93119373D01*
X170289120Y-93100140D01*
X170285174Y-93081083D01*
X170283641Y-93068944D01*
X170282664Y-93061208D01*
X170266582Y-93020591D01*
X170262803Y-93009551D01*
X170252795Y-92975102D01*
X170252793Y-92975099D01*
X170250618Y-92967610D01*
X170240417Y-92950360D01*
X170231863Y-92932901D01*
X170224486Y-92914268D01*
X170198808Y-92878925D01*
X170192401Y-92869171D01*
X170174142Y-92838296D01*
X170174141Y-92838294D01*
X170170170Y-92831580D01*
X170156005Y-92817415D01*
X170143370Y-92802622D01*
X170131594Y-92786413D01*
X170125583Y-92781440D01*
X170125581Y-92781438D01*
X170097941Y-92758573D01*
X170089300Y-92750710D01*
X163273365Y-85934775D01*
X163240224Y-85874988D01*
X163243802Y-85806723D01*
X163283010Y-85750728D01*
X163345935Y-85724018D01*
X163413450Y-85734711D01*
X163510504Y-85779969D01*
X163515734Y-85781370D01*
X163515736Y-85781371D01*
X163691285Y-85828409D01*
X163730308Y-85838865D01*
X163957000Y-85858698D01*
X164183692Y-85838865D01*
X164403496Y-85779969D01*
X164609734Y-85683798D01*
X164796139Y-85553277D01*
X164957047Y-85392369D01*
X165087568Y-85205964D01*
X165183739Y-84999726D01*
X165235706Y-84805781D01*
X170301452Y-84805781D01*
X170301820Y-84817010D01*
X170349330Y-84994322D01*
X170353022Y-85004464D01*
X170444579Y-85200810D01*
X170449967Y-85210142D01*
X170574232Y-85387611D01*
X170581169Y-85395877D01*
X170734352Y-85549060D01*
X170742618Y-85555997D01*
X170920087Y-85680262D01*
X170929419Y-85685650D01*
X171125765Y-85777207D01*
X171135907Y-85780899D01*
X171313219Y-85828409D01*
X171324448Y-85828777D01*
X171327000Y-85817835D01*
X171827000Y-85817835D01*
X171829551Y-85828777D01*
X171840780Y-85828409D01*
X172018092Y-85780899D01*
X172028234Y-85777207D01*
X172224580Y-85685650D01*
X172233912Y-85680262D01*
X172411381Y-85555997D01*
X172419647Y-85549060D01*
X172572830Y-85395877D01*
X172579767Y-85387611D01*
X172704032Y-85210142D01*
X172709420Y-85200810D01*
X172800977Y-85004464D01*
X172804669Y-84994322D01*
X172852179Y-84817010D01*
X172852547Y-84805781D01*
X172841605Y-84803230D01*
X171843326Y-84803230D01*
X171830450Y-84806680D01*
X171827000Y-84819556D01*
X171827000Y-85817835D01*
X171327000Y-85817835D01*
X171327000Y-84819556D01*
X171323549Y-84806680D01*
X171310674Y-84803230D01*
X170312395Y-84803230D01*
X170301452Y-84805781D01*
X165235706Y-84805781D01*
X165242635Y-84779922D01*
X165262468Y-84553230D01*
X165242635Y-84326538D01*
X165235706Y-84300678D01*
X170301452Y-84300678D01*
X170312395Y-84303230D01*
X171310674Y-84303230D01*
X171323549Y-84299779D01*
X171327000Y-84286904D01*
X171827000Y-84286904D01*
X171830450Y-84299779D01*
X171843326Y-84303230D01*
X172841605Y-84303230D01*
X172852547Y-84300678D01*
X172852179Y-84289449D01*
X172804669Y-84112137D01*
X172800977Y-84101995D01*
X172709420Y-83905649D01*
X172704032Y-83896317D01*
X172579767Y-83718848D01*
X172572830Y-83710582D01*
X172419647Y-83557399D01*
X172411381Y-83550462D01*
X172233912Y-83426197D01*
X172224583Y-83420811D01*
X172170542Y-83395611D01*
X172118367Y-83349853D01*
X172098948Y-83283227D01*
X172118368Y-83216602D01*
X172170545Y-83170846D01*
X172224581Y-83145649D01*
X172233912Y-83140262D01*
X172411381Y-83015997D01*
X172419647Y-83009060D01*
X172572830Y-82855877D01*
X172579767Y-82847611D01*
X172704032Y-82670142D01*
X172709420Y-82660810D01*
X172800977Y-82464464D01*
X172804669Y-82454322D01*
X172852179Y-82277010D01*
X172852547Y-82265781D01*
X172841605Y-82263230D01*
X171843326Y-82263230D01*
X171830450Y-82266680D01*
X171827000Y-82279556D01*
X171827000Y-84286904D01*
X171327000Y-84286904D01*
X171327000Y-82279556D01*
X171323549Y-82266680D01*
X171310674Y-82263230D01*
X170312395Y-82263230D01*
X170301452Y-82265781D01*
X170301820Y-82277010D01*
X170349330Y-82454322D01*
X170353022Y-82464464D01*
X170444579Y-82660810D01*
X170449967Y-82670142D01*
X170574232Y-82847611D01*
X170581169Y-82855877D01*
X170734352Y-83009060D01*
X170742618Y-83015997D01*
X170920087Y-83140262D01*
X170929419Y-83145650D01*
X170983456Y-83170848D01*
X171035632Y-83216605D01*
X171055051Y-83283230D01*
X171035632Y-83349855D01*
X170983456Y-83395612D01*
X170929419Y-83420809D01*
X170920087Y-83426197D01*
X170742618Y-83550462D01*
X170734352Y-83557399D01*
X170581169Y-83710582D01*
X170574232Y-83718848D01*
X170449967Y-83896317D01*
X170444579Y-83905649D01*
X170353022Y-84101995D01*
X170349330Y-84112137D01*
X170301820Y-84289449D01*
X170301452Y-84300678D01*
X165235706Y-84300678D01*
X165205936Y-84189573D01*
X165185141Y-84111966D01*
X165185140Y-84111964D01*
X165183739Y-84106734D01*
X165087568Y-83900496D01*
X164957047Y-83714091D01*
X164796139Y-83553183D01*
X164609734Y-83422662D01*
X164551724Y-83395611D01*
X164499549Y-83349855D01*
X164480130Y-83283230D01*
X164499549Y-83216605D01*
X164551725Y-83170848D01*
X164609734Y-83143798D01*
X164796139Y-83013277D01*
X164957047Y-82852369D01*
X165087568Y-82665964D01*
X165183739Y-82459726D01*
X165242635Y-82239922D01*
X165262468Y-82013230D01*
X165242635Y-81786538D01*
X165235706Y-81760678D01*
X170301452Y-81760678D01*
X170312395Y-81763230D01*
X171310674Y-81763230D01*
X171323549Y-81759779D01*
X171327000Y-81746904D01*
X171827000Y-81746904D01*
X171830450Y-81759779D01*
X171843326Y-81763230D01*
X172841605Y-81763230D01*
X172852547Y-81760678D01*
X172852179Y-81749449D01*
X172804669Y-81572137D01*
X172800977Y-81561995D01*
X172709420Y-81365649D01*
X172704032Y-81356317D01*
X172579767Y-81178848D01*
X172572830Y-81170582D01*
X172419647Y-81017399D01*
X172411381Y-81010462D01*
X172233912Y-80886197D01*
X172224583Y-80880811D01*
X172170542Y-80855611D01*
X172118367Y-80809853D01*
X172098948Y-80743227D01*
X172118368Y-80676602D01*
X172170545Y-80630846D01*
X172224581Y-80605649D01*
X172233912Y-80600262D01*
X172411381Y-80475997D01*
X172419647Y-80469060D01*
X172572830Y-80315877D01*
X172579767Y-80307611D01*
X172704032Y-80130142D01*
X172709420Y-80120810D01*
X172800977Y-79924464D01*
X172804669Y-79914322D01*
X172852179Y-79737010D01*
X172852547Y-79725781D01*
X172841605Y-79723230D01*
X171843326Y-79723230D01*
X171830450Y-79726680D01*
X171827000Y-79739556D01*
X171827000Y-81746904D01*
X171327000Y-81746904D01*
X171327000Y-79739556D01*
X171323549Y-79726680D01*
X171310674Y-79723230D01*
X170312395Y-79723230D01*
X170301452Y-79725781D01*
X170301820Y-79737010D01*
X170349330Y-79914322D01*
X170353022Y-79924464D01*
X170444579Y-80120810D01*
X170449967Y-80130142D01*
X170574232Y-80307611D01*
X170581169Y-80315877D01*
X170734352Y-80469060D01*
X170742618Y-80475997D01*
X170920087Y-80600262D01*
X170929414Y-80605647D01*
X170983455Y-80630846D01*
X171035631Y-80676603D01*
X171055051Y-80743227D01*
X171035633Y-80809852D01*
X170983458Y-80855610D01*
X170929421Y-80880808D01*
X170920087Y-80886197D01*
X170742618Y-81010462D01*
X170734352Y-81017399D01*
X170581169Y-81170582D01*
X170574232Y-81178848D01*
X170449967Y-81356317D01*
X170444579Y-81365649D01*
X170353022Y-81561995D01*
X170349330Y-81572137D01*
X170301820Y-81749449D01*
X170301452Y-81760678D01*
X165235706Y-81760678D01*
X165183739Y-81566734D01*
X165087568Y-81360496D01*
X164957047Y-81174091D01*
X164796139Y-81013183D01*
X164609734Y-80882662D01*
X164551724Y-80855611D01*
X164499549Y-80809855D01*
X164480130Y-80743230D01*
X164499549Y-80676605D01*
X164551725Y-80630848D01*
X164609734Y-80603798D01*
X164796139Y-80473277D01*
X164957047Y-80312369D01*
X165087568Y-80125964D01*
X165183739Y-79919726D01*
X165242635Y-79699922D01*
X165262468Y-79473230D01*
X165242635Y-79246538D01*
X165235706Y-79220678D01*
X170301452Y-79220678D01*
X170312395Y-79223230D01*
X171310674Y-79223230D01*
X171323549Y-79219779D01*
X171327000Y-79206904D01*
X171827000Y-79206904D01*
X171830450Y-79219779D01*
X171843326Y-79223230D01*
X172841605Y-79223230D01*
X172852547Y-79220678D01*
X172852179Y-79209449D01*
X172804669Y-79032137D01*
X172800977Y-79021995D01*
X172709420Y-78825649D01*
X172704032Y-78816317D01*
X172579767Y-78638848D01*
X172572830Y-78630582D01*
X172419647Y-78477399D01*
X172411381Y-78470462D01*
X172233912Y-78346197D01*
X172224583Y-78340811D01*
X172170542Y-78315611D01*
X172118367Y-78269853D01*
X172098948Y-78203227D01*
X172118368Y-78136602D01*
X172170545Y-78090846D01*
X172224581Y-78065649D01*
X172233912Y-78060262D01*
X172411381Y-77935997D01*
X172419647Y-77929060D01*
X172572830Y-77775877D01*
X172579767Y-77767611D01*
X172704032Y-77590142D01*
X172709420Y-77580810D01*
X172800977Y-77384464D01*
X172804669Y-77374322D01*
X172852179Y-77197010D01*
X172852547Y-77185781D01*
X172841605Y-77183230D01*
X171843326Y-77183230D01*
X171830450Y-77186680D01*
X171827000Y-77199556D01*
X171827000Y-79206904D01*
X171327000Y-79206904D01*
X171327000Y-77199556D01*
X171323549Y-77186680D01*
X171310674Y-77183230D01*
X170312395Y-77183230D01*
X170301452Y-77185781D01*
X170301820Y-77197010D01*
X170349330Y-77374322D01*
X170353022Y-77384464D01*
X170444579Y-77580810D01*
X170449967Y-77590142D01*
X170574232Y-77767611D01*
X170581169Y-77775877D01*
X170734352Y-77929060D01*
X170742618Y-77935997D01*
X170920087Y-78060262D01*
X170929419Y-78065650D01*
X170983456Y-78090848D01*
X171035632Y-78136605D01*
X171055051Y-78203230D01*
X171035632Y-78269855D01*
X170983456Y-78315612D01*
X170929419Y-78340809D01*
X170920087Y-78346197D01*
X170742618Y-78470462D01*
X170734352Y-78477399D01*
X170581169Y-78630582D01*
X170574232Y-78638848D01*
X170449967Y-78816317D01*
X170444579Y-78825649D01*
X170353022Y-79021995D01*
X170349330Y-79032137D01*
X170301820Y-79209449D01*
X170301452Y-79220678D01*
X165235706Y-79220678D01*
X165212872Y-79135461D01*
X165185141Y-79031966D01*
X165185140Y-79031964D01*
X165183739Y-79026734D01*
X165087568Y-78820496D01*
X164957047Y-78634091D01*
X164796139Y-78473183D01*
X164771535Y-78455955D01*
X164732398Y-78411113D01*
X164718665Y-78353199D01*
X164733499Y-78295558D01*
X164773485Y-78251469D01*
X164829406Y-78231091D01*
X164864483Y-78227321D01*
X164999331Y-78177026D01*
X165114546Y-78090776D01*
X165200796Y-77975561D01*
X165251091Y-77840713D01*
X165257500Y-77781103D01*
X165257499Y-76680678D01*
X170301452Y-76680678D01*
X170312395Y-76683230D01*
X171310674Y-76683230D01*
X171323549Y-76679779D01*
X171327000Y-76666904D01*
X171827000Y-76666904D01*
X171830450Y-76679779D01*
X171843326Y-76683230D01*
X172841605Y-76683230D01*
X172852547Y-76680678D01*
X172852179Y-76669449D01*
X172804669Y-76492137D01*
X172800977Y-76481995D01*
X172709420Y-76285649D01*
X172704032Y-76276317D01*
X172579767Y-76098848D01*
X172572830Y-76090582D01*
X172419647Y-75937399D01*
X172411381Y-75930462D01*
X172233912Y-75806197D01*
X172224580Y-75800809D01*
X172028234Y-75709252D01*
X172018092Y-75705560D01*
X171840780Y-75658050D01*
X171829551Y-75657682D01*
X171827000Y-75668625D01*
X171827000Y-76666904D01*
X171327000Y-76666904D01*
X171327000Y-75668625D01*
X171324448Y-75657682D01*
X171313219Y-75658050D01*
X171135907Y-75705560D01*
X171125765Y-75709252D01*
X170929419Y-75800809D01*
X170920087Y-75806197D01*
X170742618Y-75930462D01*
X170734352Y-75937399D01*
X170581169Y-76090582D01*
X170574232Y-76098848D01*
X170449967Y-76276317D01*
X170444579Y-76285649D01*
X170353022Y-76481995D01*
X170349330Y-76492137D01*
X170301820Y-76669449D01*
X170301452Y-76680678D01*
X165257499Y-76680678D01*
X165257499Y-76085358D01*
X165251091Y-76025747D01*
X165200796Y-75890899D01*
X165114546Y-75775684D01*
X165025804Y-75709252D01*
X165006431Y-75694749D01*
X165006430Y-75694748D01*
X164999331Y-75689434D01*
X164915186Y-75658050D01*
X164871752Y-75641850D01*
X164871750Y-75641849D01*
X164864483Y-75639139D01*
X164856770Y-75638309D01*
X164856767Y-75638309D01*
X164808180Y-75633085D01*
X164808169Y-75633084D01*
X164804873Y-75632730D01*
X164801550Y-75632730D01*
X163112439Y-75632730D01*
X163112420Y-75632730D01*
X163109128Y-75632731D01*
X163105850Y-75633083D01*
X163105838Y-75633084D01*
X163057231Y-75638309D01*
X163057225Y-75638310D01*
X163049517Y-75639139D01*
X163042252Y-75641848D01*
X163042246Y-75641850D01*
X162922980Y-75686334D01*
X162922978Y-75686334D01*
X162914669Y-75689434D01*
X162907572Y-75694746D01*
X162907568Y-75694749D01*
X162806550Y-75770371D01*
X162806546Y-75770374D01*
X162799454Y-75775684D01*
X162794144Y-75782776D01*
X162794141Y-75782780D01*
X162718519Y-75883798D01*
X162718516Y-75883802D01*
X162713204Y-75890899D01*
X162710104Y-75899208D01*
X162710104Y-75899210D01*
X162665620Y-76018477D01*
X162665619Y-76018480D01*
X162662909Y-76025747D01*
X162662079Y-76033457D01*
X162662079Y-76033462D01*
X162656855Y-76082049D01*
X162656854Y-76082061D01*
X162656500Y-76085357D01*
X162656500Y-76088678D01*
X162656500Y-76088679D01*
X162656500Y-77777790D01*
X162656500Y-77777808D01*
X162656501Y-77781102D01*
X162656853Y-77784380D01*
X162656854Y-77784391D01*
X162662079Y-77832998D01*
X162662080Y-77833003D01*
X162662909Y-77840713D01*
X162665619Y-77847979D01*
X162665620Y-77847983D01*
X162695860Y-77929060D01*
X162713204Y-77975561D01*
X162718518Y-77982660D01*
X162718519Y-77982661D01*
X162750772Y-78025746D01*
X162799454Y-78090776D01*
X162914669Y-78177026D01*
X163049517Y-78227321D01*
X163084599Y-78231092D01*
X163140516Y-78251470D01*
X163180500Y-78295558D01*
X163195334Y-78353199D01*
X163181601Y-78411112D01*
X163142464Y-78455955D01*
X163117861Y-78473183D01*
X163114037Y-78477006D01*
X163114031Y-78477012D01*
X162960782Y-78630261D01*
X162960776Y-78630267D01*
X162956953Y-78634091D01*
X162953850Y-78638521D01*
X162953847Y-78638526D01*
X162829540Y-78816056D01*
X162829535Y-78816063D01*
X162826432Y-78820496D01*
X162824144Y-78825402D01*
X162824142Y-78825406D01*
X162732550Y-79021824D01*
X162732547Y-79021829D01*
X162730261Y-79026734D01*
X162728862Y-79031954D01*
X162728858Y-79031966D01*
X162672764Y-79241313D01*
X162672762Y-79241324D01*
X162671365Y-79246538D01*
X162670893Y-79251923D01*
X162670893Y-79251928D01*
X162656077Y-79421278D01*
X162651532Y-79473230D01*
X162652004Y-79478625D01*
X162663075Y-79605175D01*
X162671365Y-79699922D01*
X162672762Y-79705137D01*
X162672764Y-79705146D01*
X162728858Y-79914493D01*
X162728861Y-79914501D01*
X162730261Y-79919726D01*
X162826432Y-80125964D01*
X162956953Y-80312369D01*
X163117861Y-80473277D01*
X163304266Y-80603798D01*
X163309172Y-80606085D01*
X163309176Y-80606088D01*
X163362274Y-80630848D01*
X163414450Y-80676605D01*
X163433869Y-80743230D01*
X163414450Y-80809855D01*
X163362274Y-80855612D01*
X163309176Y-80880371D01*
X163309163Y-80880378D01*
X163304266Y-80882662D01*
X163299833Y-80885765D01*
X163299826Y-80885770D01*
X163122296Y-81010077D01*
X163122291Y-81010080D01*
X163117861Y-81013183D01*
X163114037Y-81017006D01*
X163114031Y-81017012D01*
X162960782Y-81170261D01*
X162960776Y-81170267D01*
X162956953Y-81174091D01*
X162953850Y-81178521D01*
X162953847Y-81178526D01*
X162829540Y-81356056D01*
X162829535Y-81356063D01*
X162826432Y-81360496D01*
X162824144Y-81365402D01*
X162824142Y-81365406D01*
X162732550Y-81561824D01*
X162732547Y-81561829D01*
X162730261Y-81566734D01*
X162728862Y-81571954D01*
X162728858Y-81571966D01*
X162672764Y-81781313D01*
X162672762Y-81781324D01*
X162671365Y-81786538D01*
X162670893Y-81791923D01*
X162670893Y-81791928D01*
X162667045Y-81835914D01*
X162651532Y-82013230D01*
X162671365Y-82239922D01*
X162672762Y-82245137D01*
X162672764Y-82245146D01*
X162728858Y-82454493D01*
X162728861Y-82454501D01*
X162730261Y-82459726D01*
X162826432Y-82665964D01*
X162956953Y-82852369D01*
X163117861Y-83013277D01*
X163304266Y-83143798D01*
X163309172Y-83146085D01*
X163309176Y-83146088D01*
X163362274Y-83170848D01*
X163414450Y-83216605D01*
X163433869Y-83283230D01*
X163414450Y-83349855D01*
X163362274Y-83395612D01*
X163309176Y-83420371D01*
X163309163Y-83420378D01*
X163304266Y-83422662D01*
X163299833Y-83425765D01*
X163299826Y-83425770D01*
X163122296Y-83550077D01*
X163122291Y-83550080D01*
X163117861Y-83553183D01*
X163114037Y-83557006D01*
X163114031Y-83557012D01*
X162960782Y-83710261D01*
X162960776Y-83710267D01*
X162956953Y-83714091D01*
X162953850Y-83718521D01*
X162953847Y-83718526D01*
X162829540Y-83896056D01*
X162829535Y-83896063D01*
X162826432Y-83900496D01*
X162824144Y-83905402D01*
X162824142Y-83905406D01*
X162732550Y-84101824D01*
X162732547Y-84101829D01*
X162730261Y-84106734D01*
X162728862Y-84111954D01*
X162728858Y-84111966D01*
X162672764Y-84321313D01*
X162672762Y-84321324D01*
X162671365Y-84326538D01*
X162670893Y-84331923D01*
X162670893Y-84331928D01*
X162668849Y-84355296D01*
X162651532Y-84553230D01*
X162652004Y-84558625D01*
X162669159Y-84754714D01*
X162671365Y-84779922D01*
X162672762Y-84785137D01*
X162672764Y-84785146D01*
X162728858Y-84994493D01*
X162728861Y-84994501D01*
X162730261Y-84999726D01*
X162732547Y-85004630D01*
X162732550Y-85004636D01*
X162775517Y-85096778D01*
X162786211Y-85164295D01*
X162759501Y-85227219D01*
X162703505Y-85266427D01*
X162635241Y-85270005D01*
X162575454Y-85236864D01*
X156154907Y-78816317D01*
X142229286Y-64890695D01*
X142221842Y-64882514D01*
X142217786Y-64876123D01*
X142168775Y-64830098D01*
X142165978Y-64827387D01*
X142149227Y-64810636D01*
X142146471Y-64807880D01*
X142143290Y-64805412D01*
X142134414Y-64797830D01*
X142108269Y-64773278D01*
X142108267Y-64773276D01*
X142102582Y-64767938D01*
X142095749Y-64764182D01*
X142095743Y-64764177D01*
X142085025Y-64758285D01*
X142068766Y-64747606D01*
X142059095Y-64740104D01*
X142059092Y-64740102D01*
X142052936Y-64735327D01*
X142045779Y-64732229D01*
X142045776Y-64732228D01*
X142012849Y-64717978D01*
X142002363Y-64712841D01*
X141970932Y-64695562D01*
X141970923Y-64695558D01*
X141964092Y-64691803D01*
X141956535Y-64689862D01*
X141956531Y-64689861D01*
X141944688Y-64686820D01*
X141926284Y-64680519D01*
X141915057Y-64675660D01*
X141915050Y-64675658D01*
X141907896Y-64672562D01*
X141900192Y-64671341D01*
X141900190Y-64671341D01*
X141864759Y-64665729D01*
X141853324Y-64663361D01*
X141818571Y-64654438D01*
X141818563Y-64654437D01*
X141811019Y-64652500D01*
X141803223Y-64652500D01*
X141790983Y-64652500D01*
X141771597Y-64650974D01*
X141751804Y-64647840D01*
X141744038Y-64648574D01*
X141744035Y-64648574D01*
X141708324Y-64651950D01*
X141696655Y-64652500D01*
X114377775Y-64652500D01*
X114366719Y-64651978D01*
X114359333Y-64650327D01*
X114351545Y-64650571D01*
X114351538Y-64650571D01*
X114292113Y-64652439D01*
X114288219Y-64652500D01*
X114260650Y-64652500D01*
X114256794Y-64652986D01*
X114256791Y-64652987D01*
X114256735Y-64652994D01*
X114256662Y-64653003D01*
X114245044Y-64653917D01*
X114209165Y-64655045D01*
X114209164Y-64655045D01*
X114201373Y-64655290D01*
X114193888Y-64657464D01*
X114193884Y-64657465D01*
X114182125Y-64660881D01*
X114163087Y-64664823D01*
X114150949Y-64666357D01*
X114150941Y-64666358D01*
X114143208Y-64667336D01*
X114135960Y-64670205D01*
X114135954Y-64670207D01*
X114102597Y-64683413D01*
X114091554Y-64687194D01*
X114057100Y-64697205D01*
X114057094Y-64697207D01*
X114049610Y-64699382D01*
X114042898Y-64703351D01*
X114042896Y-64703352D01*
X114032364Y-64709580D01*
X114014904Y-64718134D01*
X114003519Y-64722642D01*
X114003513Y-64722644D01*
X113996268Y-64725514D01*
X113989963Y-64730094D01*
X113989955Y-64730099D01*
X113960932Y-64751185D01*
X113951174Y-64757595D01*
X113920296Y-64775857D01*
X113920290Y-64775861D01*
X113913580Y-64779830D01*
X113908067Y-64785341D01*
X113908060Y-64785348D01*
X113899410Y-64793998D01*
X113884627Y-64806624D01*
X113874726Y-64813817D01*
X113874716Y-64813826D01*
X113868413Y-64818406D01*
X113863444Y-64824411D01*
X113863441Y-64824415D01*
X113840572Y-64852059D01*
X113832711Y-64860697D01*
X108070696Y-70622711D01*
X108062511Y-70630159D01*
X108056123Y-70634214D01*
X108050788Y-70639894D01*
X108050783Y-70639899D01*
X108010096Y-70683225D01*
X108007392Y-70686016D01*
X107990628Y-70702780D01*
X107990621Y-70702787D01*
X107987880Y-70705529D01*
X107985500Y-70708596D01*
X107985489Y-70708609D01*
X107985400Y-70708725D01*
X107977842Y-70717570D01*
X107953280Y-70743727D01*
X107953273Y-70743736D01*
X107947938Y-70749418D01*
X107944182Y-70756249D01*
X107944179Y-70756254D01*
X107938285Y-70766975D01*
X107927609Y-70783227D01*
X107920109Y-70792896D01*
X107920101Y-70792907D01*
X107915327Y-70799064D01*
X107912234Y-70806208D01*
X107912229Y-70806219D01*
X107897974Y-70839160D01*
X107892838Y-70849643D01*
X107875560Y-70881073D01*
X107871803Y-70887908D01*
X107869864Y-70895456D01*
X107869863Y-70895461D01*
X107866822Y-70907307D01*
X107860521Y-70925711D01*
X107855658Y-70936948D01*
X107855656Y-70936952D01*
X107852562Y-70944104D01*
X107851342Y-70951803D01*
X107851342Y-70951805D01*
X107845729Y-70987241D01*
X107843361Y-70998676D01*
X107834438Y-71033428D01*
X107834436Y-71033436D01*
X107832500Y-71040981D01*
X107832500Y-71048777D01*
X107832500Y-71061017D01*
X107830974Y-71080402D01*
X107827840Y-71100196D01*
X100000500Y-71100196D01*
X100000500Y-63124500D01*
X100017113Y-63062500D01*
X100062500Y-63017113D01*
X100124500Y-63000500D01*
X174625500Y-63000500D01*
X174687500Y-63017113D01*
G37*
%TD.AperFunction*%
%TD*%
M02*
