%TF.GenerationSoftware,KiCad,Pcbnew,(7.0.0)*%
%TF.CreationDate,2023-12-04T19:23:21-08:00*%
%TF.ProjectId,Bottom_Board,426f7474-6f6d-45f4-926f-6172642e6b69,0*%
%TF.SameCoordinates,Original*%
%TF.FileFunction,Soldermask,Bot*%
%TF.FilePolarity,Negative*%
%FSLAX46Y46*%
G04 Gerber Fmt 4.6, Leading zero omitted, Abs format (unit mm)*
G04 Created by KiCad (PCBNEW (7.0.0)) date 2023-12-04 19:23:21*
%MOMM*%
%LPD*%
G01*
G04 APERTURE LIST*
G04 Aperture macros list*
%AMRoundRect*
0 Rectangle with rounded corners*
0 $1 Rounding radius*
0 $2 $3 $4 $5 $6 $7 $8 $9 X,Y pos of 4 corners*
0 Add a 4 corners polygon primitive as box body*
4,1,4,$2,$3,$4,$5,$6,$7,$8,$9,$2,$3,0*
0 Add four circle primitives for the rounded corners*
1,1,$1+$1,$2,$3*
1,1,$1+$1,$4,$5*
1,1,$1+$1,$6,$7*
1,1,$1+$1,$8,$9*
0 Add four rect primitives between the rounded corners*
20,1,$1+$1,$2,$3,$4,$5,0*
20,1,$1+$1,$4,$5,$6,$7,0*
20,1,$1+$1,$6,$7,$8,$9,0*
20,1,$1+$1,$8,$9,$2,$3,0*%
G04 Aperture macros list end*
%ADD10R,2.000000X2.000000*%
%ADD11C,2.000000*%
%ADD12C,3.000000*%
%ADD13C,1.700000*%
%ADD14O,1.700000X1.700000*%
%ADD15C,2.880000*%
%ADD16C,1.440000*%
%ADD17R,1.600000X1.600000*%
%ADD18O,1.600000X1.600000*%
%ADD19R,1.700000X1.700000*%
%ADD20RoundRect,0.200000X-0.275000X0.200000X-0.275000X-0.200000X0.275000X-0.200000X0.275000X0.200000X0*%
%ADD21RoundRect,0.225000X-0.225000X-0.250000X0.225000X-0.250000X0.225000X0.250000X-0.225000X0.250000X0*%
%ADD22RoundRect,0.200000X0.275000X-0.200000X0.275000X0.200000X-0.275000X0.200000X-0.275000X-0.200000X0*%
%ADD23RoundRect,0.150000X0.825000X0.150000X-0.825000X0.150000X-0.825000X-0.150000X0.825000X-0.150000X0*%
%ADD24RoundRect,0.225000X0.225000X0.250000X-0.225000X0.250000X-0.225000X-0.250000X0.225000X-0.250000X0*%
%ADD25RoundRect,0.200000X0.200000X0.275000X-0.200000X0.275000X-0.200000X-0.275000X0.200000X-0.275000X0*%
%ADD26RoundRect,0.200000X-0.200000X-0.275000X0.200000X-0.275000X0.200000X0.275000X-0.200000X0.275000X0*%
%ADD27RoundRect,0.225000X0.250000X-0.225000X0.250000X0.225000X-0.250000X0.225000X-0.250000X-0.225000X0*%
%ADD28RoundRect,0.218750X-0.218750X-0.256250X0.218750X-0.256250X0.218750X0.256250X-0.218750X0.256250X0*%
G04 APERTURE END LIST*
D10*
%TO.C,C2*%
X149270322Y-127507999D03*
D11*
X144270323Y-127508000D03*
%TD*%
D12*
%TO.C,J5*%
X163220000Y-126786000D03*
X163220000Y-134286000D03*
X163220000Y-141786000D03*
X160720000Y-129286000D03*
X160720000Y-139286000D03*
X172720000Y-129286000D03*
X172720000Y-139286000D03*
%TD*%
D10*
%TO.C,C3*%
X149351999Y-139445999D03*
D11*
X144352000Y-139446000D03*
%TD*%
D13*
%TO.C,J2*%
X123698000Y-68326000D03*
D14*
X121157999Y-68325999D03*
X123697999Y-70865999D03*
X121157999Y-70865999D03*
X123697999Y-73405999D03*
X121157999Y-73405999D03*
%TD*%
D15*
%TO.C,J3*%
X166250125Y-118364000D03*
X166250125Y-113284000D03*
X166250125Y-108204000D03*
X166250125Y-103124000D03*
X166250125Y-98044000D03*
X166250125Y-92964000D03*
%TD*%
D12*
%TO.C,TP1*%
X131572000Y-123190000D03*
%TD*%
D13*
%TO.C,J1*%
X123698000Y-137160000D03*
D14*
X121157999Y-137159999D03*
X123697999Y-139699999D03*
X121157999Y-139699999D03*
X123697999Y-142239999D03*
X121157999Y-142239999D03*
%TD*%
D16*
%TO.C,RV2*%
X150070000Y-115824000D03*
X152610000Y-113284000D03*
X150070000Y-110744000D03*
%TD*%
D17*
%TO.C,SW2*%
X163956999Y-76933229D03*
D18*
X163956999Y-79473229D03*
X163956999Y-82013229D03*
X163956999Y-84553229D03*
X171576999Y-84553229D03*
X171576999Y-82013229D03*
X171576999Y-79473229D03*
X171576999Y-76933229D03*
%TD*%
D12*
%TO.C,TP2*%
X131318000Y-80010000D03*
%TD*%
D16*
%TO.C,RV1*%
X150114000Y-104140000D03*
X152654000Y-101600000D03*
X150114000Y-99060000D03*
%TD*%
D19*
%TO.C,JP1*%
X135381999Y-115798599D03*
D14*
X135381999Y-113258599D03*
X135381999Y-110718599D03*
%TD*%
D20*
%TO.C,R19*%
X129616200Y-94679000D03*
X129616200Y-96329000D03*
%TD*%
%TO.C,R11*%
X116332000Y-95504000D03*
X116332000Y-97154000D03*
%TD*%
D21*
%TO.C,C4*%
X126466600Y-119076200D03*
X128016600Y-119076200D03*
%TD*%
D22*
%TO.C,R22*%
X132397600Y-102774500D03*
X132397600Y-101124500D03*
%TD*%
D21*
%TO.C,C8*%
X132334000Y-85648800D03*
X133884000Y-85648800D03*
%TD*%
D23*
%TO.C,U1*%
X123633000Y-88138000D03*
X123633000Y-89408000D03*
X123633000Y-90678000D03*
X123633000Y-91948000D03*
X123633000Y-93218000D03*
X123633000Y-94488000D03*
X123633000Y-95758000D03*
X118683000Y-95758000D03*
X118683000Y-94488000D03*
X118683000Y-93218000D03*
X118683000Y-91948000D03*
X118683000Y-90678000D03*
X118683000Y-89408000D03*
X118683000Y-88138000D03*
%TD*%
D20*
%TO.C,R4*%
X111760000Y-94171000D03*
X111760000Y-95821000D03*
%TD*%
%TO.C,R14*%
X132308600Y-110122200D03*
X132308600Y-111772200D03*
%TD*%
D24*
%TO.C,C1*%
X154839000Y-133400800D03*
X153289000Y-133400800D03*
%TD*%
D23*
%TO.C,U2*%
X122682000Y-107442000D03*
X122682000Y-108712000D03*
X122682000Y-109982000D03*
X122682000Y-111252000D03*
X122682000Y-112522000D03*
X122682000Y-113792000D03*
X122682000Y-115062000D03*
X117732000Y-115062000D03*
X117732000Y-113792000D03*
X117732000Y-112522000D03*
X117732000Y-111252000D03*
X117732000Y-109982000D03*
X117732000Y-108712000D03*
X117732000Y-107442000D03*
%TD*%
D25*
%TO.C,R12*%
X130148600Y-117094000D03*
X128498600Y-117094000D03*
%TD*%
D26*
%TO.C,R18*%
X112890800Y-107467400D03*
X114540800Y-107467400D03*
%TD*%
%TO.C,R10*%
X137607600Y-83953100D03*
X139257600Y-83953100D03*
%TD*%
D25*
%TO.C,R20*%
X115633000Y-86868000D03*
X113983000Y-86868000D03*
%TD*%
%TO.C,R2*%
X135762000Y-91694000D03*
X134112000Y-91694000D03*
%TD*%
%TO.C,R9*%
X128065800Y-113792000D03*
X126415800Y-113792000D03*
%TD*%
D26*
%TO.C,R7*%
X137607600Y-85810475D03*
X139257600Y-85810475D03*
%TD*%
D24*
%TO.C,C6*%
X128003600Y-112218200D03*
X126453600Y-112218200D03*
%TD*%
D27*
%TO.C,C9*%
X129590800Y-91237400D03*
X129590800Y-89687400D03*
%TD*%
D22*
%TO.C,R16*%
X131140200Y-96329000D03*
X131140200Y-94679000D03*
%TD*%
D26*
%TO.C,R6*%
X128498600Y-115520200D03*
X130148600Y-115520200D03*
%TD*%
D25*
%TO.C,R1*%
X128053600Y-110694200D03*
X126403600Y-110694200D03*
%TD*%
%TO.C,R3*%
X114502200Y-105740200D03*
X112852200Y-105740200D03*
%TD*%
D26*
%TO.C,R24*%
X132271000Y-87426800D03*
X133921000Y-87426800D03*
%TD*%
D28*
%TO.C,D1*%
X122044500Y-98698000D03*
X123619500Y-98698000D03*
%TD*%
D26*
%TO.C,R15*%
X134112000Y-93472000D03*
X135762000Y-93472000D03*
%TD*%
D24*
%TO.C,C7*%
X139157600Y-87763100D03*
X137607600Y-87763100D03*
%TD*%
D20*
%TO.C,R21*%
X131368800Y-89637400D03*
X131368800Y-91287400D03*
%TD*%
%TO.C,R8*%
X126492000Y-115469400D03*
X126492000Y-117119400D03*
%TD*%
D24*
%TO.C,C5*%
X116345000Y-93726000D03*
X114795000Y-93726000D03*
%TD*%
D20*
%TO.C,R13*%
X132308600Y-113932200D03*
X132308600Y-115582200D03*
%TD*%
D22*
%TO.C,R23*%
X130048000Y-87298800D03*
X130048000Y-85648800D03*
%TD*%
%TO.C,R5*%
X109982000Y-95758000D03*
X109982000Y-94108000D03*
%TD*%
D26*
%TO.C,R17*%
X129540000Y-93014800D03*
X131190000Y-93014800D03*
%TD*%
M02*
