M48
; DRILL file {KiCad (7.0.0)} date Mon Dec  4 19:23:19 2023
; FORMAT={-:-/ absolute / inch / decimal}
; #@! TF.CreationDate,2023-12-04T19:23:19-08:00
; #@! TF.GenerationSoftware,Kicad,Pcbnew,(7.0.0)
; #@! TF.FileFunction,Plated,1,2,PTH
FMAT,2
INCH
; #@! TA.AperFunction,Plated,PTH,ViaDrill
T1C0.0157
; #@! TA.AperFunction,Plated,PTH,ComponentDrill
T2C0.0315
; #@! TA.AperFunction,Plated,PTH,ComponentDrill
T3C0.0394
; #@! TA.AperFunction,Plated,PTH,ComponentDrill
T4C0.0591
; #@! TA.AperFunction,Plated,PTH,ComponentDrill
T5C0.0669
; #@! TA.AperFunction,Plated,PTH,ComponentDrill
T6C0.0709
%
G90
G05
T1
X4.564Y-4.382
X4.598Y-3.62
X4.904Y-4.383
X4.941Y-3.619
X4.96Y-3.73
X5.01Y-3.61
X5.04Y-4.31
X5.09Y-4.69
X5.278Y-3.728
X5.3Y-3.53
X5.4Y-3.61
X5.4Y-3.68
X5.56Y-3.7
X5.97Y-4.36
T2
X5.9083Y-4.36
X5.9083Y-4.56
X5.91Y-3.9
X5.91Y-4.1
X6.0083Y-4.46
X6.01Y-4.0
X6.455Y-3.0289
X6.455Y-3.1289
X6.455Y-3.2289
X6.455Y-3.3289
X6.755Y-3.0289
X6.755Y-3.1289
X6.755Y-3.2289
X6.755Y-3.3289
T3
X4.77Y-2.69
X4.77Y-2.79
X4.77Y-2.89
X4.77Y-5.4
X4.77Y-5.5
X4.77Y-5.6
X4.87Y-2.69
X4.87Y-2.79
X4.87Y-2.89
X4.87Y-5.4
X4.87Y-5.5
X4.87Y-5.6
X5.33Y-4.359
X5.33Y-4.459
X5.33Y-4.559
X5.6799Y-5.02
X5.6831Y-5.49
X5.8768Y-5.02
X5.88Y-5.49
T4
X5.17Y-3.15
X5.18Y-4.85
T5
X6.3276Y-5.09
X6.3276Y-5.4837
X6.426Y-4.9916
X6.426Y-5.2869
X6.426Y-5.5821
X6.8Y-5.09
X6.8Y-5.4837
T6
X6.5453Y-3.66
X6.5453Y-3.86
X6.5453Y-4.06
X6.5453Y-4.26
X6.5453Y-4.46
X6.5453Y-4.66
T0
M30
