%TF.GenerationSoftware,KiCad,Pcbnew,(7.0.0)*%
%TF.CreationDate,2023-04-28T14:44:39-07:00*%
%TF.ProjectId,Bottom_Board,426f7474-6f6d-45f4-926f-6172642e6b69,0*%
%TF.SameCoordinates,Original*%
%TF.FileFunction,Copper,L1,Top*%
%TF.FilePolarity,Positive*%
%FSLAX46Y46*%
G04 Gerber Fmt 4.6, Leading zero omitted, Abs format (unit mm)*
G04 Created by KiCad (PCBNEW (7.0.0)) date 2023-04-28 14:44:39*
%MOMM*%
%LPD*%
G01*
G04 APERTURE LIST*
G04 Aperture macros list*
%AMRoundRect*
0 Rectangle with rounded corners*
0 $1 Rounding radius*
0 $2 $3 $4 $5 $6 $7 $8 $9 X,Y pos of 4 corners*
0 Add a 4 corners polygon primitive as box body*
4,1,4,$2,$3,$4,$5,$6,$7,$8,$9,$2,$3,0*
0 Add four circle primitives for the rounded corners*
1,1,$1+$1,$2,$3*
1,1,$1+$1,$4,$5*
1,1,$1+$1,$6,$7*
1,1,$1+$1,$8,$9*
0 Add four rect primitives between the rounded corners*
20,1,$1+$1,$2,$3,$4,$5,0*
20,1,$1+$1,$4,$5,$6,$7,0*
20,1,$1+$1,$6,$7,$8,$9,0*
20,1,$1+$1,$8,$9,$2,$3,0*%
%AMHorizOval*
0 Thick line with rounded ends*
0 $1 width*
0 $2 $3 position (X,Y) of the first rounded end (center of the circle)*
0 $4 $5 position (X,Y) of the second rounded end (center of the circle)*
0 Add line between two ends*
20,1,$1,$2,$3,$4,$5,0*
0 Add two circle primitives to create the rounded ends*
1,1,$1,$2,$3*
1,1,$1,$4,$5*%
G04 Aperture macros list end*
%TA.AperFunction,ComponentPad*%
%ADD10C,1.600000*%
%TD*%
%TA.AperFunction,ComponentPad*%
%ADD11R,2.000000X2.000000*%
%TD*%
%TA.AperFunction,ComponentPad*%
%ADD12C,2.000000*%
%TD*%
%TA.AperFunction,ComponentPad*%
%ADD13C,2.400000*%
%TD*%
%TA.AperFunction,ComponentPad*%
%ADD14HorizOval,2.400000X0.000000X0.000000X0.000000X0.000000X0*%
%TD*%
%TA.AperFunction,ComponentPad*%
%ADD15C,1.700000*%
%TD*%
%TA.AperFunction,ComponentPad*%
%ADD16O,1.700000X1.700000*%
%TD*%
%TA.AperFunction,ComponentPad*%
%ADD17C,2.880000*%
%TD*%
%TA.AperFunction,ComponentPad*%
%ADD18HorizOval,2.400000X0.000000X0.000000X0.000000X0.000000X0*%
%TD*%
%TA.AperFunction,ComponentPad*%
%ADD19R,1.800000X1.800000*%
%TD*%
%TA.AperFunction,ComponentPad*%
%ADD20C,1.800000*%
%TD*%
%TA.AperFunction,ComponentPad*%
%ADD21R,1.600000X1.600000*%
%TD*%
%TA.AperFunction,ComponentPad*%
%ADD22O,1.600000X1.600000*%
%TD*%
%TA.AperFunction,ComponentPad*%
%ADD23R,3.500000X3.500000*%
%TD*%
%TA.AperFunction,ComponentPad*%
%ADD24RoundRect,0.750000X0.750000X1.000000X-0.750000X1.000000X-0.750000X-1.000000X0.750000X-1.000000X0*%
%TD*%
%TA.AperFunction,ComponentPad*%
%ADD25RoundRect,0.875000X0.875000X0.875000X-0.875000X0.875000X-0.875000X-0.875000X0.875000X-0.875000X0*%
%TD*%
%TA.AperFunction,Conductor*%
%ADD26C,0.250000*%
%TD*%
G04 APERTURE END LIST*
D10*
%TO.P,C1,1*%
%TO.N,VBUS*%
X144780000Y-127000000D03*
%TO.P,C1,2*%
%TO.N,GND*%
X142280000Y-127000000D03*
%TD*%
D11*
%TO.P,C2,1*%
%TO.N,VBUS*%
X154859999Y-119379999D03*
D12*
%TO.P,C2,2*%
%TO.N,GND*%
X149860000Y-119380000D03*
%TD*%
D11*
%TO.P,C3,1*%
%TO.N,VBUS*%
X154779999Y-137159999D03*
D12*
%TO.P,C3,2*%
%TO.N,GND*%
X149780000Y-137160000D03*
%TD*%
D13*
%TO.P,R1,1*%
%TO.N,Net-(D1-A)*%
X117429872Y-141650128D03*
D14*
%TO.P,R1,2*%
%TO.N,D12*%
X126410127Y-132669871D03*
%TD*%
D15*
%TO.P,J2,1,Pin_1*%
%TO.N,AN0*%
X136961000Y-68326000D03*
D16*
%TO.P,J2,2,Pin_2*%
%TO.N,GND*%
X134420999Y-68325999D03*
%TO.P,J2,3,Pin_3*%
%TO.N,AN1*%
X136960999Y-70865999D03*
%TO.P,J2,4,Pin_4*%
%TO.N,VBUS*%
X134420999Y-70865999D03*
%TO.P,J2,5,Pin_5*%
%TO.N,AN2*%
X136960999Y-73405999D03*
%TO.P,J2,6,Pin_6*%
%TO.N,AN3*%
X134420999Y-73405999D03*
%TD*%
D17*
%TO.P,J3,1,Pin_1*%
%TO.N,D6*%
X166250125Y-118364000D03*
%TO.P,J3,2,Pin_2*%
%TO.N,GND*%
X166250125Y-113284000D03*
%TO.P,J3,3,Pin_3*%
%TO.N,AN3*%
X166250125Y-108204000D03*
%TO.P,J3,4,Pin_4*%
%TO.N,AN2*%
X166250125Y-103124000D03*
%TO.P,J3,5,Pin_5*%
%TO.N,AN1*%
X166250125Y-98044000D03*
%TO.P,J3,6,Pin_6*%
%TO.N,AN0*%
X166250125Y-92964000D03*
%TD*%
D13*
%TO.P,R2,1*%
%TO.N,Net-(D2-A)*%
X117048872Y-67391872D03*
D18*
%TO.P,R2,2*%
%TO.N,D11*%
X126029127Y-76372127D03*
%TD*%
D15*
%TO.P,J1,1,Pin_1*%
%TO.N,D12*%
X136961000Y-137160000D03*
D16*
%TO.P,J1,2,Pin_2*%
%TO.N,D5*%
X134420999Y-137159999D03*
%TO.P,J1,3,Pin_3*%
%TO.N,D11*%
X136960999Y-139699999D03*
%TO.P,J1,4,Pin_4*%
%TO.N,D6*%
X134420999Y-139699999D03*
%TO.P,J1,5,Pin_5*%
%TO.N,D10*%
X136960999Y-142239999D03*
%TO.P,J1,6,Pin_6*%
%TO.N,D9*%
X134420999Y-142239999D03*
%TD*%
D19*
%TO.P,D2,1,K*%
%TO.N,GND*%
X110779999Y-71119999D03*
D20*
%TO.P,D2,2,A*%
%TO.N,Net-(D2-A)*%
X110780000Y-73660000D03*
%TD*%
D21*
%TO.P,SW2,1*%
%TO.N,D10*%
X163956999Y-76933229D03*
D22*
%TO.P,SW2,2*%
%TO.N,D9*%
X163956999Y-79473229D03*
%TO.P,SW2,3*%
%TO.N,D6*%
X163956999Y-82013229D03*
%TO.P,SW2,4*%
%TO.N,D5*%
X163956999Y-84553229D03*
%TO.P,SW2,5*%
%TO.N,GND*%
X171576999Y-84553229D03*
%TO.P,SW2,6*%
X171576999Y-82013229D03*
%TO.P,SW2,7*%
X171576999Y-79473229D03*
%TO.P,SW2,8*%
X171576999Y-76933229D03*
%TD*%
D19*
%TO.P,D1,1,K*%
%TO.N,GND*%
X110779999Y-137159999D03*
D20*
%TO.P,D1,2,A*%
%TO.N,Net-(D1-A)*%
X110780000Y-139700000D03*
%TD*%
D23*
%TO.P,J4,1*%
%TO.N,VBUS*%
X162510336Y-130533255D03*
D24*
%TO.P,J4,2*%
%TO.N,GND*%
X168510337Y-130533256D03*
D25*
%TO.P,J4,3*%
X165510337Y-125833256D03*
%TD*%
D26*
%TO.N,D6*%
X102870000Y-127762000D02*
X148618770Y-82013230D01*
X104395396Y-144272000D02*
X102870000Y-142746604D01*
X102870000Y-142746604D02*
X102870000Y-127762000D01*
X129849000Y-144272000D02*
X104395396Y-144272000D01*
X134421000Y-139700000D02*
X129849000Y-144272000D01*
X148618770Y-82013230D02*
X163957000Y-82013230D01*
%TO.N,Net-(D2-A)*%
X112776000Y-73660000D02*
X110780000Y-73660000D01*
X114046000Y-72390000D02*
X112776000Y-73660000D01*
X117048872Y-67391872D02*
X114046000Y-70394744D01*
X114046000Y-70394744D02*
X114046000Y-72390000D01*
%TO.N,GND*%
X112014000Y-137160000D02*
X122174000Y-127000000D01*
X110780000Y-71120000D02*
X110780000Y-68671000D01*
X142280000Y-127000000D02*
X142280000Y-129660000D01*
X162941000Y-123263919D02*
X165510337Y-125833256D01*
X164203875Y-115323125D02*
X162941000Y-116586000D01*
X164211000Y-115323125D02*
X164203875Y-115323125D01*
X165510337Y-125833256D02*
X165510337Y-127533256D01*
X166250125Y-113284000D02*
X164211000Y-115323125D01*
X142280000Y-129660000D02*
X149780000Y-137160000D01*
X137342000Y-65405000D02*
X134421000Y-68326000D01*
X151257000Y-74676000D02*
X141986000Y-65405000D01*
X130611000Y-64516000D02*
X134421000Y-68326000D01*
X165510337Y-127533256D02*
X168510337Y-130533256D01*
X167357230Y-76933230D02*
X165100000Y-74676000D01*
X162941000Y-116586000D02*
X162941000Y-123263919D01*
X171577000Y-84582000D02*
X171577000Y-76933230D01*
X151892000Y-117348000D02*
X157025081Y-117348000D01*
X110780000Y-137160000D02*
X112014000Y-137160000D01*
X165100000Y-74676000D02*
X151257000Y-74676000D01*
X110780000Y-68671000D02*
X114935000Y-64516000D01*
X122174000Y-127000000D02*
X142280000Y-127000000D01*
X149860000Y-119380000D02*
X151892000Y-117348000D01*
X171577000Y-76933230D02*
X167357230Y-76933230D01*
X114935000Y-64516000D02*
X130611000Y-64516000D01*
X141986000Y-65405000D02*
X137342000Y-65405000D01*
X157025081Y-117348000D02*
X165510337Y-125833256D01*
%TO.N,D9*%
X104267000Y-144780000D02*
X131881000Y-144780000D01*
X163957000Y-79473230D02*
X149380770Y-79473230D01*
X149380770Y-79473230D02*
X101600000Y-127254000D01*
X101600000Y-142113000D02*
X104267000Y-144780000D01*
X131881000Y-144780000D02*
X134421000Y-142240000D01*
X101600000Y-127254000D02*
X101600000Y-142113000D01*
%TO.N,D6*%
X166116000Y-84172230D02*
X163957000Y-82013230D01*
X166116000Y-86741000D02*
X166116000Y-84172230D01*
X166250125Y-118364000D02*
X170561000Y-114053125D01*
X170561000Y-91186000D02*
X166116000Y-86741000D01*
X170561000Y-114053125D02*
X170561000Y-91186000D01*
%TO.N,D5*%
X154714770Y-84553230D02*
X104775000Y-134493000D01*
X127889000Y-143822000D02*
X127889000Y-143692000D01*
X109024000Y-143822000D02*
X127889000Y-143822000D01*
X104775000Y-134493000D02*
X104775000Y-139573000D01*
X104775000Y-139573000D02*
X109024000Y-143822000D01*
X127889000Y-143692000D02*
X134421000Y-137160000D01*
X163957000Y-84553230D02*
X154714770Y-84553230D01*
%TO.N,VBUS*%
X154686000Y-127000000D02*
X158219256Y-130533256D01*
X154860000Y-122882919D02*
X162510337Y-130533256D01*
X155883593Y-137160000D02*
X154780000Y-137160000D01*
X144780000Y-127000000D02*
X154686000Y-127000000D01*
X158219256Y-130533256D02*
X162510337Y-130533256D01*
X154860000Y-119380000D02*
X154860000Y-122882919D01*
X162510337Y-130533256D02*
X155883593Y-137160000D01*
%TO.N,Net-(D1-A)*%
X110780000Y-139700000D02*
X112730128Y-141650128D01*
X112730128Y-141650128D02*
X117429872Y-141650128D01*
%TO.N,D10*%
X168656000Y-145161000D02*
X172339000Y-141478000D01*
X172339000Y-141478000D02*
X172339000Y-90805000D01*
X138176000Y-145161000D02*
X168656000Y-145161000D01*
X167513000Y-80489230D02*
X163957000Y-76933230D01*
X136961000Y-143946000D02*
X138176000Y-145161000D01*
X136961000Y-142240000D02*
X136961000Y-143946000D01*
X172339000Y-90805000D02*
X167513000Y-85979000D01*
X167513000Y-85979000D02*
X167513000Y-80489230D01*
%TD*%
M02*
