M48
; DRILL file {KiCad (7.0.0)} date Thu Apr  6 13:36:09 2023
; FORMAT={-:-/ absolute / inch / decimal}
; #@! TF.CreationDate,2023-04-06T13:36:09-07:00
; #@! TF.GenerationSoftware,Kicad,Pcbnew,(7.0.0)
; #@! TF.FileFunction,Plated,1,2,PTH
FMAT,2
INCH
; #@! TA.AperFunction,Plated,PTH,ViaDrill
T1C0.0157
; #@! TA.AperFunction,Plated,PTH,ComponentDrill
T2C0.0394
; #@! TA.AperFunction,Plated,PTH,ComponentDrill
T3C0.0709
%
G90
G05
T1
X6.23Y-5.015
T2
X5.2922Y-2.69
X5.2922Y-2.79
X5.2922Y-2.89
X5.2922Y-5.4
X5.2922Y-5.5
X5.2922Y-5.6
X5.3922Y-2.69
X5.3922Y-2.79
X5.3922Y-2.89
X5.3922Y-5.4
X5.3922Y-5.5
X5.3922Y-5.6
T3
X6.5387Y-2.8
X6.5387Y-3.0
X6.5387Y-3.2
X6.5387Y-3.4
X6.5387Y-3.6
X6.5387Y-3.8
X6.5387Y-4.0
X6.5387Y-4.2
X6.5387Y-4.4
X6.5387Y-4.6
X6.5387Y-4.8
X6.5387Y-5.0
T2
G00X6.3924Y-5.5071
M15
G01X6.3924Y-5.4283
M16
G05
G00X6.5499Y-5.2827
M15
G01X6.4712Y-5.2827
M16
G05
G00X6.6287Y-5.5071
M15
G01X6.6287Y-5.4283
M16
G05
T0
M30
