%TF.GenerationSoftware,KiCad,Pcbnew,(7.0.0)*%
%TF.CreationDate,2023-04-28T14:44:39-07:00*%
%TF.ProjectId,Bottom_Board,426f7474-6f6d-45f4-926f-6172642e6b69,0*%
%TF.SameCoordinates,Original*%
%TF.FileFunction,Soldermask,Bot*%
%TF.FilePolarity,Negative*%
%FSLAX46Y46*%
G04 Gerber Fmt 4.6, Leading zero omitted, Abs format (unit mm)*
G04 Created by KiCad (PCBNEW (7.0.0)) date 2023-04-28 14:44:39*
%MOMM*%
%LPD*%
G01*
G04 APERTURE LIST*
G04 Aperture macros list*
%AMRoundRect*
0 Rectangle with rounded corners*
0 $1 Rounding radius*
0 $2 $3 $4 $5 $6 $7 $8 $9 X,Y pos of 4 corners*
0 Add a 4 corners polygon primitive as box body*
4,1,4,$2,$3,$4,$5,$6,$7,$8,$9,$2,$3,0*
0 Add four circle primitives for the rounded corners*
1,1,$1+$1,$2,$3*
1,1,$1+$1,$4,$5*
1,1,$1+$1,$6,$7*
1,1,$1+$1,$8,$9*
0 Add four rect primitives between the rounded corners*
20,1,$1+$1,$2,$3,$4,$5,0*
20,1,$1+$1,$4,$5,$6,$7,0*
20,1,$1+$1,$6,$7,$8,$9,0*
20,1,$1+$1,$8,$9,$2,$3,0*%
%AMHorizOval*
0 Thick line with rounded ends*
0 $1 width*
0 $2 $3 position (X,Y) of the first rounded end (center of the circle)*
0 $4 $5 position (X,Y) of the second rounded end (center of the circle)*
0 Add line between two ends*
20,1,$1,$2,$3,$4,$5,0*
0 Add two circle primitives to create the rounded ends*
1,1,$1,$2,$3*
1,1,$1,$4,$5*%
G04 Aperture macros list end*
%ADD10C,1.600000*%
%ADD11R,2.000000X2.000000*%
%ADD12C,2.000000*%
%ADD13C,2.400000*%
%ADD14HorizOval,2.400000X0.000000X0.000000X0.000000X0.000000X0*%
%ADD15C,1.700000*%
%ADD16O,1.700000X1.700000*%
%ADD17C,2.880000*%
%ADD18HorizOval,2.400000X0.000000X0.000000X0.000000X0.000000X0*%
%ADD19R,1.800000X1.800000*%
%ADD20C,1.800000*%
%ADD21R,1.600000X1.600000*%
%ADD22O,1.600000X1.600000*%
%ADD23R,3.500000X3.500000*%
%ADD24RoundRect,0.750000X0.750000X1.000000X-0.750000X1.000000X-0.750000X-1.000000X0.750000X-1.000000X0*%
%ADD25RoundRect,0.875000X0.875000X0.875000X-0.875000X0.875000X-0.875000X-0.875000X0.875000X-0.875000X0*%
G04 APERTURE END LIST*
D10*
%TO.C,C1*%
X144780000Y-127000000D03*
X142280000Y-127000000D03*
%TD*%
D11*
%TO.C,C2*%
X154859999Y-119379999D03*
D12*
X149860000Y-119380000D03*
%TD*%
D11*
%TO.C,C3*%
X154779999Y-137159999D03*
D12*
X149780000Y-137160000D03*
%TD*%
D13*
%TO.C,R1*%
X117429872Y-141650128D03*
D14*
X126410127Y-132669871D03*
%TD*%
D15*
%TO.C,J2*%
X136961000Y-68326000D03*
D16*
X134420999Y-68325999D03*
X136960999Y-70865999D03*
X134420999Y-70865999D03*
X136960999Y-73405999D03*
X134420999Y-73405999D03*
%TD*%
D17*
%TO.C,J3*%
X166250125Y-118364000D03*
X166250125Y-113284000D03*
X166250125Y-108204000D03*
X166250125Y-103124000D03*
X166250125Y-98044000D03*
X166250125Y-92964000D03*
%TD*%
D13*
%TO.C,R2*%
X117048872Y-67391872D03*
D18*
X126029127Y-76372127D03*
%TD*%
D15*
%TO.C,J1*%
X136961000Y-137160000D03*
D16*
X134420999Y-137159999D03*
X136960999Y-139699999D03*
X134420999Y-139699999D03*
X136960999Y-142239999D03*
X134420999Y-142239999D03*
%TD*%
D19*
%TO.C,D2*%
X110779999Y-71119999D03*
D20*
X110780000Y-73660000D03*
%TD*%
D21*
%TO.C,SW2*%
X163956999Y-76933229D03*
D22*
X163956999Y-79473229D03*
X163956999Y-82013229D03*
X163956999Y-84553229D03*
X171576999Y-84553229D03*
X171576999Y-82013229D03*
X171576999Y-79473229D03*
X171576999Y-76933229D03*
%TD*%
D19*
%TO.C,D1*%
X110779999Y-137159999D03*
D20*
X110780000Y-139700000D03*
%TD*%
D23*
%TO.C,J4*%
X162510336Y-130533255D03*
D24*
X168510337Y-130533256D03*
D25*
X165510337Y-125833256D03*
%TD*%
M02*
