M48
; DRILL file {KiCad (7.0.0)} date Fri Apr 28 14:44:37 2023
; FORMAT={-:-/ absolute / inch / decimal}
; #@! TF.CreationDate,2023-04-28T14:44:37-07:00
; #@! TF.GenerationSoftware,Kicad,Pcbnew,(7.0.0)
; #@! TF.FileFunction,Plated,1,2,PTH
FMAT,2
INCH
; #@! TA.AperFunction,Plated,PTH,ComponentDrill
T1C0.0315
; #@! TA.AperFunction,Plated,PTH,ComponentDrill
T2C0.0354
; #@! TA.AperFunction,Plated,PTH,ComponentDrill
T3C0.0394
; #@! TA.AperFunction,Plated,PTH,ComponentDrill
T4C0.0472
; #@! TA.AperFunction,Plated,PTH,ComponentDrill
T5C0.0709
%
G90
G05
T1
X5.6016Y-5.0
X5.7Y-5.0
X6.455Y-3.0289
X6.455Y-3.1289
X6.455Y-3.2289
X6.455Y-3.3289
X6.755Y-3.0289
X6.755Y-3.1289
X6.755Y-3.2289
X6.755Y-3.3289
T2
X4.3614Y-2.8
X4.3614Y-2.9
X4.3614Y-5.4
X4.3614Y-5.5
T3
X5.2922Y-2.69
X5.2922Y-2.79
X5.2922Y-2.89
X5.2922Y-5.4
X5.2922Y-5.5
X5.2922Y-5.6
X5.3922Y-2.69
X5.3922Y-2.79
X5.3922Y-2.89
X5.3922Y-5.4
X5.3922Y-5.5
X5.3922Y-5.6
X5.8969Y-5.4
X5.9Y-4.7
X6.0937Y-5.4
X6.0969Y-4.7
T4
X4.6082Y-2.6532
X4.6232Y-5.5768
X4.9618Y-3.0068
X4.9768Y-5.2232
T5
X6.5453Y-3.66
X6.5453Y-3.86
X6.5453Y-4.06
X6.5453Y-4.26
X6.5453Y-4.46
X6.5453Y-4.66
T3
G00X6.398Y-5.1785
M15
G01X6.398Y-5.0997
M16
G05
G00X6.5555Y-4.9541
M15
G01X6.4768Y-4.9541
M16
G05
G00X6.6343Y-5.1785
M15
G01X6.6343Y-5.0997
M16
G05
T0
M30
