%TF.GenerationSoftware,KiCad,Pcbnew,(7.0.0)*%
%TF.CreationDate,2023-04-06T13:34:31-07:00*%
%TF.ProjectId,Voltage_Sensor_Timer,566f6c74-6167-4655-9f53-656e736f725f,0*%
%TF.SameCoordinates,Original*%
%TF.FileFunction,Copper,L1,Top*%
%TF.FilePolarity,Positive*%
%FSLAX46Y46*%
G04 Gerber Fmt 4.6, Leading zero omitted, Abs format (unit mm)*
G04 Created by KiCad (PCBNEW (7.0.0)) date 2023-04-06 13:34:31*
%MOMM*%
%LPD*%
G01*
G04 APERTURE LIST*
G04 Aperture macros list*
%AMHorizOval*
0 Thick line with rounded ends*
0 $1 width*
0 $2 $3 position (X,Y) of the first rounded end (center of the circle)*
0 $4 $5 position (X,Y) of the second rounded end (center of the circle)*
0 Add line between two ends*
20,1,$1,$2,$3,$4,$5,0*
0 Add two circle primitives to create the rounded ends*
1,1,$1,$2,$3*
1,1,$1,$4,$5*%
G04 Aperture macros list end*
%TA.AperFunction,ComponentPad*%
%ADD10C,1.700000*%
%TD*%
%TA.AperFunction,ComponentPad*%
%ADD11C,2.400000*%
%TD*%
%TA.AperFunction,ComponentPad*%
%ADD12HorizOval,2.400000X0.000000X0.000000X0.000000X0.000000X0*%
%TD*%
%TA.AperFunction,ComponentPad*%
%ADD13O,1.700000X1.700000*%
%TD*%
%TA.AperFunction,ComponentPad*%
%ADD14HorizOval,2.400000X0.000000X0.000000X0.000000X0.000000X0*%
%TD*%
%TA.AperFunction,ComponentPad*%
%ADD15R,1.700000X1.700000*%
%TD*%
%TA.AperFunction,ViaPad*%
%ADD16C,0.800000*%
%TD*%
%TA.AperFunction,Conductor*%
%ADD17C,0.250000*%
%TD*%
G04 APERTURE END LIST*
D10*
%TO.P,ESP1,0,RESET*%
%TO.N,RESET*%
X132599192Y-106144732D03*
%TO.P,ESP1,1,3.3V*%
%TO.N,3.3V*%
X135139192Y-106144732D03*
%TO.P,ESP1,2,3.3V*%
%TO.N,unconnected-(ESP1-3.3V-Pad2)*%
X137679192Y-106144732D03*
%TO.P,ESP1,3,GND*%
%TO.N,GND*%
X140219192Y-106144732D03*
%TO.P,ESP1,4,A0*%
%TO.N,A0*%
X142759192Y-106144732D03*
%TO.P,ESP1,5,A1*%
%TO.N,A1*%
X145299192Y-106144732D03*
%TO.P,ESP1,6,A2*%
%TO.N,A2*%
X147839192Y-106144732D03*
%TO.P,ESP1,7,A3*%
%TO.N,A3*%
X150379192Y-106144732D03*
%TO.P,ESP1,8,A4*%
%TO.N,A4*%
X152919192Y-106144732D03*
%TO.P,ESP1,9,A5*%
%TO.N,A5*%
X155459192Y-106144732D03*
%TO.P,ESP1,10,SCK*%
%TO.N,SCK*%
X157999192Y-106144732D03*
%TO.P,ESP1,11,MOSI*%
%TO.N,MOSI*%
X160539192Y-106144732D03*
%TO.P,ESP1,12,MISO*%
%TO.N,MISO*%
X163079192Y-106144732D03*
%TO.P,ESP1,13,RX*%
%TO.N,RX*%
X165619192Y-106144732D03*
%TO.P,ESP1,14,TX*%
%TO.N,TX*%
X168159192Y-106144732D03*
%TO.P,ESP1,15,TXD0*%
%TO.N,TXDO*%
X170699192Y-106144732D03*
%TO.P,ESP1,16,VBAT*%
%TO.N,VBAT*%
X142759192Y-85824732D03*
%TO.P,ESP1,17,EN*%
%TO.N,unconnected-(ESP1-EN-Pad17)*%
X145299192Y-85824732D03*
%TO.P,ESP1,18,VBUS*%
%TO.N,VBUS*%
X147839192Y-85824732D03*
%TO.P,ESP1,19,D13*%
%TO.N,unconnected-(ESP1-D13-Pad19)*%
X150379192Y-85824732D03*
%TO.P,ESP1,20,D12*%
%TO.N,unconnected-(ESP1-D12-Pad20)*%
X152919192Y-85824732D03*
%TO.P,ESP1,21,D11*%
%TO.N,unconnected-(ESP1-D11-Pad21)*%
X155459192Y-85824732D03*
%TO.P,ESP1,22,D10*%
%TO.N,D10*%
X157999192Y-85824732D03*
%TO.P,ESP1,23,D9*%
%TO.N,D9*%
X160539192Y-85824732D03*
%TO.P,ESP1,24,D6*%
%TO.N,D6*%
X163079192Y-85824732D03*
%TO.P,ESP1,25,D5*%
%TO.N,D5*%
X165619192Y-85824732D03*
%TO.P,ESP1,26,SCL*%
%TO.N,SCL*%
X168159192Y-85824732D03*
%TO.P,ESP1,27,SDA*%
%TO.N,SDA*%
X170699192Y-85824732D03*
%TD*%
D11*
%TO.P,R2,1*%
%TO.N,AN0*%
X188595000Y-80860739D03*
D12*
%TO.P,R2,2*%
%TO.N,GND*%
X182244999Y-91859261D03*
%TD*%
D10*
%TO.P,J2,1,Pin_1*%
%TO.N,AN3*%
X128342521Y-105641979D03*
D13*
%TO.P,J2,2,Pin_2*%
%TO.N,AN2*%
X128342520Y-103101978D03*
D10*
%TO.P,J2,3,Pin_3*%
%TO.N,AN1*%
X128342521Y-100561979D03*
D13*
%TO.P,J2,4,Pin_4*%
%TO.N,AN0*%
X128342520Y-98021978D03*
%TO.P,J2,5,Pin_5*%
%TO.N,ALRT*%
X128342520Y-95481978D03*
%TO.P,J2,6,Pin_6*%
%TO.N,ADDR*%
X128342520Y-92941978D03*
%TO.P,J2,7,Pin_7*%
%TO.N,SDA*%
X128342520Y-90401978D03*
%TO.P,J2,8,Pin_8*%
%TO.N,SCL*%
X128342520Y-87861978D03*
%TO.P,J2,9,Pin_9*%
%TO.N,GND*%
X128342520Y-85321978D03*
%TO.P,J2,10,Pin_10*%
%TO.N,3.3V*%
X128342520Y-82781978D03*
%TD*%
D10*
%TO.P,J1,1,Pin_1*%
%TO.N,AN1*%
X115585000Y-96204000D03*
D13*
%TO.P,J1,2,Pin_2*%
%TO.N,AN0*%
X115584999Y-98743999D03*
%TO.P,J1,3,Pin_3*%
%TO.N,AN2*%
X118124999Y-96203999D03*
%TO.P,J1,4,Pin_4*%
%TO.N,GND*%
X118124999Y-98743999D03*
%TO.P,J1,5,Pin_5*%
%TO.N,AN3*%
X120664999Y-96203999D03*
%TO.P,J1,6,Pin_6*%
%TO.N,VBUS*%
X120664999Y-98743999D03*
%TD*%
D10*
%TO.P,J4,1,Pin_1*%
%TO.N,D5*%
X184404000Y-96012000D03*
D13*
%TO.P,J4,2,Pin_2*%
%TO.N,A0*%
X184403999Y-98551999D03*
%TO.P,J4,3,Pin_3*%
%TO.N,D6*%
X186943999Y-96011999D03*
%TO.P,J4,4,Pin_4*%
%TO.N,A2*%
X186943999Y-98551999D03*
%TO.P,J4,5,Pin_5*%
%TO.N,D9*%
X189483999Y-96011999D03*
%TO.P,J4,6,Pin_6*%
%TO.N,A1*%
X189483999Y-98551999D03*
%TD*%
D11*
%TO.P,R3,1*%
%TO.N,AN2*%
X115951000Y-81114739D03*
D14*
%TO.P,R3,2*%
%TO.N,GND*%
X122300999Y-92113261D03*
%TD*%
D15*
%TO.P,J3,1,Pin_1*%
%TO.N,D5*%
X179196999Y-81406999D03*
D13*
%TO.P,J3,2,Pin_2*%
%TO.N,GND*%
X179196999Y-83946999D03*
%TD*%
D16*
%TO.N,AN0*%
X114398104Y-85257568D03*
%TO.N,SDA*%
X167640000Y-81026000D03*
%TO.N,D9*%
X178435000Y-90297000D03*
%TD*%
D17*
%TO.N,3.3V*%
X135139192Y-88911192D02*
X135139192Y-106144732D01*
X129009979Y-82781979D02*
X135139192Y-88911192D01*
X128342521Y-82781979D02*
X129009979Y-82781979D01*
%TO.N,GND*%
X138085000Y-108278924D02*
X127766151Y-108278924D01*
X182245000Y-91859262D02*
X154504662Y-91859262D01*
X140219192Y-106144732D02*
X138085000Y-108278924D01*
X154504662Y-91859262D02*
X140219192Y-106144732D01*
X127766151Y-108278924D02*
X118085256Y-98598029D01*
%TO.N,AN3*%
X123579629Y-99012402D02*
X123579629Y-103256365D01*
X123579629Y-103256365D02*
X125965243Y-105641979D01*
X125965243Y-105641979D02*
X128342521Y-105641979D01*
X120625256Y-96058029D02*
X123579629Y-99012402D01*
%TO.N,AN2*%
X113673104Y-91752104D02*
X113673104Y-83392635D01*
X118125000Y-96204000D02*
X113673104Y-91752104D01*
X128342521Y-103101979D02*
X124835036Y-99594494D01*
X119786365Y-94356920D02*
X118085256Y-96058029D01*
X122073139Y-94356920D02*
X119786365Y-94356920D01*
X124835036Y-99594494D02*
X124835036Y-97118817D01*
X124835036Y-97118817D02*
X122073139Y-94356920D01*
X113673104Y-83392635D02*
X115951000Y-81114739D01*
%TO.N,AN0*%
X125730000Y-91840613D02*
X125730000Y-95409458D01*
X119146955Y-85257568D02*
X125156523Y-79248000D01*
X125730000Y-95409458D02*
X128342521Y-98021979D01*
X186982261Y-79248000D02*
X188595000Y-80860739D01*
X114398104Y-85257568D02*
X119146955Y-85257568D01*
X119146955Y-85257568D02*
X125730000Y-91840613D01*
X125156523Y-79248000D02*
X186982261Y-79248000D01*
%TO.N,SDA*%
X170699192Y-85824732D02*
X167640000Y-82765540D01*
X167640000Y-82765540D02*
X167640000Y-81026000D01*
%TO.N,SCL*%
X163576000Y-79756000D02*
X126746000Y-79756000D01*
X125730000Y-80772000D02*
X125730000Y-85249458D01*
X125730000Y-85249458D02*
X128342521Y-87861979D01*
X168159192Y-85824732D02*
X168159192Y-84339192D01*
X168159192Y-84339192D02*
X163576000Y-79756000D01*
X126746000Y-79756000D02*
X125730000Y-80772000D01*
%TO.N,A0*%
X182357000Y-100584000D02*
X148319924Y-100584000D01*
X184389000Y-98552000D02*
X182357000Y-100584000D01*
X148319924Y-100584000D02*
X142759192Y-106144732D01*
%TO.N,A1*%
X189469000Y-98552000D02*
X179817000Y-108204000D01*
X179817000Y-108204000D02*
X147358460Y-108204000D01*
X147358460Y-108204000D02*
X145299192Y-106144732D01*
%TO.N,A2*%
X183825957Y-101670043D02*
X186944000Y-98552000D01*
X152313881Y-101670043D02*
X183825957Y-101670043D01*
X147839192Y-106144732D02*
X152313881Y-101670043D01*
%TO.N,D6*%
X184658000Y-88519000D02*
X186944000Y-90805000D01*
X186944000Y-90805000D02*
X186944000Y-96012000D01*
X165773460Y-88519000D02*
X184658000Y-88519000D01*
X163079192Y-85824732D02*
X165773460Y-88519000D01*
%TO.N,D9*%
X165011460Y-90297000D02*
X178435000Y-90297000D01*
X160539192Y-85824732D02*
X165011460Y-90297000D01*
%TD*%
M02*
