%TF.GenerationSoftware,KiCad,Pcbnew,(7.0.0)*%
%TF.CreationDate,2023-04-06T13:34:31-07:00*%
%TF.ProjectId,Voltage_Sensor_Timer,566f6c74-6167-4655-9f53-656e736f725f,0*%
%TF.SameCoordinates,Original*%
%TF.FileFunction,Legend,Top*%
%TF.FilePolarity,Positive*%
%FSLAX46Y46*%
G04 Gerber Fmt 4.6, Leading zero omitted, Abs format (unit mm)*
G04 Created by KiCad (PCBNEW (7.0.0)) date 2023-04-06 13:34:31*
%MOMM*%
%LPD*%
G01*
G04 APERTURE LIST*
%ADD10C,0.150000*%
%ADD11C,0.120000*%
G04 APERTURE END LIST*
D10*
X178287428Y-94170428D02*
X178287428Y-93837095D01*
X177763619Y-93837095D02*
X178763619Y-93837095D01*
X178763619Y-93837095D02*
X178763619Y-94313285D01*
X177811238Y-95075190D02*
X177763619Y-94979952D01*
X177763619Y-94979952D02*
X177763619Y-94789476D01*
X177763619Y-94789476D02*
X177811238Y-94694238D01*
X177811238Y-94694238D02*
X177906476Y-94646619D01*
X177906476Y-94646619D02*
X178287428Y-94646619D01*
X178287428Y-94646619D02*
X178382666Y-94694238D01*
X178382666Y-94694238D02*
X178430285Y-94789476D01*
X178430285Y-94789476D02*
X178430285Y-94979952D01*
X178430285Y-94979952D02*
X178382666Y-95075190D01*
X178382666Y-95075190D02*
X178287428Y-95122809D01*
X178287428Y-95122809D02*
X178192190Y-95122809D01*
X178192190Y-95122809D02*
X178096952Y-94646619D01*
X177763619Y-95979952D02*
X178287428Y-95979952D01*
X178287428Y-95979952D02*
X178382666Y-95932333D01*
X178382666Y-95932333D02*
X178430285Y-95837095D01*
X178430285Y-95837095D02*
X178430285Y-95646619D01*
X178430285Y-95646619D02*
X178382666Y-95551381D01*
X177811238Y-95979952D02*
X177763619Y-95884714D01*
X177763619Y-95884714D02*
X177763619Y-95646619D01*
X177763619Y-95646619D02*
X177811238Y-95551381D01*
X177811238Y-95551381D02*
X177906476Y-95503762D01*
X177906476Y-95503762D02*
X178001714Y-95503762D01*
X178001714Y-95503762D02*
X178096952Y-95551381D01*
X178096952Y-95551381D02*
X178144571Y-95646619D01*
X178144571Y-95646619D02*
X178144571Y-95884714D01*
X178144571Y-95884714D02*
X178192190Y-95979952D01*
X178430285Y-96313286D02*
X178430285Y-96694238D01*
X178763619Y-96456143D02*
X177906476Y-96456143D01*
X177906476Y-96456143D02*
X177811238Y-96503762D01*
X177811238Y-96503762D02*
X177763619Y-96599000D01*
X177763619Y-96599000D02*
X177763619Y-96694238D01*
X177763619Y-97027572D02*
X178763619Y-97027572D01*
X177763619Y-97456143D02*
X178287428Y-97456143D01*
X178287428Y-97456143D02*
X178382666Y-97408524D01*
X178382666Y-97408524D02*
X178430285Y-97313286D01*
X178430285Y-97313286D02*
X178430285Y-97170429D01*
X178430285Y-97170429D02*
X178382666Y-97075191D01*
X178382666Y-97075191D02*
X178335047Y-97027572D01*
X177811238Y-98313286D02*
X177763619Y-98218048D01*
X177763619Y-98218048D02*
X177763619Y-98027572D01*
X177763619Y-98027572D02*
X177811238Y-97932334D01*
X177811238Y-97932334D02*
X177906476Y-97884715D01*
X177906476Y-97884715D02*
X178287428Y-97884715D01*
X178287428Y-97884715D02*
X178382666Y-97932334D01*
X178382666Y-97932334D02*
X178430285Y-98027572D01*
X178430285Y-98027572D02*
X178430285Y-98218048D01*
X178430285Y-98218048D02*
X178382666Y-98313286D01*
X178382666Y-98313286D02*
X178287428Y-98360905D01*
X178287428Y-98360905D02*
X178192190Y-98360905D01*
X178192190Y-98360905D02*
X178096952Y-97884715D01*
X177763619Y-98789477D02*
X178430285Y-98789477D01*
X178239809Y-98789477D02*
X178335047Y-98837096D01*
X178335047Y-98837096D02*
X178382666Y-98884715D01*
X178382666Y-98884715D02*
X178430285Y-98979953D01*
X178430285Y-98979953D02*
X178430285Y-99075191D01*
X121102428Y-108052785D02*
X121352428Y-108802785D01*
X121352428Y-108802785D02*
X121602428Y-108052785D01*
X121816714Y-108124214D02*
X121852428Y-108088500D01*
X121852428Y-108088500D02*
X121923857Y-108052785D01*
X121923857Y-108052785D02*
X122102428Y-108052785D01*
X122102428Y-108052785D02*
X122173857Y-108088500D01*
X122173857Y-108088500D02*
X122209571Y-108124214D01*
X122209571Y-108124214D02*
X122245285Y-108195642D01*
X122245285Y-108195642D02*
X122245285Y-108267071D01*
X122245285Y-108267071D02*
X122209571Y-108374214D01*
X122209571Y-108374214D02*
X121780999Y-108802785D01*
X121780999Y-108802785D02*
X122245285Y-108802785D01*
X122566714Y-108731357D02*
X122602428Y-108767071D01*
X122602428Y-108767071D02*
X122566714Y-108802785D01*
X122566714Y-108802785D02*
X122531000Y-108767071D01*
X122531000Y-108767071D02*
X122566714Y-108731357D01*
X122566714Y-108731357D02*
X122566714Y-108802785D01*
X123316714Y-108802785D02*
X122888143Y-108802785D01*
X123102428Y-108802785D02*
X123102428Y-108052785D01*
X123102428Y-108052785D02*
X123031000Y-108159928D01*
X123031000Y-108159928D02*
X122959571Y-108231357D01*
X122959571Y-108231357D02*
X122888143Y-108267071D01*
X114998428Y-108224571D02*
X114665095Y-108224571D01*
X114665095Y-108748380D02*
X114665095Y-107748380D01*
X114665095Y-107748380D02*
X115141285Y-107748380D01*
X115284143Y-108843619D02*
X116046047Y-108843619D01*
X116617476Y-108224571D02*
X116760333Y-108272190D01*
X116760333Y-108272190D02*
X116807952Y-108319809D01*
X116807952Y-108319809D02*
X116855571Y-108415047D01*
X116855571Y-108415047D02*
X116855571Y-108557904D01*
X116855571Y-108557904D02*
X116807952Y-108653142D01*
X116807952Y-108653142D02*
X116760333Y-108700761D01*
X116760333Y-108700761D02*
X116665095Y-108748380D01*
X116665095Y-108748380D02*
X116284143Y-108748380D01*
X116284143Y-108748380D02*
X116284143Y-107748380D01*
X116284143Y-107748380D02*
X116617476Y-107748380D01*
X116617476Y-107748380D02*
X116712714Y-107796000D01*
X116712714Y-107796000D02*
X116760333Y-107843619D01*
X116760333Y-107843619D02*
X116807952Y-107938857D01*
X116807952Y-107938857D02*
X116807952Y-108034095D01*
X116807952Y-108034095D02*
X116760333Y-108129333D01*
X116760333Y-108129333D02*
X116712714Y-108176952D01*
X116712714Y-108176952D02*
X116617476Y-108224571D01*
X116617476Y-108224571D02*
X116284143Y-108224571D01*
X117427000Y-108748380D02*
X117331762Y-108700761D01*
X117331762Y-108700761D02*
X117284143Y-108653142D01*
X117284143Y-108653142D02*
X117236524Y-108557904D01*
X117236524Y-108557904D02*
X117236524Y-108272190D01*
X117236524Y-108272190D02*
X117284143Y-108176952D01*
X117284143Y-108176952D02*
X117331762Y-108129333D01*
X117331762Y-108129333D02*
X117427000Y-108081714D01*
X117427000Y-108081714D02*
X117569857Y-108081714D01*
X117569857Y-108081714D02*
X117665095Y-108129333D01*
X117665095Y-108129333D02*
X117712714Y-108176952D01*
X117712714Y-108176952D02*
X117760333Y-108272190D01*
X117760333Y-108272190D02*
X117760333Y-108557904D01*
X117760333Y-108557904D02*
X117712714Y-108653142D01*
X117712714Y-108653142D02*
X117665095Y-108700761D01*
X117665095Y-108700761D02*
X117569857Y-108748380D01*
X117569857Y-108748380D02*
X117427000Y-108748380D01*
X118617476Y-108748380D02*
X118617476Y-108224571D01*
X118617476Y-108224571D02*
X118569857Y-108129333D01*
X118569857Y-108129333D02*
X118474619Y-108081714D01*
X118474619Y-108081714D02*
X118284143Y-108081714D01*
X118284143Y-108081714D02*
X118188905Y-108129333D01*
X118617476Y-108700761D02*
X118522238Y-108748380D01*
X118522238Y-108748380D02*
X118284143Y-108748380D01*
X118284143Y-108748380D02*
X118188905Y-108700761D01*
X118188905Y-108700761D02*
X118141286Y-108605523D01*
X118141286Y-108605523D02*
X118141286Y-108510285D01*
X118141286Y-108510285D02*
X118188905Y-108415047D01*
X118188905Y-108415047D02*
X118284143Y-108367428D01*
X118284143Y-108367428D02*
X118522238Y-108367428D01*
X118522238Y-108367428D02*
X118617476Y-108319809D01*
X119093667Y-108748380D02*
X119093667Y-108081714D01*
X119093667Y-108272190D02*
X119141286Y-108176952D01*
X119141286Y-108176952D02*
X119188905Y-108129333D01*
X119188905Y-108129333D02*
X119284143Y-108081714D01*
X119284143Y-108081714D02*
X119379381Y-108081714D01*
X120141286Y-108748380D02*
X120141286Y-107748380D01*
X120141286Y-108700761D02*
X120046048Y-108748380D01*
X120046048Y-108748380D02*
X119855572Y-108748380D01*
X119855572Y-108748380D02*
X119760334Y-108700761D01*
X119760334Y-108700761D02*
X119712715Y-108653142D01*
X119712715Y-108653142D02*
X119665096Y-108557904D01*
X119665096Y-108557904D02*
X119665096Y-108272190D01*
X119665096Y-108272190D02*
X119712715Y-108176952D01*
X119712715Y-108176952D02*
X119760334Y-108129333D01*
X119760334Y-108129333D02*
X119855572Y-108081714D01*
X119855572Y-108081714D02*
X120046048Y-108081714D01*
X120046048Y-108081714D02*
X120141286Y-108129333D01*
%TO.C,G\u002A\u002A\u002A*%
G36*
X116470590Y-102046064D02*
G01*
X116485692Y-102121015D01*
X116494642Y-102223824D01*
X116496533Y-102333453D01*
X116490461Y-102428865D01*
X116475519Y-102489022D01*
X116470714Y-102495679D01*
X116432542Y-102506238D01*
X116414463Y-102477797D01*
X116402748Y-102408571D01*
X116401168Y-102306604D01*
X116407947Y-102194632D01*
X116421308Y-102095390D01*
X116439473Y-102031614D01*
X116450241Y-102020011D01*
X116470590Y-102046064D01*
G37*
G36*
X116065652Y-102026313D02*
G01*
X116078187Y-102111547D01*
X116082379Y-102221862D01*
X116082379Y-102449586D01*
X116205000Y-102449586D01*
X116286048Y-102458385D01*
X116326561Y-102480023D01*
X116327620Y-102484620D01*
X116296307Y-102505514D01*
X116217081Y-102518047D01*
X116169965Y-102519655D01*
X116012310Y-102519655D01*
X116012310Y-102256896D01*
X116016657Y-102124499D01*
X116028425Y-102032217D01*
X116045702Y-101994383D01*
X116047345Y-101994138D01*
X116065652Y-102026313D01*
G37*
G36*
X115721921Y-102666627D02*
G01*
X115795493Y-102680561D01*
X115819620Y-102694827D01*
X115807217Y-102720806D01*
X115751619Y-102729862D01*
X115703437Y-102733610D01*
X115676602Y-102755417D01*
X115664877Y-102811124D01*
X115662024Y-102916575D01*
X115661965Y-102957586D01*
X115655454Y-103096537D01*
X115639371Y-103168771D01*
X115618895Y-103173700D01*
X115599202Y-103110738D01*
X115585470Y-102979295D01*
X115584809Y-102966345D01*
X115576484Y-102845391D01*
X115561760Y-102777719D01*
X115534129Y-102746542D01*
X115495552Y-102736184D01*
X115433947Y-102715116D01*
X115416724Y-102692391D01*
X115447571Y-102673439D01*
X115524416Y-102662923D01*
X115623714Y-102660700D01*
X115721921Y-102666627D01*
G37*
G36*
X115864258Y-103398275D02*
G01*
X115826308Y-103465285D01*
X115784586Y-103528129D01*
X115726929Y-103640481D01*
X115697997Y-103752258D01*
X115697000Y-103771512D01*
X115683863Y-103858929D01*
X115644448Y-103886000D01*
X115604322Y-103857380D01*
X115591896Y-103771512D01*
X115570880Y-103665242D01*
X115518020Y-103549613D01*
X115504410Y-103528276D01*
X115458643Y-103447074D01*
X115444150Y-103390741D01*
X115449979Y-103379099D01*
X115487575Y-103392643D01*
X115543700Y-103450679D01*
X115568871Y-103484988D01*
X115654706Y-103611306D01*
X115717792Y-103504510D01*
X115772619Y-103427566D01*
X115822347Y-103382109D01*
X115826525Y-103380198D01*
X115863499Y-103372843D01*
X115864258Y-103398275D01*
G37*
G36*
X116702886Y-103367316D02*
G01*
X116776459Y-103381251D01*
X116800586Y-103395517D01*
X116788182Y-103421496D01*
X116732585Y-103430551D01*
X116684403Y-103434300D01*
X116657568Y-103456107D01*
X116645842Y-103511814D01*
X116642989Y-103617265D01*
X116642931Y-103658276D01*
X116636419Y-103797226D01*
X116620337Y-103869460D01*
X116599860Y-103874390D01*
X116580167Y-103811427D01*
X116566435Y-103679985D01*
X116565775Y-103667034D01*
X116557449Y-103546081D01*
X116542726Y-103478409D01*
X116515094Y-103447231D01*
X116476517Y-103436873D01*
X116414913Y-103415806D01*
X116397689Y-103393080D01*
X116428536Y-103374129D01*
X116505381Y-103363613D01*
X116604679Y-103361390D01*
X116702886Y-103367316D01*
G37*
G36*
X116522858Y-102665754D02*
G01*
X116601538Y-102681079D01*
X116625414Y-102694827D01*
X116613010Y-102720806D01*
X116557412Y-102729862D01*
X116509230Y-102733610D01*
X116482395Y-102755417D01*
X116470670Y-102811124D01*
X116467817Y-102916575D01*
X116467758Y-102957586D01*
X116462808Y-103076585D01*
X116449695Y-103158059D01*
X116432724Y-103185310D01*
X116414416Y-103153134D01*
X116401882Y-103067900D01*
X116397689Y-102957586D01*
X116396154Y-102835171D01*
X116387487Y-102766988D01*
X116365601Y-102737205D01*
X116324408Y-102729993D01*
X116310103Y-102729862D01*
X116244263Y-102717869D01*
X116222517Y-102694827D01*
X116254175Y-102675552D01*
X116335761Y-102662827D01*
X116413139Y-102659793D01*
X116522858Y-102665754D01*
G37*
G36*
X116607896Y-102256896D02*
G01*
X116677965Y-102256896D01*
X116679916Y-102367091D01*
X116691614Y-102424452D01*
X116721831Y-102446207D01*
X116776062Y-102449586D01*
X116863600Y-102435389D01*
X116916200Y-102407545D01*
X116946353Y-102344275D01*
X116958241Y-102256896D01*
X116937064Y-102142364D01*
X116870478Y-102079932D01*
X116776062Y-102064207D01*
X116719963Y-102068038D01*
X116690761Y-102091017D01*
X116679686Y-102150371D01*
X116677965Y-102256896D01*
X116607896Y-102256896D01*
X116607896Y-101994138D01*
X116748034Y-101994138D01*
X116889316Y-102020303D01*
X116984066Y-102095311D01*
X117026535Y-102213931D01*
X117028310Y-102249101D01*
X117005735Y-102389065D01*
X116936242Y-102477424D01*
X116817176Y-102516891D01*
X116763565Y-102519655D01*
X116607896Y-102519655D01*
X116607896Y-102256896D01*
G37*
G36*
X115424841Y-102255559D02*
G01*
X115494535Y-102255559D01*
X115516630Y-102364583D01*
X115579133Y-102428389D01*
X115670978Y-102451649D01*
X115761900Y-102430656D01*
X115800204Y-102399323D01*
X115828919Y-102322006D01*
X115827195Y-102221208D01*
X115798932Y-102130140D01*
X115763733Y-102088857D01*
X115668290Y-102061242D01*
X115583068Y-102089352D01*
X115520878Y-102158890D01*
X115494535Y-102255559D01*
X115424841Y-102255559D01*
X115423822Y-102235429D01*
X115461745Y-102125128D01*
X115535772Y-102038740D01*
X115638275Y-101995810D01*
X115664508Y-101994138D01*
X115778608Y-102024064D01*
X115860870Y-102102302D01*
X115904017Y-102211539D01*
X115900772Y-102334465D01*
X115852668Y-102441790D01*
X115771479Y-102502989D01*
X115661799Y-102520516D01*
X115550383Y-102493800D01*
X115486793Y-102449586D01*
X115429629Y-102350097D01*
X115424841Y-102255559D01*
G37*
G36*
X114789641Y-102794079D02*
G01*
X114855184Y-102871850D01*
X114932028Y-102983548D01*
X115010749Y-103114508D01*
X115081926Y-103250067D01*
X115134636Y-103371522D01*
X115173954Y-103543103D01*
X115151519Y-103682469D01*
X115067160Y-103789760D01*
X114920711Y-103865119D01*
X114712001Y-103908686D01*
X114479552Y-103920839D01*
X114347923Y-103919177D01*
X114271580Y-103911235D01*
X114235774Y-103892956D01*
X114225759Y-103860282D01*
X114225552Y-103850965D01*
X114243964Y-103792905D01*
X114269345Y-103778406D01*
X114518801Y-103760214D01*
X114722875Y-103737055D01*
X114874324Y-103710052D01*
X114965908Y-103680326D01*
X114984400Y-103667683D01*
X115017595Y-103608975D01*
X115016755Y-103525915D01*
X114979497Y-103409848D01*
X114903439Y-103252116D01*
X114836953Y-103131701D01*
X114751092Y-102975616D01*
X114701677Y-102869457D01*
X114686559Y-102804667D01*
X114703589Y-102772691D01*
X114744821Y-102764896D01*
X114789641Y-102794079D01*
G37*
G36*
X115212141Y-101633084D02*
G01*
X115266318Y-101643745D01*
X115289320Y-101664002D01*
X115294103Y-101696345D01*
X115288658Y-101727944D01*
X115264119Y-101749563D01*
X115208177Y-101764199D01*
X115108525Y-101774848D01*
X114952855Y-101784510D01*
X114926241Y-101785936D01*
X114703834Y-101802341D01*
X114546599Y-101829303D01*
X114449704Y-101874292D01*
X114408320Y-101944782D01*
X114417618Y-102048244D01*
X114472767Y-102192150D01*
X114555813Y-102358983D01*
X114630148Y-102507465D01*
X114670657Y-102606305D01*
X114680659Y-102665273D01*
X114668500Y-102690663D01*
X114609397Y-102708720D01*
X114586717Y-102701515D01*
X114553232Y-102661268D01*
X114497405Y-102574533D01*
X114429109Y-102457048D01*
X114399396Y-102402905D01*
X114298210Y-102188173D01*
X114250309Y-102013284D01*
X114257853Y-101875251D01*
X114323005Y-101771087D01*
X114447926Y-101697805D01*
X114634778Y-101652417D01*
X114885722Y-101631937D01*
X114958441Y-101630362D01*
X115113834Y-101629472D01*
X115212141Y-101633084D01*
G37*
G36*
X116990588Y-102666337D02*
G01*
X117063351Y-102683004D01*
X117080862Y-102694827D01*
X117064243Y-102717089D01*
X116988031Y-102728741D01*
X116942792Y-102729862D01*
X116844702Y-102733383D01*
X116797918Y-102750773D01*
X116783771Y-102792268D01*
X116783069Y-102817448D01*
X116790718Y-102873878D01*
X116826796Y-102898960D01*
X116911003Y-102905003D01*
X116923207Y-102905034D01*
X117010961Y-102912804D01*
X117059771Y-102932215D01*
X117063345Y-102940069D01*
X117032264Y-102962007D01*
X116954620Y-102974210D01*
X116923207Y-102975103D01*
X116831523Y-102980979D01*
X116791003Y-103004728D01*
X116783069Y-103045172D01*
X116795020Y-103091280D01*
X116843152Y-103111470D01*
X116921139Y-103115241D01*
X117014426Y-103123385D01*
X117074221Y-103143612D01*
X117080862Y-103150276D01*
X117062820Y-103171280D01*
X116983139Y-103183197D01*
X116907757Y-103185310D01*
X116713000Y-103185310D01*
X116713000Y-102922551D01*
X116713000Y-102659793D01*
X116886105Y-102659793D01*
X116990588Y-102666337D01*
G37*
G36*
X117230189Y-103381736D02*
G01*
X117238517Y-103393686D01*
X117207441Y-103416770D01*
X117129808Y-103429610D01*
X117098379Y-103430551D01*
X117008091Y-103435332D01*
X116967961Y-103457881D01*
X116958291Y-103510510D01*
X116958241Y-103518138D01*
X116965741Y-103574267D01*
X117001299Y-103599424D01*
X117084502Y-103605671D01*
X117100447Y-103605724D01*
X117189242Y-103613111D01*
X117223087Y-103633077D01*
X117221000Y-103640758D01*
X117174413Y-103664451D01*
X117089514Y-103675657D01*
X117078794Y-103675793D01*
X116995153Y-103683928D01*
X116961843Y-103715533D01*
X116958241Y-103745862D01*
X116970193Y-103791970D01*
X117018324Y-103812159D01*
X117096311Y-103815931D01*
X117189599Y-103824075D01*
X117249394Y-103844302D01*
X117256034Y-103850965D01*
X117237339Y-103871379D01*
X117156154Y-103883349D01*
X117063877Y-103886000D01*
X116850068Y-103886000D01*
X116860361Y-103632000D01*
X116870655Y-103378000D01*
X117054586Y-103367410D01*
X117167799Y-103367408D01*
X117230189Y-103381736D01*
G37*
G36*
X117467127Y-103431718D02*
G01*
X117518969Y-103554558D01*
X117529541Y-103585415D01*
X117598679Y-103792830D01*
X117675325Y-103587426D01*
X117732618Y-103449484D01*
X117776430Y-103380207D01*
X117807453Y-103379737D01*
X117826380Y-103448219D01*
X117833905Y-103585796D01*
X117834103Y-103620322D01*
X117829800Y-103753799D01*
X117818133Y-103846963D01*
X117800968Y-103885669D01*
X117799069Y-103886000D01*
X117778281Y-103854571D01*
X117764739Y-103774617D01*
X117762129Y-103719586D01*
X117760224Y-103553172D01*
X117700819Y-103707933D01*
X117657663Y-103802358D01*
X117616295Y-103864514D01*
X117601028Y-103876131D01*
X117568255Y-103853446D01*
X117526345Y-103779813D01*
X117495925Y-103703852D01*
X117431207Y-103518138D01*
X117420617Y-103702069D01*
X117408727Y-103804863D01*
X117389545Y-103871621D01*
X117375289Y-103886000D01*
X117358258Y-103853204D01*
X117349777Y-103762992D01*
X117350844Y-103632000D01*
X117364300Y-103478691D01*
X117388817Y-103394038D01*
X117423417Y-103378296D01*
X117467127Y-103431718D01*
G37*
G36*
X115865281Y-102956033D02*
G01*
X115954544Y-102956033D01*
X115994735Y-102974597D01*
X116012310Y-102975103D01*
X116065391Y-102963338D01*
X116068135Y-102914964D01*
X116062870Y-102896276D01*
X116032543Y-102815853D01*
X116007740Y-102796492D01*
X115999145Y-102802850D01*
X115979639Y-102844205D01*
X115961750Y-102896276D01*
X115954544Y-102956033D01*
X115865281Y-102956033D01*
X115893647Y-102888241D01*
X115942159Y-102784982D01*
X115985487Y-102705387D01*
X116015124Y-102668391D01*
X116019030Y-102667872D01*
X116048520Y-102703369D01*
X116091618Y-102783674D01*
X116140208Y-102889487D01*
X116186175Y-103001510D01*
X116221402Y-103100444D01*
X116237775Y-103166989D01*
X116235638Y-103182957D01*
X116203847Y-103172576D01*
X116161862Y-103124000D01*
X116091916Y-103063834D01*
X116006097Y-103043523D01*
X115929439Y-103063871D01*
X115889689Y-103115241D01*
X115857722Y-103169354D01*
X115821146Y-103185477D01*
X115802195Y-103154623D01*
X115802103Y-103150644D01*
X115815111Y-103090009D01*
X115848462Y-102996229D01*
X115865281Y-102956033D01*
G37*
G36*
X116229744Y-103394400D02*
G01*
X116275263Y-103430766D01*
X116317017Y-103496496D01*
X116306569Y-103526920D01*
X116255353Y-103509468D01*
X116225339Y-103485657D01*
X116151247Y-103444307D01*
X116079658Y-103440951D01*
X116034835Y-103474032D01*
X116029827Y-103498181D01*
X116059695Y-103542051D01*
X116131867Y-103580224D01*
X116134931Y-103581233D01*
X116251144Y-103629786D01*
X116310872Y-103688109D01*
X116327620Y-103768536D01*
X116299855Y-103847948D01*
X116237754Y-103886867D01*
X116157996Y-103913377D01*
X116100016Y-103912818D01*
X116021069Y-103884908D01*
X115954983Y-103827156D01*
X115942241Y-103775419D01*
X115942241Y-103697615D01*
X116013675Y-103774290D01*
X116095378Y-103839085D01*
X116172143Y-103842045D01*
X116218864Y-103818930D01*
X116252718Y-103769132D01*
X116229162Y-103713630D01*
X116157341Y-103668634D01*
X116129198Y-103659967D01*
X116007885Y-103611936D01*
X115949458Y-103542434D01*
X115942241Y-103497563D01*
X115971229Y-103422698D01*
X116043502Y-103377601D01*
X116137020Y-103366695D01*
X116229744Y-103394400D01*
G37*
G36*
X118217151Y-103382775D02*
G01*
X118289691Y-103435546D01*
X118324294Y-103497638D01*
X118324586Y-103503123D01*
X118305949Y-103534718D01*
X118267835Y-103520748D01*
X118240947Y-103480757D01*
X118197746Y-103444614D01*
X118127416Y-103436176D01*
X118060389Y-103453035D01*
X118027096Y-103492783D01*
X118026793Y-103497701D01*
X118057068Y-103537975D01*
X118133292Y-103580983D01*
X118172676Y-103595961D01*
X118287526Y-103654301D01*
X118344712Y-103726417D01*
X118342001Y-103800892D01*
X118277159Y-103866307D01*
X118229941Y-103888683D01*
X118147010Y-103915717D01*
X118091077Y-103911391D01*
X118024670Y-103871802D01*
X118017071Y-103866496D01*
X117958663Y-103806289D01*
X117939207Y-103755285D01*
X117948707Y-103725884D01*
X117985043Y-103743884D01*
X118026446Y-103780571D01*
X118094248Y-103833942D01*
X118151694Y-103840568D01*
X118206948Y-103820035D01*
X118265804Y-103776339D01*
X118255071Y-103730361D01*
X118174583Y-103681829D01*
X118106421Y-103655939D01*
X117994892Y-103599848D01*
X117949900Y-103531512D01*
X117972898Y-103453714D01*
X117989902Y-103432602D01*
X118066995Y-103378037D01*
X118134824Y-103360482D01*
X118217151Y-103382775D01*
G37*
G36*
X117925863Y-100406372D02*
G01*
X118106558Y-100412050D01*
X118254832Y-100424454D01*
X118389467Y-100445240D01*
X118529245Y-100476063D01*
X118550206Y-100481252D01*
X119019318Y-100633606D01*
X119456687Y-100845781D01*
X119857511Y-101113059D01*
X120216985Y-101430723D01*
X120530307Y-101794056D01*
X120792671Y-102198341D01*
X120999275Y-102638861D01*
X121118163Y-103002853D01*
X121154871Y-103148638D01*
X121180384Y-103278000D01*
X121196690Y-103409995D01*
X121205774Y-103563678D01*
X121209622Y-103758106D01*
X121210222Y-103886000D01*
X121208930Y-104114562D01*
X121203041Y-104291190D01*
X121190863Y-104433955D01*
X121170704Y-104560933D01*
X121140870Y-104690195D01*
X121131628Y-104725257D01*
X120967143Y-105210803D01*
X120746595Y-105656251D01*
X120473003Y-106058605D01*
X120149381Y-106414869D01*
X119778747Y-106722049D01*
X119364118Y-106977149D01*
X118908510Y-107177173D01*
X118552310Y-107286554D01*
X118329846Y-107329831D01*
X118067044Y-107359598D01*
X117787391Y-107374949D01*
X117514372Y-107374976D01*
X117271473Y-107358774D01*
X117149165Y-107340732D01*
X116650640Y-107212041D01*
X116187300Y-107025085D01*
X115762557Y-106782388D01*
X115379825Y-106486471D01*
X115042513Y-106139857D01*
X114754034Y-105745067D01*
X114584807Y-105445034D01*
X114489685Y-105231829D01*
X114405648Y-104998235D01*
X114339107Y-104765920D01*
X114296476Y-104556550D01*
X114284091Y-104429034D01*
X114283078Y-104311615D01*
X114292269Y-104246900D01*
X114317235Y-104217678D01*
X114355692Y-104207794D01*
X114421760Y-104218743D01*
X114451132Y-104277863D01*
X114512628Y-104548714D01*
X114566309Y-104764043D01*
X114616128Y-104937403D01*
X114666037Y-105082347D01*
X114719988Y-105212427D01*
X114730110Y-105234609D01*
X114963174Y-105658001D01*
X115248889Y-106036937D01*
X115583158Y-106368060D01*
X115961881Y-106648013D01*
X116380962Y-106873439D01*
X116836302Y-107040982D01*
X116983665Y-107080516D01*
X117320427Y-107138425D01*
X117690149Y-107159257D01*
X118066523Y-107143316D01*
X118423245Y-107090904D01*
X118544188Y-107062537D01*
X118885887Y-106950974D01*
X119232393Y-106798578D01*
X119550012Y-106620565D01*
X119610250Y-106581107D01*
X119703744Y-106509222D01*
X119827725Y-106401743D01*
X119964799Y-106274232D01*
X120076310Y-106164074D01*
X120381819Y-105806167D01*
X120625949Y-105422267D01*
X120809722Y-105018254D01*
X120934157Y-104600008D01*
X121000277Y-104173408D01*
X121009103Y-103744335D01*
X120961655Y-103318669D01*
X120858955Y-102902290D01*
X120702023Y-102501077D01*
X120491882Y-102120911D01*
X120229551Y-101767672D01*
X119916052Y-101447239D01*
X119552407Y-101165494D01*
X119169656Y-100943118D01*
X118762470Y-100776639D01*
X118327956Y-100666187D01*
X117879755Y-100612954D01*
X117431506Y-100618131D01*
X116996852Y-100682908D01*
X116795906Y-100735870D01*
X116561055Y-100820367D01*
X116307749Y-100933226D01*
X116058916Y-101062706D01*
X115837482Y-101197071D01*
X115698499Y-101297741D01*
X115593711Y-101378908D01*
X115508143Y-101439192D01*
X115457469Y-101467693D01*
X115452815Y-101468620D01*
X115400457Y-101439834D01*
X115376160Y-101371984D01*
X115386913Y-101292832D01*
X115401675Y-101265521D01*
X115467527Y-101198888D01*
X115581944Y-101110196D01*
X115730710Y-101008501D01*
X115899609Y-100902861D01*
X116074426Y-100802333D01*
X116240944Y-100715974D01*
X116324779Y-100677391D01*
X116576911Y-100574922D01*
X116802272Y-100500974D01*
X117022149Y-100451325D01*
X117257826Y-100421753D01*
X117530591Y-100408033D01*
X117693965Y-100405764D01*
X117925863Y-100406372D01*
G37*
G36*
X118636406Y-103673512D02*
G01*
X118788624Y-103673512D01*
X118793416Y-103675793D01*
X118825388Y-103651129D01*
X118832586Y-103640758D01*
X118841513Y-103608005D01*
X118836721Y-103605724D01*
X118804749Y-103630387D01*
X118797552Y-103640758D01*
X118788624Y-103673512D01*
X118636406Y-103673512D01*
X118694846Y-103613335D01*
X118840087Y-103511318D01*
X118979742Y-103463417D01*
X119117042Y-103467135D01*
X119255215Y-103519973D01*
X119337457Y-103572450D01*
X119469696Y-103690705D01*
X119615321Y-103864596D01*
X119776671Y-104097348D01*
X119956086Y-104392184D01*
X120040579Y-104541018D01*
X120271153Y-104954551D01*
X120418973Y-104965324D01*
X120524925Y-104983656D01*
X120566012Y-105019252D01*
X120566793Y-105026635D01*
X120558573Y-105039541D01*
X120529859Y-105050104D01*
X120474570Y-105058548D01*
X120386626Y-105065095D01*
X120259944Y-105069968D01*
X120088446Y-105073389D01*
X119866049Y-105075580D01*
X119586672Y-105076765D01*
X119244236Y-105077166D01*
X119186178Y-105077172D01*
X117805563Y-105077172D01*
X117520818Y-105583686D01*
X117325137Y-105911475D01*
X117144070Y-106172822D01*
X116978029Y-106367210D01*
X116827428Y-106494120D01*
X116769250Y-106527000D01*
X116640894Y-106573642D01*
X116528652Y-106573439D01*
X116414017Y-106534605D01*
X116301486Y-106470508D01*
X116290385Y-106461034D01*
X116467758Y-106461034D01*
X116485276Y-106478551D01*
X116502793Y-106461034D01*
X116485276Y-106443517D01*
X116467758Y-106461034D01*
X116290385Y-106461034D01*
X116249336Y-106426000D01*
X116748034Y-106426000D01*
X116765552Y-106443517D01*
X116783069Y-106426000D01*
X116765552Y-106408482D01*
X116748034Y-106426000D01*
X116249336Y-106426000D01*
X116186714Y-106372554D01*
X116064630Y-106234437D01*
X115930160Y-106049847D01*
X115778232Y-105812478D01*
X115625605Y-105554120D01*
X115364659Y-105100150D01*
X115451758Y-105100150D01*
X115468373Y-105136964D01*
X115514179Y-105223297D01*
X115583122Y-105348112D01*
X115669147Y-105500370D01*
X115719364Y-105588017D01*
X115843616Y-105795294D01*
X115967164Y-105985896D01*
X116083541Y-106151139D01*
X116186282Y-106282341D01*
X116268920Y-106370819D01*
X116324990Y-106407889D01*
X116330337Y-106408482D01*
X116341001Y-106374982D01*
X116348052Y-106301098D01*
X116931796Y-106301098D01*
X116936589Y-106303379D01*
X116968561Y-106278715D01*
X116975758Y-106268345D01*
X116984686Y-106235591D01*
X116979894Y-106233310D01*
X116947922Y-106257974D01*
X116940724Y-106268345D01*
X116931796Y-106301098D01*
X116348052Y-106301098D01*
X116350009Y-106280596D01*
X116356916Y-106134498D01*
X116361276Y-105945862D01*
X116362655Y-105742827D01*
X116362655Y-105550138D01*
X117413689Y-105550138D01*
X117431207Y-105567655D01*
X117448724Y-105550138D01*
X117431207Y-105532620D01*
X117413689Y-105550138D01*
X116362655Y-105550138D01*
X116362655Y-105129724D01*
X116432724Y-105129724D01*
X116450241Y-105147241D01*
X116467758Y-105129724D01*
X117658931Y-105129724D01*
X117676448Y-105147241D01*
X117693965Y-105129724D01*
X117676448Y-105112207D01*
X117658931Y-105129724D01*
X116467758Y-105129724D01*
X116450241Y-105112207D01*
X116432724Y-105129724D01*
X116362655Y-105129724D01*
X116362655Y-105077172D01*
X115907207Y-105077172D01*
X115737781Y-105078830D01*
X115596933Y-105083367D01*
X115497670Y-105090126D01*
X115453000Y-105098451D01*
X115451758Y-105100150D01*
X115364659Y-105100150D01*
X115361520Y-105094689D01*
X115195573Y-105077172D01*
X115096796Y-105060211D01*
X115033244Y-105036899D01*
X115021726Y-105024620D01*
X115054123Y-105014586D01*
X115155073Y-105005650D01*
X115323068Y-104997863D01*
X115556602Y-104991271D01*
X115854166Y-104985922D01*
X116214252Y-104981866D01*
X116403465Y-104980428D01*
X117326046Y-104974348D01*
X117862691Y-104974348D01*
X118277570Y-104964450D01*
X118692448Y-104954551D01*
X118692987Y-104919517D01*
X118780034Y-104919517D01*
X118797552Y-104937034D01*
X118815069Y-104919517D01*
X120111345Y-104919517D01*
X120128862Y-104937034D01*
X120146379Y-104919517D01*
X120128862Y-104902000D01*
X120111345Y-104919517D01*
X118815069Y-104919517D01*
X118797552Y-104902000D01*
X118780034Y-104919517D01*
X118692987Y-104919517D01*
X118702015Y-104332689D01*
X118703646Y-104132826D01*
X118702954Y-104043655D01*
X119620862Y-104043655D01*
X119638379Y-104061172D01*
X119655896Y-104043655D01*
X119638379Y-104026138D01*
X119620862Y-104043655D01*
X118702954Y-104043655D01*
X118702302Y-103959729D01*
X118700636Y-103903517D01*
X119515758Y-103903517D01*
X119533276Y-103921034D01*
X119550793Y-103903517D01*
X119533276Y-103886000D01*
X119515758Y-103903517D01*
X118700636Y-103903517D01*
X118698295Y-103824505D01*
X118691938Y-103738262D01*
X118684498Y-103711700D01*
X118640637Y-103742272D01*
X118568391Y-103827405D01*
X118472544Y-103959939D01*
X118357880Y-104132715D01*
X118229183Y-104338573D01*
X118091236Y-104570352D01*
X117976238Y-104771760D01*
X117862691Y-104974348D01*
X117326046Y-104974348D01*
X117793103Y-104971270D01*
X117993441Y-104612566D01*
X118193317Y-104269086D01*
X118374690Y-103989720D01*
X118540790Y-103771970D01*
X118636406Y-103673512D01*
G37*
D11*
%TO.C,ESP1*%
X128789192Y-107524732D02*
X174509192Y-107524732D01*
X126139192Y-87094732D02*
X126139192Y-104874732D01*
X177159192Y-87094732D02*
X177159192Y-104874732D01*
X128789192Y-84444732D02*
X174509192Y-84444732D01*
X126139192Y-104874732D02*
G75*
G03*
X128789192Y-107524732I2650000J0D01*
G01*
X174509192Y-107524732D02*
G75*
G03*
X177159192Y-104874732I0J2650000D01*
G01*
X128789192Y-84444732D02*
G75*
G03*
X126139192Y-87094732I-2J-2649998D01*
G01*
X177159198Y-87094732D02*
G75*
G03*
X174509192Y-84444732I-2650018J-18D01*
G01*
%TD*%
M02*
