%TF.GenerationSoftware,KiCad,Pcbnew,(7.0.0)*%
%TF.CreationDate,2023-04-06T13:36:02-07:00*%
%TF.ProjectId,Bottom_Board,426f7474-6f6d-45f4-926f-6172642e6b69,0*%
%TF.SameCoordinates,Original*%
%TF.FileFunction,Copper,L1,Top*%
%TF.FilePolarity,Positive*%
%FSLAX46Y46*%
G04 Gerber Fmt 4.6, Leading zero omitted, Abs format (unit mm)*
G04 Created by KiCad (PCBNEW (7.0.0)) date 2023-04-06 13:36:02*
%MOMM*%
%LPD*%
G01*
G04 APERTURE LIST*
G04 Aperture macros list*
%AMRoundRect*
0 Rectangle with rounded corners*
0 $1 Rounding radius*
0 $2 $3 $4 $5 $6 $7 $8 $9 X,Y pos of 4 corners*
0 Add a 4 corners polygon primitive as box body*
4,1,4,$2,$3,$4,$5,$6,$7,$8,$9,$2,$3,0*
0 Add four circle primitives for the rounded corners*
1,1,$1+$1,$2,$3*
1,1,$1+$1,$4,$5*
1,1,$1+$1,$6,$7*
1,1,$1+$1,$8,$9*
0 Add four rect primitives between the rounded corners*
20,1,$1+$1,$2,$3,$4,$5,0*
20,1,$1+$1,$4,$5,$6,$7,0*
20,1,$1+$1,$6,$7,$8,$9,0*
20,1,$1+$1,$8,$9,$2,$3,0*%
G04 Aperture macros list end*
%TA.AperFunction,ComponentPad*%
%ADD10C,1.700000*%
%TD*%
%TA.AperFunction,ComponentPad*%
%ADD11O,1.700000X1.700000*%
%TD*%
%TA.AperFunction,ComponentPad*%
%ADD12C,2.880000*%
%TD*%
%TA.AperFunction,ComponentPad*%
%ADD13R,3.500000X3.500000*%
%TD*%
%TA.AperFunction,ComponentPad*%
%ADD14RoundRect,0.750000X0.750000X1.000000X-0.750000X1.000000X-0.750000X-1.000000X0.750000X-1.000000X0*%
%TD*%
%TA.AperFunction,ComponentPad*%
%ADD15RoundRect,0.875000X0.875000X0.875000X-0.875000X0.875000X-0.875000X-0.875000X0.875000X-0.875000X0*%
%TD*%
%TA.AperFunction,ViaPad*%
%ADD16C,0.800000*%
%TD*%
%TA.AperFunction,Conductor*%
%ADD17C,0.250000*%
%TD*%
G04 APERTURE END LIST*
D10*
%TO.P,J1,1,Pin_1*%
%TO.N,AN1*%
X136961000Y-68326000D03*
D11*
%TO.P,J1,2,Pin_2*%
%TO.N,AN0*%
X134420999Y-68325999D03*
%TO.P,J1,3,Pin_3*%
%TO.N,AN2*%
X136960999Y-70865999D03*
%TO.P,J1,4,Pin_4*%
%TO.N,GND*%
X134420999Y-70865999D03*
%TO.P,J1,5,Pin_5*%
%TO.N,AN3*%
X136960999Y-73405999D03*
%TO.P,J1,6,Pin_6*%
%TO.N,VBUS*%
X134420999Y-73405999D03*
%TD*%
D10*
%TO.P,J2,1,Pin_1*%
%TO.N,D5*%
X136961000Y-137160000D03*
D11*
%TO.P,J2,2,Pin_2*%
%TO.N,A0*%
X134420999Y-137159999D03*
%TO.P,J2,3,Pin_3*%
%TO.N,D6*%
X136960999Y-139699999D03*
%TO.P,J2,4,Pin_4*%
%TO.N,A2*%
X134420999Y-139699999D03*
%TO.P,J2,5,Pin_5*%
%TO.N,D9*%
X136960999Y-142239999D03*
%TO.P,J2,6,Pin_6*%
%TO.N,A1*%
X134420999Y-142239999D03*
%TD*%
D12*
%TO.P,J3,1,Pin_1*%
%TO.N,GND*%
X166082000Y-127000000D03*
%TO.P,J3,2,Pin_2*%
%TO.N,VBUS*%
X166082000Y-121920000D03*
%TO.P,J3,3,Pin_3*%
%TO.N,D9*%
X166082000Y-116840000D03*
%TO.P,J3,4,Pin_4*%
%TO.N,D6*%
X166082000Y-111760000D03*
%TO.P,J3,5,Pin_5*%
%TO.N,D5*%
X166082000Y-106680000D03*
%TO.P,J3,6,Pin_6*%
%TO.N,A2*%
X166082000Y-101600000D03*
%TO.P,J3,7,Pin_7*%
%TO.N,A1*%
X166082000Y-96520000D03*
%TO.P,J3,8,Pin_8*%
%TO.N,A0*%
X166082000Y-91440000D03*
%TO.P,J3,9,Pin_9*%
%TO.N,AN3*%
X166082000Y-86360000D03*
%TO.P,J3,10,Pin_10*%
%TO.N,AN2*%
X166082000Y-81280000D03*
%TO.P,J3,11,Pin_11*%
%TO.N,AN1*%
X166082000Y-76200000D03*
%TO.P,J3,12,Pin_12*%
%TO.N,AN0*%
X166082000Y-71120000D03*
%TD*%
D13*
%TO.P,J4,1*%
%TO.N,VBUS*%
X162367999Y-138879499D03*
D14*
%TO.P,J4,2*%
%TO.N,GND*%
X168368000Y-138879500D03*
D15*
%TO.P,J4,3*%
X165368000Y-134179500D03*
%TD*%
D16*
%TO.N,A1*%
X158242000Y-127381000D03*
%TD*%
D17*
%TO.N,AN3*%
X136961000Y-73406000D02*
X153128000Y-73406000D01*
X153128000Y-73406000D02*
X166082000Y-86360000D01*
%TO.N,GND*%
X168368000Y-138879500D02*
X168368000Y-137179500D01*
X168368000Y-138879500D02*
X169164000Y-138083500D01*
X166082000Y-127000000D02*
X166082000Y-133465500D01*
X169164000Y-130082000D02*
X166082000Y-127000000D01*
X169164000Y-138083500D02*
X169164000Y-130082000D01*
X168368000Y-137179500D02*
X165368000Y-134179500D01*
X166082000Y-133465500D02*
X165368000Y-134179500D01*
%TO.N,AN2*%
X155668000Y-70866000D02*
X166082000Y-81280000D01*
X136961000Y-70866000D02*
X155668000Y-70866000D01*
%TO.N,AN0*%
X135636000Y-65278000D02*
X160240000Y-65278000D01*
X160240000Y-65278000D02*
X166082000Y-71120000D01*
X134421000Y-66493000D02*
X135636000Y-65278000D01*
X134421000Y-68326000D02*
X134421000Y-66493000D01*
%TO.N,AN1*%
X158208000Y-68326000D02*
X166082000Y-76200000D01*
X136961000Y-68326000D02*
X158208000Y-68326000D01*
%TO.N,A1*%
X134421000Y-142240000D02*
X134421000Y-144073000D01*
X135001000Y-144653000D02*
X140970000Y-144653000D01*
X140970000Y-144653000D02*
X158242000Y-127381000D01*
X134421000Y-144073000D02*
X135001000Y-144653000D01*
%TO.N,D9*%
X166082000Y-116840000D02*
X162361000Y-116840000D01*
X162361000Y-116840000D02*
X136961000Y-142240000D01*
%TO.N,D6*%
X166082000Y-111760000D02*
X138142000Y-139700000D01*
X138142000Y-139700000D02*
X136961000Y-139700000D01*
%TO.N,A0*%
X138049000Y-131191000D02*
X134421000Y-134819000D01*
X166082000Y-91440000D02*
X138049000Y-119473000D01*
X138049000Y-119473000D02*
X138049000Y-131191000D01*
X134421000Y-134819000D02*
X134421000Y-137160000D01*
%TO.N,D5*%
X166082000Y-106680000D02*
X136961000Y-135801000D01*
X136961000Y-135801000D02*
X136961000Y-137160000D01*
%TO.N,VBUS*%
X162368000Y-125634000D02*
X162368000Y-138879500D01*
X166082000Y-121920000D02*
X162368000Y-125634000D01*
%TD*%
%TA.AperFunction,Conductor*%
%TO.N,GND*%
G36*
X174687500Y-63017113D02*
G01*
X174732887Y-63062500D01*
X174749500Y-63124500D01*
X174749500Y-147375500D01*
X174732887Y-147437500D01*
X174687500Y-147482887D01*
X174625500Y-147499500D01*
X100124500Y-147499500D01*
X100062500Y-147482887D01*
X100017113Y-147437500D01*
X100000500Y-147375500D01*
X100000500Y-142240000D01*
X133065341Y-142240000D01*
X133085937Y-142475408D01*
X133087336Y-142480630D01*
X133087337Y-142480634D01*
X133145694Y-142698430D01*
X133145697Y-142698438D01*
X133147097Y-142703663D01*
X133149385Y-142708570D01*
X133149386Y-142708572D01*
X133244678Y-142912927D01*
X133244681Y-142912933D01*
X133246965Y-142917830D01*
X133250064Y-142922257D01*
X133250066Y-142922259D01*
X133379399Y-143106966D01*
X133379402Y-143106970D01*
X133382505Y-143111401D01*
X133549599Y-143278495D01*
X133554031Y-143281598D01*
X133554033Y-143281600D01*
X133742624Y-143413653D01*
X133781489Y-143457971D01*
X133795500Y-143515228D01*
X133795500Y-143995225D01*
X133794978Y-144006280D01*
X133793327Y-144013667D01*
X133793571Y-144021453D01*
X133793571Y-144021461D01*
X133795439Y-144080873D01*
X133795500Y-144084768D01*
X133795500Y-144112350D01*
X133795988Y-144116219D01*
X133795989Y-144116225D01*
X133796004Y-144116343D01*
X133796918Y-144127966D01*
X133798045Y-144163830D01*
X133798046Y-144163837D01*
X133798291Y-144171627D01*
X133800467Y-144179119D01*
X133800468Y-144179121D01*
X133803879Y-144190862D01*
X133807825Y-144209915D01*
X133810336Y-144229792D01*
X133813206Y-144237042D01*
X133813208Y-144237048D01*
X133826414Y-144270404D01*
X133830197Y-144281451D01*
X133842382Y-144323390D01*
X133846353Y-144330105D01*
X133846354Y-144330107D01*
X133852581Y-144340637D01*
X133861136Y-144358099D01*
X133865642Y-144369480D01*
X133865643Y-144369483D01*
X133868514Y-144376732D01*
X133890440Y-144406912D01*
X133894181Y-144412060D01*
X133900593Y-144421822D01*
X133918856Y-144452702D01*
X133918859Y-144452707D01*
X133922830Y-144459420D01*
X133928344Y-144464934D01*
X133928345Y-144464935D01*
X133936990Y-144473580D01*
X133949626Y-144488374D01*
X133956819Y-144498275D01*
X133956823Y-144498279D01*
X133961406Y-144504587D01*
X133967415Y-144509558D01*
X133967416Y-144509559D01*
X133995058Y-144532426D01*
X134003699Y-144540289D01*
X134503707Y-145040298D01*
X134511159Y-145048487D01*
X134515214Y-145054877D01*
X134564223Y-145100900D01*
X134567020Y-145103611D01*
X134586529Y-145123120D01*
X134589709Y-145125587D01*
X134598571Y-145133155D01*
X134611880Y-145145654D01*
X134624732Y-145157723D01*
X134624734Y-145157724D01*
X134630418Y-145163062D01*
X134637251Y-145166818D01*
X134637252Y-145166819D01*
X134647973Y-145172713D01*
X134664234Y-145183394D01*
X134680064Y-145195673D01*
X134720154Y-145213021D01*
X134730631Y-145218154D01*
X134768908Y-145239197D01*
X134785957Y-145243574D01*
X134788305Y-145244177D01*
X134806719Y-145250481D01*
X134825104Y-145258438D01*
X134868265Y-145265273D01*
X134879664Y-145267634D01*
X134921981Y-145278500D01*
X134942017Y-145278500D01*
X134961402Y-145280025D01*
X134981196Y-145283160D01*
X135019276Y-145279560D01*
X135024676Y-145279050D01*
X135036345Y-145278500D01*
X140892225Y-145278500D01*
X140903280Y-145279021D01*
X140910667Y-145280673D01*
X140977872Y-145278561D01*
X140981768Y-145278500D01*
X141005448Y-145278500D01*
X141009350Y-145278500D01*
X141013313Y-145277999D01*
X141024963Y-145277080D01*
X141068627Y-145275709D01*
X141087861Y-145270119D01*
X141106917Y-145266174D01*
X141126792Y-145263664D01*
X141167395Y-145247587D01*
X141178450Y-145243802D01*
X141220390Y-145231618D01*
X141237629Y-145221422D01*
X141255103Y-145212862D01*
X141266474Y-145208360D01*
X141266476Y-145208358D01*
X141273732Y-145205486D01*
X141309069Y-145179811D01*
X141318824Y-145173403D01*
X141356420Y-145151170D01*
X141370584Y-145137005D01*
X141385379Y-145124368D01*
X141401587Y-145112594D01*
X141429428Y-145078938D01*
X141437279Y-145070309D01*
X145833510Y-140674078D01*
X160117500Y-140674078D01*
X160117501Y-140677372D01*
X160117853Y-140680650D01*
X160117854Y-140680661D01*
X160123079Y-140729268D01*
X160123080Y-140729273D01*
X160123909Y-140736983D01*
X160126619Y-140744249D01*
X160126620Y-140744253D01*
X160160217Y-140834331D01*
X160174204Y-140871831D01*
X160260454Y-140987046D01*
X160375669Y-141073296D01*
X160510517Y-141123591D01*
X160570127Y-141130000D01*
X164165872Y-141129999D01*
X164225483Y-141123591D01*
X164360331Y-141073296D01*
X164475546Y-140987046D01*
X164561796Y-140871831D01*
X164612091Y-140736983D01*
X164618500Y-140677373D01*
X164618500Y-139941244D01*
X166368001Y-139941244D01*
X166368192Y-139946125D01*
X166377990Y-140070629D01*
X166379674Y-140080892D01*
X166432017Y-140288620D01*
X166435679Y-140299085D01*
X166524126Y-140493806D01*
X166529603Y-140503458D01*
X166651390Y-140679249D01*
X166658508Y-140687774D01*
X166809725Y-140838991D01*
X166818250Y-140846109D01*
X166994041Y-140967896D01*
X167003693Y-140973373D01*
X167198414Y-141061820D01*
X167208879Y-141065482D01*
X167416608Y-141117825D01*
X167426869Y-141119509D01*
X167551374Y-141129308D01*
X167556254Y-141129500D01*
X168101674Y-141129500D01*
X168114549Y-141126049D01*
X168118000Y-141113174D01*
X168118000Y-141113173D01*
X168618000Y-141113173D01*
X168621450Y-141126048D01*
X168634326Y-141129499D01*
X169179744Y-141129499D01*
X169184625Y-141129307D01*
X169309129Y-141119509D01*
X169319392Y-141117825D01*
X169527120Y-141065482D01*
X169537585Y-141061820D01*
X169732306Y-140973373D01*
X169741958Y-140967896D01*
X169917749Y-140846109D01*
X169926274Y-140838991D01*
X170077491Y-140687774D01*
X170084609Y-140679249D01*
X170206396Y-140503458D01*
X170211873Y-140493806D01*
X170300320Y-140299085D01*
X170303982Y-140288620D01*
X170356325Y-140080891D01*
X170358009Y-140070630D01*
X170367808Y-139946125D01*
X170368000Y-139941246D01*
X170368000Y-139145826D01*
X170364549Y-139132950D01*
X170351674Y-139129500D01*
X168634326Y-139129500D01*
X168621450Y-139132950D01*
X168618000Y-139145826D01*
X168618000Y-141113173D01*
X168118000Y-141113173D01*
X168118000Y-139145826D01*
X168114549Y-139132950D01*
X168101674Y-139129500D01*
X166384327Y-139129500D01*
X166371451Y-139132950D01*
X166368001Y-139145826D01*
X166368001Y-139941244D01*
X164618500Y-139941244D01*
X164618499Y-138613174D01*
X166368000Y-138613174D01*
X166371450Y-138626049D01*
X166384326Y-138629500D01*
X168101674Y-138629500D01*
X168114549Y-138626049D01*
X168118000Y-138613174D01*
X168618000Y-138613174D01*
X168621450Y-138626049D01*
X168634326Y-138629500D01*
X170351673Y-138629500D01*
X170364548Y-138626049D01*
X170367999Y-138613174D01*
X170367999Y-137817756D01*
X170367807Y-137812874D01*
X170358009Y-137688370D01*
X170356325Y-137678107D01*
X170303982Y-137470379D01*
X170300320Y-137459914D01*
X170211873Y-137265193D01*
X170206396Y-137255541D01*
X170084609Y-137079750D01*
X170077491Y-137071225D01*
X169926274Y-136920008D01*
X169917749Y-136912890D01*
X169741958Y-136791103D01*
X169732306Y-136785626D01*
X169537585Y-136697179D01*
X169527120Y-136693517D01*
X169319391Y-136641174D01*
X169309130Y-136639490D01*
X169184625Y-136629691D01*
X169179746Y-136629500D01*
X168634326Y-136629500D01*
X168621450Y-136632950D01*
X168618000Y-136645826D01*
X168618000Y-138613174D01*
X168118000Y-138613174D01*
X168118000Y-136645827D01*
X168114549Y-136632951D01*
X168101674Y-136629501D01*
X167556256Y-136629501D01*
X167551374Y-136629692D01*
X167426870Y-136639490D01*
X167416607Y-136641174D01*
X167208879Y-136693517D01*
X167198414Y-136697179D01*
X167003693Y-136785626D01*
X166994041Y-136791103D01*
X166818250Y-136912890D01*
X166809725Y-136920008D01*
X166658508Y-137071225D01*
X166651390Y-137079750D01*
X166529603Y-137255541D01*
X166524126Y-137265193D01*
X166435679Y-137459914D01*
X166432017Y-137470379D01*
X166379674Y-137678108D01*
X166377990Y-137688369D01*
X166368191Y-137812874D01*
X166368000Y-137817754D01*
X166368000Y-138613174D01*
X164618499Y-138613174D01*
X164618499Y-137081628D01*
X164612091Y-137022017D01*
X164561796Y-136887169D01*
X164475546Y-136771954D01*
X164360331Y-136685704D01*
X164352023Y-136682605D01*
X164352017Y-136682602D01*
X164311489Y-136667486D01*
X164255829Y-136625978D01*
X164231208Y-136561056D01*
X164245346Y-136493077D01*
X164293810Y-136443355D01*
X164361404Y-136427480D01*
X164397770Y-136429412D01*
X164401057Y-136429500D01*
X165101674Y-136429500D01*
X165114549Y-136426049D01*
X165118000Y-136413174D01*
X165118000Y-136413173D01*
X165618000Y-136413173D01*
X165621450Y-136426048D01*
X165634326Y-136429499D01*
X166334931Y-136429499D01*
X166338230Y-136429411D01*
X166384923Y-136426932D01*
X166393383Y-136425894D01*
X166613815Y-136383262D01*
X166623918Y-136380401D01*
X166833046Y-136301480D01*
X166842515Y-136296955D01*
X167035303Y-136183823D01*
X167043867Y-136177766D01*
X167214758Y-136033683D01*
X167222183Y-136026258D01*
X167366266Y-135855367D01*
X167372323Y-135846803D01*
X167485455Y-135654015D01*
X167489980Y-135644546D01*
X167568901Y-135435418D01*
X167571762Y-135425315D01*
X167614392Y-135204891D01*
X167615433Y-135196408D01*
X167617912Y-135149737D01*
X167618000Y-135146443D01*
X167618000Y-134445826D01*
X167614549Y-134432950D01*
X167601674Y-134429500D01*
X165634326Y-134429500D01*
X165621450Y-134432950D01*
X165618000Y-134445826D01*
X165618000Y-136413173D01*
X165118000Y-136413173D01*
X165118000Y-133913174D01*
X165618000Y-133913174D01*
X165621450Y-133926049D01*
X165634326Y-133929500D01*
X167601673Y-133929500D01*
X167614548Y-133926049D01*
X167617999Y-133913174D01*
X167617999Y-133212569D01*
X167617911Y-133209269D01*
X167615432Y-133162576D01*
X167614394Y-133154116D01*
X167571762Y-132933684D01*
X167568901Y-132923581D01*
X167489980Y-132714453D01*
X167485455Y-132704984D01*
X167372323Y-132512196D01*
X167366266Y-132503632D01*
X167222183Y-132332741D01*
X167214758Y-132325316D01*
X167043867Y-132181233D01*
X167035303Y-132175176D01*
X166842515Y-132062044D01*
X166833046Y-132057519D01*
X166623918Y-131978598D01*
X166613815Y-131975737D01*
X166393391Y-131933107D01*
X166384908Y-131932066D01*
X166338237Y-131929587D01*
X166334943Y-131929500D01*
X165634326Y-131929500D01*
X165621450Y-131932950D01*
X165618000Y-131945826D01*
X165618000Y-133913174D01*
X165118000Y-133913174D01*
X165118000Y-131945827D01*
X165114549Y-131932951D01*
X165101674Y-131929501D01*
X164401069Y-131929501D01*
X164397769Y-131929588D01*
X164351076Y-131932067D01*
X164342616Y-131933105D01*
X164122184Y-131975737D01*
X164112081Y-131978598D01*
X163902953Y-132057519D01*
X163893484Y-132062044D01*
X163700696Y-132175176D01*
X163692132Y-132181233D01*
X163521241Y-132325316D01*
X163513816Y-132332741D01*
X163369733Y-132503632D01*
X163363676Y-132512196D01*
X163250544Y-132704984D01*
X163246019Y-132714453D01*
X163233514Y-132747591D01*
X163192917Y-132802239D01*
X163129589Y-132827219D01*
X163062617Y-132815003D01*
X163012187Y-132769272D01*
X162993500Y-132703810D01*
X162993500Y-128536826D01*
X164904254Y-128536826D01*
X164912572Y-128547937D01*
X165026927Y-128633543D01*
X165034370Y-128638327D01*
X165270146Y-128767070D01*
X165278184Y-128770741D01*
X165529899Y-128864626D01*
X165538368Y-128867112D01*
X165800870Y-128924216D01*
X165809626Y-128925475D01*
X166077582Y-128944640D01*
X166086418Y-128944640D01*
X166354373Y-128925475D01*
X166363129Y-128924216D01*
X166625631Y-128867112D01*
X166634100Y-128864626D01*
X166885815Y-128770741D01*
X166893853Y-128767070D01*
X167129629Y-128638327D01*
X167137072Y-128633543D01*
X167251426Y-128547938D01*
X167259744Y-128536826D01*
X167253092Y-128524645D01*
X166093542Y-127365095D01*
X166082000Y-127358431D01*
X166070457Y-127365095D01*
X164910906Y-128524645D01*
X164904254Y-128536826D01*
X162993500Y-128536826D01*
X162993500Y-127004418D01*
X164137360Y-127004418D01*
X164156524Y-127272373D01*
X164157783Y-127281129D01*
X164214887Y-127543631D01*
X164217373Y-127552100D01*
X164311258Y-127803815D01*
X164314929Y-127811853D01*
X164443672Y-128047629D01*
X164448456Y-128055072D01*
X164534061Y-128169426D01*
X164545172Y-128177744D01*
X164557353Y-128171092D01*
X165716904Y-127011542D01*
X165723568Y-127000000D01*
X166440431Y-127000000D01*
X166447095Y-127011542D01*
X167606645Y-128171092D01*
X167618826Y-128177744D01*
X167629938Y-128169426D01*
X167715543Y-128055072D01*
X167720327Y-128047629D01*
X167849070Y-127811853D01*
X167852741Y-127803815D01*
X167946626Y-127552100D01*
X167949112Y-127543631D01*
X168006216Y-127281129D01*
X168007475Y-127272373D01*
X168026640Y-127004418D01*
X168026640Y-126995582D01*
X168007475Y-126727626D01*
X168006216Y-126718870D01*
X167949112Y-126456368D01*
X167946626Y-126447899D01*
X167852741Y-126196184D01*
X167849070Y-126188146D01*
X167720327Y-125952370D01*
X167715543Y-125944927D01*
X167629937Y-125830572D01*
X167618826Y-125822254D01*
X167606645Y-125828906D01*
X166447095Y-126988457D01*
X166440431Y-127000000D01*
X165723568Y-127000000D01*
X165716904Y-126988457D01*
X164554171Y-125825724D01*
X164544998Y-125819829D01*
X164536757Y-125826970D01*
X164448459Y-125944923D01*
X164443672Y-125952371D01*
X164314929Y-126188146D01*
X164311258Y-126196184D01*
X164217373Y-126447899D01*
X164214887Y-126456368D01*
X164157783Y-126718870D01*
X164156524Y-126727626D01*
X164137360Y-126995582D01*
X164137360Y-127004418D01*
X162993500Y-127004418D01*
X162993500Y-125944452D01*
X163002939Y-125896999D01*
X163029819Y-125856771D01*
X163423592Y-125462998D01*
X164901829Y-125462998D01*
X164907724Y-125472171D01*
X166070457Y-126634904D01*
X166082000Y-126641568D01*
X166093542Y-126634904D01*
X167253092Y-125475353D01*
X167259744Y-125463172D01*
X167251426Y-125452061D01*
X167137072Y-125366456D01*
X167129629Y-125361672D01*
X166893853Y-125232929D01*
X166885815Y-125229258D01*
X166634100Y-125135373D01*
X166625631Y-125132887D01*
X166363129Y-125075783D01*
X166354373Y-125074524D01*
X166086418Y-125055360D01*
X166077582Y-125055360D01*
X165809626Y-125074524D01*
X165800870Y-125075783D01*
X165538368Y-125132887D01*
X165529899Y-125135373D01*
X165278184Y-125229258D01*
X165270146Y-125232929D01*
X165034371Y-125361672D01*
X165026923Y-125366459D01*
X164908970Y-125454757D01*
X164901829Y-125462998D01*
X163423592Y-125462998D01*
X163831230Y-125055360D01*
X165161479Y-123725110D01*
X165222800Y-123691627D01*
X165292491Y-123696611D01*
X165533901Y-123786652D01*
X165805133Y-123845655D01*
X166082000Y-123865457D01*
X166358867Y-123845655D01*
X166630099Y-123786652D01*
X166890172Y-123689650D01*
X167133793Y-123556623D01*
X167356003Y-123390278D01*
X167552278Y-123194003D01*
X167718623Y-122971793D01*
X167851650Y-122728172D01*
X167948652Y-122468099D01*
X168007655Y-122196867D01*
X168027457Y-121920000D01*
X168007655Y-121643133D01*
X167948652Y-121371901D01*
X167851650Y-121111828D01*
X167718623Y-120868207D01*
X167552278Y-120645997D01*
X167356003Y-120449722D01*
X167352466Y-120447074D01*
X167352460Y-120447069D01*
X167137342Y-120286034D01*
X167133793Y-120283377D01*
X167129906Y-120281254D01*
X167129899Y-120281250D01*
X166894058Y-120152472D01*
X166890172Y-120150350D01*
X166886029Y-120148804D01*
X166886023Y-120148802D01*
X166634252Y-120054897D01*
X166630099Y-120053348D01*
X166625767Y-120052405D01*
X166625765Y-120052405D01*
X166363200Y-119995287D01*
X166363192Y-119995285D01*
X166358867Y-119994345D01*
X166354453Y-119994029D01*
X166354444Y-119994028D01*
X166086418Y-119974859D01*
X166082000Y-119974543D01*
X166077582Y-119974859D01*
X165809555Y-119994028D01*
X165809544Y-119994029D01*
X165805133Y-119994345D01*
X165800809Y-119995285D01*
X165800799Y-119995287D01*
X165538234Y-120052405D01*
X165538228Y-120052406D01*
X165533901Y-120053348D01*
X165529751Y-120054895D01*
X165529747Y-120054897D01*
X165277976Y-120148802D01*
X165277965Y-120148806D01*
X165273828Y-120150350D01*
X165269946Y-120152469D01*
X165269941Y-120152472D01*
X165034100Y-120281250D01*
X165034086Y-120281258D01*
X165030207Y-120283377D01*
X165026661Y-120286030D01*
X165026657Y-120286034D01*
X164811539Y-120447069D01*
X164811526Y-120447079D01*
X164807997Y-120449722D01*
X164804871Y-120452847D01*
X164804864Y-120452854D01*
X164614854Y-120642864D01*
X164614847Y-120642871D01*
X164611722Y-120645997D01*
X164609079Y-120649526D01*
X164609069Y-120649539D01*
X164448034Y-120864657D01*
X164448030Y-120864661D01*
X164445377Y-120868207D01*
X164443258Y-120872086D01*
X164443250Y-120872100D01*
X164314472Y-121107941D01*
X164312350Y-121111828D01*
X164310806Y-121115965D01*
X164310802Y-121115976D01*
X164216897Y-121367747D01*
X164215348Y-121371901D01*
X164214406Y-121376228D01*
X164214405Y-121376234D01*
X164157287Y-121638799D01*
X164157285Y-121638809D01*
X164156345Y-121643133D01*
X164156029Y-121647544D01*
X164156028Y-121647555D01*
X164137297Y-121909453D01*
X164136543Y-121920000D01*
X164136859Y-121924418D01*
X164156028Y-122192444D01*
X164156029Y-122192453D01*
X164156345Y-122196867D01*
X164157285Y-122201192D01*
X164157287Y-122201200D01*
X164214405Y-122463765D01*
X164215348Y-122468099D01*
X164216897Y-122472252D01*
X164305388Y-122709506D01*
X164310372Y-122779197D01*
X164276887Y-122840520D01*
X161980696Y-125136711D01*
X161972511Y-125144159D01*
X161966123Y-125148214D01*
X161960788Y-125153894D01*
X161960783Y-125153899D01*
X161920096Y-125197225D01*
X161917392Y-125200016D01*
X161900628Y-125216780D01*
X161900621Y-125216787D01*
X161897880Y-125219529D01*
X161895500Y-125222596D01*
X161895489Y-125222609D01*
X161895400Y-125222725D01*
X161887842Y-125231570D01*
X161863280Y-125257727D01*
X161863273Y-125257736D01*
X161857938Y-125263418D01*
X161854182Y-125270249D01*
X161854179Y-125270254D01*
X161848285Y-125280975D01*
X161837609Y-125297227D01*
X161830109Y-125306896D01*
X161830101Y-125306907D01*
X161825327Y-125313064D01*
X161822234Y-125320208D01*
X161822229Y-125320219D01*
X161807974Y-125353160D01*
X161802838Y-125363643D01*
X161781803Y-125401908D01*
X161779864Y-125409456D01*
X161779863Y-125409461D01*
X161776822Y-125421307D01*
X161770521Y-125439711D01*
X161765658Y-125450948D01*
X161765656Y-125450952D01*
X161762562Y-125458104D01*
X161761342Y-125465803D01*
X161761342Y-125465805D01*
X161755729Y-125501241D01*
X161753361Y-125512676D01*
X161744438Y-125547428D01*
X161744436Y-125547436D01*
X161742500Y-125554981D01*
X161742500Y-125562777D01*
X161742500Y-125575017D01*
X161740974Y-125594402D01*
X161737840Y-125614196D01*
X161738574Y-125621961D01*
X161738574Y-125621964D01*
X161741950Y-125657676D01*
X161742500Y-125669345D01*
X161742500Y-136505001D01*
X161725887Y-136567001D01*
X161680500Y-136612388D01*
X161618500Y-136629001D01*
X160570128Y-136629001D01*
X160566850Y-136629353D01*
X160566838Y-136629354D01*
X160518231Y-136634579D01*
X160518225Y-136634580D01*
X160510517Y-136635409D01*
X160503252Y-136638118D01*
X160503246Y-136638120D01*
X160383980Y-136682604D01*
X160383978Y-136682604D01*
X160375669Y-136685704D01*
X160368572Y-136691016D01*
X160368568Y-136691019D01*
X160267550Y-136766641D01*
X160267546Y-136766644D01*
X160260454Y-136771954D01*
X160255144Y-136779046D01*
X160255141Y-136779050D01*
X160179519Y-136880068D01*
X160179516Y-136880072D01*
X160174204Y-136887169D01*
X160171104Y-136895478D01*
X160171104Y-136895480D01*
X160126620Y-137014747D01*
X160126619Y-137014750D01*
X160123909Y-137022017D01*
X160123079Y-137029727D01*
X160123079Y-137029732D01*
X160117855Y-137078319D01*
X160117854Y-137078331D01*
X160117500Y-137081627D01*
X160117500Y-137084948D01*
X160117500Y-137084949D01*
X160117500Y-140674060D01*
X160117500Y-140674078D01*
X145833510Y-140674078D01*
X158189770Y-128317819D01*
X158229999Y-128290939D01*
X158277452Y-128281500D01*
X158330143Y-128281500D01*
X158336646Y-128281500D01*
X158521803Y-128242144D01*
X158694730Y-128165151D01*
X158847871Y-128053888D01*
X158974533Y-127913216D01*
X159069179Y-127749284D01*
X159127674Y-127569256D01*
X159147460Y-127381000D01*
X159127674Y-127192744D01*
X159069179Y-127012716D01*
X158974533Y-126848784D01*
X158847871Y-126708112D01*
X158842613Y-126704292D01*
X158842611Y-126704290D01*
X158699988Y-126600669D01*
X158699987Y-126600668D01*
X158694730Y-126596849D01*
X158688792Y-126594205D01*
X158527745Y-126522501D01*
X158527740Y-126522499D01*
X158521803Y-126519856D01*
X158515444Y-126518504D01*
X158515440Y-126518503D01*
X158343008Y-126481852D01*
X158343005Y-126481851D01*
X158336646Y-126480500D01*
X158147354Y-126480500D01*
X158140995Y-126481851D01*
X158140991Y-126481852D01*
X157968559Y-126518503D01*
X157968552Y-126518505D01*
X157962197Y-126519856D01*
X157956262Y-126522498D01*
X157956254Y-126522501D01*
X157795207Y-126594205D01*
X157795202Y-126594207D01*
X157789270Y-126596849D01*
X157784016Y-126600665D01*
X157784011Y-126600669D01*
X157641388Y-126704290D01*
X157641381Y-126704295D01*
X157636129Y-126708112D01*
X157631784Y-126712937D01*
X157631779Y-126712942D01*
X157513813Y-126843956D01*
X157513808Y-126843962D01*
X157509467Y-126848784D01*
X157506222Y-126854404D01*
X157506218Y-126854410D01*
X157418069Y-127007089D01*
X157418066Y-127007094D01*
X157414821Y-127012716D01*
X157412815Y-127018888D01*
X157412813Y-127018894D01*
X157358333Y-127186564D01*
X157358331Y-127186573D01*
X157356326Y-127192744D01*
X157355647Y-127199203D01*
X157355647Y-127199204D01*
X157338678Y-127360651D01*
X157327278Y-127401072D01*
X157303038Y-127435370D01*
X140747228Y-143991181D01*
X140707000Y-144018061D01*
X140659547Y-144027500D01*
X135311452Y-144027500D01*
X135263999Y-144018061D01*
X135223773Y-143991183D01*
X135082816Y-143850225D01*
X135055939Y-143810000D01*
X135046500Y-143762547D01*
X135046500Y-143515228D01*
X135060511Y-143457971D01*
X135099376Y-143413653D01*
X135179640Y-143357450D01*
X135292401Y-143278495D01*
X135459495Y-143111401D01*
X135589424Y-142925842D01*
X135633743Y-142886976D01*
X135691000Y-142872965D01*
X135748257Y-142886976D01*
X135792575Y-142925842D01*
X135919395Y-143106961D01*
X135919401Y-143106968D01*
X135922505Y-143111401D01*
X136089599Y-143278495D01*
X136283170Y-143414035D01*
X136497337Y-143513903D01*
X136725592Y-143575063D01*
X136961000Y-143595659D01*
X137196408Y-143575063D01*
X137424663Y-143513903D01*
X137638830Y-143414035D01*
X137832401Y-143278495D01*
X137999495Y-143111401D01*
X138135035Y-142917830D01*
X138234903Y-142703663D01*
X138296063Y-142475408D01*
X138316659Y-142240000D01*
X138296063Y-142004592D01*
X138269143Y-141904126D01*
X138269143Y-141839939D01*
X138301235Y-141784353D01*
X162583771Y-117501819D01*
X162624000Y-117474939D01*
X162671453Y-117465500D01*
X164158122Y-117465500D01*
X164206935Y-117475512D01*
X164247865Y-117503930D01*
X164274303Y-117546165D01*
X164312350Y-117648172D01*
X164314472Y-117652058D01*
X164443250Y-117887899D01*
X164443254Y-117887906D01*
X164445377Y-117891793D01*
X164448034Y-117895342D01*
X164609069Y-118110460D01*
X164609074Y-118110466D01*
X164611722Y-118114003D01*
X164807997Y-118310278D01*
X164811534Y-118312926D01*
X164811539Y-118312930D01*
X164917855Y-118392517D01*
X165030207Y-118476623D01*
X165273828Y-118609650D01*
X165533901Y-118706652D01*
X165805133Y-118765655D01*
X166082000Y-118785457D01*
X166358867Y-118765655D01*
X166630099Y-118706652D01*
X166890172Y-118609650D01*
X167133793Y-118476623D01*
X167356003Y-118310278D01*
X167552278Y-118114003D01*
X167718623Y-117891793D01*
X167851650Y-117648172D01*
X167948652Y-117388099D01*
X168007655Y-117116867D01*
X168027457Y-116840000D01*
X168007655Y-116563133D01*
X167948652Y-116291901D01*
X167851650Y-116031828D01*
X167718623Y-115788207D01*
X167552278Y-115565997D01*
X167356003Y-115369722D01*
X167352466Y-115367074D01*
X167352460Y-115367069D01*
X167137342Y-115206034D01*
X167133793Y-115203377D01*
X167129906Y-115201254D01*
X167129899Y-115201250D01*
X166894058Y-115072472D01*
X166890172Y-115070350D01*
X166886029Y-115068804D01*
X166886023Y-115068802D01*
X166634252Y-114974897D01*
X166630099Y-114973348D01*
X166625767Y-114972405D01*
X166625765Y-114972405D01*
X166363200Y-114915287D01*
X166363192Y-114915285D01*
X166358867Y-114914345D01*
X166354453Y-114914029D01*
X166354444Y-114914028D01*
X166086418Y-114894859D01*
X166082000Y-114894543D01*
X166077582Y-114894859D01*
X165809555Y-114914028D01*
X165809544Y-114914029D01*
X165805133Y-114914345D01*
X165800809Y-114915285D01*
X165800799Y-114915287D01*
X165538234Y-114972405D01*
X165538228Y-114972406D01*
X165533901Y-114973348D01*
X165529751Y-114974895D01*
X165529747Y-114974897D01*
X165277976Y-115068802D01*
X165277965Y-115068806D01*
X165273828Y-115070350D01*
X165269946Y-115072469D01*
X165269941Y-115072472D01*
X165034100Y-115201250D01*
X165034086Y-115201258D01*
X165030207Y-115203377D01*
X165026661Y-115206030D01*
X165026657Y-115206034D01*
X164811539Y-115367069D01*
X164811526Y-115367079D01*
X164807997Y-115369722D01*
X164804871Y-115372847D01*
X164804864Y-115372854D01*
X164614854Y-115562864D01*
X164614847Y-115562871D01*
X164611722Y-115565997D01*
X164609079Y-115569526D01*
X164609069Y-115569539D01*
X164448034Y-115784657D01*
X164448030Y-115784661D01*
X164445377Y-115788207D01*
X164443258Y-115792086D01*
X164443250Y-115792100D01*
X164328190Y-116002819D01*
X164312350Y-116031828D01*
X164283232Y-116109898D01*
X164274304Y-116133834D01*
X164247865Y-116176070D01*
X164206935Y-116204488D01*
X164158122Y-116214500D01*
X162811453Y-116214500D01*
X162755158Y-116200985D01*
X162711135Y-116163385D01*
X162688980Y-116109898D01*
X162693522Y-116052182D01*
X162723772Y-116002819D01*
X163163727Y-115562864D01*
X165161479Y-113565110D01*
X165222800Y-113531627D01*
X165292491Y-113536611D01*
X165533901Y-113626652D01*
X165805133Y-113685655D01*
X166082000Y-113705457D01*
X166358867Y-113685655D01*
X166630099Y-113626652D01*
X166890172Y-113529650D01*
X167133793Y-113396623D01*
X167356003Y-113230278D01*
X167552278Y-113034003D01*
X167718623Y-112811793D01*
X167851650Y-112568172D01*
X167948652Y-112308099D01*
X168007655Y-112036867D01*
X168027457Y-111760000D01*
X168007655Y-111483133D01*
X167948652Y-111211901D01*
X167851650Y-110951828D01*
X167718623Y-110708207D01*
X167552278Y-110485997D01*
X167356003Y-110289722D01*
X167352466Y-110287074D01*
X167352460Y-110287069D01*
X167137342Y-110126034D01*
X167133793Y-110123377D01*
X167129906Y-110121254D01*
X167129899Y-110121250D01*
X166894058Y-109992472D01*
X166890172Y-109990350D01*
X166886029Y-109988804D01*
X166886023Y-109988802D01*
X166634252Y-109894897D01*
X166630099Y-109893348D01*
X166625767Y-109892405D01*
X166625765Y-109892405D01*
X166363200Y-109835287D01*
X166363192Y-109835285D01*
X166358867Y-109834345D01*
X166354453Y-109834029D01*
X166354444Y-109834028D01*
X166086418Y-109814859D01*
X166082000Y-109814543D01*
X166077582Y-109814859D01*
X165809555Y-109834028D01*
X165809544Y-109834029D01*
X165805133Y-109834345D01*
X165800809Y-109835285D01*
X165800799Y-109835287D01*
X165538234Y-109892405D01*
X165538228Y-109892406D01*
X165533901Y-109893348D01*
X165529751Y-109894895D01*
X165529747Y-109894897D01*
X165277976Y-109988802D01*
X165277965Y-109988806D01*
X165273828Y-109990350D01*
X165269946Y-109992469D01*
X165269941Y-109992472D01*
X165034100Y-110121250D01*
X165034086Y-110121258D01*
X165030207Y-110123377D01*
X165026661Y-110126030D01*
X165026657Y-110126034D01*
X164811539Y-110287069D01*
X164811526Y-110287079D01*
X164807997Y-110289722D01*
X164804871Y-110292847D01*
X164804864Y-110292854D01*
X164614854Y-110482864D01*
X164614847Y-110482871D01*
X164611722Y-110485997D01*
X164609079Y-110489526D01*
X164609069Y-110489539D01*
X164448034Y-110704657D01*
X164448030Y-110704661D01*
X164445377Y-110708207D01*
X164443258Y-110712086D01*
X164443250Y-110712100D01*
X164314472Y-110947941D01*
X164312350Y-110951828D01*
X164310806Y-110955965D01*
X164310802Y-110955976D01*
X164216897Y-111207747D01*
X164215348Y-111211901D01*
X164214406Y-111216228D01*
X164214405Y-111216234D01*
X164157287Y-111478799D01*
X164157285Y-111478809D01*
X164156345Y-111483133D01*
X164156029Y-111487544D01*
X164156028Y-111487555D01*
X164137297Y-111749453D01*
X164136543Y-111760000D01*
X164136859Y-111764418D01*
X164156028Y-112032444D01*
X164156029Y-112032453D01*
X164156345Y-112036867D01*
X164157285Y-112041192D01*
X164157287Y-112041200D01*
X164214405Y-112303765D01*
X164215348Y-112308099D01*
X164216897Y-112312252D01*
X164305388Y-112549507D01*
X164310372Y-112619198D01*
X164276887Y-112680521D01*
X138151833Y-138805575D01*
X138096246Y-138837669D01*
X138032058Y-138837669D01*
X137976471Y-138805575D01*
X137836232Y-138665336D01*
X137836230Y-138665334D01*
X137832401Y-138661505D01*
X137827970Y-138658402D01*
X137827966Y-138658399D01*
X137646841Y-138531574D01*
X137607976Y-138487256D01*
X137593965Y-138429999D01*
X137607976Y-138372742D01*
X137646839Y-138328426D01*
X137832401Y-138198495D01*
X137999495Y-138031401D01*
X138135035Y-137837830D01*
X138234903Y-137623663D01*
X138296063Y-137395408D01*
X138316659Y-137160000D01*
X138296063Y-136924592D01*
X138234903Y-136696337D01*
X138135035Y-136482171D01*
X137999495Y-136288599D01*
X137832401Y-136121505D01*
X137827966Y-136118399D01*
X137827963Y-136118397D01*
X137772699Y-136079700D01*
X137736436Y-136040125D01*
X137720296Y-135988933D01*
X137727302Y-135935715D01*
X137756141Y-135890447D01*
X165161479Y-108485110D01*
X165222800Y-108451627D01*
X165292491Y-108456611D01*
X165533901Y-108546652D01*
X165805133Y-108605655D01*
X166082000Y-108625457D01*
X166358867Y-108605655D01*
X166630099Y-108546652D01*
X166890172Y-108449650D01*
X167133793Y-108316623D01*
X167356003Y-108150278D01*
X167552278Y-107954003D01*
X167718623Y-107731793D01*
X167851650Y-107488172D01*
X167948652Y-107228099D01*
X168007655Y-106956867D01*
X168027457Y-106680000D01*
X168007655Y-106403133D01*
X167948652Y-106131901D01*
X167851650Y-105871828D01*
X167718623Y-105628207D01*
X167552278Y-105405997D01*
X167356003Y-105209722D01*
X167352466Y-105207074D01*
X167352460Y-105207069D01*
X167137342Y-105046034D01*
X167133793Y-105043377D01*
X167129906Y-105041254D01*
X167129899Y-105041250D01*
X166894058Y-104912472D01*
X166890172Y-104910350D01*
X166886029Y-104908804D01*
X166886023Y-104908802D01*
X166634252Y-104814897D01*
X166630099Y-104813348D01*
X166625767Y-104812405D01*
X166625765Y-104812405D01*
X166363200Y-104755287D01*
X166363192Y-104755285D01*
X166358867Y-104754345D01*
X166354453Y-104754029D01*
X166354444Y-104754028D01*
X166086418Y-104734859D01*
X166082000Y-104734543D01*
X166077582Y-104734859D01*
X165809555Y-104754028D01*
X165809544Y-104754029D01*
X165805133Y-104754345D01*
X165800809Y-104755285D01*
X165800799Y-104755287D01*
X165538234Y-104812405D01*
X165538228Y-104812406D01*
X165533901Y-104813348D01*
X165529751Y-104814895D01*
X165529747Y-104814897D01*
X165277976Y-104908802D01*
X165277965Y-104908806D01*
X165273828Y-104910350D01*
X165269946Y-104912469D01*
X165269941Y-104912472D01*
X165034100Y-105041250D01*
X165034086Y-105041258D01*
X165030207Y-105043377D01*
X165026661Y-105046030D01*
X165026657Y-105046034D01*
X164811539Y-105207069D01*
X164811526Y-105207079D01*
X164807997Y-105209722D01*
X164804871Y-105212847D01*
X164804864Y-105212854D01*
X164614854Y-105402864D01*
X164614847Y-105402871D01*
X164611722Y-105405997D01*
X164609079Y-105409526D01*
X164609069Y-105409539D01*
X164448034Y-105624657D01*
X164448030Y-105624661D01*
X164445377Y-105628207D01*
X164443258Y-105632086D01*
X164443250Y-105632100D01*
X164314472Y-105867941D01*
X164312350Y-105871828D01*
X164310806Y-105875965D01*
X164310802Y-105875976D01*
X164216897Y-106127747D01*
X164215348Y-106131901D01*
X164214406Y-106136228D01*
X164214405Y-106136234D01*
X164157287Y-106398799D01*
X164157285Y-106398809D01*
X164156345Y-106403133D01*
X164156029Y-106407544D01*
X164156028Y-106407555D01*
X164137297Y-106669453D01*
X164136543Y-106680000D01*
X164136859Y-106684418D01*
X164156028Y-106952444D01*
X164156029Y-106952453D01*
X164156345Y-106956867D01*
X164157285Y-106961192D01*
X164157287Y-106961200D01*
X164214405Y-107223765D01*
X164215348Y-107228099D01*
X164216897Y-107232252D01*
X164305388Y-107469506D01*
X164310372Y-107539197D01*
X164276887Y-107600520D01*
X136573696Y-135303711D01*
X136565511Y-135311159D01*
X136559123Y-135315214D01*
X136553788Y-135320894D01*
X136553783Y-135320899D01*
X136513096Y-135364225D01*
X136510392Y-135367016D01*
X136493628Y-135383780D01*
X136493621Y-135383787D01*
X136490880Y-135386529D01*
X136488500Y-135389596D01*
X136488489Y-135389609D01*
X136488400Y-135389725D01*
X136480842Y-135398570D01*
X136456280Y-135424727D01*
X136456273Y-135424736D01*
X136450938Y-135430418D01*
X136447182Y-135437249D01*
X136447179Y-135437254D01*
X136441285Y-135447975D01*
X136430609Y-135464227D01*
X136423109Y-135473896D01*
X136423101Y-135473907D01*
X136418327Y-135480064D01*
X136415234Y-135487208D01*
X136415229Y-135487219D01*
X136400974Y-135520160D01*
X136395838Y-135530643D01*
X136378560Y-135562073D01*
X136374803Y-135568908D01*
X136372864Y-135576456D01*
X136372863Y-135576461D01*
X136369822Y-135588307D01*
X136363521Y-135606711D01*
X136358658Y-135617948D01*
X136358656Y-135617952D01*
X136355562Y-135625104D01*
X136354342Y-135632803D01*
X136354342Y-135632805D01*
X136348729Y-135668241D01*
X136346361Y-135679676D01*
X136337438Y-135714428D01*
X136337436Y-135714436D01*
X136335500Y-135721981D01*
X136335500Y-135729777D01*
X136335500Y-135742017D01*
X136333974Y-135761402D01*
X136330840Y-135781196D01*
X136331574Y-135788961D01*
X136331574Y-135788964D01*
X136334950Y-135824676D01*
X136335500Y-135836345D01*
X136335500Y-135884774D01*
X136321489Y-135942031D01*
X136282625Y-135986347D01*
X136225626Y-136026258D01*
X136094034Y-136118399D01*
X136094029Y-136118402D01*
X136089599Y-136121505D01*
X136085775Y-136125328D01*
X136085769Y-136125334D01*
X135926334Y-136284769D01*
X135926328Y-136284775D01*
X135922505Y-136288599D01*
X135919402Y-136293029D01*
X135919399Y-136293034D01*
X135792575Y-136474159D01*
X135748257Y-136513025D01*
X135691000Y-136527036D01*
X135633743Y-136513025D01*
X135589425Y-136474159D01*
X135567856Y-136443355D01*
X135459495Y-136288599D01*
X135292401Y-136121505D01*
X135287970Y-136118402D01*
X135287966Y-136118399D01*
X135099376Y-135986347D01*
X135060511Y-135942029D01*
X135046500Y-135884772D01*
X135046500Y-135129452D01*
X135055939Y-135081999D01*
X135082819Y-135041771D01*
X136211416Y-133913174D01*
X138436311Y-131688278D01*
X138444481Y-131680844D01*
X138450877Y-131676786D01*
X138496918Y-131627756D01*
X138499535Y-131625054D01*
X138519120Y-131605471D01*
X138521585Y-131602292D01*
X138529167Y-131593416D01*
X138559062Y-131561582D01*
X138568713Y-131544023D01*
X138579390Y-131527770D01*
X138591673Y-131511936D01*
X138609026Y-131471832D01*
X138614158Y-131461361D01*
X138631435Y-131429935D01*
X138631435Y-131429934D01*
X138635197Y-131423092D01*
X138640177Y-131403691D01*
X138646481Y-131385281D01*
X138654438Y-131366896D01*
X138661272Y-131323741D01*
X138663638Y-131312321D01*
X138672560Y-131277574D01*
X138674500Y-131270019D01*
X138674500Y-131249983D01*
X138676025Y-131230597D01*
X138679160Y-131210804D01*
X138675050Y-131167324D01*
X138674500Y-131155655D01*
X138674500Y-119783452D01*
X138683939Y-119735999D01*
X138710819Y-119695771D01*
X145179445Y-113227145D01*
X156806589Y-101600000D01*
X164136543Y-101600000D01*
X164136859Y-101604418D01*
X164156028Y-101872444D01*
X164156029Y-101872453D01*
X164156345Y-101876867D01*
X164157285Y-101881192D01*
X164157287Y-101881200D01*
X164214405Y-102143765D01*
X164215348Y-102148099D01*
X164216897Y-102152252D01*
X164310802Y-102404023D01*
X164310804Y-102404029D01*
X164312350Y-102408172D01*
X164314472Y-102412058D01*
X164443250Y-102647899D01*
X164443254Y-102647906D01*
X164445377Y-102651793D01*
X164448034Y-102655342D01*
X164609069Y-102870460D01*
X164609074Y-102870466D01*
X164611722Y-102874003D01*
X164807997Y-103070278D01*
X164811534Y-103072926D01*
X164811539Y-103072930D01*
X164917855Y-103152517D01*
X165030207Y-103236623D01*
X165273828Y-103369650D01*
X165533901Y-103466652D01*
X165805133Y-103525655D01*
X166082000Y-103545457D01*
X166358867Y-103525655D01*
X166630099Y-103466652D01*
X166890172Y-103369650D01*
X167133793Y-103236623D01*
X167356003Y-103070278D01*
X167552278Y-102874003D01*
X167718623Y-102651793D01*
X167851650Y-102408172D01*
X167948652Y-102148099D01*
X168007655Y-101876867D01*
X168027457Y-101600000D01*
X168007655Y-101323133D01*
X167948652Y-101051901D01*
X167851650Y-100791828D01*
X167718623Y-100548207D01*
X167552278Y-100325997D01*
X167356003Y-100129722D01*
X167352466Y-100127074D01*
X167352460Y-100127069D01*
X167137342Y-99966034D01*
X167133793Y-99963377D01*
X167129906Y-99961254D01*
X167129899Y-99961250D01*
X166894058Y-99832472D01*
X166890172Y-99830350D01*
X166886029Y-99828804D01*
X166886023Y-99828802D01*
X166634252Y-99734897D01*
X166630099Y-99733348D01*
X166625767Y-99732405D01*
X166625765Y-99732405D01*
X166363200Y-99675287D01*
X166363192Y-99675285D01*
X166358867Y-99674345D01*
X166354453Y-99674029D01*
X166354444Y-99674028D01*
X166086418Y-99654859D01*
X166082000Y-99654543D01*
X166077582Y-99654859D01*
X165809555Y-99674028D01*
X165809544Y-99674029D01*
X165805133Y-99674345D01*
X165800809Y-99675285D01*
X165800799Y-99675287D01*
X165538234Y-99732405D01*
X165538228Y-99732406D01*
X165533901Y-99733348D01*
X165529751Y-99734895D01*
X165529747Y-99734897D01*
X165277976Y-99828802D01*
X165277965Y-99828806D01*
X165273828Y-99830350D01*
X165269946Y-99832469D01*
X165269941Y-99832472D01*
X165034100Y-99961250D01*
X165034086Y-99961258D01*
X165030207Y-99963377D01*
X165026661Y-99966030D01*
X165026657Y-99966034D01*
X164811539Y-100127069D01*
X164811526Y-100127079D01*
X164807997Y-100129722D01*
X164804871Y-100132847D01*
X164804864Y-100132854D01*
X164614854Y-100322864D01*
X164614847Y-100322871D01*
X164611722Y-100325997D01*
X164609079Y-100329526D01*
X164609069Y-100329539D01*
X164448034Y-100544657D01*
X164448030Y-100544661D01*
X164445377Y-100548207D01*
X164443258Y-100552086D01*
X164443250Y-100552100D01*
X164314472Y-100787941D01*
X164312350Y-100791828D01*
X164310806Y-100795965D01*
X164310802Y-100795976D01*
X164216897Y-101047747D01*
X164215348Y-101051901D01*
X164214406Y-101056228D01*
X164214405Y-101056234D01*
X164157287Y-101318799D01*
X164157285Y-101318809D01*
X164156345Y-101323133D01*
X164156029Y-101327544D01*
X164156028Y-101327555D01*
X164137297Y-101589453D01*
X164136543Y-101600000D01*
X156806589Y-101600000D01*
X161886588Y-96520000D01*
X164136543Y-96520000D01*
X164136859Y-96524418D01*
X164156028Y-96792444D01*
X164156029Y-96792453D01*
X164156345Y-96796867D01*
X164157285Y-96801192D01*
X164157287Y-96801200D01*
X164214405Y-97063765D01*
X164215348Y-97068099D01*
X164216897Y-97072252D01*
X164310802Y-97324023D01*
X164310804Y-97324029D01*
X164312350Y-97328172D01*
X164314472Y-97332058D01*
X164443250Y-97567899D01*
X164443254Y-97567906D01*
X164445377Y-97571793D01*
X164448034Y-97575342D01*
X164609069Y-97790460D01*
X164609074Y-97790466D01*
X164611722Y-97794003D01*
X164807997Y-97990278D01*
X164811534Y-97992926D01*
X164811539Y-97992930D01*
X164917855Y-98072517D01*
X165030207Y-98156623D01*
X165273828Y-98289650D01*
X165533901Y-98386652D01*
X165805133Y-98445655D01*
X166082000Y-98465457D01*
X166358867Y-98445655D01*
X166630099Y-98386652D01*
X166890172Y-98289650D01*
X167133793Y-98156623D01*
X167356003Y-97990278D01*
X167552278Y-97794003D01*
X167718623Y-97571793D01*
X167851650Y-97328172D01*
X167948652Y-97068099D01*
X168007655Y-96796867D01*
X168027457Y-96520000D01*
X168007655Y-96243133D01*
X167948652Y-95971901D01*
X167851650Y-95711828D01*
X167718623Y-95468207D01*
X167552278Y-95245997D01*
X167356003Y-95049722D01*
X167352466Y-95047074D01*
X167352460Y-95047069D01*
X167137342Y-94886034D01*
X167133793Y-94883377D01*
X167129906Y-94881254D01*
X167129899Y-94881250D01*
X166894058Y-94752472D01*
X166890172Y-94750350D01*
X166886029Y-94748804D01*
X166886023Y-94748802D01*
X166634252Y-94654897D01*
X166630099Y-94653348D01*
X166625767Y-94652405D01*
X166625765Y-94652405D01*
X166363200Y-94595287D01*
X166363192Y-94595285D01*
X166358867Y-94594345D01*
X166354453Y-94594029D01*
X166354444Y-94594028D01*
X166086418Y-94574859D01*
X166082000Y-94574543D01*
X166077582Y-94574859D01*
X165809555Y-94594028D01*
X165809544Y-94594029D01*
X165805133Y-94594345D01*
X165800809Y-94595285D01*
X165800799Y-94595287D01*
X165538234Y-94652405D01*
X165538228Y-94652406D01*
X165533901Y-94653348D01*
X165529751Y-94654895D01*
X165529747Y-94654897D01*
X165277976Y-94748802D01*
X165277965Y-94748806D01*
X165273828Y-94750350D01*
X165269946Y-94752469D01*
X165269941Y-94752472D01*
X165034100Y-94881250D01*
X165034086Y-94881258D01*
X165030207Y-94883377D01*
X165026661Y-94886030D01*
X165026657Y-94886034D01*
X164811539Y-95047069D01*
X164811526Y-95047079D01*
X164807997Y-95049722D01*
X164804871Y-95052847D01*
X164804864Y-95052854D01*
X164614854Y-95242864D01*
X164614847Y-95242871D01*
X164611722Y-95245997D01*
X164609079Y-95249526D01*
X164609069Y-95249539D01*
X164448034Y-95464657D01*
X164448030Y-95464661D01*
X164445377Y-95468207D01*
X164443258Y-95472086D01*
X164443250Y-95472100D01*
X164314472Y-95707941D01*
X164312350Y-95711828D01*
X164310806Y-95715965D01*
X164310802Y-95715976D01*
X164216897Y-95967747D01*
X164215348Y-95971901D01*
X164214406Y-95976228D01*
X164214405Y-95976234D01*
X164157287Y-96238799D01*
X164157285Y-96238809D01*
X164156345Y-96243133D01*
X164156029Y-96247544D01*
X164156028Y-96247555D01*
X164137297Y-96509453D01*
X164136543Y-96520000D01*
X161886588Y-96520000D01*
X165161480Y-93245108D01*
X165200345Y-93218804D01*
X165246207Y-93208827D01*
X165292485Y-93216608D01*
X165533901Y-93306652D01*
X165805133Y-93365655D01*
X166082000Y-93385457D01*
X166358867Y-93365655D01*
X166630099Y-93306652D01*
X166890172Y-93209650D01*
X167133793Y-93076623D01*
X167356003Y-92910278D01*
X167552278Y-92714003D01*
X167718623Y-92491793D01*
X167851650Y-92248172D01*
X167948652Y-91988099D01*
X168007655Y-91716867D01*
X168027457Y-91440000D01*
X168007655Y-91163133D01*
X167948652Y-90891901D01*
X167851650Y-90631828D01*
X167718623Y-90388207D01*
X167552278Y-90165997D01*
X167356003Y-89969722D01*
X167352466Y-89967074D01*
X167352460Y-89967069D01*
X167137342Y-89806034D01*
X167133793Y-89803377D01*
X167129906Y-89801254D01*
X167129899Y-89801250D01*
X166894058Y-89672472D01*
X166890172Y-89670350D01*
X166886029Y-89668804D01*
X166886023Y-89668802D01*
X166634252Y-89574897D01*
X166630099Y-89573348D01*
X166625767Y-89572405D01*
X166625765Y-89572405D01*
X166363200Y-89515287D01*
X166363192Y-89515285D01*
X166358867Y-89514345D01*
X166354453Y-89514029D01*
X166354444Y-89514028D01*
X166086418Y-89494859D01*
X166082000Y-89494543D01*
X166077582Y-89494859D01*
X165809555Y-89514028D01*
X165809544Y-89514029D01*
X165805133Y-89514345D01*
X165800809Y-89515285D01*
X165800799Y-89515287D01*
X165538234Y-89572405D01*
X165538228Y-89572406D01*
X165533901Y-89573348D01*
X165529751Y-89574895D01*
X165529747Y-89574897D01*
X165277976Y-89668802D01*
X165277965Y-89668806D01*
X165273828Y-89670350D01*
X165269946Y-89672469D01*
X165269941Y-89672472D01*
X165034100Y-89801250D01*
X165034086Y-89801258D01*
X165030207Y-89803377D01*
X165026661Y-89806030D01*
X165026657Y-89806034D01*
X164811539Y-89967069D01*
X164811526Y-89967079D01*
X164807997Y-89969722D01*
X164804871Y-89972847D01*
X164804864Y-89972854D01*
X164614854Y-90162864D01*
X164614847Y-90162871D01*
X164611722Y-90165997D01*
X164609079Y-90169526D01*
X164609069Y-90169539D01*
X164448034Y-90384657D01*
X164448030Y-90384661D01*
X164445377Y-90388207D01*
X164443258Y-90392086D01*
X164443250Y-90392100D01*
X164314472Y-90627941D01*
X164312350Y-90631828D01*
X164310806Y-90635965D01*
X164310802Y-90635976D01*
X164216897Y-90887747D01*
X164215348Y-90891901D01*
X164214406Y-90896228D01*
X164214405Y-90896234D01*
X164157287Y-91158799D01*
X164157285Y-91158809D01*
X164156345Y-91163133D01*
X164156029Y-91167544D01*
X164156028Y-91167555D01*
X164137297Y-91429453D01*
X164136543Y-91440000D01*
X164136859Y-91444418D01*
X164156028Y-91712444D01*
X164156029Y-91712453D01*
X164156345Y-91716867D01*
X164157285Y-91721192D01*
X164157287Y-91721200D01*
X164214405Y-91983765D01*
X164215348Y-91988099D01*
X164216897Y-91992252D01*
X164305388Y-92229507D01*
X164310372Y-92299198D01*
X164276887Y-92360521D01*
X137661696Y-118975711D01*
X137653511Y-118983159D01*
X137647123Y-118987214D01*
X137641788Y-118992894D01*
X137641783Y-118992899D01*
X137601096Y-119036225D01*
X137598392Y-119039016D01*
X137581628Y-119055780D01*
X137581621Y-119055787D01*
X137578880Y-119058529D01*
X137576500Y-119061596D01*
X137576489Y-119061609D01*
X137576400Y-119061725D01*
X137568842Y-119070570D01*
X137544280Y-119096727D01*
X137544273Y-119096736D01*
X137538938Y-119102418D01*
X137535182Y-119109249D01*
X137535179Y-119109254D01*
X137529285Y-119119975D01*
X137518609Y-119136227D01*
X137511109Y-119145896D01*
X137511101Y-119145907D01*
X137506327Y-119152064D01*
X137503234Y-119159208D01*
X137503229Y-119159219D01*
X137488974Y-119192160D01*
X137483838Y-119202643D01*
X137462803Y-119240908D01*
X137460864Y-119248456D01*
X137460863Y-119248461D01*
X137457822Y-119260307D01*
X137451521Y-119278711D01*
X137446658Y-119289948D01*
X137446656Y-119289952D01*
X137443562Y-119297104D01*
X137442342Y-119304803D01*
X137442342Y-119304805D01*
X137436729Y-119340241D01*
X137434361Y-119351676D01*
X137425438Y-119386428D01*
X137425436Y-119386436D01*
X137423500Y-119393981D01*
X137423500Y-119401777D01*
X137423500Y-119414017D01*
X137421974Y-119433402D01*
X137418840Y-119453196D01*
X137419574Y-119460961D01*
X137419574Y-119460964D01*
X137422950Y-119496676D01*
X137423500Y-119508345D01*
X137423500Y-130880548D01*
X137414061Y-130928001D01*
X137387181Y-130968229D01*
X134033696Y-134321711D01*
X134025511Y-134329159D01*
X134019123Y-134333214D01*
X134013788Y-134338894D01*
X134013783Y-134338899D01*
X133973096Y-134382225D01*
X133970392Y-134385016D01*
X133953628Y-134401780D01*
X133953621Y-134401787D01*
X133950880Y-134404529D01*
X133948500Y-134407596D01*
X133948489Y-134407609D01*
X133948400Y-134407725D01*
X133940842Y-134416570D01*
X133916280Y-134442727D01*
X133916273Y-134442736D01*
X133910938Y-134448418D01*
X133907182Y-134455249D01*
X133907179Y-134455254D01*
X133901285Y-134465975D01*
X133890609Y-134482227D01*
X133883109Y-134491896D01*
X133883101Y-134491907D01*
X133878327Y-134498064D01*
X133875234Y-134505208D01*
X133875229Y-134505219D01*
X133860974Y-134538160D01*
X133855838Y-134548643D01*
X133834803Y-134586908D01*
X133832864Y-134594456D01*
X133832863Y-134594461D01*
X133829822Y-134606307D01*
X133823521Y-134624711D01*
X133818658Y-134635948D01*
X133818656Y-134635952D01*
X133815562Y-134643104D01*
X133814342Y-134650803D01*
X133814342Y-134650805D01*
X133808729Y-134686241D01*
X133806361Y-134697676D01*
X133797438Y-134732428D01*
X133797436Y-134732436D01*
X133795500Y-134739981D01*
X133795500Y-134747777D01*
X133795500Y-134760017D01*
X133793974Y-134779402D01*
X133790840Y-134799196D01*
X133791574Y-134806961D01*
X133791574Y-134806964D01*
X133794950Y-134842676D01*
X133795500Y-134854345D01*
X133795500Y-135884774D01*
X133781489Y-135942031D01*
X133742625Y-135986347D01*
X133685626Y-136026258D01*
X133554034Y-136118399D01*
X133554029Y-136118402D01*
X133549599Y-136121505D01*
X133545775Y-136125328D01*
X133545769Y-136125334D01*
X133386334Y-136284769D01*
X133386328Y-136284775D01*
X133382505Y-136288599D01*
X133379402Y-136293029D01*
X133379399Y-136293034D01*
X133250073Y-136477731D01*
X133250068Y-136477738D01*
X133246965Y-136482171D01*
X133244677Y-136487077D01*
X133244675Y-136487081D01*
X133149386Y-136691427D01*
X133149383Y-136691432D01*
X133147097Y-136696337D01*
X133145698Y-136701557D01*
X133145694Y-136701569D01*
X133087337Y-136919365D01*
X133087335Y-136919371D01*
X133085937Y-136924592D01*
X133065341Y-137160000D01*
X133085937Y-137395408D01*
X133087336Y-137400630D01*
X133087337Y-137400634D01*
X133145694Y-137618430D01*
X133145697Y-137618438D01*
X133147097Y-137623663D01*
X133149385Y-137628570D01*
X133149386Y-137628572D01*
X133244678Y-137832927D01*
X133244681Y-137832933D01*
X133246965Y-137837830D01*
X133250064Y-137842257D01*
X133250066Y-137842259D01*
X133379399Y-138026966D01*
X133379402Y-138026970D01*
X133382505Y-138031401D01*
X133549599Y-138198495D01*
X133554032Y-138201599D01*
X133554038Y-138201604D01*
X133735158Y-138328425D01*
X133774024Y-138372743D01*
X133788035Y-138430000D01*
X133774024Y-138487257D01*
X133735160Y-138531574D01*
X133549599Y-138661505D01*
X133545775Y-138665328D01*
X133545769Y-138665334D01*
X133386334Y-138824769D01*
X133386328Y-138824775D01*
X133382505Y-138828599D01*
X133379402Y-138833029D01*
X133379399Y-138833034D01*
X133250073Y-139017731D01*
X133250068Y-139017738D01*
X133246965Y-139022171D01*
X133244677Y-139027077D01*
X133244675Y-139027081D01*
X133149386Y-139231427D01*
X133149383Y-139231432D01*
X133147097Y-139236337D01*
X133145698Y-139241557D01*
X133145694Y-139241569D01*
X133087337Y-139459365D01*
X133087335Y-139459371D01*
X133085937Y-139464592D01*
X133065341Y-139700000D01*
X133085937Y-139935408D01*
X133087336Y-139940630D01*
X133087337Y-139940634D01*
X133145694Y-140158430D01*
X133145697Y-140158438D01*
X133147097Y-140163663D01*
X133149385Y-140168570D01*
X133149386Y-140168572D01*
X133244678Y-140372927D01*
X133244681Y-140372933D01*
X133246965Y-140377830D01*
X133250064Y-140382257D01*
X133250066Y-140382259D01*
X133379399Y-140566966D01*
X133379402Y-140566970D01*
X133382505Y-140571401D01*
X133549599Y-140738495D01*
X133554032Y-140741599D01*
X133554038Y-140741604D01*
X133735158Y-140868425D01*
X133774024Y-140912743D01*
X133788035Y-140970000D01*
X133774024Y-141027257D01*
X133735159Y-141071575D01*
X133554041Y-141198395D01*
X133549599Y-141201505D01*
X133545775Y-141205328D01*
X133545769Y-141205334D01*
X133386334Y-141364769D01*
X133386328Y-141364775D01*
X133382505Y-141368599D01*
X133379402Y-141373029D01*
X133379399Y-141373034D01*
X133250073Y-141557731D01*
X133250068Y-141557738D01*
X133246965Y-141562171D01*
X133244677Y-141567077D01*
X133244675Y-141567081D01*
X133149386Y-141771427D01*
X133149383Y-141771432D01*
X133147097Y-141776337D01*
X133145698Y-141781557D01*
X133145694Y-141781569D01*
X133087337Y-141999365D01*
X133087336Y-141999369D01*
X133085937Y-142004592D01*
X133085465Y-142009977D01*
X133085466Y-142009980D01*
X133065341Y-142240000D01*
X100000500Y-142240000D01*
X100000500Y-73406000D01*
X133065341Y-73406000D01*
X133085937Y-73641408D01*
X133087336Y-73646630D01*
X133087337Y-73646634D01*
X133145694Y-73864430D01*
X133145697Y-73864438D01*
X133147097Y-73869663D01*
X133149385Y-73874570D01*
X133149386Y-73874572D01*
X133244678Y-74078927D01*
X133244681Y-74078933D01*
X133246965Y-74083830D01*
X133250064Y-74088257D01*
X133250066Y-74088259D01*
X133379399Y-74272966D01*
X133379402Y-74272970D01*
X133382505Y-74277401D01*
X133549599Y-74444495D01*
X133743170Y-74580035D01*
X133957337Y-74679903D01*
X134185592Y-74741063D01*
X134421000Y-74761659D01*
X134656408Y-74741063D01*
X134884663Y-74679903D01*
X135098830Y-74580035D01*
X135292401Y-74444495D01*
X135459495Y-74277401D01*
X135589424Y-74091842D01*
X135633743Y-74052976D01*
X135691000Y-74038965D01*
X135748257Y-74052976D01*
X135792575Y-74091842D01*
X135919395Y-74272961D01*
X135919401Y-74272968D01*
X135922505Y-74277401D01*
X136089599Y-74444495D01*
X136283170Y-74580035D01*
X136497337Y-74679903D01*
X136725592Y-74741063D01*
X136961000Y-74761659D01*
X137196408Y-74741063D01*
X137424663Y-74679903D01*
X137638830Y-74580035D01*
X137832401Y-74444495D01*
X137999495Y-74277401D01*
X138134652Y-74084376D01*
X138178971Y-74045511D01*
X138236228Y-74031500D01*
X152817548Y-74031500D01*
X152865001Y-74040939D01*
X152905229Y-74067819D01*
X164276887Y-85439478D01*
X164310372Y-85500801D01*
X164305388Y-85570492D01*
X164216897Y-85807747D01*
X164215348Y-85811901D01*
X164214406Y-85816228D01*
X164214405Y-85816234D01*
X164157287Y-86078799D01*
X164157285Y-86078809D01*
X164156345Y-86083133D01*
X164156029Y-86087544D01*
X164156028Y-86087555D01*
X164137297Y-86349453D01*
X164136543Y-86360000D01*
X164136859Y-86364418D01*
X164156028Y-86632444D01*
X164156029Y-86632453D01*
X164156345Y-86636867D01*
X164157285Y-86641192D01*
X164157287Y-86641200D01*
X164214405Y-86903765D01*
X164215348Y-86908099D01*
X164216897Y-86912252D01*
X164310802Y-87164023D01*
X164310804Y-87164029D01*
X164312350Y-87168172D01*
X164314472Y-87172058D01*
X164443250Y-87407899D01*
X164443254Y-87407906D01*
X164445377Y-87411793D01*
X164448034Y-87415342D01*
X164609069Y-87630460D01*
X164609074Y-87630466D01*
X164611722Y-87634003D01*
X164807997Y-87830278D01*
X164811534Y-87832926D01*
X164811539Y-87832930D01*
X164917855Y-87912517D01*
X165030207Y-87996623D01*
X165273828Y-88129650D01*
X165533901Y-88226652D01*
X165805133Y-88285655D01*
X166082000Y-88305457D01*
X166358867Y-88285655D01*
X166630099Y-88226652D01*
X166890172Y-88129650D01*
X167133793Y-87996623D01*
X167356003Y-87830278D01*
X167552278Y-87634003D01*
X167718623Y-87411793D01*
X167851650Y-87168172D01*
X167948652Y-86908099D01*
X168007655Y-86636867D01*
X168027457Y-86360000D01*
X168007655Y-86083133D01*
X167948652Y-85811901D01*
X167851650Y-85551828D01*
X167718623Y-85308207D01*
X167552278Y-85085997D01*
X167356003Y-84889722D01*
X167352466Y-84887074D01*
X167352460Y-84887069D01*
X167137342Y-84726034D01*
X167133793Y-84723377D01*
X167129906Y-84721254D01*
X167129899Y-84721250D01*
X166894058Y-84592472D01*
X166890172Y-84590350D01*
X166886029Y-84588804D01*
X166886023Y-84588802D01*
X166634252Y-84494897D01*
X166630099Y-84493348D01*
X166625767Y-84492405D01*
X166625765Y-84492405D01*
X166363200Y-84435287D01*
X166363192Y-84435285D01*
X166358867Y-84434345D01*
X166354453Y-84434029D01*
X166354444Y-84434028D01*
X166086418Y-84414859D01*
X166082000Y-84414543D01*
X166077582Y-84414859D01*
X165809555Y-84434028D01*
X165809544Y-84434029D01*
X165805133Y-84434345D01*
X165800809Y-84435285D01*
X165800799Y-84435287D01*
X165538234Y-84492405D01*
X165538228Y-84492406D01*
X165533901Y-84493348D01*
X165529751Y-84494895D01*
X165529747Y-84494897D01*
X165292492Y-84583388D01*
X165222801Y-84588372D01*
X165161478Y-84554887D01*
X153625286Y-73018695D01*
X153617842Y-73010514D01*
X153613786Y-73004123D01*
X153564775Y-72958098D01*
X153561978Y-72955387D01*
X153545227Y-72938636D01*
X153542471Y-72935880D01*
X153539290Y-72933412D01*
X153530414Y-72925830D01*
X153504269Y-72901278D01*
X153504267Y-72901276D01*
X153498582Y-72895938D01*
X153491749Y-72892182D01*
X153491743Y-72892177D01*
X153481025Y-72886285D01*
X153464766Y-72875606D01*
X153455095Y-72868104D01*
X153455092Y-72868102D01*
X153448936Y-72863327D01*
X153441779Y-72860229D01*
X153441776Y-72860228D01*
X153408849Y-72845978D01*
X153398363Y-72840841D01*
X153366932Y-72823562D01*
X153366923Y-72823558D01*
X153360092Y-72819803D01*
X153352535Y-72817862D01*
X153352531Y-72817861D01*
X153340688Y-72814820D01*
X153322284Y-72808519D01*
X153311057Y-72803660D01*
X153311050Y-72803658D01*
X153303896Y-72800562D01*
X153296192Y-72799341D01*
X153296190Y-72799341D01*
X153260759Y-72793729D01*
X153249324Y-72791361D01*
X153214571Y-72782438D01*
X153214563Y-72782437D01*
X153207019Y-72780500D01*
X153199223Y-72780500D01*
X153186983Y-72780500D01*
X153167597Y-72778974D01*
X153147804Y-72775840D01*
X153140038Y-72776574D01*
X153140035Y-72776574D01*
X153104324Y-72779950D01*
X153092655Y-72780500D01*
X138236226Y-72780500D01*
X138178969Y-72766489D01*
X138134651Y-72727623D01*
X138129425Y-72720159D01*
X137999495Y-72534599D01*
X137832401Y-72367505D01*
X137827970Y-72364402D01*
X137827966Y-72364399D01*
X137646841Y-72237574D01*
X137607976Y-72193256D01*
X137593965Y-72135999D01*
X137607976Y-72078742D01*
X137646839Y-72034426D01*
X137832401Y-71904495D01*
X137999495Y-71737401D01*
X138078450Y-71624640D01*
X138134653Y-71544376D01*
X138178971Y-71505511D01*
X138236228Y-71491500D01*
X155357548Y-71491500D01*
X155405001Y-71500939D01*
X155445229Y-71527819D01*
X164276887Y-80359478D01*
X164310372Y-80420801D01*
X164305388Y-80490492D01*
X164216897Y-80727747D01*
X164215348Y-80731901D01*
X164214406Y-80736228D01*
X164214405Y-80736234D01*
X164157287Y-80998799D01*
X164157285Y-80998809D01*
X164156345Y-81003133D01*
X164156029Y-81007544D01*
X164156028Y-81007555D01*
X164137297Y-81269453D01*
X164136543Y-81280000D01*
X164136859Y-81284418D01*
X164156028Y-81552444D01*
X164156029Y-81552453D01*
X164156345Y-81556867D01*
X164157285Y-81561192D01*
X164157287Y-81561200D01*
X164214405Y-81823765D01*
X164215348Y-81828099D01*
X164216897Y-81832252D01*
X164310802Y-82084023D01*
X164310804Y-82084029D01*
X164312350Y-82088172D01*
X164314472Y-82092058D01*
X164443250Y-82327899D01*
X164443254Y-82327906D01*
X164445377Y-82331793D01*
X164448034Y-82335342D01*
X164609069Y-82550460D01*
X164609074Y-82550466D01*
X164611722Y-82554003D01*
X164807997Y-82750278D01*
X164811534Y-82752926D01*
X164811539Y-82752930D01*
X164917855Y-82832517D01*
X165030207Y-82916623D01*
X165273828Y-83049650D01*
X165533901Y-83146652D01*
X165805133Y-83205655D01*
X166082000Y-83225457D01*
X166358867Y-83205655D01*
X166630099Y-83146652D01*
X166890172Y-83049650D01*
X167133793Y-82916623D01*
X167356003Y-82750278D01*
X167552278Y-82554003D01*
X167718623Y-82331793D01*
X167851650Y-82088172D01*
X167948652Y-81828099D01*
X168007655Y-81556867D01*
X168027457Y-81280000D01*
X168007655Y-81003133D01*
X167948652Y-80731901D01*
X167851650Y-80471828D01*
X167718623Y-80228207D01*
X167552278Y-80005997D01*
X167356003Y-79809722D01*
X167352466Y-79807074D01*
X167352460Y-79807069D01*
X167137342Y-79646034D01*
X167133793Y-79643377D01*
X167129906Y-79641254D01*
X167129899Y-79641250D01*
X166894058Y-79512472D01*
X166890172Y-79510350D01*
X166886029Y-79508804D01*
X166886023Y-79508802D01*
X166634252Y-79414897D01*
X166630099Y-79413348D01*
X166625767Y-79412405D01*
X166625765Y-79412405D01*
X166363200Y-79355287D01*
X166363192Y-79355285D01*
X166358867Y-79354345D01*
X166354453Y-79354029D01*
X166354444Y-79354028D01*
X166086418Y-79334859D01*
X166082000Y-79334543D01*
X166077582Y-79334859D01*
X165809555Y-79354028D01*
X165809544Y-79354029D01*
X165805133Y-79354345D01*
X165800809Y-79355285D01*
X165800799Y-79355287D01*
X165538234Y-79412405D01*
X165538228Y-79412406D01*
X165533901Y-79413348D01*
X165529751Y-79414895D01*
X165529747Y-79414897D01*
X165292491Y-79503388D01*
X165222800Y-79508372D01*
X165161477Y-79474887D01*
X156165286Y-70478695D01*
X156157842Y-70470514D01*
X156153786Y-70464123D01*
X156104775Y-70418098D01*
X156101978Y-70415387D01*
X156085227Y-70398636D01*
X156085226Y-70398635D01*
X156082471Y-70395880D01*
X156079290Y-70393412D01*
X156070414Y-70385830D01*
X156044269Y-70361278D01*
X156044267Y-70361276D01*
X156038582Y-70355938D01*
X156031749Y-70352182D01*
X156031743Y-70352177D01*
X156021025Y-70346285D01*
X156004766Y-70335606D01*
X155995095Y-70328104D01*
X155995092Y-70328102D01*
X155988936Y-70323327D01*
X155981779Y-70320229D01*
X155981776Y-70320228D01*
X155948849Y-70305978D01*
X155938363Y-70300841D01*
X155906932Y-70283562D01*
X155906923Y-70283558D01*
X155900092Y-70279803D01*
X155892535Y-70277862D01*
X155892531Y-70277861D01*
X155880688Y-70274820D01*
X155862284Y-70268519D01*
X155851057Y-70263660D01*
X155851050Y-70263658D01*
X155843896Y-70260562D01*
X155836192Y-70259341D01*
X155836190Y-70259341D01*
X155800759Y-70253729D01*
X155789324Y-70251361D01*
X155754571Y-70242438D01*
X155754563Y-70242437D01*
X155747019Y-70240500D01*
X155739223Y-70240500D01*
X155726983Y-70240500D01*
X155707597Y-70238974D01*
X155687804Y-70235840D01*
X155680038Y-70236574D01*
X155680035Y-70236574D01*
X155644324Y-70239950D01*
X155632655Y-70240500D01*
X138236226Y-70240500D01*
X138178969Y-70226489D01*
X138134651Y-70187623D01*
X138129730Y-70180595D01*
X137999495Y-69994599D01*
X137832401Y-69827505D01*
X137827968Y-69824401D01*
X137827961Y-69824395D01*
X137646842Y-69697575D01*
X137607976Y-69653257D01*
X137593965Y-69596000D01*
X137607976Y-69538743D01*
X137646842Y-69494425D01*
X137827961Y-69367604D01*
X137827961Y-69367603D01*
X137832401Y-69364495D01*
X137999495Y-69197401D01*
X138134652Y-69004376D01*
X138178971Y-68965511D01*
X138236228Y-68951500D01*
X157897548Y-68951500D01*
X157945001Y-68960939D01*
X157985229Y-68987819D01*
X164276887Y-75279477D01*
X164310372Y-75340800D01*
X164305388Y-75410491D01*
X164216897Y-75647747D01*
X164215348Y-75651901D01*
X164214406Y-75656228D01*
X164214405Y-75656234D01*
X164157287Y-75918799D01*
X164157285Y-75918809D01*
X164156345Y-75923133D01*
X164156029Y-75927544D01*
X164156028Y-75927555D01*
X164137297Y-76189453D01*
X164136543Y-76200000D01*
X164136859Y-76204418D01*
X164156028Y-76472444D01*
X164156029Y-76472453D01*
X164156345Y-76476867D01*
X164157285Y-76481192D01*
X164157287Y-76481200D01*
X164214405Y-76743765D01*
X164215348Y-76748099D01*
X164216897Y-76752252D01*
X164310802Y-77004023D01*
X164310804Y-77004029D01*
X164312350Y-77008172D01*
X164314472Y-77012058D01*
X164443250Y-77247899D01*
X164443254Y-77247906D01*
X164445377Y-77251793D01*
X164448034Y-77255342D01*
X164609069Y-77470460D01*
X164609074Y-77470466D01*
X164611722Y-77474003D01*
X164807997Y-77670278D01*
X164811534Y-77672926D01*
X164811539Y-77672930D01*
X164917855Y-77752517D01*
X165030207Y-77836623D01*
X165273828Y-77969650D01*
X165533901Y-78066652D01*
X165805133Y-78125655D01*
X166082000Y-78145457D01*
X166358867Y-78125655D01*
X166630099Y-78066652D01*
X166890172Y-77969650D01*
X167133793Y-77836623D01*
X167356003Y-77670278D01*
X167552278Y-77474003D01*
X167718623Y-77251793D01*
X167851650Y-77008172D01*
X167948652Y-76748099D01*
X168007655Y-76476867D01*
X168027457Y-76200000D01*
X168007655Y-75923133D01*
X167948652Y-75651901D01*
X167851650Y-75391828D01*
X167718623Y-75148207D01*
X167552278Y-74925997D01*
X167356003Y-74729722D01*
X167352466Y-74727074D01*
X167352460Y-74727069D01*
X167156045Y-74580035D01*
X167133793Y-74563377D01*
X167129906Y-74561254D01*
X167129899Y-74561250D01*
X166894058Y-74432472D01*
X166890172Y-74430350D01*
X166886029Y-74428804D01*
X166886023Y-74428802D01*
X166634252Y-74334897D01*
X166630099Y-74333348D01*
X166625767Y-74332405D01*
X166625765Y-74332405D01*
X166363200Y-74275287D01*
X166363192Y-74275285D01*
X166358867Y-74274345D01*
X166354453Y-74274029D01*
X166354444Y-74274028D01*
X166086418Y-74254859D01*
X166082000Y-74254543D01*
X166077582Y-74254859D01*
X165809555Y-74274028D01*
X165809544Y-74274029D01*
X165805133Y-74274345D01*
X165800809Y-74275285D01*
X165800799Y-74275287D01*
X165538234Y-74332405D01*
X165538228Y-74332406D01*
X165533901Y-74333348D01*
X165529751Y-74334895D01*
X165529747Y-74334897D01*
X165292491Y-74423388D01*
X165222800Y-74428372D01*
X165161477Y-74394887D01*
X158705286Y-67938695D01*
X158697842Y-67930514D01*
X158693786Y-67924123D01*
X158644775Y-67878098D01*
X158641978Y-67875387D01*
X158625227Y-67858636D01*
X158622471Y-67855880D01*
X158619290Y-67853412D01*
X158610414Y-67845830D01*
X158584269Y-67821278D01*
X158584267Y-67821276D01*
X158578582Y-67815938D01*
X158571749Y-67812182D01*
X158571743Y-67812177D01*
X158561025Y-67806285D01*
X158544766Y-67795606D01*
X158535095Y-67788104D01*
X158535092Y-67788102D01*
X158528936Y-67783327D01*
X158521779Y-67780229D01*
X158521776Y-67780228D01*
X158488849Y-67765978D01*
X158478363Y-67760841D01*
X158446932Y-67743562D01*
X158446923Y-67743558D01*
X158440092Y-67739803D01*
X158432535Y-67737862D01*
X158432531Y-67737861D01*
X158420688Y-67734820D01*
X158402284Y-67728519D01*
X158391057Y-67723660D01*
X158391050Y-67723658D01*
X158383896Y-67720562D01*
X158376192Y-67719341D01*
X158376190Y-67719341D01*
X158340759Y-67713729D01*
X158329324Y-67711361D01*
X158294571Y-67702438D01*
X158294563Y-67702437D01*
X158287019Y-67700500D01*
X158279223Y-67700500D01*
X158266983Y-67700500D01*
X158247597Y-67698974D01*
X158227804Y-67695840D01*
X158220038Y-67696574D01*
X158220035Y-67696574D01*
X158184324Y-67699950D01*
X158172655Y-67700500D01*
X138236226Y-67700500D01*
X138178969Y-67686489D01*
X138134651Y-67647623D01*
X138002600Y-67459034D01*
X137999495Y-67454599D01*
X137832401Y-67287505D01*
X137827970Y-67284402D01*
X137827966Y-67284399D01*
X137643259Y-67155066D01*
X137643257Y-67155064D01*
X137638830Y-67151965D01*
X137633933Y-67149681D01*
X137633927Y-67149678D01*
X137429572Y-67054386D01*
X137429570Y-67054385D01*
X137424663Y-67052097D01*
X137419438Y-67050697D01*
X137419430Y-67050694D01*
X137201634Y-66992337D01*
X137201630Y-66992336D01*
X137196408Y-66990937D01*
X137191020Y-66990465D01*
X137191017Y-66990465D01*
X136966395Y-66970813D01*
X136961000Y-66970341D01*
X136955605Y-66970813D01*
X136730982Y-66990465D01*
X136730977Y-66990465D01*
X136725592Y-66990937D01*
X136720371Y-66992335D01*
X136720365Y-66992337D01*
X136502569Y-67050694D01*
X136502557Y-67050698D01*
X136497337Y-67052097D01*
X136492432Y-67054383D01*
X136492427Y-67054386D01*
X136288081Y-67149675D01*
X136288077Y-67149677D01*
X136283171Y-67151965D01*
X136278738Y-67155068D01*
X136278731Y-67155073D01*
X136094034Y-67284399D01*
X136094029Y-67284402D01*
X136089599Y-67287505D01*
X136085775Y-67291328D01*
X136085769Y-67291334D01*
X135926334Y-67450769D01*
X135926328Y-67450775D01*
X135922505Y-67454599D01*
X135919402Y-67459029D01*
X135919399Y-67459034D01*
X135792575Y-67640159D01*
X135748257Y-67679025D01*
X135691000Y-67693036D01*
X135633743Y-67679025D01*
X135589425Y-67640159D01*
X135462600Y-67459034D01*
X135459495Y-67454599D01*
X135292401Y-67287505D01*
X135287970Y-67284402D01*
X135287966Y-67284399D01*
X135099376Y-67152347D01*
X135060511Y-67108029D01*
X135046500Y-67050772D01*
X135046500Y-66803452D01*
X135055939Y-66755999D01*
X135082819Y-66715771D01*
X135858772Y-65939819D01*
X135899000Y-65912939D01*
X135946453Y-65903500D01*
X159929548Y-65903500D01*
X159977001Y-65912939D01*
X160017229Y-65939819D01*
X164276887Y-70199477D01*
X164310372Y-70260800D01*
X164305388Y-70330491D01*
X164216897Y-70567747D01*
X164215348Y-70571901D01*
X164214406Y-70576228D01*
X164214405Y-70576234D01*
X164157287Y-70838799D01*
X164157285Y-70838809D01*
X164156345Y-70843133D01*
X164156029Y-70847544D01*
X164156028Y-70847555D01*
X164141263Y-71054000D01*
X164136543Y-71120000D01*
X164136859Y-71124418D01*
X164156028Y-71392444D01*
X164156029Y-71392453D01*
X164156345Y-71396867D01*
X164157285Y-71401192D01*
X164157287Y-71401200D01*
X164189963Y-71551406D01*
X164215348Y-71668099D01*
X164216897Y-71672252D01*
X164310802Y-71924023D01*
X164310804Y-71924029D01*
X164312350Y-71928172D01*
X164314472Y-71932058D01*
X164443250Y-72167899D01*
X164443254Y-72167906D01*
X164445377Y-72171793D01*
X164461444Y-72193256D01*
X164609069Y-72390460D01*
X164609074Y-72390466D01*
X164611722Y-72394003D01*
X164807997Y-72590278D01*
X164811534Y-72592926D01*
X164811539Y-72592930D01*
X164917855Y-72672517D01*
X165030207Y-72756623D01*
X165034097Y-72758747D01*
X165034100Y-72758749D01*
X165093825Y-72791361D01*
X165273828Y-72889650D01*
X165533901Y-72986652D01*
X165805133Y-73045655D01*
X166082000Y-73065457D01*
X166358867Y-73045655D01*
X166630099Y-72986652D01*
X166890172Y-72889650D01*
X167133793Y-72756623D01*
X167356003Y-72590278D01*
X167552278Y-72394003D01*
X167718623Y-72171793D01*
X167851650Y-71928172D01*
X167948652Y-71668099D01*
X168007655Y-71396867D01*
X168027457Y-71120000D01*
X168007655Y-70843133D01*
X167948652Y-70571901D01*
X167851650Y-70311828D01*
X167718623Y-70068207D01*
X167552278Y-69845997D01*
X167356003Y-69649722D01*
X167352466Y-69647074D01*
X167352460Y-69647069D01*
X167137342Y-69486034D01*
X167133793Y-69483377D01*
X167129906Y-69481254D01*
X167129899Y-69481250D01*
X166894058Y-69352472D01*
X166890172Y-69350350D01*
X166886029Y-69348804D01*
X166886023Y-69348802D01*
X166634252Y-69254897D01*
X166630099Y-69253348D01*
X166625767Y-69252405D01*
X166625765Y-69252405D01*
X166363200Y-69195287D01*
X166363192Y-69195285D01*
X166358867Y-69194345D01*
X166354453Y-69194029D01*
X166354444Y-69194028D01*
X166086418Y-69174859D01*
X166082000Y-69174543D01*
X166077582Y-69174859D01*
X165809555Y-69194028D01*
X165809544Y-69194029D01*
X165805133Y-69194345D01*
X165800809Y-69195285D01*
X165800799Y-69195287D01*
X165538234Y-69252405D01*
X165538228Y-69252406D01*
X165533901Y-69253348D01*
X165529751Y-69254895D01*
X165529747Y-69254897D01*
X165292491Y-69343388D01*
X165222800Y-69348372D01*
X165161477Y-69314887D01*
X162974153Y-67127563D01*
X160737286Y-64890695D01*
X160729842Y-64882514D01*
X160725786Y-64876123D01*
X160676775Y-64830098D01*
X160673978Y-64827387D01*
X160657227Y-64810636D01*
X160654471Y-64807880D01*
X160651290Y-64805412D01*
X160642414Y-64797830D01*
X160616269Y-64773278D01*
X160616267Y-64773276D01*
X160610582Y-64767938D01*
X160603749Y-64764182D01*
X160603743Y-64764177D01*
X160593025Y-64758285D01*
X160576766Y-64747606D01*
X160567095Y-64740104D01*
X160567092Y-64740102D01*
X160560936Y-64735327D01*
X160553779Y-64732229D01*
X160553776Y-64732228D01*
X160520849Y-64717978D01*
X160510363Y-64712841D01*
X160478932Y-64695562D01*
X160478923Y-64695558D01*
X160472092Y-64691803D01*
X160464535Y-64689862D01*
X160464531Y-64689861D01*
X160452688Y-64686820D01*
X160434284Y-64680519D01*
X160423057Y-64675660D01*
X160423050Y-64675658D01*
X160415896Y-64672562D01*
X160408192Y-64671341D01*
X160408190Y-64671341D01*
X160372759Y-64665729D01*
X160361324Y-64663361D01*
X160326571Y-64654438D01*
X160326563Y-64654437D01*
X160319019Y-64652500D01*
X160311223Y-64652500D01*
X160298983Y-64652500D01*
X160279597Y-64650974D01*
X160259804Y-64647840D01*
X160252038Y-64648574D01*
X160252035Y-64648574D01*
X160216324Y-64651950D01*
X160204655Y-64652500D01*
X135713771Y-64652500D01*
X135702718Y-64651979D01*
X135695332Y-64650328D01*
X135687534Y-64650573D01*
X135628144Y-64652439D01*
X135624250Y-64652500D01*
X135596650Y-64652500D01*
X135592799Y-64652986D01*
X135592768Y-64652988D01*
X135592640Y-64653005D01*
X135581029Y-64653918D01*
X135545171Y-64655045D01*
X135545164Y-64655046D01*
X135537372Y-64655291D01*
X135529888Y-64657465D01*
X135529877Y-64657467D01*
X135518128Y-64660881D01*
X135499083Y-64664825D01*
X135486947Y-64666358D01*
X135486944Y-64666358D01*
X135479208Y-64667336D01*
X135471960Y-64670205D01*
X135471950Y-64670208D01*
X135438592Y-64683415D01*
X135427550Y-64687196D01*
X135393097Y-64697207D01*
X135393092Y-64697208D01*
X135385610Y-64699383D01*
X135378902Y-64703349D01*
X135378897Y-64703352D01*
X135368364Y-64709581D01*
X135350900Y-64718136D01*
X135339524Y-64722640D01*
X135339517Y-64722643D01*
X135332268Y-64725514D01*
X135325962Y-64730094D01*
X135325957Y-64730098D01*
X135296927Y-64751189D01*
X135287169Y-64757598D01*
X135256298Y-64775856D01*
X135249579Y-64779830D01*
X135244063Y-64785344D01*
X135244056Y-64785351D01*
X135235407Y-64794000D01*
X135220624Y-64806626D01*
X135210727Y-64813817D01*
X135210720Y-64813823D01*
X135204413Y-64818406D01*
X135199446Y-64824408D01*
X135199435Y-64824420D01*
X135176570Y-64852059D01*
X135168710Y-64860697D01*
X134033696Y-65995711D01*
X134025511Y-66003159D01*
X134019123Y-66007214D01*
X134013788Y-66012894D01*
X134013783Y-66012899D01*
X133973096Y-66056225D01*
X133970392Y-66059016D01*
X133953628Y-66075780D01*
X133953621Y-66075787D01*
X133950880Y-66078529D01*
X133948500Y-66081596D01*
X133948489Y-66081609D01*
X133948400Y-66081725D01*
X133940842Y-66090570D01*
X133916280Y-66116727D01*
X133916273Y-66116736D01*
X133910938Y-66122418D01*
X133907182Y-66129249D01*
X133907179Y-66129254D01*
X133901285Y-66139975D01*
X133890609Y-66156227D01*
X133883109Y-66165896D01*
X133883101Y-66165907D01*
X133878327Y-66172064D01*
X133875234Y-66179208D01*
X133875229Y-66179219D01*
X133860974Y-66212160D01*
X133855838Y-66222643D01*
X133834803Y-66260908D01*
X133832864Y-66268456D01*
X133832863Y-66268461D01*
X133829822Y-66280307D01*
X133823521Y-66298711D01*
X133818658Y-66309948D01*
X133818656Y-66309952D01*
X133815562Y-66317104D01*
X133814342Y-66324803D01*
X133814342Y-66324805D01*
X133808729Y-66360241D01*
X133806361Y-66371676D01*
X133797438Y-66406428D01*
X133797436Y-66406436D01*
X133795500Y-66413981D01*
X133795500Y-66421777D01*
X133795500Y-66434017D01*
X133793974Y-66453402D01*
X133790840Y-66473196D01*
X133791574Y-66480961D01*
X133791574Y-66480964D01*
X133794950Y-66516676D01*
X133795500Y-66528345D01*
X133795500Y-67050774D01*
X133781489Y-67108031D01*
X133742625Y-67152347D01*
X133680968Y-67195519D01*
X133554034Y-67284399D01*
X133554029Y-67284402D01*
X133549599Y-67287505D01*
X133545775Y-67291328D01*
X133545769Y-67291334D01*
X133386334Y-67450769D01*
X133386328Y-67450775D01*
X133382505Y-67454599D01*
X133379402Y-67459029D01*
X133379399Y-67459034D01*
X133250073Y-67643731D01*
X133250068Y-67643738D01*
X133246965Y-67648171D01*
X133244677Y-67653077D01*
X133244675Y-67653081D01*
X133149386Y-67857427D01*
X133149383Y-67857432D01*
X133147097Y-67862337D01*
X133145698Y-67867557D01*
X133145694Y-67867569D01*
X133087337Y-68085365D01*
X133087335Y-68085371D01*
X133085937Y-68090592D01*
X133065341Y-68326000D01*
X133085937Y-68561408D01*
X133087336Y-68566630D01*
X133087337Y-68566634D01*
X133145694Y-68784430D01*
X133145697Y-68784438D01*
X133147097Y-68789663D01*
X133149385Y-68794570D01*
X133149386Y-68794572D01*
X133244678Y-68998927D01*
X133244681Y-68998933D01*
X133246965Y-69003830D01*
X133250064Y-69008257D01*
X133250066Y-69008259D01*
X133379399Y-69192966D01*
X133379402Y-69192970D01*
X133382505Y-69197401D01*
X133549599Y-69364495D01*
X133554031Y-69367598D01*
X133554033Y-69367600D01*
X133735595Y-69494731D01*
X133774460Y-69539049D01*
X133788471Y-69596306D01*
X133774460Y-69653563D01*
X133735595Y-69697881D01*
X133554352Y-69824788D01*
X133546092Y-69831719D01*
X133386719Y-69991092D01*
X133379784Y-69999357D01*
X133250508Y-70183982D01*
X133245110Y-70193332D01*
X133149856Y-70397602D01*
X133146168Y-70407736D01*
X133094056Y-70602219D01*
X133093688Y-70613448D01*
X133104631Y-70616000D01*
X134547000Y-70616000D01*
X134609000Y-70632613D01*
X134654387Y-70678000D01*
X134671000Y-70740000D01*
X134671000Y-70992000D01*
X134654387Y-71054000D01*
X134609000Y-71099387D01*
X134547000Y-71116000D01*
X133104631Y-71116000D01*
X133093688Y-71118551D01*
X133094056Y-71129780D01*
X133146168Y-71324263D01*
X133149856Y-71334397D01*
X133245113Y-71538676D01*
X133250501Y-71548008D01*
X133379784Y-71732643D01*
X133386721Y-71740909D01*
X133546090Y-71900278D01*
X133554356Y-71907215D01*
X133735595Y-72034120D01*
X133774460Y-72078438D01*
X133788471Y-72135695D01*
X133774460Y-72192952D01*
X133735594Y-72237270D01*
X133554034Y-72364399D01*
X133554029Y-72364402D01*
X133549599Y-72367505D01*
X133545775Y-72371328D01*
X133545769Y-72371334D01*
X133386334Y-72530769D01*
X133386328Y-72530775D01*
X133382505Y-72534599D01*
X133379402Y-72539029D01*
X133379399Y-72539034D01*
X133250073Y-72723731D01*
X133250068Y-72723738D01*
X133246965Y-72728171D01*
X133244677Y-72733077D01*
X133244675Y-72733081D01*
X133149386Y-72937427D01*
X133149383Y-72937432D01*
X133147097Y-72942337D01*
X133145698Y-72947557D01*
X133145694Y-72947569D01*
X133087337Y-73165365D01*
X133087335Y-73165371D01*
X133085937Y-73170592D01*
X133065341Y-73406000D01*
X100000500Y-73406000D01*
X100000500Y-63124500D01*
X100017113Y-63062500D01*
X100062500Y-63017113D01*
X100124500Y-63000500D01*
X174625500Y-63000500D01*
X174687500Y-63017113D01*
G37*
%TD.AperFunction*%
%TD*%
M02*
