%TF.GenerationSoftware,KiCad,Pcbnew,(7.0.0)*%
%TF.CreationDate,2023-03-18T03:08:11-07:00*%
%TF.ProjectId,Bottom_Board,426f7474-6f6d-45f4-926f-6172642e6b69,0*%
%TF.SameCoordinates,Original*%
%TF.FileFunction,Legend,Top*%
%TF.FilePolarity,Positive*%
%FSLAX46Y46*%
G04 Gerber Fmt 4.6, Leading zero omitted, Abs format (unit mm)*
G04 Created by KiCad (PCBNEW (7.0.0)) date 2023-03-18 03:08:11*
%MOMM*%
%LPD*%
G01*
G04 APERTURE LIST*
%ADD10C,0.150000*%
%ADD11C,0.120000*%
G04 APERTURE END LIST*
D10*
X142684476Y-76204666D02*
X143160666Y-76204666D01*
X142589238Y-76490380D02*
X142922571Y-75490380D01*
X142922571Y-75490380D02*
X143255904Y-76490380D01*
X143589238Y-76490380D02*
X143589238Y-75490380D01*
X143589238Y-75490380D02*
X144160666Y-76490380D01*
X144160666Y-76490380D02*
X144160666Y-75490380D01*
X144827333Y-75490380D02*
X144922571Y-75490380D01*
X144922571Y-75490380D02*
X145017809Y-75538000D01*
X145017809Y-75538000D02*
X145065428Y-75585619D01*
X145065428Y-75585619D02*
X145113047Y-75680857D01*
X145113047Y-75680857D02*
X145160666Y-75871333D01*
X145160666Y-75871333D02*
X145160666Y-76109428D01*
X145160666Y-76109428D02*
X145113047Y-76299904D01*
X145113047Y-76299904D02*
X145065428Y-76395142D01*
X145065428Y-76395142D02*
X145017809Y-76442761D01*
X145017809Y-76442761D02*
X144922571Y-76490380D01*
X144922571Y-76490380D02*
X144827333Y-76490380D01*
X144827333Y-76490380D02*
X144732095Y-76442761D01*
X144732095Y-76442761D02*
X144684476Y-76395142D01*
X144684476Y-76395142D02*
X144636857Y-76299904D01*
X144636857Y-76299904D02*
X144589238Y-76109428D01*
X144589238Y-76109428D02*
X144589238Y-75871333D01*
X144589238Y-75871333D02*
X144636857Y-75680857D01*
X144636857Y-75680857D02*
X144684476Y-75585619D01*
X144684476Y-75585619D02*
X144732095Y-75538000D01*
X144732095Y-75538000D02*
X144827333Y-75490380D01*
X142081238Y-100890380D02*
X142414571Y-101890380D01*
X142414571Y-101890380D02*
X142747904Y-100890380D01*
X143414571Y-101366571D02*
X143557428Y-101414190D01*
X143557428Y-101414190D02*
X143605047Y-101461809D01*
X143605047Y-101461809D02*
X143652666Y-101557047D01*
X143652666Y-101557047D02*
X143652666Y-101699904D01*
X143652666Y-101699904D02*
X143605047Y-101795142D01*
X143605047Y-101795142D02*
X143557428Y-101842761D01*
X143557428Y-101842761D02*
X143462190Y-101890380D01*
X143462190Y-101890380D02*
X143081238Y-101890380D01*
X143081238Y-101890380D02*
X143081238Y-100890380D01*
X143081238Y-100890380D02*
X143414571Y-100890380D01*
X143414571Y-100890380D02*
X143509809Y-100938000D01*
X143509809Y-100938000D02*
X143557428Y-100985619D01*
X143557428Y-100985619D02*
X143605047Y-101080857D01*
X143605047Y-101080857D02*
X143605047Y-101176095D01*
X143605047Y-101176095D02*
X143557428Y-101271333D01*
X143557428Y-101271333D02*
X143509809Y-101318952D01*
X143509809Y-101318952D02*
X143414571Y-101366571D01*
X143414571Y-101366571D02*
X143081238Y-101366571D01*
X144033619Y-101604666D02*
X144509809Y-101604666D01*
X143938381Y-101890380D02*
X144271714Y-100890380D01*
X144271714Y-100890380D02*
X144605047Y-101890380D01*
X144795524Y-100890380D02*
X145366952Y-100890380D01*
X145081238Y-101890380D02*
X145081238Y-100890380D01*
X142938476Y-86618666D02*
X143414666Y-86618666D01*
X142843238Y-86904380D02*
X143176571Y-85904380D01*
X143176571Y-85904380D02*
X143509904Y-86904380D01*
X143843238Y-86904380D02*
X143843238Y-85904380D01*
X143843238Y-85904380D02*
X144414666Y-86904380D01*
X144414666Y-86904380D02*
X144414666Y-85904380D01*
X145414666Y-86904380D02*
X144843238Y-86904380D01*
X145128952Y-86904380D02*
X145128952Y-85904380D01*
X145128952Y-85904380D02*
X145033714Y-86047238D01*
X145033714Y-86047238D02*
X144938476Y-86142476D01*
X144938476Y-86142476D02*
X144843238Y-86190095D01*
X142684476Y-97032666D02*
X143160666Y-97032666D01*
X142589238Y-97318380D02*
X142922571Y-96318380D01*
X142922571Y-96318380D02*
X143255904Y-97318380D01*
X143589238Y-97318380D02*
X143589238Y-96318380D01*
X143589238Y-96318380D02*
X144160666Y-97318380D01*
X144160666Y-97318380D02*
X144160666Y-96318380D01*
X144541619Y-96318380D02*
X145160666Y-96318380D01*
X145160666Y-96318380D02*
X144827333Y-96699333D01*
X144827333Y-96699333D02*
X144970190Y-96699333D01*
X144970190Y-96699333D02*
X145065428Y-96746952D01*
X145065428Y-96746952D02*
X145113047Y-96794571D01*
X145113047Y-96794571D02*
X145160666Y-96889809D01*
X145160666Y-96889809D02*
X145160666Y-97127904D01*
X145160666Y-97127904D02*
X145113047Y-97223142D01*
X145113047Y-97223142D02*
X145065428Y-97270761D01*
X145065428Y-97270761D02*
X144970190Y-97318380D01*
X144970190Y-97318380D02*
X144684476Y-97318380D01*
X144684476Y-97318380D02*
X144589238Y-97270761D01*
X144589238Y-97270761D02*
X144541619Y-97223142D01*
X143700476Y-106430666D02*
X144176666Y-106430666D01*
X143605238Y-106716380D02*
X143938571Y-105716380D01*
X143938571Y-105716380D02*
X144271904Y-106716380D01*
X145129047Y-106716380D02*
X144557619Y-106716380D01*
X144843333Y-106716380D02*
X144843333Y-105716380D01*
X144843333Y-105716380D02*
X144748095Y-105859238D01*
X144748095Y-105859238D02*
X144652857Y-105954476D01*
X144652857Y-105954476D02*
X144557619Y-106002095D01*
X143700476Y-111764666D02*
X144176666Y-111764666D01*
X143605238Y-112050380D02*
X143938571Y-111050380D01*
X143938571Y-111050380D02*
X144271904Y-112050380D01*
X144795714Y-111050380D02*
X144890952Y-111050380D01*
X144890952Y-111050380D02*
X144986190Y-111098000D01*
X144986190Y-111098000D02*
X145033809Y-111145619D01*
X145033809Y-111145619D02*
X145081428Y-111240857D01*
X145081428Y-111240857D02*
X145129047Y-111431333D01*
X145129047Y-111431333D02*
X145129047Y-111669428D01*
X145129047Y-111669428D02*
X145081428Y-111859904D01*
X145081428Y-111859904D02*
X145033809Y-111955142D01*
X145033809Y-111955142D02*
X144986190Y-112002761D01*
X144986190Y-112002761D02*
X144890952Y-112050380D01*
X144890952Y-112050380D02*
X144795714Y-112050380D01*
X144795714Y-112050380D02*
X144700476Y-112002761D01*
X144700476Y-112002761D02*
X144652857Y-111955142D01*
X144652857Y-111955142D02*
X144605238Y-111859904D01*
X144605238Y-111859904D02*
X144557619Y-111669428D01*
X144557619Y-111669428D02*
X144557619Y-111431333D01*
X144557619Y-111431333D02*
X144605238Y-111240857D01*
X144605238Y-111240857D02*
X144652857Y-111145619D01*
X144652857Y-111145619D02*
X144700476Y-111098000D01*
X144700476Y-111098000D02*
X144795714Y-111050380D01*
X125666476Y-137164666D02*
X126142666Y-137164666D01*
X125571238Y-137450380D02*
X125904571Y-136450380D01*
X125904571Y-136450380D02*
X126237904Y-137450380D01*
X126761714Y-136450380D02*
X126856952Y-136450380D01*
X126856952Y-136450380D02*
X126952190Y-136498000D01*
X126952190Y-136498000D02*
X126999809Y-136545619D01*
X126999809Y-136545619D02*
X127047428Y-136640857D01*
X127047428Y-136640857D02*
X127095047Y-136831333D01*
X127095047Y-136831333D02*
X127095047Y-137069428D01*
X127095047Y-137069428D02*
X127047428Y-137259904D01*
X127047428Y-137259904D02*
X126999809Y-137355142D01*
X126999809Y-137355142D02*
X126952190Y-137402761D01*
X126952190Y-137402761D02*
X126856952Y-137450380D01*
X126856952Y-137450380D02*
X126761714Y-137450380D01*
X126761714Y-137450380D02*
X126666476Y-137402761D01*
X126666476Y-137402761D02*
X126618857Y-137355142D01*
X126618857Y-137355142D02*
X126571238Y-137259904D01*
X126571238Y-137259904D02*
X126523619Y-137069428D01*
X126523619Y-137069428D02*
X126523619Y-136831333D01*
X126523619Y-136831333D02*
X126571238Y-136640857D01*
X126571238Y-136640857D02*
X126618857Y-136545619D01*
X126618857Y-136545619D02*
X126666476Y-136498000D01*
X126666476Y-136498000D02*
X126761714Y-136450380D01*
X125920476Y-142752666D02*
X126396666Y-142752666D01*
X125825238Y-143038380D02*
X126158571Y-142038380D01*
X126158571Y-142038380D02*
X126491904Y-143038380D01*
X127349047Y-143038380D02*
X126777619Y-143038380D01*
X127063333Y-143038380D02*
X127063333Y-142038380D01*
X127063333Y-142038380D02*
X126968095Y-142181238D01*
X126968095Y-142181238D02*
X126872857Y-142276476D01*
X126872857Y-142276476D02*
X126777619Y-142324095D01*
X134858095Y-137704380D02*
X134858095Y-136704380D01*
X134858095Y-136704380D02*
X135096190Y-136704380D01*
X135096190Y-136704380D02*
X135239047Y-136752000D01*
X135239047Y-136752000D02*
X135334285Y-136847238D01*
X135334285Y-136847238D02*
X135381904Y-136942476D01*
X135381904Y-136942476D02*
X135429523Y-137132952D01*
X135429523Y-137132952D02*
X135429523Y-137275809D01*
X135429523Y-137275809D02*
X135381904Y-137466285D01*
X135381904Y-137466285D02*
X135334285Y-137561523D01*
X135334285Y-137561523D02*
X135239047Y-137656761D01*
X135239047Y-137656761D02*
X135096190Y-137704380D01*
X135096190Y-137704380D02*
X134858095Y-137704380D01*
X136334285Y-136704380D02*
X135858095Y-136704380D01*
X135858095Y-136704380D02*
X135810476Y-137180571D01*
X135810476Y-137180571D02*
X135858095Y-137132952D01*
X135858095Y-137132952D02*
X135953333Y-137085333D01*
X135953333Y-137085333D02*
X136191428Y-137085333D01*
X136191428Y-137085333D02*
X136286666Y-137132952D01*
X136286666Y-137132952D02*
X136334285Y-137180571D01*
X136334285Y-137180571D02*
X136381904Y-137275809D01*
X136381904Y-137275809D02*
X136381904Y-137513904D01*
X136381904Y-137513904D02*
X136334285Y-137609142D01*
X136334285Y-137609142D02*
X136286666Y-137656761D01*
X136286666Y-137656761D02*
X136191428Y-137704380D01*
X136191428Y-137704380D02*
X135953333Y-137704380D01*
X135953333Y-137704380D02*
X135858095Y-137656761D01*
X135858095Y-137656761D02*
X135810476Y-137609142D01*
X134858095Y-142784380D02*
X134858095Y-141784380D01*
X134858095Y-141784380D02*
X135096190Y-141784380D01*
X135096190Y-141784380D02*
X135239047Y-141832000D01*
X135239047Y-141832000D02*
X135334285Y-141927238D01*
X135334285Y-141927238D02*
X135381904Y-142022476D01*
X135381904Y-142022476D02*
X135429523Y-142212952D01*
X135429523Y-142212952D02*
X135429523Y-142355809D01*
X135429523Y-142355809D02*
X135381904Y-142546285D01*
X135381904Y-142546285D02*
X135334285Y-142641523D01*
X135334285Y-142641523D02*
X135239047Y-142736761D01*
X135239047Y-142736761D02*
X135096190Y-142784380D01*
X135096190Y-142784380D02*
X134858095Y-142784380D01*
X135905714Y-142784380D02*
X136096190Y-142784380D01*
X136096190Y-142784380D02*
X136191428Y-142736761D01*
X136191428Y-142736761D02*
X136239047Y-142689142D01*
X136239047Y-142689142D02*
X136334285Y-142546285D01*
X136334285Y-142546285D02*
X136381904Y-142355809D01*
X136381904Y-142355809D02*
X136381904Y-141974857D01*
X136381904Y-141974857D02*
X136334285Y-141879619D01*
X136334285Y-141879619D02*
X136286666Y-141832000D01*
X136286666Y-141832000D02*
X136191428Y-141784380D01*
X136191428Y-141784380D02*
X136000952Y-141784380D01*
X136000952Y-141784380D02*
X135905714Y-141832000D01*
X135905714Y-141832000D02*
X135858095Y-141879619D01*
X135858095Y-141879619D02*
X135810476Y-141974857D01*
X135810476Y-141974857D02*
X135810476Y-142212952D01*
X135810476Y-142212952D02*
X135858095Y-142308190D01*
X135858095Y-142308190D02*
X135905714Y-142355809D01*
X135905714Y-142355809D02*
X136000952Y-142403428D01*
X136000952Y-142403428D02*
X136191428Y-142403428D01*
X136191428Y-142403428D02*
X136286666Y-142355809D01*
X136286666Y-142355809D02*
X136334285Y-142308190D01*
X136334285Y-142308190D02*
X136381904Y-142212952D01*
X143494095Y-122210380D02*
X143494095Y-121210380D01*
X143494095Y-121210380D02*
X143732190Y-121210380D01*
X143732190Y-121210380D02*
X143875047Y-121258000D01*
X143875047Y-121258000D02*
X143970285Y-121353238D01*
X143970285Y-121353238D02*
X144017904Y-121448476D01*
X144017904Y-121448476D02*
X144065523Y-121638952D01*
X144065523Y-121638952D02*
X144065523Y-121781809D01*
X144065523Y-121781809D02*
X144017904Y-121972285D01*
X144017904Y-121972285D02*
X143970285Y-122067523D01*
X143970285Y-122067523D02*
X143875047Y-122162761D01*
X143875047Y-122162761D02*
X143732190Y-122210380D01*
X143732190Y-122210380D02*
X143494095Y-122210380D01*
X144970285Y-121210380D02*
X144494095Y-121210380D01*
X144494095Y-121210380D02*
X144446476Y-121686571D01*
X144446476Y-121686571D02*
X144494095Y-121638952D01*
X144494095Y-121638952D02*
X144589333Y-121591333D01*
X144589333Y-121591333D02*
X144827428Y-121591333D01*
X144827428Y-121591333D02*
X144922666Y-121638952D01*
X144922666Y-121638952D02*
X144970285Y-121686571D01*
X144970285Y-121686571D02*
X145017904Y-121781809D01*
X145017904Y-121781809D02*
X145017904Y-122019904D01*
X145017904Y-122019904D02*
X144970285Y-122115142D01*
X144970285Y-122115142D02*
X144922666Y-122162761D01*
X144922666Y-122162761D02*
X144827428Y-122210380D01*
X144827428Y-122210380D02*
X144589333Y-122210380D01*
X144589333Y-122210380D02*
X144494095Y-122162761D01*
X144494095Y-122162761D02*
X144446476Y-122115142D01*
X143494095Y-132624380D02*
X143494095Y-131624380D01*
X143494095Y-131624380D02*
X143732190Y-131624380D01*
X143732190Y-131624380D02*
X143875047Y-131672000D01*
X143875047Y-131672000D02*
X143970285Y-131767238D01*
X143970285Y-131767238D02*
X144017904Y-131862476D01*
X144017904Y-131862476D02*
X144065523Y-132052952D01*
X144065523Y-132052952D02*
X144065523Y-132195809D01*
X144065523Y-132195809D02*
X144017904Y-132386285D01*
X144017904Y-132386285D02*
X143970285Y-132481523D01*
X143970285Y-132481523D02*
X143875047Y-132576761D01*
X143875047Y-132576761D02*
X143732190Y-132624380D01*
X143732190Y-132624380D02*
X143494095Y-132624380D01*
X144541714Y-132624380D02*
X144732190Y-132624380D01*
X144732190Y-132624380D02*
X144827428Y-132576761D01*
X144827428Y-132576761D02*
X144875047Y-132529142D01*
X144875047Y-132529142D02*
X144970285Y-132386285D01*
X144970285Y-132386285D02*
X145017904Y-132195809D01*
X145017904Y-132195809D02*
X145017904Y-131814857D01*
X145017904Y-131814857D02*
X144970285Y-131719619D01*
X144970285Y-131719619D02*
X144922666Y-131672000D01*
X144922666Y-131672000D02*
X144827428Y-131624380D01*
X144827428Y-131624380D02*
X144636952Y-131624380D01*
X144636952Y-131624380D02*
X144541714Y-131672000D01*
X144541714Y-131672000D02*
X144494095Y-131719619D01*
X144494095Y-131719619D02*
X144446476Y-131814857D01*
X144446476Y-131814857D02*
X144446476Y-132052952D01*
X144446476Y-132052952D02*
X144494095Y-132148190D01*
X144494095Y-132148190D02*
X144541714Y-132195809D01*
X144541714Y-132195809D02*
X144636952Y-132243428D01*
X144636952Y-132243428D02*
X144827428Y-132243428D01*
X144827428Y-132243428D02*
X144922666Y-132195809D01*
X144922666Y-132195809D02*
X144970285Y-132148190D01*
X144970285Y-132148190D02*
X145017904Y-132052952D01*
X134556476Y-68584666D02*
X135032666Y-68584666D01*
X134461238Y-68870380D02*
X134794571Y-67870380D01*
X134794571Y-67870380D02*
X135127904Y-68870380D01*
X135461238Y-68870380D02*
X135461238Y-67870380D01*
X135461238Y-67870380D02*
X136032666Y-68870380D01*
X136032666Y-68870380D02*
X136032666Y-67870380D01*
X137032666Y-68870380D02*
X136461238Y-68870380D01*
X136746952Y-68870380D02*
X136746952Y-67870380D01*
X136746952Y-67870380D02*
X136651714Y-68013238D01*
X136651714Y-68013238D02*
X136556476Y-68108476D01*
X136556476Y-68108476D02*
X136461238Y-68156095D01*
X134556476Y-73410666D02*
X135032666Y-73410666D01*
X134461238Y-73696380D02*
X134794571Y-72696380D01*
X134794571Y-72696380D02*
X135127904Y-73696380D01*
X135461238Y-73696380D02*
X135461238Y-72696380D01*
X135461238Y-72696380D02*
X136032666Y-73696380D01*
X136032666Y-73696380D02*
X136032666Y-72696380D01*
X136413619Y-72696380D02*
X137032666Y-72696380D01*
X137032666Y-72696380D02*
X136699333Y-73077333D01*
X136699333Y-73077333D02*
X136842190Y-73077333D01*
X136842190Y-73077333D02*
X136937428Y-73124952D01*
X136937428Y-73124952D02*
X136985047Y-73172571D01*
X136985047Y-73172571D02*
X137032666Y-73267809D01*
X137032666Y-73267809D02*
X137032666Y-73505904D01*
X137032666Y-73505904D02*
X136985047Y-73601142D01*
X136985047Y-73601142D02*
X136937428Y-73648761D01*
X136937428Y-73648761D02*
X136842190Y-73696380D01*
X136842190Y-73696380D02*
X136556476Y-73696380D01*
X136556476Y-73696380D02*
X136461238Y-73648761D01*
X136461238Y-73648761D02*
X136413619Y-73601142D01*
X142684476Y-92206666D02*
X143160666Y-92206666D01*
X142589238Y-92492380D02*
X142922571Y-91492380D01*
X142922571Y-91492380D02*
X143255904Y-92492380D01*
X143589238Y-92492380D02*
X143589238Y-91492380D01*
X143589238Y-91492380D02*
X144160666Y-92492380D01*
X144160666Y-92492380D02*
X144160666Y-91492380D01*
X144589238Y-91587619D02*
X144636857Y-91540000D01*
X144636857Y-91540000D02*
X144732095Y-91492380D01*
X144732095Y-91492380D02*
X144970190Y-91492380D01*
X144970190Y-91492380D02*
X145065428Y-91540000D01*
X145065428Y-91540000D02*
X145113047Y-91587619D01*
X145113047Y-91587619D02*
X145160666Y-91682857D01*
X145160666Y-91682857D02*
X145160666Y-91778095D01*
X145160666Y-91778095D02*
X145113047Y-91920952D01*
X145113047Y-91920952D02*
X144541619Y-92492380D01*
X144541619Y-92492380D02*
X145160666Y-92492380D01*
X143494095Y-127036380D02*
X143494095Y-126036380D01*
X143494095Y-126036380D02*
X143732190Y-126036380D01*
X143732190Y-126036380D02*
X143875047Y-126084000D01*
X143875047Y-126084000D02*
X143970285Y-126179238D01*
X143970285Y-126179238D02*
X144017904Y-126274476D01*
X144017904Y-126274476D02*
X144065523Y-126464952D01*
X144065523Y-126464952D02*
X144065523Y-126607809D01*
X144065523Y-126607809D02*
X144017904Y-126798285D01*
X144017904Y-126798285D02*
X143970285Y-126893523D01*
X143970285Y-126893523D02*
X143875047Y-126988761D01*
X143875047Y-126988761D02*
X143732190Y-127036380D01*
X143732190Y-127036380D02*
X143494095Y-127036380D01*
X144922666Y-126036380D02*
X144732190Y-126036380D01*
X144732190Y-126036380D02*
X144636952Y-126084000D01*
X144636952Y-126084000D02*
X144589333Y-126131619D01*
X144589333Y-126131619D02*
X144494095Y-126274476D01*
X144494095Y-126274476D02*
X144446476Y-126464952D01*
X144446476Y-126464952D02*
X144446476Y-126845904D01*
X144446476Y-126845904D02*
X144494095Y-126941142D01*
X144494095Y-126941142D02*
X144541714Y-126988761D01*
X144541714Y-126988761D02*
X144636952Y-127036380D01*
X144636952Y-127036380D02*
X144827428Y-127036380D01*
X144827428Y-127036380D02*
X144922666Y-126988761D01*
X144922666Y-126988761D02*
X144970285Y-126941142D01*
X144970285Y-126941142D02*
X145017904Y-126845904D01*
X145017904Y-126845904D02*
X145017904Y-126607809D01*
X145017904Y-126607809D02*
X144970285Y-126512571D01*
X144970285Y-126512571D02*
X144922666Y-126464952D01*
X144922666Y-126464952D02*
X144827428Y-126417333D01*
X144827428Y-126417333D02*
X144636952Y-126417333D01*
X144636952Y-126417333D02*
X144541714Y-126464952D01*
X144541714Y-126464952D02*
X144494095Y-126512571D01*
X144494095Y-126512571D02*
X144446476Y-126607809D01*
X125221904Y-70458000D02*
X125126666Y-70410380D01*
X125126666Y-70410380D02*
X124983809Y-70410380D01*
X124983809Y-70410380D02*
X124840952Y-70458000D01*
X124840952Y-70458000D02*
X124745714Y-70553238D01*
X124745714Y-70553238D02*
X124698095Y-70648476D01*
X124698095Y-70648476D02*
X124650476Y-70838952D01*
X124650476Y-70838952D02*
X124650476Y-70981809D01*
X124650476Y-70981809D02*
X124698095Y-71172285D01*
X124698095Y-71172285D02*
X124745714Y-71267523D01*
X124745714Y-71267523D02*
X124840952Y-71362761D01*
X124840952Y-71362761D02*
X124983809Y-71410380D01*
X124983809Y-71410380D02*
X125079047Y-71410380D01*
X125079047Y-71410380D02*
X125221904Y-71362761D01*
X125221904Y-71362761D02*
X125269523Y-71315142D01*
X125269523Y-71315142D02*
X125269523Y-70981809D01*
X125269523Y-70981809D02*
X125079047Y-70981809D01*
X125698095Y-71410380D02*
X125698095Y-70410380D01*
X125698095Y-70410380D02*
X126269523Y-71410380D01*
X126269523Y-71410380D02*
X126269523Y-70410380D01*
X126745714Y-71410380D02*
X126745714Y-70410380D01*
X126745714Y-70410380D02*
X126983809Y-70410380D01*
X126983809Y-70410380D02*
X127126666Y-70458000D01*
X127126666Y-70458000D02*
X127221904Y-70553238D01*
X127221904Y-70553238D02*
X127269523Y-70648476D01*
X127269523Y-70648476D02*
X127317142Y-70838952D01*
X127317142Y-70838952D02*
X127317142Y-70981809D01*
X127317142Y-70981809D02*
X127269523Y-71172285D01*
X127269523Y-71172285D02*
X127221904Y-71267523D01*
X127221904Y-71267523D02*
X127126666Y-71362761D01*
X127126666Y-71362761D02*
X126983809Y-71410380D01*
X126983809Y-71410380D02*
X126745714Y-71410380D01*
X143446476Y-116844666D02*
X143922666Y-116844666D01*
X143351238Y-117130380D02*
X143684571Y-116130380D01*
X143684571Y-116130380D02*
X144017904Y-117130380D01*
X144303619Y-116225619D02*
X144351238Y-116178000D01*
X144351238Y-116178000D02*
X144446476Y-116130380D01*
X144446476Y-116130380D02*
X144684571Y-116130380D01*
X144684571Y-116130380D02*
X144779809Y-116178000D01*
X144779809Y-116178000D02*
X144827428Y-116225619D01*
X144827428Y-116225619D02*
X144875047Y-116320857D01*
X144875047Y-116320857D02*
X144875047Y-116416095D01*
X144875047Y-116416095D02*
X144827428Y-116558952D01*
X144827428Y-116558952D02*
X144256000Y-117130380D01*
X144256000Y-117130380D02*
X144875047Y-117130380D01*
X124301238Y-73204380D02*
X124634571Y-74204380D01*
X124634571Y-74204380D02*
X124967904Y-73204380D01*
X125634571Y-73680571D02*
X125777428Y-73728190D01*
X125777428Y-73728190D02*
X125825047Y-73775809D01*
X125825047Y-73775809D02*
X125872666Y-73871047D01*
X125872666Y-73871047D02*
X125872666Y-74013904D01*
X125872666Y-74013904D02*
X125825047Y-74109142D01*
X125825047Y-74109142D02*
X125777428Y-74156761D01*
X125777428Y-74156761D02*
X125682190Y-74204380D01*
X125682190Y-74204380D02*
X125301238Y-74204380D01*
X125301238Y-74204380D02*
X125301238Y-73204380D01*
X125301238Y-73204380D02*
X125634571Y-73204380D01*
X125634571Y-73204380D02*
X125729809Y-73252000D01*
X125729809Y-73252000D02*
X125777428Y-73299619D01*
X125777428Y-73299619D02*
X125825047Y-73394857D01*
X125825047Y-73394857D02*
X125825047Y-73490095D01*
X125825047Y-73490095D02*
X125777428Y-73585333D01*
X125777428Y-73585333D02*
X125729809Y-73632952D01*
X125729809Y-73632952D02*
X125634571Y-73680571D01*
X125634571Y-73680571D02*
X125301238Y-73680571D01*
X126253619Y-73918666D02*
X126729809Y-73918666D01*
X126158381Y-74204380D02*
X126491714Y-73204380D01*
X126491714Y-73204380D02*
X126825047Y-74204380D01*
X127015524Y-73204380D02*
X127586952Y-73204380D01*
X127301238Y-74204380D02*
X127301238Y-73204380D01*
X124904476Y-68584666D02*
X125380666Y-68584666D01*
X124809238Y-68870380D02*
X125142571Y-67870380D01*
X125142571Y-67870380D02*
X125475904Y-68870380D01*
X125809238Y-68870380D02*
X125809238Y-67870380D01*
X125809238Y-67870380D02*
X126380666Y-68870380D01*
X126380666Y-68870380D02*
X126380666Y-67870380D01*
X127047333Y-67870380D02*
X127142571Y-67870380D01*
X127142571Y-67870380D02*
X127237809Y-67918000D01*
X127237809Y-67918000D02*
X127285428Y-67965619D01*
X127285428Y-67965619D02*
X127333047Y-68060857D01*
X127333047Y-68060857D02*
X127380666Y-68251333D01*
X127380666Y-68251333D02*
X127380666Y-68489428D01*
X127380666Y-68489428D02*
X127333047Y-68679904D01*
X127333047Y-68679904D02*
X127285428Y-68775142D01*
X127285428Y-68775142D02*
X127237809Y-68822761D01*
X127237809Y-68822761D02*
X127142571Y-68870380D01*
X127142571Y-68870380D02*
X127047333Y-68870380D01*
X127047333Y-68870380D02*
X126952095Y-68822761D01*
X126952095Y-68822761D02*
X126904476Y-68775142D01*
X126904476Y-68775142D02*
X126856857Y-68679904D01*
X126856857Y-68679904D02*
X126809238Y-68489428D01*
X126809238Y-68489428D02*
X126809238Y-68251333D01*
X126809238Y-68251333D02*
X126856857Y-68060857D01*
X126856857Y-68060857D02*
X126904476Y-67965619D01*
X126904476Y-67965619D02*
X126952095Y-67918000D01*
X126952095Y-67918000D02*
X127047333Y-67870380D01*
X134556476Y-71124666D02*
X135032666Y-71124666D01*
X134461238Y-71410380D02*
X134794571Y-70410380D01*
X134794571Y-70410380D02*
X135127904Y-71410380D01*
X135461238Y-71410380D02*
X135461238Y-70410380D01*
X135461238Y-70410380D02*
X136032666Y-71410380D01*
X136032666Y-71410380D02*
X136032666Y-70410380D01*
X136461238Y-70505619D02*
X136508857Y-70458000D01*
X136508857Y-70458000D02*
X136604095Y-70410380D01*
X136604095Y-70410380D02*
X136842190Y-70410380D01*
X136842190Y-70410380D02*
X136937428Y-70458000D01*
X136937428Y-70458000D02*
X136985047Y-70505619D01*
X136985047Y-70505619D02*
X137032666Y-70600857D01*
X137032666Y-70600857D02*
X137032666Y-70696095D01*
X137032666Y-70696095D02*
X136985047Y-70838952D01*
X136985047Y-70838952D02*
X136413619Y-71410380D01*
X136413619Y-71410380D02*
X137032666Y-71410380D01*
X134913133Y-140394106D02*
X134913133Y-139394106D01*
X134913133Y-139394106D02*
X135151228Y-139394106D01*
X135151228Y-139394106D02*
X135294085Y-139441726D01*
X135294085Y-139441726D02*
X135389323Y-139536964D01*
X135389323Y-139536964D02*
X135436942Y-139632202D01*
X135436942Y-139632202D02*
X135484561Y-139822678D01*
X135484561Y-139822678D02*
X135484561Y-139965535D01*
X135484561Y-139965535D02*
X135436942Y-140156011D01*
X135436942Y-140156011D02*
X135389323Y-140251249D01*
X135389323Y-140251249D02*
X135294085Y-140346487D01*
X135294085Y-140346487D02*
X135151228Y-140394106D01*
X135151228Y-140394106D02*
X134913133Y-140394106D01*
X136341704Y-139394106D02*
X136151228Y-139394106D01*
X136151228Y-139394106D02*
X136055990Y-139441726D01*
X136055990Y-139441726D02*
X136008371Y-139489345D01*
X136008371Y-139489345D02*
X135913133Y-139632202D01*
X135913133Y-139632202D02*
X135865514Y-139822678D01*
X135865514Y-139822678D02*
X135865514Y-140203630D01*
X135865514Y-140203630D02*
X135913133Y-140298868D01*
X135913133Y-140298868D02*
X135960752Y-140346487D01*
X135960752Y-140346487D02*
X136055990Y-140394106D01*
X136055990Y-140394106D02*
X136246466Y-140394106D01*
X136246466Y-140394106D02*
X136341704Y-140346487D01*
X136341704Y-140346487D02*
X136389323Y-140298868D01*
X136389323Y-140298868D02*
X136436942Y-140203630D01*
X136436942Y-140203630D02*
X136436942Y-139965535D01*
X136436942Y-139965535D02*
X136389323Y-139870297D01*
X136389323Y-139870297D02*
X136341704Y-139822678D01*
X136341704Y-139822678D02*
X136246466Y-139775059D01*
X136246466Y-139775059D02*
X136055990Y-139775059D01*
X136055990Y-139775059D02*
X135960752Y-139822678D01*
X135960752Y-139822678D02*
X135913133Y-139870297D01*
X135913133Y-139870297D02*
X135865514Y-139965535D01*
X143255904Y-80618000D02*
X143160666Y-80570380D01*
X143160666Y-80570380D02*
X143017809Y-80570380D01*
X143017809Y-80570380D02*
X142874952Y-80618000D01*
X142874952Y-80618000D02*
X142779714Y-80713238D01*
X142779714Y-80713238D02*
X142732095Y-80808476D01*
X142732095Y-80808476D02*
X142684476Y-80998952D01*
X142684476Y-80998952D02*
X142684476Y-81141809D01*
X142684476Y-81141809D02*
X142732095Y-81332285D01*
X142732095Y-81332285D02*
X142779714Y-81427523D01*
X142779714Y-81427523D02*
X142874952Y-81522761D01*
X142874952Y-81522761D02*
X143017809Y-81570380D01*
X143017809Y-81570380D02*
X143113047Y-81570380D01*
X143113047Y-81570380D02*
X143255904Y-81522761D01*
X143255904Y-81522761D02*
X143303523Y-81475142D01*
X143303523Y-81475142D02*
X143303523Y-81141809D01*
X143303523Y-81141809D02*
X143113047Y-81141809D01*
X143732095Y-81570380D02*
X143732095Y-80570380D01*
X143732095Y-80570380D02*
X144303523Y-81570380D01*
X144303523Y-81570380D02*
X144303523Y-80570380D01*
X144779714Y-81570380D02*
X144779714Y-80570380D01*
X144779714Y-80570380D02*
X145017809Y-80570380D01*
X145017809Y-80570380D02*
X145160666Y-80618000D01*
X145160666Y-80618000D02*
X145255904Y-80713238D01*
X145255904Y-80713238D02*
X145303523Y-80808476D01*
X145303523Y-80808476D02*
X145351142Y-80998952D01*
X145351142Y-80998952D02*
X145351142Y-81141809D01*
X145351142Y-81141809D02*
X145303523Y-81332285D01*
X145303523Y-81332285D02*
X145255904Y-81427523D01*
X145255904Y-81427523D02*
X145160666Y-81522761D01*
X145160666Y-81522761D02*
X145017809Y-81570380D01*
X145017809Y-81570380D02*
X144779714Y-81570380D01*
X125721514Y-140108392D02*
X126197704Y-140108392D01*
X125626276Y-140394106D02*
X125959609Y-139394106D01*
X125959609Y-139394106D02*
X126292942Y-140394106D01*
X126578657Y-139489345D02*
X126626276Y-139441726D01*
X126626276Y-139441726D02*
X126721514Y-139394106D01*
X126721514Y-139394106D02*
X126959609Y-139394106D01*
X126959609Y-139394106D02*
X127054847Y-139441726D01*
X127054847Y-139441726D02*
X127102466Y-139489345D01*
X127102466Y-139489345D02*
X127150085Y-139584583D01*
X127150085Y-139584583D02*
X127150085Y-139679821D01*
X127150085Y-139679821D02*
X127102466Y-139822678D01*
X127102466Y-139822678D02*
X126531038Y-140394106D01*
X126531038Y-140394106D02*
X127150085Y-140394106D01*
D11*
%TO.C,J4*%
X128591000Y-66996000D02*
X128591000Y-74736000D01*
X128591000Y-66996000D02*
X131191000Y-66996000D01*
X128591000Y-74736000D02*
X133791000Y-74736000D01*
X131191000Y-66996000D02*
X131191000Y-69596000D01*
X131191000Y-69596000D02*
X133791000Y-69596000D01*
X132461000Y-66996000D02*
X133791000Y-66996000D01*
X133791000Y-66996000D02*
X133791000Y-68326000D01*
X133791000Y-69596000D02*
X133791000Y-74736000D01*
%TO.C,J6*%
X146141200Y-135612000D02*
X158361200Y-135612000D01*
X155061200Y-135612000D02*
X155061200Y-72432000D01*
X156861200Y-135612000D02*
X155061200Y-135612000D01*
X158361200Y-135612000D02*
X158361200Y-72432000D01*
X158361200Y-132962000D02*
X158361200Y-130962000D01*
X156861200Y-132712000D02*
X158361200Y-132962000D01*
X145341200Y-132262000D02*
X145341200Y-131662000D01*
X145941200Y-131962000D02*
X145341200Y-132262000D01*
X145341200Y-131662000D02*
X145941200Y-131962000D01*
X156861200Y-131212000D02*
X156861200Y-132712000D01*
X158361200Y-130962000D02*
X156861200Y-131212000D01*
X158361200Y-127882000D02*
X158361200Y-125882000D01*
X156861200Y-127632000D02*
X158361200Y-127882000D01*
X156861200Y-126132000D02*
X156861200Y-127632000D01*
X158361200Y-125882000D02*
X156861200Y-126132000D01*
X158361200Y-122802000D02*
X158361200Y-120802000D01*
X156861200Y-122552000D02*
X158361200Y-122802000D01*
X156861200Y-121052000D02*
X156861200Y-122552000D01*
X158361200Y-120802000D02*
X156861200Y-121052000D01*
X158361200Y-117722000D02*
X158361200Y-115722000D01*
X156861200Y-117472000D02*
X158361200Y-117722000D01*
X156861200Y-115972000D02*
X156861200Y-117472000D01*
X158361200Y-115722000D02*
X156861200Y-115972000D01*
X158361200Y-112642000D02*
X158361200Y-110642000D01*
X156861200Y-112392000D02*
X158361200Y-112642000D01*
X156861200Y-110892000D02*
X156861200Y-112392000D01*
X158361200Y-110642000D02*
X156861200Y-110892000D01*
X158361200Y-107562000D02*
X158361200Y-105562000D01*
X156861200Y-107312000D02*
X158361200Y-107562000D01*
X156861200Y-105812000D02*
X156861200Y-107312000D01*
X158361200Y-105562000D02*
X156861200Y-105812000D01*
X158361200Y-102482000D02*
X158361200Y-100482000D01*
X156861200Y-102232000D02*
X158361200Y-102482000D01*
X156861200Y-100732000D02*
X156861200Y-102232000D01*
X158361200Y-100482000D02*
X156861200Y-100732000D01*
X158361200Y-97402000D02*
X158361200Y-95402000D01*
X156861200Y-97152000D02*
X158361200Y-97402000D01*
X156861200Y-95652000D02*
X156861200Y-97152000D01*
X158361200Y-95402000D02*
X156861200Y-95652000D01*
X158361200Y-92322000D02*
X158361200Y-90322000D01*
X156861200Y-92072000D02*
X158361200Y-92322000D01*
X156861200Y-90572000D02*
X156861200Y-92072000D01*
X158361200Y-90322000D02*
X156861200Y-90572000D01*
X158361200Y-87242000D02*
X158361200Y-85242000D01*
X156861200Y-86992000D02*
X158361200Y-87242000D01*
X156861200Y-85492000D02*
X156861200Y-86992000D01*
X158361200Y-85242000D02*
X156861200Y-85492000D01*
X158361200Y-82162000D02*
X158361200Y-80162000D01*
X156861200Y-81912000D02*
X158361200Y-82162000D01*
X156861200Y-80412000D02*
X156861200Y-81912000D01*
X158361200Y-80162000D02*
X156861200Y-80412000D01*
X158361200Y-77082000D02*
X158361200Y-75082000D01*
X156861200Y-76832000D02*
X158361200Y-77082000D01*
X156861200Y-75332000D02*
X156861200Y-76832000D01*
X158361200Y-75082000D02*
X156861200Y-75332000D01*
X146141200Y-72432000D02*
X146141200Y-135612000D01*
X155061200Y-72432000D02*
X156861200Y-72432000D01*
X156861200Y-72432000D02*
X156861200Y-135612000D01*
X158361200Y-72432000D02*
X146141200Y-72432000D01*
%TO.C,J3*%
X128591000Y-135830000D02*
X128591000Y-143570000D01*
X128591000Y-135830000D02*
X131191000Y-135830000D01*
X128591000Y-143570000D02*
X133791000Y-143570000D01*
X131191000Y-135830000D02*
X131191000Y-138430000D01*
X131191000Y-138430000D02*
X133791000Y-138430000D01*
X132461000Y-135830000D02*
X133791000Y-135830000D01*
X133791000Y-135830000D02*
X133791000Y-137160000D01*
X133791000Y-138430000D02*
X133791000Y-143570000D01*
%TD*%
M02*
