%TF.GenerationSoftware,KiCad,Pcbnew,(7.0.0)*%
%TF.CreationDate,2023-12-04T19:23:21-08:00*%
%TF.ProjectId,Bottom_Board,426f7474-6f6d-45f4-926f-6172642e6b69,0*%
%TF.SameCoordinates,Original*%
%TF.FileFunction,Soldermask,Top*%
%TF.FilePolarity,Negative*%
%FSLAX46Y46*%
G04 Gerber Fmt 4.6, Leading zero omitted, Abs format (unit mm)*
G04 Created by KiCad (PCBNEW (7.0.0)) date 2023-12-04 19:23:21*
%MOMM*%
%LPD*%
G01*
G04 APERTURE LIST*
%ADD10R,2.000000X2.000000*%
%ADD11C,2.000000*%
%ADD12C,3.000000*%
%ADD13C,1.700000*%
%ADD14O,1.700000X1.700000*%
%ADD15C,2.880000*%
%ADD16C,1.440000*%
%ADD17R,1.600000X1.600000*%
%ADD18O,1.600000X1.600000*%
%ADD19R,1.700000X1.700000*%
G04 APERTURE END LIST*
D10*
%TO.C,C2*%
X149270322Y-127507999D03*
D11*
X144270323Y-127508000D03*
%TD*%
D12*
%TO.C,J5*%
X163220000Y-126786000D03*
X163220000Y-134286000D03*
X163220000Y-141786000D03*
X160720000Y-129286000D03*
X160720000Y-139286000D03*
X172720000Y-129286000D03*
X172720000Y-139286000D03*
%TD*%
D10*
%TO.C,C3*%
X149351999Y-139445999D03*
D11*
X144352000Y-139446000D03*
%TD*%
D13*
%TO.C,J2*%
X123698000Y-68326000D03*
D14*
X121157999Y-68325999D03*
X123697999Y-70865999D03*
X121157999Y-70865999D03*
X123697999Y-73405999D03*
X121157999Y-73405999D03*
%TD*%
D15*
%TO.C,J3*%
X166250125Y-118364000D03*
X166250125Y-113284000D03*
X166250125Y-108204000D03*
X166250125Y-103124000D03*
X166250125Y-98044000D03*
X166250125Y-92964000D03*
%TD*%
D12*
%TO.C,TP1*%
X131572000Y-123190000D03*
%TD*%
D13*
%TO.C,J1*%
X123698000Y-137160000D03*
D14*
X121157999Y-137159999D03*
X123697999Y-139699999D03*
X121157999Y-139699999D03*
X123697999Y-142239999D03*
X121157999Y-142239999D03*
%TD*%
D16*
%TO.C,RV2*%
X150070000Y-115824000D03*
X152610000Y-113284000D03*
X150070000Y-110744000D03*
%TD*%
D17*
%TO.C,SW2*%
X163956999Y-76933229D03*
D18*
X163956999Y-79473229D03*
X163956999Y-82013229D03*
X163956999Y-84553229D03*
X171576999Y-84553229D03*
X171576999Y-82013229D03*
X171576999Y-79473229D03*
X171576999Y-76933229D03*
%TD*%
D12*
%TO.C,TP2*%
X131318000Y-80010000D03*
%TD*%
D16*
%TO.C,RV1*%
X150114000Y-104140000D03*
X152654000Y-101600000D03*
X150114000Y-99060000D03*
%TD*%
D19*
%TO.C,JP1*%
X135381999Y-115798599D03*
D14*
X135381999Y-113258599D03*
X135381999Y-110718599D03*
%TD*%
M02*
